<?xml version="1.0" standalone="no"?>
<!DOCTYPE svg PUBLIC "-//W3C//DTD SVG 1.1//EN" "http://www.w3.org/Graphics/SVG/1.1/DTD/svg11.dtd" >
<svg xmlns="http://www.w3.org/2000/svg" xmlns:xlink="http://www.w3.org/1999/xlink" version="1.1">
<metadata>
Created by FontForge 20170731 at Mon Nov  2 06:35:03 2020
 By Aleksey,,,
Copyright (c) 2020 by Ellen Luff &#38; Tom Anders Watkins. All rights reserved.
</metadata>
<defs>
<font id="Jeko-Regular" horiz-adv-x="620" >
  <font-face 
    font-family="Jeko-Regular"
    font-weight="400"
    font-stretch="normal"
    units-per-em="1000"
    panose-1="0 0 5 0 0 0 0 0 0 0"
    ascent="761"
    descent="-239"
    x-height="530"
    cap-height="700"
    bbox="-499 -243 1151 937"
    underline-thickness="50"
    underline-position="-150"
    unicode-range="U+0020-FB01"
  />
<missing-glyph horiz-adv-x="505" 
d="M94 -210v1010h320v-1010h-320zM336 -3v114h-167v-114h167zM169 -26v-34h70l-70 -47v-33h167v33h-103l71 47h32v34h-167zM336 172v114h-101v-57h35v24h33v-48h-101v81h-33v-114h167zM169 602v-105h167v34h-66v71h-101zM336 628v34h-66v37h66v33h-166v-33h65v-37h-66v-34
h167zM169 399v-33h101v70h66v34h-167v-34h66v-37h-66zM169 342v-34h167v101h-33v-67h-134zM202 78h101v-48h-101v48zM202 568h33v-37h-33v37z" />
    <glyph glyph-name="fi" unicode="fi" horiz-adv-x="561" 
d="M512 530v-530h-70v468h-228l1 -468h-69l-2 468h-119v62h119v19q0 76 50.5 121t128 46t169.5 -38l-28 -51q-65 32 -123.5 32.5t-93.5 -30t-35 -83.5v-16h300z" />
    <glyph glyph-name="f_f" unicode="ff" horiz-adv-x="777" 
d="M756 645q-53 12 -95 10.5t-67.5 -28.5t-25.5 -79v-18h181v-62h-179l1 -468h-70l-1 468h-286l1 -468h-69l-2 468h-119v62h119v19q0 105 71.5 142.5t184.5 9.5v-56q-53 12 -95 10.5t-67.5 -28.5t-25.5 -79v-18h288v19q0 105 71.5 142.5t184.5 9.5v-56z" />
    <glyph glyph-name="f_f_i" unicode="ffi" horiz-adv-x="863" 
d="M814 530v-530h-70v468h-210v-468h-69l-1 468h-249v-468h-70v468h-120v62h120v19q0 55 29 94t74 55t102.5 10.5t111.5 -33.5l-29 -51q-75 47 -147.5 23.5t-72.5 -101.5v-16h251v19q0 56 27.5 95t73 56t106 13t124.5 -31l-29 -51q-94 43 -164 18.5t-70 -103.5v-16h282z" />
    <glyph glyph-name=".notdef" horiz-adv-x="505" 
d="M94 -210v1010h320v-1010h-320zM336 -3v114h-167v-114h167zM169 -26v-34h70l-70 -47v-33h167v33h-103l71 47h32v34h-167zM336 172v114h-101v-57h35v24h33v-48h-101v81h-33v-114h167zM169 602v-105h167v34h-66v71h-101zM336 628v34h-66v37h66v33h-166v-33h65v-37h-66v-34
h167zM169 399v-33h101v70h66v34h-167v-34h66v-37h-66zM169 342v-34h167v101h-33v-67h-134zM202 78h101v-48h-101v48zM202 568h33v-37h-33v37z" />
    <glyph glyph-name=".null" horiz-adv-x="0" 
 />
    <glyph glyph-name="uni000D" horiz-adv-x="333" 
 />
    <glyph glyph-name="space" unicode=" " horiz-adv-x="272" 
 />
    <glyph glyph-name="exclam" unicode="!" horiz-adv-x="196" 
d="M58 700h82l-8 -304l-10 -206h-46l-10 207zM61 81q15 15 37 15t37 -15t15 -37t-15 -36q-15 -15 -37 -15t-37 14.5t-15 36.5t15 37z" />
    <glyph glyph-name="quotedbl" unicode="&#x22;" horiz-adv-x="291" 
d="M44 700h74l-8 -214h-56zM174 700h73l-8 -214h-55z" />
    <glyph glyph-name="numbersign" unicode="#" horiz-adv-x="838" 
d="M62 255h172l62 193h-180l18 56h180l63 196h58l-63 -196h196l63 196h58l-63 -196h168l-18 -56h-168l-62 -193h176l-18 -56h-176l-64 -199h-58l64 199h-196l-64 -199h-58l64 199h-172zM292 255h196l62 193h-196z" />
    <glyph glyph-name="dollar" unicode="$" 
d="M113 236q3 -84 51 -126.5t124 -50.5v267q-232 44 -232 188q0 80 66 135t166 59v72h49v-73q102 -9 169 -66t70 -156l-71 1q-4 74 -51 111t-117 45v-261q239 -36 239 -195q0 -87 -64 -139t-175 -55v-82h-49v84q-107 10 -176 69.5t-69 172.5h70zM337 314v-258q78 2 124 36
t46 93q0 55 -44.5 84.5t-125.5 44.5zM124 516q0 -94 164 -125v253q-76 -3 -120 -40.5t-44 -87.5z" />
    <glyph glyph-name="percent" unicode="%" horiz-adv-x="703" 
d="M90 670q42 42 101 42t101.5 -42t42.5 -102q0 -59 -42.5 -101t-101.5 -42q-60 0 -102 42t-42 101q0 60 43 102zM368 133q0 60 42.5 102t101.5 42t101.5 -42t42.5 -102q0 -59 -42.5 -101t-101.5 -42q-60 0 -102 42t-42 101zM71 0l524 700h60l-524 -700h-60zM96 567
q0 -39 28 -66q27 -28 67 -28t67.5 27.5t27.5 66.5q0 41 -27.5 69t-67.5 28t-67.5 -28t-27.5 -69zM445 67q27 -28 67 -28t67 27.5t27 66.5q0 40 -27 68t-67 28t-67.5 -28t-27.5 -68q0 -39 28 -66z" />
    <glyph glyph-name="ampersand" unicode="&#x26;" horiz-adv-x="705" 
d="M62 233q14 29 40.5 51t50 35.5t57.5 28.5l-6 6q-94 92 -94 182q0 76 55.5 125.5t144.5 49.5q88 0 139.5 -47.5t51.5 -115.5q0 -120 -189 -211l150 -147v1l122 181h74q-106 -167 -150 -227l148 -145l-88 -1l-100 97q-93 -104 -208 -104q-95 0 -153.5 50t-58.5 126
q0 36 14 65zM158 87q40 -34 103 -34q87 0 162 87l-174 170q-132 -57 -132 -141q0 -48 41 -82zM180 539q0 -65 95 -164q74 39 116 84t42 89t-33.5 73.5t-89.5 29.5q-55 0 -92.5 -30.5t-37.5 -81.5z" />
    <glyph glyph-name="quotesingle" unicode="'" horiz-adv-x="162" 
d="M50 491l-7 209h73l-12 -209h-54z" />
    <glyph glyph-name="parenleft" unicode="(" horiz-adv-x="305" 
d="M96 549q48 114 116 182l57 -1q-60 -60 -110 -178.5t-50 -243.5q0 -124 49 -241.5t110 -180.5h-57q-68 69 -115.5 183t-47.5 239q0 126 48 241z" />
    <glyph glyph-name="parenright" unicode=")" horiz-adv-x="309" 
d="M38 -114q60 61 109.5 179.5t49.5 243.5q0 124 -49 241.5t-109 180.5h57q68 -69 115.5 -183t47.5 -239q0 -126 -48 -240.5t-117 -182.5h-56z" />
    <glyph glyph-name="asterisk" unicode="*" horiz-adv-x="427" 
d="M184 326l18 167l-136 -98l-29 50l153 68l-154 69l30 50l136 -99l-18 167h59l-18 -167l137 99l28 -51l-153 -68l154 -69l-29 -50l-137 99l18 -167h-59z" />
    <glyph glyph-name="plus" unicode="+" horiz-adv-x="536" 
d="M238 315v180h64v-180h183l1 -64h-184v-179l-64 -1v180h-184v64h184z" />
    <glyph glyph-name="comma" unicode="," horiz-adv-x="175" 
d="M14 -114l52 220h74l-72 -220h-54z" />
    <glyph glyph-name="hyphen" unicode="-" horiz-adv-x="449" 
d="M43 254v64h363v-64h-363z" />
    <glyph glyph-name="period" unicode="." horiz-adv-x="184" 
d="M38 46q0 23 15.5 38t38.5 15t38.5 -15.5t15.5 -37.5q0 -23 -15 -38q-16 -16 -39 -16t-38.5 15.5t-15.5 38.5z" />
    <glyph glyph-name="slash" unicode="/" horiz-adv-x="407" 
d="M33 0l271 700h70l-271 -700h-70z" />
    <glyph glyph-name="zero" unicode="0" horiz-adv-x="635" 
d="M116 609q75 100 201 100t201.5 -100.5t75.5 -258.5t-75.5 -258t-201.5 -100q-127 0 -201.5 99t-74.5 258t75 260zM111 349q0 -126 56.5 -207.5t149.5 -81.5q94 0 150.5 82.5t56.5 207.5t-57 208t-150 83q-94 0 -150 -83t-56 -209z" />
    <glyph glyph-name="one" unicode="1" horiz-adv-x="381" 
d="M250 0v633h-209v67h279v-700h-70z" />
    <glyph glyph-name="two" unicode="2" horiz-adv-x="566" 
d="M51 491q7 101 72.5 159.5t160.5 58.5q89 0 153 -52.5t64 -148.5q0 -47 -22.5 -89.5t-72.5 -97.5l-230 -253h340l-1 -68h-448v49l287 315q25 27 38.5 44.5t26 44.5t12.5 53v3q0 60 -41.5 98t-105.5 38q-68 0 -112 -42.5t-51 -111.5h-70z" />
    <glyph glyph-name="three" unicode="3" horiz-adv-x="575" 
d="M114 210q7 -69 55.5 -111.5t117.5 -42.5q75 0 122.5 43t47.5 112q0 84 -61.5 118.5t-130.5 34.5q-31 0 -65 -6l-26 35l250 240h-357v67h440v-78l-219 -210h8q98 0 164.5 -52t66.5 -147q0 -101 -69.5 -161t-170.5 -60q-96 0 -166.5 61.5t-77.5 156.5h71z" />
    <glyph glyph-name="four" unicode="4" horiz-adv-x="619" 
d="M39 205l306 495h122v-488h112v-62h-112v-150h-70v150l-358 -1v56zM397 212l-1 447l-281 -447h282z" />
    <glyph glyph-name="five" unicode="5" horiz-adv-x="589" 
d="M122 210q7 -66 58.5 -109t117.5 -43q74 0 123.5 51t50.5 124q0 74 -50.5 124.5t-125.5 50.5q-99 0 -159 -71h-70l10 363h439v-67h-372l-5 -232q64 69 171 69q98 -1 165 -70t67 -166q0 -103 -67.5 -172.5t-172.5 -69.5h-3q-94 0 -165 58.5t-83 159.5h71z" />
    <glyph glyph-name="six" unicode="6" horiz-adv-x="601" 
d="M121 609q72 100 194 100q91 0 154 -56.5t81 -138.5h-73q-13 53 -56 92t-108 39q-93 0 -145.5 -81.5t-52.5 -207.5l2 -47q16 68 73.5 112t135.5 44q99 -1 166.5 -70t67.5 -164q0 -100 -67 -169.5t-176 -69.5q-122 0 -195.5 93.5t-73.5 259.5q0 164 73 264zM139 230
q0 -74 50 -124t124 -50q75 0 125 49.5t50 124.5q0 72 -50.5 123t-124.5 51q-73 0 -123.5 -50.5t-50.5 -123.5z" />
    <glyph glyph-name="seven" unicode="7" horiz-adv-x="511" 
d="M408 633h-370v67h441l1 -75l-293 -625h-79z" />
    <glyph glyph-name="eight" unicode="8" horiz-adv-x="613" 
d="M84 304q38 45 102 64q-51 19 -88 59.5t-37 101.5q0 81 72 130.5t173 49.5q102 0 174 -49.5t72 -130.5q0 -61 -37 -101.5t-88 -59.5q64 -19 102 -64.5t38 -109.5q0 -86 -73 -143.5t-188 -57.5q-114 0 -187 57.5t-73 143.5q0 64 38 110zM173 94q54 -38 133 -38t134 38
t55 103q0 64 -51.5 104t-137.5 40q-85 0 -136.5 -40t-51.5 -104q0 -65 55 -103zM183 430q50 -38 123 -38q74 0 124 37.5t50 93.5q0 54 -50.5 88.5t-123.5 34.5t-123 -34.5t-50 -88.5q0 -56 50 -93z" />
    <glyph glyph-name="nine" unicode="9" horiz-adv-x="604" 
d="M47 470q0 99 69.5 169t174.5 70q120 0 193.5 -94.5t73.5 -257.5q0 -165 -71.5 -265t-194.5 -100q-93 0 -155 56.5t-81 138.5h72q15 -54 57.5 -92.5t106.5 -38.5q93 0 144.5 81t53.5 198q0 45 -2 56q-14 -66 -71 -110.5t-133 -44.5q-102 1 -169.5 69t-67.5 165zM117 471
q0 -72 52 -122q51 -51 123 -51t123 50t51 123q0 72 -51 123t-123 51t-123.5 -51t-51.5 -123z" />
    <glyph glyph-name="colon" unicode=":" horiz-adv-x="182" 
d="M54 81q15 15 37 15t37 -15t15 -37t-15 -36q-15 -15 -37 -15t-37 14.5t-15 36.5t15 37zM54 500q15 14 37 14t37 -14.5t15 -36.5t-15 -37t-37 -15t-37 15t-15 37t15 37z" />
    <glyph glyph-name="semicolon" unicode=";" horiz-adv-x="162" 
d="M49 94h73l-65 -193h-54zM23 464q0 22 14.5 36.5t36.5 14.5t37 -14.5t15 -36.5t-15 -37t-37 -15t-36.5 15t-14.5 37z" />
    <glyph glyph-name="less" unicode="&#x3c;" horiz-adv-x="586" 
d="M47 327l492 225v-70l-454 -206l454 -205v-70l-492 225v101z" />
    <glyph glyph-name="equal" unicode="=" horiz-adv-x="507" 
d="M459 224l1 -64h-413v64h412zM47 349v64h412l1 -63z" />
    <glyph glyph-name="greater" unicode="&#x3e;" horiz-adv-x="561" 
d="M514 327v-101l-467 -244v70l429 224l-429 225v70z" />
    <glyph glyph-name="question" unicode="?" horiz-adv-x="563" 
d="M122 651q67 58 161 58q92 0 155 -58.5t63 -148.5q0 -47 -20.5 -81t-50 -53.5t-58.5 -38t-50 -45.5t-21 -64l-1 -44h-68v59q0 41 20.5 71.5t50 50.5t59 38.5t50 46t20.5 63.5q0 58 -42 97.5t-107 40.5q-63 0 -109.5 -40t-52.5 -119h-70q4 108 71 167zM216 44q0 22 15.5 37
t37.5 15t37 -15t15 -37t-15 -37.5t-37 -15.5q-23 0 -38 15.5t-15 37.5z" />
    <glyph glyph-name="at" unicode="@" horiz-adv-x="884" 
d="M163 603q115 113 289 113q86 0 155 -23.5t111 -61t70 -87t39 -97t11 -96.5q0 -106 -44 -170t-114 -64q-76 0 -93 81q-25 -40 -66.5 -63.5t-92.5 -23.5q-86 0 -143.5 59.5t-57.5 145.5t58 146.5t143 60.5q49 0 89.5 -23t64.5 -62v78h56v-295q0 -31 17.5 -42.5t32.5 -11.5
q11 0 33 8t43 43q30 50 30 131q0 140 -89 232t-253 92q-157 0 -259.5 -100.5t-102.5 -253.5q0 -156 105 -260t268 -104q74 0 136 20l12 -40q-81 -23 -148 -23q-181 0 -298.5 117t-117.5 290q0 170 116 284zM283 316q0 -63 44 -107q43 -44 102 -44q2 0 33 0.5t74 44.5t44 106
q0 62 -43.5 107t-104.5 45q-63 0 -106 -44.5t-43 -107.5z" />
    <glyph glyph-name="A" unicode="A" horiz-adv-x="732" 
d="M304 700h126l264 -700h-76l-66 174h-372l-69 -174h-75zM529 240l-162 435l-164 -435h326z" />
    <glyph glyph-name="B" unicode="B" horiz-adv-x="634" 
d="M64 700h301q96 0 151 -48t55 -129q0 -60 -29 -103t-81 -60q134 -37 134 -171q0 -89 -59 -139t-162 -50h-310v700zM134 326v-260h237q71 0 111 34.5t40 98.5q0 66 -43.5 96.5t-114.5 30.5h-230zM357 386q66 0 105.5 34.5t39.5 93.5q0 56 -37 88t-102 32h-229v-248h223z
" />
    <glyph glyph-name="C" unicode="C" horiz-adv-x="753" 
d="M145 608q102 104 249 104q108 0 193 -60t126 -159l-70 -20q-33 77 -98.5 123.5t-150.5 46.5h-3q-117 0 -196.5 -83.5t-79.5 -205.5q0 -120 79.5 -204t199.5 -84q86 0 151.5 45.5t97.5 122.5l70 -19q-40 -98 -125 -158t-194 -60q-148 0 -249.5 104.5t-101.5 252.5
q0 149 102 254z" />
    <glyph glyph-name="D" unicode="D" horiz-adv-x="681" 
d="M56 0v700h226q151 0 254 -100t104 -250q0 -150 -102.5 -250t-255.5 -100h-226zM129 67h153q125 0 205.5 80.5t80.5 202.5q0 123 -81 203t-205 80h-153v-566z" />
    <glyph glyph-name="E" unicode="E" horiz-adv-x="603" 
d="M548 700v-67h-415v-250h375v-65h-375v-251h415v-67h-487v700h487z" />
    <glyph glyph-name="F" unicode="F" horiz-adv-x="583" 
d="M548 700v-67h-415v-250h375v-66h-375v-317h-72v700h487z" />
    <glyph glyph-name="G" unicode="G" horiz-adv-x="765" 
d="M143 603q102 105 249 105q109 0 193 -60.5t124 -161.5l-71 -15q-32 77 -96.5 122t-149.5 45q-119 0 -199 -83.5t-80 -204.5q0 -120 80 -204t199 -84q106 0 176 67.5t84 175.5l-261 -1l-1 63h334v-23q0 -150 -93 -250.5t-239 -100.5q-148 0 -249.5 104t-101.5 253
q0 148 102 253z" />
    <glyph glyph-name="H" unicode="H" horiz-adv-x="683" 
d="M133 700v-317h417v317h72v-700h-72v317h-417v-317h-72v700h72z" />
    <glyph glyph-name="I" unicode="I" horiz-adv-x="202" 
d="M65 0v700h72v-700h-72z" />
    <glyph glyph-name="J" unicode="J" horiz-adv-x="594" 
d="M44 237h72q1 -77 53 -126.5t125 -49.5q174 0 174 236v336h-353v67h425v-411q0 -136 -64 -216t-182 -80q-105 0 -177.5 68.5t-72.5 172.5v3z" />
    <glyph glyph-name="K" unicode="K" horiz-adv-x="637" 
d="M61 0v700h73v-422l383 422h90l-292 -320l302 -380h-90l-260 326l-133 -145v-181h-73z" />
    <glyph glyph-name="L" unicode="L" horiz-adv-x="539" 
d="M61 0v700h72v-633h367v-67h-439z" />
    <glyph glyph-name="M" unicode="M" horiz-adv-x="873" 
d="M194 700l242 -675l242 675h134v-700h-70v670l-240 -670h-133l-238 667v-667h-70v700h133z" />
    <glyph glyph-name="N" unicode="N" horiz-adv-x="705" 
d="M202 700l366 -668v668h71v-700h-136l-369 674v-674h-70v700h138z" />
    <glyph glyph-name="O" unicode="O" horiz-adv-x="788" 
d="M145 603q102 105 249 105q146 0 248.5 -104.5t102.5 -253.5v-3q0 -146 -102 -250t-249 -104q-148 0 -249.5 104t-101.5 253q0 148 102 253zM115 350q0 -120 79.5 -204.5t199.5 -84.5q119 0 199 84t80 205t-80 205.5t-199 84.5q-118 0 -198.5 -84.5t-80.5 -205.5z" />
    <glyph glyph-name="P" unicode="P" horiz-adv-x="616" 
d="M61 0v700h300q99 0 158 -64t59 -159q0 -96 -59 -159.5t-158 -63.5h-227v-254h-73zM134 320h223q72 0 111.5 45t39.5 114q0 68 -39.5 111.5t-111.5 43.5h-223v-314z" />
    <glyph glyph-name="Q" unicode="Q" horiz-adv-x="785" 
d="M139 603q102 105 249 105q146 0 248.5 -104.5t102.5 -253.5q0 -148 -99 -250l97 -100h-81l-60 61q-93 -69 -208 -69q-148 0 -250 104.5t-102 253.5q0 148 103 253zM189 145q79 -85 199 -85q91 0 160 52l-182 183h81l144 -143q76 82 76 198q0 120 -80.5 205t-198.5 85
q-119 0 -199 -84.5t-80 -205.5q0 -120 80 -205z" />
    <glyph glyph-name="R" unicode="R" horiz-adv-x="621" 
d="M61 0v700h300q98 0 157.5 -63t59.5 -153q0 -81 -48 -136.5t-121 -69.5l176 -278h-82l-172 271h-198v-271h-72zM348 334q70 0 115 41t45 110q0 63 -39 106t-108 43h-228v-300h215z" />
    <glyph glyph-name="S" unicode="S" 
d="M127 657q79 52 182 52q142 0 252 -87v-80q-114 100 -252 100q-74 0 -132 -33.5t-58 -93.5q0 -20 7 -35.5t24 -28t33 -21.5t46.5 -18t51.5 -14.5t60 -14.5q130 -29 183.5 -78t54.5 -121q0 -63 -37.5 -108t-93 -64.5t-119.5 -19.5h-6q-153 1 -273 112v79q131 -123 277 -123
q75 0 128 31.5t53 90.5q0 52 -47.5 85.5t-160.5 59.5q-132 29 -192 70.5t-60 116.5q0 91 79 143z" />
    <glyph glyph-name="T" unicode="T" horiz-adv-x="619" 
d="M32 700h555v-67h-238v-633h-72v633h-245v67z" />
    <glyph glyph-name="U" unicode="U" horiz-adv-x="685" 
d="M56 700h73v-416q0 -107 64 -165t149 -58q86 0 150 58t64 165v416h72v-416q0 -138 -83 -215t-203 -77q-76 0 -139.5 31.5t-105 99.5t-41.5 161v416z" />
    <glyph glyph-name="V" unicode="V" horiz-adv-x="700" 
d="M29 700h80l239 -671l243 671h78l-257 -700h-127z" />
    <glyph glyph-name="W" unicode="W" horiz-adv-x="975" 
d="M34 700h75l149 -667l171 667h120l168 -666l149 666h75l-165 -700h-123l-164 672l-172 -672h-121z" />
    <glyph glyph-name="X" unicode="X" horiz-adv-x="689" 
d="M47 0l231 350l-231 350h82l215 -322l216 322h82l-231 -350l231 -350h-82l-216 322l-215 -322h-82z" />
    <glyph glyph-name="Y" unicode="Y" horiz-adv-x="653" 
d="M28 700h79l220 -384l220 384h78l-261 -462v-238h-72v237z" />
    <glyph glyph-name="Z" unicode="Z" horiz-adv-x="614" 
d="M51 74l423 559h-422v67h511v-63l-433 -570h424v-67h-503v74z" />
    <glyph glyph-name="bracketleft" unicode="[" horiz-adv-x="386" 
d="M348 751v-55h-237v-771h237v-55h-300v881h300z" />
    <glyph glyph-name="backslash" unicode="\" horiz-adv-x="407" 
d="M304 0l-271 700h70l271 -700h-70z" />
    <glyph glyph-name="bracketright" unicode="]" horiz-adv-x="386" 
d="M338 751v-881h-300v55h237v771h-237v55h300z" />
    <glyph glyph-name="asciicircum" unicode="^" horiz-adv-x="520" 
d="M214 700h97l161 -318h-66l-143 282l-149 -282h-67z" />
    <glyph glyph-name="underscore" unicode="_" horiz-adv-x="601" 
d="M41 -62v62h518v-62h-518z" />
    <glyph glyph-name="a" unicode="a" horiz-adv-x="644" 
d="M119 459q78 80 189 80q67 0 122 -32.5t86 -86.5v110h70v-530h-70v110q-31 -54 -86 -86t-122 -32q-111 0 -189 80.5t-78 193.5t78 193zM108 266q0 -88 60 -149t146 -61q85 0 145.5 62t60.5 148t-60.5 147.5t-145.5 61.5q-86 0 -146 -61.5t-60 -147.5z" />
    <glyph glyph-name="b" unicode="b" horiz-adv-x="644" 
d="M58 0v700h70v-281q31 54 86 86.5t122 32.5h3q111 0 187.5 -79.5t76.5 -194.5q0 -113 -77 -193t-190 -80q-67 0 -122 32.5t-86 86.5v-110h-70zM124 264q0 -86 61 -147t146 -61t145 61t60 147q0 88 -60 149t-145 61q-86 0 -146.5 -61.5t-60.5 -148.5z" />
    <glyph glyph-name="c" unicode="c" horiz-adv-x="597" 
d="M121 459q79 80 191 80q84 0 151 -47t97 -123l-67 -14q-24 54 -72.5 87t-108.5 33q-85 0 -144.5 -61.5t-59.5 -147.5q0 -88 59.5 -149t144.5 -61q61 0 109 33t72 87l67 -15q-30 -76 -96.5 -122.5t-151.5 -46.5q-114 0 -192.5 81t-78.5 193q0 113 80 193z" />
    <glyph glyph-name="d" unicode="d" horiz-adv-x="644" 
d="M119 459q78 79 189 79q68 0 122.5 -32.5t85.5 -86.5v281h70v-700h-70v110q-31 -54 -85.5 -86.5t-122.5 -32.5q-111 0 -189 80.5t-78 192.5q0 115 78 195zM108 264q0 -86 60 -147t146 -61q85 0 145.5 61t60.5 147t-60.5 148t-145.5 62q-86 0 -146 -61t-60 -149z" />
    <glyph glyph-name="e" unicode="e" 
d="M121 459q79 80 191 80q103 0 178.5 -69t87.5 -170q4 -19 4 -35q0 -13 -3 -25h-468q7 -81 64 -132.5t137 -51.5q55 0 103 25.5t77 69.5l66 -13q-33 -66 -100.5 -106t-145.5 -40q-114 0 -192.5 80t-78.5 194q0 113 80 193zM111 297h398q-8 76 -63 127t-134 51
q-80 0 -136.5 -51t-64.5 -127z" />
    <glyph glyph-name="f" unicode="f" horiz-adv-x="421" 
d="M25 468v62h119v19q0 105 56 134.5t111 29.5q41 0 89 -12v-56q-47 11 -86 11q-4 0 -27.5 -1t-49 -28t-25.5 -79v-18h182v-62h-180l1 -468h-69l-2 468h-119z" />
    <glyph glyph-name="g" unicode="g" horiz-adv-x="642" 
d="M41 275q0 113 76.5 188.5t187.5 75.5h3q68 0 122.5 -31t85.5 -83v105h70v-470q0 -76 -23 -134t-61.5 -90.5t-82.5 -48.5t-92 -16q-90 0 -164 49t-94 142h70q18 -63 71.5 -94t115.5 -31q35 0 66.5 11t60 34.5t45.5 67.5t18 103v69q-31 -52 -85.5 -82.5t-122.5 -30.5
q-114 0 -190.5 76t-76.5 190zM108 275q0 -88 60 -145t146 -57q85 0 145.5 58t60.5 144q0 84 -60 142.5t-146 58.5q-87 0 -146.5 -58t-59.5 -143z" />
    <glyph glyph-name="h" unicode="h" horiz-adv-x="597" 
d="M58 700h70v-272q26 48 75.5 79.5t115.5 31.5q93 0 159 -60t66 -161v-318h-70v296q0 83 -48 130t-118 47q-78 0 -129 -57t-51 -146v-270h-70v700z" />
    <glyph glyph-name="i" unicode="i" horiz-adv-x="205" 
d="M138 530v-530h-70v530h70zM66 709q15 14 37 14q23 0 38 -14.5t15 -36.5t-15 -36.5t-38 -14.5q-22 0 -37 14.5t-15 36.5t15 37z" />
    <glyph glyph-name="j" unicode="j" horiz-adv-x="213" 
d="M-92 -203v63q40 -7 69 -7q40 0 70 18t30 92v567h70v-564q0 -110 -47.5 -144t-110.5 -34q-36 0 -81 9zM74 713q15 15 37 15t37.5 -15.5t15.5 -37.5q0 -23 -15 -38t-38 -15q-22 0 -37 15.5t-15 37.5t15 38z" />
    <glyph glyph-name="k" unicode="k" horiz-adv-x="548" 
d="M128 700v-487l298 317h86l-228 -240l238 -290h-84l-197 243l-113 -119v-124h-70v700h70z" />
    <glyph glyph-name="l" unicode="l" horiz-adv-x="195" 
d="M63 0v700h70v-700h-70z" />
    <glyph glyph-name="m" unicode="m" horiz-adv-x="907" 
d="M58 530h70v-97q22 46 65.5 76t102.5 30q60 0 107 -33t69 -95q24 59 75 93.5t114 34.5q84 0 141 -59t57 -162v-318h-70v298q0 84 -37.5 130.5t-101.5 46.5q-72 0 -113 -51.5t-43 -124.5v-299h-70v298q0 84 -38 130.5t-101 46.5q-74 0 -115.5 -54.5t-41.5 -130.5v-290h-70
v530z" />
    <glyph glyph-name="n" unicode="n" horiz-adv-x="594" 
d="M56 530h70v-102q26 48 75.5 79.5t115.5 31.5q93 0 159 -60t66 -161v-318h-70v296q0 83 -48 130t-118 47q-78 0 -129 -57t-51 -146v-270h-70v530z" />
    <glyph glyph-name="o" unicode="o" horiz-adv-x="623" 
d="M119 459q79 80 192 80q114 0 193 -80.5t79 -192.5q0 -113 -79 -193q-80 -81 -193 -81t-192 80t-79 194q0 113 79 193zM167 118q59 -61 144 -61q86 0 145.5 61t59.5 148t-59.5 147.5t-145.5 60.5t-145 -60.5t-59 -147.5q0 -88 60 -148z" />
    <glyph glyph-name="p" unicode="p" horiz-adv-x="642" 
d="M56 530h70v-108q32 53 86.5 85t121.5 32q111 0 189 -80.5t78 -192.5q0 -115 -77.5 -194.5t-189.5 -79.5q-67 0 -121.5 32t-86.5 86v-320h-70v740zM123 266q0 -87 60 -148q60 -62 146 -62t145.5 61t59.5 149q0 86 -59.5 147.5t-145.5 61.5q-85 0 -145.5 -61.5
t-60.5 -147.5z" />
    <glyph glyph-name="q" unicode="q" horiz-adv-x="642" 
d="M119 459q78 80 189 80q68 0 122 -31.5t86 -85.5v108h70v-740h-70v320q-32 -54 -86.5 -86t-121.5 -32q-111 0 -189 79.5t-78 194.5q0 112 78 193zM108 266q0 -88 60 -149t146 -61q85 0 145.5 62t60.5 148t-60.5 147.5t-145.5 61.5q-86 0 -146 -61.5t-60 -147.5z" />
    <glyph glyph-name="r" unicode="r" horiz-adv-x="377" 
d="M56 530h70v-112q26 64 75.5 90.5t102.5 26.5q22 0 46 -4v-73q-28 6 -53 6q-61 0 -116 -45.5t-55 -153.5v-265h-70v530z" />
    <glyph glyph-name="s" unicode="s" horiz-adv-x="512" 
d="M44 387q0 71 61 111.5t150 40.5q119 0 206 -66v-71q-104 76 -206 76q-57 0 -98 -24.5t-41 -65.5q0 -14 5 -25.5t18 -20t24.5 -14.5t36 -12.5t40.5 -10t49 -9.5q100 -22 144.5 -60t44.5 -94v-2q0 -71 -58.5 -109.5t-144.5 -38.5q-127 0 -229 83v78q37 -40 101.5 -69.5
t127.5 -29.5q55 0 93.5 25t38.5 63q0 70 -157 100q-106 20 -156 52.5t-50 92.5z" />
    <glyph glyph-name="t" unicode="t" horiz-adv-x="423" 
d="M142 530v144l69 21v-165h178v-62h-178v-306q0 -105 96 -105q34 0 81 13v-68q-49 -12 -89 -12q-56 0 -106.5 32t-50.5 139v307h-115v62h115z" />
    <glyph glyph-name="u" unicode="u" horiz-adv-x="594" 
d="M50 530h70v-296q0 -82 48.5 -129.5t117.5 -47.5q78 0 129 57t51 146v270h70v-530h-70v102q-26 -48 -75.5 -79.5t-115.5 -31.5q-92 0 -158.5 60t-66.5 161v318z" />
    <glyph glyph-name="v" unicode="v" horiz-adv-x="564" 
d="M25 530h75l183 -506l182 506h75l-196 -530h-123z" />
    <glyph glyph-name="w" unicode="w" horiz-adv-x="816" 
d="M26 530h73l133 -491l121 491h111l120 -492l133 492h73l-152 -530h-110l-120 492l-120 -492h-111z" />
    <glyph glyph-name="x" unicode="x" horiz-adv-x="547" 
d="M28 0l190 265l-190 265h79l167 -229l167 229h79l-189 -265l189 -265h-79l-167 229l-167 -229h-79z" />
    <glyph glyph-name="y" unicode="y" horiz-adv-x="559" 
d="M17 530h76l187 -444l177 444h76l-301 -740h-75l87 212z" />
    <glyph glyph-name="z" unicode="z" horiz-adv-x="508" 
d="M46 71l329 393h-328v66h414v-67l-332 -398h327v-65h-410v71z" />
    <glyph glyph-name="braceleft" unicode="{" horiz-adv-x="401" 
d="M85 352q14 0 26.5 5t19.5 8.5t13 17.5t8.5 23t4 35.5t1.5 44.5v62q0 108 42.5 157.5t127.5 49.5h35v-54h-35q-52 0 -81 -34t-29 -119q0 -124 -11 -172t-59 -62q48 -15 59 -63.5t11 -172.5q0 -153 114 -153h31v-54h-31q-174 0 -174 207v60q0 18 -1.5 45t-4 36t-8.5 24
t-13 18.5t-19.5 8.5t-27 5.5t-36.5 0.5v75q22 0 37 1z" />
    <glyph glyph-name="bar" unicode="|" horiz-adv-x="195" 
d="M66 -210v910h64v-910h-64z" />
    <glyph glyph-name="braceright" unicode="}" horiz-adv-x="401" 
d="M38 -75h31q114 0 114 153q0 124 11.5 172.5t59.5 62.5q-48 14 -59.5 62.5t-11.5 172.5q0 85 -29 119t-81 34h-35v54h35q85 0 127.5 -49.5t42.5 -157.5q0 -129 12 -162.5t63 -34.5h35v-75h-36q-50 -1 -62 -35t-12 -163q0 -207 -174 -207h-31v54z" />
    <glyph glyph-name="asciitilde" unicode="~" horiz-adv-x="500" 
d="M51 209q3 60 35.5 99t81.5 39q37 0 65.5 -21.5t52 -43t48.5 -21.5q61 0 63 90h53q-2 -64 -33.5 -103.5t-82.5 -39.5q-35 0 -62.5 21.5t-52 43t-51.5 21.5q-28 0 -45.5 -22.5t-19.5 -62.5h-52z" />
    <glyph glyph-name="exclamdown" unicode="&#xa1;" horiz-adv-x="195" 
d="M61 -168l8 320l6 191h46l7 -191l7 -320h-74zM46 488q0 22 14.5 36.5t36.5 14.5t37 -14.5t15 -36.5t-15 -37t-37 -15t-36.5 15t-14.5 37z" />
    <glyph glyph-name="cent" unicode="&#xa2;" horiz-adv-x="623" 
d="M118 534q68 76 170 88v83h68v-83q76 -10 134.5 -59t82.5 -122h-71q-25 54 -73 86.5t-108 32.5q-86 0 -145 -60.5t-59 -147.5q0 -88 59.5 -148.5t144.5 -60.5q60 0 108.5 32.5t72.5 86.5h71q-24 -73 -82.5 -122t-135.5 -59v-80h-66v80q-103 12 -171 90t-68 181
q0 105 68 182z" />
    <glyph glyph-name="sterling" unicode="&#xa3;" horiz-adv-x="580" 
d="M47 356h76q-2 9 -14 47t-16.5 63t-4.5 52q0 92 60.5 142t153.5 50q94 0 150.5 -50.5t63.5 -144.5h-68q-7 65 -46.5 100t-99.5 35t-100.5 -33.5t-41.5 -98.5q0 -25 5.5 -50.5t17 -60.5t15.5 -52h218v-61l-213 1q1 -12 1 -24q0 -98 -80 -204h376v-67h-452v67q84 106 84 205
q0 11 -1 23h-84v61z" />
    <glyph glyph-name="currency" unicode="&#xa4;" horiz-adv-x="507" 
d="M130 287q-34 43 -34 97.5t33 96.5l-75 75l27 27l76 -75q42 32 95 32q1 0 28 -0.5t70 -34.5l77 77l26 -27l-77 -78q30 -40 30 -92q0 -1 -0.5 -28t-32.5 -67l80 -79l-27 -26l-79 79q-41 -33 -68.5 -33.5t-29.5 -0.5q-51 0 -91 30l-77 -76l-27 27zM159 367q7 -38 40 -61
q23 -16 50 -16q10 0 33.5 4.5t45.5 37.5q17 24 17 52q0 9 -4.5 32.5t-32.5 43t-56 19.5q-8 0 -31.5 -4.5t-46.5 -36.5q-17 -25 -17 -53q0 -9 2 -18z" />
    <glyph glyph-name="yen" unicode="&#xa5;" horiz-adv-x="657" 
d="M104 700l225 -371l224 371h77l-239 -398h147v-49h-175v-81h175v-50h-175v-122h-70v122h-167v49h167v82h-167v49h141l-240 398h77z" />
    <glyph glyph-name="brokenbar" unicode="&#xa6;" horiz-adv-x="195" 
d="M66 337v363h64v-363h-64zM130 154v-363h-64v363h64z" />
    <glyph glyph-name="section" unicode="&#xa7;" horiz-adv-x="519" 
d="M117 43q7 -58 49.5 -84t98.5 -27h5q56 0 92 23.5t36 60.5q0 26 -23 43.5t-50 25t-74 17.5q-7 1 -11 2q-55 12 -93.5 28.5t-65 47t-26.5 71.5q0 91 114 124q-60 21 -88 47.5t-28 71.5q0 71 60.5 107t141.5 37q85 0 148 -44.5t65 -126.5h-66q-8 57 -50.5 83.5t-98.5 27.5
h-5q-55 0 -91.5 -23.5t-36.5 -60.5q1 -36 40.5 -56t117.5 -33q89 -16 137 -49t48 -94v-3q0 -48 -31.5 -79.5t-81.5 -45.5q60 -17 87.5 -45t27.5 -73q0 -51 -32 -85t-75 -46t-95 -13q-92 0 -151 43.5t-61 127.5h66zM122 255q0 -41 41.5 -67t99.5 -26q57 0 95 26t38 67
q0 45 -38 69t-101 24q-55 0 -95 -25t-40 -68z" />
    <glyph glyph-name="copyright" unicode="&#xa9;" horiz-adv-x="636" 
d="M126 630q80 79 192 79t192.5 -80t80.5 -194q0 -113 -80 -193t-193 -80q-114 0 -193.5 80.5t-79.5 192.5q0 115 81 195zM80 435q0 -102 69 -171q68 -70 169 -70t169 69.5t68 169.5q0 102 -68.5 172.5t-169.5 70.5t-169 -70t-68 -171zM217 542q43 43 104 43q47 0 85.5 -29
t52.5 -76h-44q-12 29 -37.5 46.5t-56.5 17.5q-44 0 -75 -31.5t-31 -76.5t31 -76.5t75 -31.5q31 0 56.5 17t37.5 46h44q-14 -46 -52 -75t-86 -29q-62 0 -105 43.5t-43 105.5t44 106z" />
    <glyph glyph-name="ordfeminine" unicode="&#xaa;" horiz-adv-x="203" 
d="M36 617q22 16 63 16h59v12q0 18 -15.5 28.5t-40.5 10.5q-48 0 -53 -33l-29 -1q1 28 23.5 45t58.5 17t60.5 -18t24.5 -46v-131h-29v34q-26 -37 -73 -37q-29 0 -49.5 14.5t-21.5 42.5v2q0 29 22 44zM45 571q3 -30 41 -30q28 0 49.5 20t22.5 48l-56 -1q-28 0 -42.5 -9.5
t-14.5 -23.5v-4zM190 495v-25h-175v25h175z" />
    <glyph glyph-name="guillemotleft" unicode="&#xab;" horiz-adv-x="558" 
d="M199 300l315 249v-70l-275 -214l275 -217v-70l-315 251v71zM359 549v-70l-275 -214l275 -217v-70l-315 251v71z" />
    <glyph glyph-name="registered" unicode="&#xae;" horiz-adv-x="535" 
d="M108 731q62 63 159 63t159 -64t62 -158q0 -93 -62 -157t-159 -64q-99 0 -160 64t-61 157q0 95 62 159zM130 436q52 -56 137 -56q86 0 138 55.5t52 136.5t-53 137t-137 56t-136.5 -56.5t-52.5 -136.5q0 -81 52 -136zM294 707q36 0 59 -23.5t23 -58.5q0 -28 -15.5 -49
t-41.5 -29l64 -99h-42l-61 95h-60v-95h-36v259h110zM220 577h69q23 0 37.5 13t14.5 35t-13 35t-34 13h-74v-96z" />
    <glyph glyph-name="degree" unicode="&#xb0;" horiz-adv-x="355" 
d="M85 669q38 38 92 38t92.5 -38t38.5 -92q0 -53 -38 -91q-39 -38 -93 -38t-92 38t-38 91q0 54 38 92zM118 518q24 -25 59 -25q36 0 60.5 24.5t24.5 58.5q0 36 -24.5 61t-60.5 25q-35 0 -59 -24.5t-24 -61.5v-3q0 -32 24 -55z" />
    <glyph glyph-name="plusminus" unicode="&#xb1;" horiz-adv-x="526" 
d="M47 306l1 64h183v180l64 -1v-179h184v-65h-184v-179h-64v180h-184zM47 61h431l1 -64h-432v64z" />
    <glyph glyph-name="twosuperior" unicode="&#xb2;" horiz-adv-x="344" 
d="M86 681q34 33 87 33q47 0 81 -29t34 -77q0 -43 -50 -98l-106 -117h163l-1 -45h-234v32l144 159q37 41 37 68v3q0 26 -18.5 43t-49.5 17q-32 0 -53 -21t-23 -56h-46q1 54 35 88z" />
    <glyph glyph-name="threesuperior" unicode="&#xb3;" horiz-adv-x="345" 
d="M43 460l47 1q1 -34 24 -55.5t57 -21.5q36 0 58 20t22 52q0 39 -29.5 54.5t-61.5 15.5q-17 0 -36 -3l-17 24l118 114h-170v45h231l1 -47l-102 -98q51 -4 81.5 -32t30.5 -72q0 -54 -36 -85q-37 -32 -90 -32t-90 34.5t-38 85.5z" />
    <glyph glyph-name="paragraph" unicode="&#xb6;" horiz-adv-x="585" 
d="M323 700h59v-700h-59v394q-61 0 -106.5 7t-86 23t-62 48.5t-21.5 79.5q0 148 276 148zM479 700h59v-700h-59v700z" />
    <glyph glyph-name="periodcentered" unicode="&#xb7;" horiz-adv-x="204" 
d="M50 329q0 22 15 36.5t37 14.5t37 -14.5t15 -36.5t-15 -37t-37 -15t-37 15t-15 37z" />
    <glyph glyph-name="onesuperior" unicode="&#xb9;" horiz-adv-x="253" 
d="M145 344v317h-104v45h151v-362h-47z" />
    <glyph glyph-name="ordmasculine" unicode="&#xba;" horiz-adv-x="251" 
d="M25 613q0 43 30.5 74t74.5 31q43 0 74 -31t31 -74q0 -44 -30 -75q-31 -31 -75 -31t-74.5 31t-30.5 75zM68 613q0 -27 18 -45q18 -19 44 -19t44 18.5t18 45.5q0 26 -18 44t-44 18t-44 -18t-18 -44z" />
    <glyph glyph-name="guillemotright" unicode="&#xbb;" horiz-adv-x="558" 
d="M199 48l275 217l-275 214v70l315 -249v-71l-315 -251v70zM359 300v-71l-315 -251v70l275 217l-275 214v70z" />
    <glyph glyph-name="onequarter" unicode="&#xbc;" horiz-adv-x="764" 
d="M591 381h82v-259h59v-50h-59v-80h-55v80l-190 -1v42zM92 0l486 700h60l-486 -700h-60zM34 702h171v-388h-54v336h-117v52zM618 122v200l-126 -200h126z" />
    <glyph glyph-name="onehalf" unicode="&#xbd;" horiz-adv-x="783" 
d="M488 248q1 61 39 100t97 39q52 0 86.5 -30t35.5 -74q0 -50 -59 -114l-110 -124h174v-52h-254v43l152 169q42 45 42 75q0 22 -20 37.5t-48 15.5q-33 0 -56 -24t-23 -57v-3zM578 700h60l-486 -700h-60zM34 650v52h171v-388h-54v336h-117z" />
    <glyph glyph-name="threequarters" unicode="&#xbe;" horiz-adv-x="881" 
d="M544 113l163 268h82v-259h59v-50h-59v-80h-55v80l-190 -1v42zM104 438v-2q0 -31 24 -54t58 -23q35 0 58 21t23 52q0 43 -31.5 57t-58.5 14q-24 0 -51 -7l-25 34l134 116h-175v53h251v-57l-114 -97q57 -1 91 -32t34 -81q0 -55 -38.5 -90.5t-97.5 -35.5q-58 0 -98 37.5
t-41 93.5zM694 700h60l-486 -700h-60zM734 122v200l-126 -200h126z" />
    <glyph glyph-name="questiondown" unicode="&#xbf;" horiz-adv-x="589" 
d="M87 109q20 34 49.5 54t58.5 38.5t50 45.5t21 63l1 45h68v-59q0 -41 -20.5 -72t-50 -50.5t-59 -38.5t-50 -46t-20.5 -63q0 -59 42 -98.5t107 -39.5h3q62 0 108 39.5t51 119.5h70q-4 -109 -71 -167.5t-160 -58.5q-92 0 -155.5 58.5t-63.5 148.5q0 47 21 81zM246 487
q0 22 15 37t38 15q22 0 37 -15t15 -37t-15 -37t-37 -15q-23 0 -38 15t-15 37z" />
    <glyph glyph-name="Agrave" unicode="&#xc0;" horiz-adv-x="732" 
d="M304 700h126l264 -700h-76l-66 174h-372l-69 -174h-75zM529 240l-162 435l-164 -435h326zM230 900h85l89 -128h-61z" />
    <glyph glyph-name="Aacute" unicode="&#xc1;" horiz-adv-x="732" 
d="M304 700h126l264 -700h-76l-66 174h-372l-69 -174h-75zM529 240l-162 435l-164 -435h326zM427 900h88l-116 -128h-61z" />
    <glyph glyph-name="Acircumflex" unicode="&#xc2;" horiz-adv-x="732" 
d="M304 700h126l264 -700h-76l-66 174h-372l-69 -174h-75zM529 240l-162 435l-164 -435h326zM311 885h115l91 -113h-74l-74 91l-74 -91h-74z" />
    <glyph glyph-name="Atilde" unicode="&#xc3;" horiz-adv-x="732" 
d="M304 700h126l264 -700h-76l-66 174h-372l-69 -174h-75zM529 240l-162 435l-164 -435h326zM177 784q3 54 34 89.5t78 35.5q28 0 52.5 -15t38.5 -32.5t33 -32.5t37 -15q25 0 40.5 23.5t16.5 61.5h53q-2 -59 -32 -96t-78 -37q-27 0 -51 14.5t-38 32.5t-33.5 32.5t-38.5 14.5
q-26 0 -41.5 -21.5t-17.5 -54.5h-53z" />
    <glyph glyph-name="Adieresis" unicode="&#xc4;" horiz-adv-x="732" 
d="M304 700h126l264 -700h-76l-66 174h-372l-69 -174h-75zM203 240h326l-162 435zM222 873q14 14 35 14t35 -14t14 -35t-14 -35t-35 -14t-35 14t-14 35t14 35zM445 873q14 14 35 14q20 0 34.5 -14t14.5 -35t-14.5 -35t-34.5 -14q-21 0 -35 14t-14 35t14 35z" />
    <glyph glyph-name="Aring" unicode="&#xc5;" horiz-adv-x="732" 
d="M304 700h126l264 -700h-76l-66 174h-372l-69 -174h-75zM529 240l-162 435l-164 -435h326zM276 844q0 39 27.5 66t65.5 27t65 -27.5t27 -65.5t-27 -64.5t-65 -26.5q-39 0 -66 26.5t-27 64.5zM332 808q15 -15 37 -15q21 0 36 15t15 36q0 22 -15 37t-36 15q-22 0 -35.5 -15
t-15.5 -37v-3q0 -19 14 -33z" />
    <glyph glyph-name="AE" unicode="&#xc6;" horiz-adv-x="1072" 
d="M38 0l393 700h588v-67h-415v-250h375v-66h-375v-250h415v-67h-487v174h-320l-98 -174h-76zM532 240v393h-62l-224 -393h286z" />
    <glyph glyph-name="Ccedilla" unicode="&#xc7;" horiz-adv-x="753" 
d="M43 354q0 149 102 253.5t249 104.5q108 0 193 -60t126 -159l-70 -20q-33 77 -98.5 123.5t-150.5 46.5h-3q-117 0 -196.5 -83.5t-79.5 -205.5q0 -120 79.5 -204t199.5 -84q86 0 151.5 45.5t97.5 122.5l70 -19q-39 -97 -123 -157t-191 -61l-14 -34q43 -8 78 -32.5t35 -60.5
q0 -29 -25.5 -47.5t-60 -23.5t-55.5 -6t-28 -1q-23 0 -37 4v51q22 -5 46 -5t63.5 6.5t39.5 31.5q0 22 -36.5 37t-69.5 17l25 65q-136 13 -226.5 114.5t-90.5 240.5z" />
    <glyph glyph-name="Egrave" unicode="&#xc8;" horiz-adv-x="603" 
d="M548 700v-67h-415v-250h375v-65h-375v-251h415v-67h-487v700h487zM166 900h85l89 -128h-61z" />
    <glyph glyph-name="Eacute" unicode="&#xc9;" horiz-adv-x="603" 
d="M548 700v-67h-415v-250h375v-65h-375v-251h415v-67h-487v700h487zM274 772l89 128h88l-116 -128h-61z" />
    <glyph glyph-name="Ecircumflex" unicode="&#xca;" horiz-adv-x="603" 
d="M61 700h487v-67h-415v-250h375v-65h-375v-251h415v-67h-487v700zM247 885h115l91 -113h-74l-74 91l-74 -91h-74z" />
    <glyph glyph-name="Edieresis" unicode="&#xcb;" horiz-adv-x="603" 
d="M548 700v-67h-415v-250h375v-65h-375v-251h415v-67h-487v700h487zM381 865q14 14 35 14t35 -14.5t14 -34.5q0 -21 -14 -35t-35 -14t-35 14t-14 35q0 20 14 35zM159 865q14 14 34 14q21 0 35 -14.5t14 -34.5q0 -21 -14 -35t-35 -14q-20 0 -34.5 14t-14.5 35q0 20 15 35z
" />
    <glyph glyph-name="Igrave" unicode="&#xcc;" horiz-adv-x="202" 
d="M76 772l-113 128h85l89 -128h-61zM65 0v700h72v-700h-72z" />
    <glyph glyph-name="Iacute" unicode="&#xcd;" horiz-adv-x="202" 
d="M71 772l89 128h88l-116 -128h-61zM65 0v700h72v-700h-72z" />
    <glyph glyph-name="Icircumflex" unicode="&#xce;" horiz-adv-x="202" 
d="M65 700h72v-700h-72v700zM44 885h115l91 -113h-74l-74 91l-74 -91h-74z" />
    <glyph glyph-name="Idieresis" unicode="&#xcf;" horiz-adv-x="202" 
d="M137 700v-700h-72v700h72zM-59 838q0 21 14 35t35 14t35 -14t14 -35t-14 -35t-35 -14t-35 14t-14 35zM164 838q0 21 14 35t35 14q20 0 34.5 -14t14.5 -35t-14.5 -35t-34.5 -14q-21 0 -35 14t-14 35z" />
    <glyph glyph-name="Eth" unicode="&#xd0;" horiz-adv-x="734" 
d="M109 382v318h226q151 0 254 -100t103 -250v-3q0 -148 -102 -247.5t-255 -99.5h-226v318h-94v64h94zM181 318v-251h154q125 0 205 80.5t80 202.5q0 123 -80.5 203t-204.5 80h-154v-251h198v-64h-198z" />
    <glyph glyph-name="Ntilde" unicode="&#xd1;" horiz-adv-x="705" 
d="M202 700l366 -668v668h71v-700h-136l-369 674v-674h-70v700h138zM162 784q3 54 34 89.5t78 35.5q28 0 52.5 -15t38.5 -32.5t33 -32.5t37 -15q25 0 40.5 23.5t16.5 61.5h53q-2 -59 -32 -96t-78 -37q-27 0 -51 14.5t-38 32.5t-33.5 32.5t-38.5 14.5q-26 0 -41.5 -21.5
t-17.5 -54.5h-53z" />
    <glyph glyph-name="Ograve" unicode="&#xd2;" horiz-adv-x="788" 
d="M145 603q102 105 249 105q146 0 248.5 -104.5t102.5 -253.5v-3q0 -146 -102 -250t-249 -104q-148 0 -249.5 104t-101.5 253q0 148 102 253zM195 146q79 -85 199 -85q119 0 199 84t80 205t-80 205.5t-199 84.5q-118 0 -198.5 -84.5t-80.5 -205.5q0 -120 80 -204zM343 900
l89 -128h-61l-113 128h85z" />
    <glyph glyph-name="Oacute" unicode="&#xd3;" horiz-adv-x="788" 
d="M145 603q102 105 249 105q146 0 248.5 -104.5t102.5 -253.5v-3q0 -146 -102 -250t-249 -104q-148 0 -249.5 104t-101.5 253q0 148 102 253zM195 146q79 -85 199 -85q119 0 199 84t80 205t-80 205.5t-199 84.5q-118 0 -198.5 -84.5t-80.5 -205.5q0 -120 80 -204zM455 900
h88l-116 -128h-61z" />
    <glyph glyph-name="Ocircumflex" unicode="&#xd4;" horiz-adv-x="788" 
d="M145 603q102 105 249 105q146 0 248.5 -104.5t102.5 -253.5v-3q0 -146 -102 -250t-249 -104q-148 0 -249.5 104t-101.5 253q0 148 102 253zM195 146q79 -85 199 -85q119 0 199 84t80 205t-80 205.5t-199 84.5q-118 0 -198.5 -84.5t-80.5 -205.5q0 -120 80 -204zM249 772
l90 113h115l91 -113h-74l-74 91l-74 -91h-74z" />
    <glyph glyph-name="Otilde" unicode="&#xd5;" horiz-adv-x="788" 
d="M145 603q102 105 249 105q146 0 248.5 -104.5t102.5 -253.5v-3q0 -146 -102 -250t-249 -104q-148 0 -249.5 104t-101.5 253q0 148 102 253zM195 146q79 -85 199 -85q119 0 199 84t80 205t-80 205.5t-199 84.5q-118 0 -198.5 -84.5t-80.5 -205.5q0 -120 80 -204zM197 768
q4 59 35.5 96.5t81.5 37.5q29 0 54 -13.5t39.5 -29.5t34 -29.5t39.5 -13.5q60 0 63 90h52q-2 -64 -33 -103.5t-82 -39.5q-35 0 -63 21.5t-52.5 43t-51.5 21.5q-59 0 -64 -81h-53z" />
    <glyph glyph-name="Odieresis" unicode="&#xd6;" horiz-adv-x="788" 
d="M145 603q102 105 249 105q146 0 248.5 -104.5t102.5 -253.5v-3q0 -146 -102 -250t-249 -104q-148 0 -249.5 104t-101.5 253q0 148 102 253zM115 350q0 -120 79.5 -204.5t199.5 -84.5q119 0 199 84t80 205t-80 205.5t-199 84.5q-118 0 -198.5 -84.5t-80.5 -205.5zM459 830
q0 20 14 34.5t35 14.5t35 -14.5t14 -34.5q0 -21 -14 -35t-35 -14t-35 14t-14 35zM236 830q0 20 14 34.5t35 14.5t35 -14.5t14 -34.5q0 -21 -14 -35t-35 -14t-35 14t-14 35z" />
    <glyph glyph-name="multiply" unicode="&#xd7;" horiz-adv-x="453" 
d="M360 107l-133 134l-135 -134l-42 42l135 133l-135 135l43 42l134 -134l134 133l42 -42l-134 -133l134 -134z" />
    <glyph glyph-name="Oslash" unicode="&#xd8;" horiz-adv-x="769" 
d="M131 -27l-40 27l60 81q-55 49 -86.5 119.5t-31.5 149.5q0 148 102.5 253t249.5 105q105 0 191 -59l59 79l40 -28l-60 -79q121 -108 121 -271q0 -148 -102 -252.5t-249 -104.5q-109 0 -194 60zM193 138l343 454q-69 48 -151 48q-119 0 -199 -84.5t-80 -205.5
q0 -128 87 -212zM385 61q119 0 199 84t80 205q0 129 -89 213l-345 -455q69 -47 155 -47z" />
    <glyph glyph-name="Ugrave" unicode="&#xd9;" horiz-adv-x="685" 
d="M56 700h73v-416q0 -107 64 -165t149 -58q86 0 150 58t64 165v416h72v-416q0 -138 -83 -215t-203 -77q-76 0 -139.5 31.5t-105 99.5t-41.5 161v416zM292 900l89 -128h-61l-113 128h85z" />
    <glyph glyph-name="Uacute" unicode="&#xda;" horiz-adv-x="685" 
d="M56 700h73v-416q0 -107 64 -165t149 -58q86 0 150 58t64 165v416h72v-416q0 -138 -83 -215t-203 -77q-76 0 -139.5 31.5t-105 99.5t-41.5 161v416zM315 772l89 128h88l-116 -128h-61z" />
    <glyph glyph-name="Ucircumflex" unicode="&#xdb;" horiz-adv-x="685" 
d="M56 700h73v-416q0 -107 64 -165t149 -58q86 0 150 58t64 165v416h72v-416q0 -138 -83 -215t-203 -77q-76 0 -139.5 31.5t-105 99.5t-41.5 161v416zM287 885h115l91 -113h-74l-74 91l-74 -91h-74z" />
    <glyph glyph-name="Udieresis" unicode="&#xdc;" horiz-adv-x="685" 
d="M129 700v-416q0 -107 64 -165t149 -58q86 0 150 58t64 165v416h72v-416q0 -138 -83 -215t-203 -77q-76 0 -139.5 31.5t-105 99.5t-41.5 161v416h73zM185 830q0 20 14 34.5t35 14.5t35 -14.5t14 -34.5q0 -21 -14 -35t-35 -14t-35 14t-14 35zM407 830q0 20 14.5 34.5
t34.5 14.5q21 0 35 -14.5t14 -34.5q0 -21 -14 -35t-35 -14q-20 0 -34.5 14t-14.5 35z" />
    <glyph glyph-name="Yacute" unicode="&#xdd;" horiz-adv-x="653" 
d="M28 700h79l220 -384l220 384h78l-261 -462v-238h-72v237zM386 900h88l-116 -128h-61z" />
    <glyph glyph-name="Thorn" unicode="&#xde;" horiz-adv-x="595" 
d="M44 0v700h72v-105h224q99 0 157.5 -64t58.5 -159q0 -96 -58.5 -159t-157.5 -64h-224v-149h-72zM116 214l220 1q72 0 111 45t39 114q0 68 -39 111.5t-111 43.5l-220 -1v-314z" />
    <glyph glyph-name="germandbls" unicode="&#xdf;" horiz-adv-x="624" 
d="M574 700v-80l-241 -204q12 1 24 1q101 0 169 -56.5t68 -147.5q0 -78 -53 -138t-106.5 -70t-76.5 -10q-67 0 -148 35v68q75 -40 136 -40q12 0 52.5 5.5t83 50t42.5 100.5q0 78 -64 117t-135 39q-36 0 -77 -8v65l242 206h-368v-633h-72v700h524z" />
    <glyph glyph-name="agrave" unicode="&#xe0;" horiz-adv-x="644" 
d="M119 459q78 80 189 80q67 0 122 -32.5t86 -86.5v110h70v-530h-70v110q-31 -54 -86 -86t-122 -32q-111 0 -189 80.5t-78 193.5t78 193zM108 266q0 -88 60 -149t146 -61q85 0 145.5 62t60.5 148t-60.5 147.5t-145.5 61.5q-86 0 -146 -61.5t-60 -147.5zM187 730h85l89 -128
h-61z" />
    <glyph glyph-name="aacute" unicode="&#xe1;" horiz-adv-x="644" 
d="M119 459q78 80 189 80q67 0 122 -32.5t86 -86.5v110h70v-530h-70v110q-31 -54 -86 -86t-122 -32q-111 0 -189 80.5t-78 193.5t78 193zM108 266q0 -88 60 -149t146 -61q85 0 145.5 62t60.5 148t-60.5 147.5t-145.5 61.5q-86 0 -146 -61.5t-60 -147.5zM384 730h88
l-116 -128h-61z" />
    <glyph glyph-name="acircumflex" unicode="&#xe2;" horiz-adv-x="644" 
d="M119 459q78 80 189 80q67 0 122 -32.5t86 -86.5v110h70v-530h-70v110q-31 -54 -86 -86t-122 -32q-111 0 -189 80.5t-78 193.5t78 193zM168 117q60 -61 146 -61q85 0 145.5 62t60.5 148t-60.5 147.5t-145.5 61.5q-86 0 -146 -61.5t-60 -147.5q0 -88 60 -149zM267 715h115
l91 -113h-74l-74 91l-74 -91h-74z" />
    <glyph glyph-name="atilde" unicode="&#xe3;" horiz-adv-x="644" 
d="M119 459q78 80 189 80q67 0 122 -32.5t86 -86.5v110h70v-530h-70v110q-31 -54 -86 -86t-122 -32q-111 0 -189 80.5t-78 193.5t78 193zM168 117q60 -61 146 -61q85 0 145.5 62t60.5 148t-60.5 147.5t-145.5 61.5q-86 0 -146 -61.5t-60 -147.5q0 -88 60 -149zM134 614
q3 54 34 89.5t78 35.5q28 0 52.5 -15t38.5 -32.5t33 -32.5t37 -15q25 0 40.5 23.5t16.5 61.5h53q-2 -59 -32 -96t-78 -37q-27 0 -51 14.5t-38 32.5t-33.5 32.5t-38.5 14.5q-26 0 -41.5 -21.5t-17.5 -54.5h-53z" />
    <glyph glyph-name="adieresis" unicode="&#xe4;" horiz-adv-x="644" 
d="M119 459q78 80 189 80q67 0 122 -32.5t86 -86.5v110h70v-530h-70v110q-31 -54 -86 -86t-122 -32q-111 0 -189 80.5t-78 193.5t78 193zM108 266q0 -88 60 -149t146 -61q85 0 145.5 62t60.5 148t-60.5 147.5t-145.5 61.5q-86 0 -146 -61.5t-60 -147.5zM179 703q14 14 35 14
t35 -14t14 -35t-14 -35t-35 -14t-35 14t-14 35t14 35zM388 668q0 21 14 35t35 14q20 0 34.5 -14t14.5 -35t-14.5 -35t-34.5 -14q-21 0 -35 14t-14 35z" />
    <glyph glyph-name="aring" unicode="&#xe5;" horiz-adv-x="644" 
d="M119 459q78 80 189 80q67 0 122 -32.5t86 -86.5v110h70v-530h-70v110q-31 -54 -86 -86t-122 -32q-111 0 -189 80.5t-78 193.5t78 193zM168 117q60 -61 146 -61q85 0 145.5 62t60.5 148t-60.5 147.5t-145.5 61.5q-86 0 -146 -61.5t-60 -147.5q0 -88 60 -149zM233 674
q0 39 27.5 66t65.5 27t65 -27.5t27 -65.5t-27 -64.5t-65 -26.5q-39 0 -66 26.5t-27 64.5zM289 638q15 -15 37 -15q21 0 36 15t15 36q0 22 -15 37t-36 15q-22 0 -35.5 -15t-15.5 -37v-3q0 -19 14 -33z" />
    <glyph glyph-name="ae" unicode="&#xe6;" horiz-adv-x="1034" 
d="M721 -8q-81 0 -145 43.5t-93 114.5q-15 -57 -74 -106t-156 -49q-95 0 -152.5 42.5t-57.5 113.5q-1 66 50.5 105.5t156.5 40.5h204v62q0 58 -48 88.5t-120 30.5q-60 0 -104.5 -22.5t-54.5 -72.5l-67 -1q6 75 68.5 116.5t156.5 41.5q82 0 142 -34t75 -92q34 57 91.5 91
t127.5 34q103 0 177.5 -69t88.5 -170q5 -36 1 -60h-468q7 -81 64 -132.5t137 -51.5q55 0 103 25.5t77 69.5l65 -13q-32 -66 -99.5 -106t-145.5 -40zM520 297h398q-8 76 -63.5 127t-133.5 51q-80 0 -136.5 -51.5t-64.5 -126.5zM257 55q93 0 144 52.5t53 135.5h-194
q-82 -1 -116.5 -28t-30.5 -66q3 -45 44 -69.5t100 -24.5z" />
    <glyph glyph-name="ccedilla" unicode="&#xe7;" horiz-adv-x="597" 
d="M41 266q0 113 79.5 193t191.5 80q84 0 151 -47t97 -123l-67 -14q-24 54 -72.5 87t-108.5 33q-85 0 -144.5 -61.5t-59.5 -147.5q0 -88 59.5 -149t144.5 -61q61 0 109 33t72 87l67 -15q-29 -75 -94.5 -121.5t-148.5 -47.5l-12 -29q43 -8 78 -32.5t35 -60.5
q0 -29 -25.5 -47.5t-60 -23.5t-55.5 -6t-28 -1q-23 0 -37 4v51q22 -5 46 -5t63.5 6.5t39.5 31.5q0 22 -36.5 37t-69.5 17l23 60q-102 13 -169.5 91t-67.5 181z" />
    <glyph glyph-name="egrave" unicode="&#xe8;" 
d="M121 459q79 80 191 80q103 0 178.5 -69t87.5 -170q4 -19 4 -35q0 -13 -3 -25h-468q7 -81 64 -132.5t137 -51.5q55 0 103 25.5t77 69.5l66 -13q-33 -66 -100.5 -106t-145.5 -40q-114 0 -192.5 80t-78.5 194q0 113 80 193zM111 297h398q-8 76 -63 127t-134 51
q-80 0 -136.5 -51t-64.5 -127zM169 730h85l89 -128h-61z" />
    <glyph glyph-name="eacute" unicode="&#xe9;" 
d="M121 459q79 80 191 80q103 0 178.5 -69t87.5 -170q4 -19 4 -35q0 -13 -3 -25h-468q7 -81 64 -132.5t137 -51.5q55 0 103 25.5t77 69.5l66 -13q-33 -66 -100.5 -106t-145.5 -40q-114 0 -192.5 80t-78.5 194q0 113 80 193zM111 297h398q-8 76 -63 127t-134 51
q-80 0 -136.5 -51t-64.5 -127zM366 730h88l-116 -128h-61z" />
    <glyph glyph-name="ecircumflex" unicode="&#xea;" 
d="M121 459q79 80 191 80q103 0 178.5 -69t87.5 -170q4 -19 4 -35q0 -13 -3 -25h-468q7 -81 64 -132.5t137 -51.5q55 0 103 25.5t77 69.5l66 -13q-33 -66 -100.5 -106t-145.5 -40q-114 0 -192.5 80t-78.5 194q0 113 80 193zM111 297h398q-8 76 -63 127t-134 51
q-80 0 -136.5 -51t-64.5 -127zM249 715h115l91 -113h-74l-74 91l-74 -91h-74z" />
    <glyph glyph-name="edieresis" unicode="&#xeb;" 
d="M41 266q0 113 79.5 193t191.5 80q103 0 178.5 -69t87.5 -170q4 -19 4 -35q0 -13 -3 -25h-468q7 -81 64 -132.5t137 -51.5q55 0 103 25.5t77 69.5l66 -13q-33 -66 -100.5 -106t-145.5 -40q-114 0 -192.5 80t-78.5 194zM111 297h398q-8 76 -63 127t-134 51
q-80 0 -136.5 -51t-64.5 -127zM161 703q14 14 35 14t35 -14t14 -35t-14 -35t-35 -14t-35 14t-14 35t14 35zM384 703q14 14 35 14q20 0 34.5 -14t14.5 -35t-14.5 -35t-34.5 -14q-21 0 -35 14t-14 35t14 35z" />
    <glyph glyph-name="igrave" unicode="&#xec;" horiz-adv-x="205" 
d="M78 602l-113 128h85l89 -128h-61zM68 0v530h70v-530h-70z" />
    <glyph glyph-name="iacute" unicode="&#xed;" horiz-adv-x="205" 
d="M72 602l89 128h88l-116 -128h-61zM68 0v530h70v-530h-70z" />
    <glyph glyph-name="icircumflex" unicode="&#xee;" horiz-adv-x="205" 
d="M68 530h70v-530h-70v530zM45 715h115l91 -113h-74l-74 91l-74 -91h-74z" />
    <glyph glyph-name="idieresis" unicode="&#xef;" horiz-adv-x="205" 
d="M138 530v-530h-70v530h70zM-57 660q0 20 14 34.5t35 14.5t35 -14.5t14 -34.5q0 -21 -14 -35t-35 -14t-35 14t-14 35zM165 660q0 20 14.5 34.5t34.5 14.5q21 0 35 -14.5t14 -34.5q0 -21 -14 -35t-35 -14q-20 0 -34.5 14t-14.5 35z" />
    <glyph glyph-name="eth" unicode="&#xf0;" horiz-adv-x="581" 
d="M281 -8q-107 -1 -174.5 69t-67.5 170q0 95 66.5 164t165.5 70q78 0 136.5 -44.5t71.5 -111.5q9 89 -20 167.5t-95 124.5l-203 -88v53l150 68q-66 30 -152 30v55q124 0 219 -59l115 50v-54l-72 -32q59 -49 89.5 -122.5t30.5 -156.5q0 -94 -26 -171.5t-86.5 -129.5
t-147.5 -52zM280 56q73 0 123 51t50 122q1 73 -49.5 122.5t-123.5 49.5t-123.5 -50t-50.5 -121q0 -72 50 -123t124 -51z" />
    <glyph glyph-name="ntilde" unicode="&#xf1;" horiz-adv-x="594" 
d="M56 0v530h70v-102q26 48 75.5 79.5t115.5 31.5q93 0 159 -60t66 -161v-318h-70v296q0 83 -48 130t-118 47q-78 0 -129 -57t-51 -146v-270h-70zM105 598q4 59 35.5 96.5t81.5 37.5q29 0 54 -13.5t39.5 -29.5t34 -29.5t39.5 -13.5q60 0 62 90h53q-2 -64 -33 -103.5
t-82 -39.5q-35 0 -63 21.5t-52.5 43t-51.5 21.5q-59 0 -65 -81h-52z" />
    <glyph glyph-name="ograve" unicode="&#xf2;" horiz-adv-x="623" 
d="M119 459q79 80 192 80q114 0 193 -80.5t79 -192.5q0 -113 -79 -193q-80 -81 -193 -81t-192 80t-79 194q0 113 79 193zM167 118q59 -61 144 -61q86 0 145.5 61t59.5 148t-59.5 147.5t-145.5 60.5t-145 -60.5t-59 -147.5q0 -88 60 -148zM258 730l89 -128h-61l-113 128h85z
" />
    <glyph glyph-name="oacute" unicode="&#xf3;" horiz-adv-x="623" 
d="M40 266q0 113 79 193t192 80q114 0 193 -80.5t79 -192.5q0 -113 -79 -193q-80 -81 -193 -81t-192 80t-79 194zM167 118q59 -61 144 -61q86 0 145.5 61t59.5 148t-59.5 147.5t-145.5 60.5t-145 -60.5t-59 -147.5q0 -88 60 -148zM370 730h88l-116 -128h-61z" />
    <glyph glyph-name="ocircumflex" unicode="&#xf4;" horiz-adv-x="623" 
d="M119 459q79 80 192 80q114 0 193 -80.5t79 -192.5q0 -113 -79 -193q-80 -81 -193 -81t-192 80t-79 194q0 113 79 193zM107 266q0 -88 59.5 -148.5t144.5 -60.5q86 0 145.5 61t59.5 148t-59.5 147.5t-145.5 60.5t-145 -60.5t-59 -147.5zM254 715h115l91 -113h-74l-74 91
l-74 -91h-74z" />
    <glyph glyph-name="otilde" unicode="&#xf5;" horiz-adv-x="623" 
d="M40 266q0 113 79 193t192 80q114 0 193 -80.5t79 -192.5q0 -113 -79 -193q-80 -81 -193 -81t-192 80t-79 194zM107 266q0 -88 59.5 -148.5t144.5 -60.5q86 0 145.5 61t59.5 148t-59.5 147.5t-145.5 60.5t-145 -60.5t-59 -147.5zM112 598q4 59 35.5 96.5t81.5 37.5
q29 0 54 -13.5t39.5 -29.5t34 -29.5t39.5 -13.5q60 0 63 90h52q-2 -64 -33 -103.5t-82 -39.5q-35 0 -63 21.5t-52.5 43t-51.5 21.5q-59 0 -64 -81h-53z" />
    <glyph glyph-name="odieresis" unicode="&#xf6;" horiz-adv-x="623" 
d="M119 459q79 80 192 80q114 0 193 -80.5t79 -192.5q0 -113 -79 -193q-80 -81 -193 -81t-192 80t-79 194q0 113 79 193zM107 266q0 -88 59.5 -148.5t144.5 -60.5q86 0 145.5 61t59.5 148t-59.5 147.5t-145.5 60.5t-145 -60.5t-59 -147.5zM151 660q0 20 14 34.5t35 14.5
t35 -14.5t14 -34.5q0 -21 -14 -35t-35 -14t-35 14t-14 35zM388 695q14 14 35 14q20 0 34.5 -14.5t14.5 -34.5q0 -21 -14.5 -35t-34.5 -14q-21 0 -35 14t-14 35q0 20 14 35z" />
    <glyph glyph-name="divide" unicode="&#xf7;" horiz-adv-x="526" 
d="M263 422q-22 0 -36.5 14.5t-14.5 36.5t14.5 37t36.5 15t37 -15t15 -37t-15 -36.5t-37 -14.5zM47 253v65l432 -1l-1 -64h-431zM263 45q-22 0 -36.5 15t-14.5 37t14.5 36.5t36.5 14.5t37 -14.5t15 -36.5t-15 -37t-37 -15z" />
    <glyph glyph-name="oslash" unicode="&#xf8;" horiz-adv-x="623" 
d="M117 -25l-36 25l47 63q-88 83 -88 203q0 113 79 193t192 80q79 0 142 -41l43 57l36 -25l-43 -58q94 -81 94 -206q0 -113 -79.5 -193.5t-192.5 -80.5q-81 0 -147 45zM167 118l248 326q-47 30 -104 30q-86 0 -145 -60.5t-59 -147.5q0 -86 60 -148zM311 57q86 0 145.5 61
t59.5 148q0 92 -66 152l-248 -327q50 -34 109 -34z" />
    <glyph glyph-name="ugrave" unicode="&#xf9;" horiz-adv-x="594" 
d="M50 212v318h70v-296q0 -82 48.5 -129.5t117.5 -47.5q78 0 129 57t51 146v270h70v-530h-70v102q-26 -48 -75.5 -79.5t-115.5 -31.5q-92 0 -158.5 60t-66.5 161zM240 730l89 -128h-61l-113 128h85z" />
    <glyph glyph-name="uacute" unicode="&#xfa;" horiz-adv-x="594" 
d="M50 212v318h70v-296q0 -82 48.5 -129.5t117.5 -47.5q78 0 129 57t51 146v270h70v-530h-70v102q-26 -48 -75.5 -79.5t-115.5 -31.5q-92 0 -158.5 60t-66.5 161zM352 730h88l-116 -128h-61z" />
    <glyph glyph-name="ucircumflex" unicode="&#xfb;" horiz-adv-x="594" 
d="M50 530h70v-296q0 -82 48.5 -129.5t117.5 -47.5q78 0 129 57t51 146v270h70v-530h-70v102q-26 -48 -75.5 -79.5t-115.5 -31.5q-92 0 -158.5 60t-66.5 161v318zM145 602l90 113h115l91 -113h-74l-74 91l-74 -91h-74z" />
    <glyph glyph-name="udieresis" unicode="&#xfc;" horiz-adv-x="594" 
d="M50 212v318h70v-296q0 -82 48.5 -129.5t117.5 -47.5q78 0 129 57t51 146v270h70v-530h-70v102q-26 -48 -75.5 -79.5t-115.5 -31.5q-92 0 -158.5 60t-66.5 161zM133 660q0 20 14 34.5t35 14.5t35 -14.5t14 -34.5q0 -21 -14 -35t-35 -14t-35 14t-14 35zM370 695
q14 14 34 14q21 0 35 -14.5t14 -34.5q0 -21 -14 -35t-35 -14q-20 0 -34.5 14t-14.5 35q0 20 15 35z" />
    <glyph glyph-name="yacute" unicode="&#xfd;" horiz-adv-x="559" 
d="M93 530l187 -444l177 444h76l-301 -740h-75l87 212l-227 528h76zM334 730h88l-116 -128h-61z" />
    <glyph glyph-name="thorn" unicode="&#xfe;" horiz-adv-x="600" 
d="M36 -184v884h73v-280q32 54 86.5 86t121.5 32q111 0 189 -80t78 -194q0 -113 -77.5 -193t-189.5 -80q-67 0 -121.5 32.5t-86.5 86.5v-294h-73zM312 55q86 0 145.5 61.5t59.5 147.5q0 88 -59.5 149t-145.5 61q-85 0 -145.5 -62t-60.5 -148t60.5 -147.5t145.5 -61.5z" />
    <glyph glyph-name="ydieresis" unicode="&#xff;" horiz-adv-x="559" 
d="M17 530h76l187 -444l177 444h76l-301 -740h-75l87 212zM129 703q14 14 35 14t35 -14t14 -35t-14 -35t-35 -14t-35 14t-14 35t14 35zM338 668q0 21 14 35t35 14q20 0 34.5 -14t14.5 -35t-14.5 -35t-34.5 -14q-21 0 -35 14t-14 35z" />
    <glyph glyph-name="Amacron" unicode="&#x100;" horiz-adv-x="732" 
d="M304 700h126l264 -700h-76l-66 174h-372l-69 -174h-75zM529 240l-162 435l-164 -435h326zM219 853h300v-52h-300v52z" />
    <glyph glyph-name="amacron" unicode="&#x101;" horiz-adv-x="644" 
d="M119 459q78 80 189 80q67 0 122 -32.5t86 -86.5v110h70v-530h-70v110q-31 -54 -86 -86t-122 -32q-111 0 -189 80.5t-78 193.5t78 193zM108 266q0 -88 60 -149t146 -61q85 0 145.5 62t60.5 148t-60.5 147.5t-145.5 61.5q-86 0 -146 -61.5t-60 -147.5zM175 631v52h300v-52
h-300z" />
    <glyph glyph-name="Abreve" unicode="&#x102;" horiz-adv-x="732" 
d="M304 700h126l264 -700h-76l-66 174h-372l-69 -174h-75zM529 240l-162 435l-164 -435h326zM283 894q0 -34 23.5 -55.5t62.5 -21.5t62.5 21.5t23.5 55.5h49q0 -52 -38.5 -88.5t-96.5 -36.5q-57 0 -95.5 36.5t-38.5 88.5h48z" />
    <glyph glyph-name="abreve" unicode="&#x103;" horiz-adv-x="644" 
d="M41 266q0 113 78 193t189 80q67 0 122 -32.5t86 -86.5v110h70v-530h-70v110q-31 -54 -86 -86t-122 -32q-111 0 -189 80.5t-78 193.5zM108 266q0 -88 60 -149t146 -61q85 0 145.5 62t60.5 148t-60.5 147.5t-145.5 61.5q-86 0 -146 -61.5t-60 -147.5zM239 724
q0 -34 23.5 -55.5t62.5 -21.5t62.5 21.5t23.5 55.5h49q0 -52 -38.5 -88.5t-96.5 -36.5q-57 0 -95.5 36.5t-38.5 88.5h48z" />
    <glyph glyph-name="Aogonek" unicode="&#x104;" horiz-adv-x="724" 
d="M36 0l268 700h126l264 -700h-52q-86 -59 -86 -109q0 -37 38 -46.5t68 -9.5t66 7v-49q-26 -6 -45 -6.5t-22 -0.5q-33 0 -70 6.5t-63 29t-26 57.5q0 23 12.5 45t32.5 38.5t36.5 26.5t32.5 17l-64 168h-372l-69 -174h-75zM203 240h326l-162 435z" />
    <glyph glyph-name="aogonek" unicode="&#x105;" horiz-adv-x="641" 
d="M119 459q78 80 189 80q67 0 122 -32.5t86 -86.5v110h70v-530h-34q-86 -57 -86 -109q0 -37 38 -46.5t68 -9.5t66 7v-49q-26 -6 -45 -6.5t-22 -0.5q-33 0 -70 6.5t-63 29t-26 57.5q0 69 104 122v109q-31 -54 -86 -86t-122 -32q-111 0 -189 80.5t-78 193.5t78 193zM108 266
q0 -88 60 -149t146 -61q85 0 145.5 62t60.5 148t-60.5 147.5t-145.5 61.5q-86 0 -146 -61.5t-60 -147.5z" />
    <glyph glyph-name="Cacute" unicode="&#x106;" horiz-adv-x="753" 
d="M145 608q102 104 249 104q108 0 193 -60t126 -159l-70 -20q-33 77 -98.5 123.5t-150.5 46.5h-3q-117 0 -196.5 -83.5t-79.5 -205.5q0 -120 79.5 -204t199.5 -84q86 0 151.5 45.5t97.5 122.5l70 -19q-40 -98 -125 -158t-194 -60q-148 0 -249.5 104.5t-101.5 252.5
q0 149 102 254zM358 772l89 128h88l-116 -128h-61z" />
    <glyph glyph-name="cacute" unicode="&#x107;" horiz-adv-x="597" 
d="M121 459q79 80 191 80q84 0 151 -47t97 -123l-67 -14q-24 54 -72.5 87t-108.5 33q-85 0 -144.5 -61.5t-59.5 -147.5q0 -88 59.5 -149t144.5 -61q61 0 109 33t72 87l67 -15q-30 -76 -96.5 -122.5t-151.5 -46.5q-114 0 -192.5 81t-78.5 193q0 113 80 193zM277 602l89 128
h88l-116 -128h-61z" />
    <glyph glyph-name="Cdotaccent" unicode="&#x10a;" horiz-adv-x="753" 
d="M43 354q0 149 102 253.5t249 104.5q108 0 193 -60t126 -159l-70 -20q-33 77 -98.5 123.5t-150.5 46.5h-3q-117 0 -196.5 -83.5t-79.5 -205.5q0 -120 79.5 -204t199.5 -84q86 0 151.5 45.5t97.5 122.5l70 -19q-40 -98 -125 -158t-194 -60q-148 0 -249.5 104.5
t-101.5 252.5zM353 874q15 15 37 15t37.5 -15.5t15.5 -37.5t-15 -37q-16 -15 -38 -15t-37.5 15t-15.5 37t16 38z" />
    <glyph glyph-name="cdotaccent" unicode="&#x10b;" horiz-adv-x="597" 
d="M41 266q0 113 79.5 193t191.5 80q84 0 151 -47t97 -123l-67 -14q-24 54 -72.5 87t-108.5 33q-85 0 -144.5 -61.5t-59.5 -147.5q0 -88 59.5 -149t144.5 -61q61 0 109 33t72 87l67 -15q-30 -76 -96.5 -122.5t-151.5 -46.5q-114 0 -192.5 81t-78.5 193zM255 666
q0 22 15.5 37.5t37.5 15.5t37.5 -15.5t15.5 -37.5t-15 -37q-16 -15 -38 -15t-37.5 15t-15.5 37z" />
    <glyph glyph-name="Ccaron" unicode="&#x10c;" horiz-adv-x="753" 
d="M145 608q102 104 249 104q108 0 193 -60t126 -159l-70 -20q-33 77 -98.5 123.5t-150.5 46.5h-3q-117 0 -196.5 -83.5t-79.5 -205.5q0 -120 79.5 -204t199.5 -84q86 0 151.5 45.5t97.5 122.5l70 -19q-40 -98 -125 -158t-194 -60q-148 0 -249.5 104.5t-101.5 252.5
q0 149 102 254zM241 885h75l74 -91l73 91h74l-90 -113h-115z" />
    <glyph glyph-name="ccaron" unicode="&#x10d;" horiz-adv-x="597" 
d="M121 459q79 80 191 80q84 0 151 -47t97 -123l-67 -14q-24 54 -72.5 87t-108.5 33q-85 0 -144.5 -61.5t-59.5 -147.5q0 -88 59.5 -149t144.5 -61q61 0 109 33t72 87l67 -15q-30 -76 -96.5 -122.5t-151.5 -46.5q-114 0 -192.5 81t-78.5 193q0 113 80 193zM159 715h75
l74 -91l73 91h74l-90 -113h-115z" />
    <glyph glyph-name="Dcaron" unicode="&#x10e;" horiz-adv-x="681" 
d="M56 700h226q151 0 254 -100t104 -250q0 -150 -102.5 -250t-255.5 -100h-226v700zM129 67h153q125 0 205.5 80.5t80.5 202.5q0 123 -81 203t-205 80h-153v-566zM172 885h75l74 -91l73 91h74l-90 -113h-115z" />
    <glyph glyph-name="dcaron" unicode="&#x10f;" horiz-adv-x="772" 
d="M119 459q78 79 189 79q68 0 122.5 -32.5t85.5 -86.5v281h70v-700h-70v110q-31 -54 -85.5 -86.5t-122.5 -32.5q-111 0 -189 80.5t-78 192.5q0 115 78 195zM108 264q0 -86 60 -147t146 -61q85 0 145.5 61t60.5 147t-60.5 148t-145.5 62q-86 0 -146 -61t-60 -149zM731 700
l-12 -209h-54l-8 209h74z" />
    <glyph glyph-name="Dcroat" unicode="&#x110;" horiz-adv-x="734" 
d="M109 0v318h-94v64h94v318h226q151 0 254 -100t103 -250q1 -150 -101.5 -250t-255.5 -100h-226zM181 67h154q125 0 205 80.5t80 202.5q0 123 -80.5 203t-204.5 80h-154v-251h198v-64h-198v-251z" />
    <glyph glyph-name="dcroat" unicode="&#x111;" horiz-adv-x="661" 
d="M308 -9q-111 0 -189 80.5t-78 192.5q0 115 78 194.5t189 79.5q68 0 122.5 -32.5t85.5 -86.5v183h-205v49h205v49h70v-49h56v-49h-56v-602h-70v110q-31 -54 -85.5 -86.5t-122.5 -32.5zM314 56q85 0 145.5 61t60.5 147t-60.5 148t-145.5 62q-86 0 -146 -61t-60 -149
q0 -86 60 -147t146 -61z" />
    <glyph glyph-name="Emacron" unicode="&#x112;" horiz-adv-x="603" 
d="M548 700v-67h-415v-250h375v-65h-375v-251h415v-67h-487v700h487zM455 853v-52h-301v52h301z" />
    <glyph glyph-name="emacron" unicode="&#x113;" 
d="M121 459q79 80 191 80q103 0 178.5 -69t87.5 -170q4 -19 4 -35q0 -13 -3 -25h-468q7 -81 64 -132.5t137 -51.5q55 0 103 25.5t77 69.5l66 -13q-33 -66 -100.5 -106t-145.5 -40q-114 0 -192.5 80t-78.5 194q0 113 80 193zM111 297h398q-8 76 -63 127t-134 51
q-80 0 -136.5 -51t-64.5 -127zM157 683h300v-52h-300v52z" />
    <glyph glyph-name="Edotaccent" unicode="&#x116;" horiz-adv-x="603" 
d="M61 700h487v-67h-415v-250h375v-65h-375v-251h415v-67h-487v700zM252 836q0 22 15 37.5t38 15.5q22 0 37.5 -15.5t15.5 -37.5t-15 -37q-16 -15 -38 -15t-37.5 15t-15.5 37z" />
    <glyph glyph-name="edotaccent" unicode="&#x117;" 
d="M121 459q79 80 191 80q103 0 178.5 -69t87.5 -170q4 -19 4 -35q0 -13 -3 -25h-468q7 -81 64 -132.5t137 -51.5q55 0 103 25.5t77 69.5l66 -13q-33 -66 -100.5 -106t-145.5 -40q-114 0 -192.5 80t-78.5 194q0 113 80 193zM111 297h398q-8 76 -63 127t-134 51
q-80 0 -136.5 -51t-64.5 -127zM255 666q0 22 15.5 37.5t37.5 15.5t37.5 -15.5t15.5 -37.5t-15 -37q-16 -15 -38 -15t-37.5 15t-15.5 37z" />
    <glyph glyph-name="Eogonek" unicode="&#x118;" horiz-adv-x="603" 
d="M548 700v-67h-415v-250h375v-65h-375v-251h415v-67h-61q-86 -57 -86 -109q0 -37 38.5 -46.5t67.5 -9.5q31 0 67 7v-49q-26 -6 -45 -6.5t-22 -0.5q-33 0 -70 6.5t-63 29t-26 57.5q0 69 102 121h-389v700h487z" />
    <glyph glyph-name="eogonek" unicode="&#x119;" 
d="M121 459q79 80 191 80q103 0 178.5 -69t87.5 -170q4 -19 4 -35q0 -13 -3 -25h-468q7 -81 64 -132.5t137 -51.5q55 0 103 25.5t77 69.5l66 -13q-25 -50 -71 -86t-104 -51q-87 -57 -87 -111q0 -36 38 -45.5t68 -9.5t66 7v-49q-26 -6 -45 -6.5t-22 -0.5q-33 0 -69.5 6.5
t-62.5 29t-26 57.5q0 62 89 114q-7 -1 -20 -1q-114 0 -192.5 80t-78.5 194q0 113 80 193zM111 297h398q-8 76 -63 127t-134 51q-80 0 -136.5 -51t-64.5 -127z" />
    <glyph glyph-name="Ecaron" unicode="&#x11a;" horiz-adv-x="603" 
d="M61 700h487v-67h-415v-250h375v-65h-375v-251h415v-67h-487v700zM157 885h75l74 -91l73 91h74l-90 -113h-115z" />
    <glyph glyph-name="ecaron" unicode="&#x11b;" 
d="M121 459q79 80 191 80q103 0 178.5 -69t87.5 -170q4 -19 4 -35q0 -13 -3 -25h-468q7 -81 64 -132.5t137 -51.5q55 0 103 25.5t77 69.5l66 -13q-33 -66 -100.5 -106t-145.5 -40q-114 0 -192.5 80t-78.5 194q0 113 80 193zM111 297h398q-8 76 -63 127t-134 51
q-80 0 -136.5 -51t-64.5 -127zM159 715h75l74 -91l73 91h74l-90 -113h-115z" />
    <glyph glyph-name="Gbreve" unicode="&#x11e;" horiz-adv-x="765" 
d="M41 350q0 148 102 253t249 105q109 0 193 -60.5t124 -161.5l-71 -15q-32 77 -96.5 122t-149.5 45q-119 0 -199 -83.5t-80 -204.5q0 -120 80 -204t199 -84q106 0 176 67.5t84 175.5l-261 -1l-1 63h334v-23q0 -150 -93 -250.5t-239 -100.5q-148 0 -249.5 104t-101.5 253z
M301 894q0 -34 23.5 -55.5t62.5 -21.5t62.5 21.5t23.5 55.5h49q0 -52 -38.5 -88.5t-96.5 -36.5q-57 0 -95.5 36.5t-38.5 88.5h48z" />
    <glyph glyph-name="gbreve" unicode="&#x11f;" horiz-adv-x="642" 
d="M118 464q76 75 187 75h3q68 0 122.5 -31t85.5 -83v105h70v-470q0 -76 -23 -134t-61.5 -90.5t-82.5 -48.5t-92 -16q-90 0 -164 49t-94 142h70q18 -63 71.5 -94t115.5 -31q35 0 66.5 11t60 34.5t45.5 67.5t18 103v69q-31 -52 -85.5 -82.5t-122.5 -30.5q-114 0 -190.5 76
t-76.5 190q0 113 77 189zM168 130q60 -57 146 -57q85 0 145.5 58t60.5 144q0 84 -60 142.5t-146 58.5q-87 0 -146.5 -58t-59.5 -143q0 -88 60 -145zM179 724h48q0 -34 23.5 -55.5t62.5 -21.5t62.5 21.5t23.5 55.5h49q0 -52 -38.5 -88.5t-96.5 -36.5q-57 0 -95.5 36.5
t-38.5 88.5z" />
    <glyph glyph-name="Gdotaccent" unicode="&#x120;" horiz-adv-x="765" 
d="M41 350q0 148 102 253t249 105q109 0 193 -60.5t124 -161.5l-71 -15q-32 77 -96.5 122t-149.5 45q-119 0 -199 -83.5t-80 -204.5q0 -120 80 -204t199 -84q106 0 176 67.5t84 175.5l-261 -1l-1 63h334v-23q0 -150 -93 -250.5t-239 -100.5q-148 0 -249.5 104t-101.5 253z
M335 836q0 22 15.5 37.5t37.5 15.5t37.5 -15.5t15.5 -37.5t-15 -37q-16 -15 -38 -15t-37.5 15t-15.5 37z" />
    <glyph glyph-name="gdotaccent" unicode="&#x121;" horiz-adv-x="642" 
d="M118 464q76 75 187 75h3q68 0 122.5 -31t85.5 -83v105h70v-470q0 -76 -23 -134t-61.5 -90.5t-82.5 -48.5t-92 -16q-90 0 -164 49t-94 142h70q18 -63 71.5 -94t115.5 -31q35 0 66.5 11t60 34.5t45.5 67.5t18 103v69q-31 -52 -85.5 -82.5t-122.5 -30.5q-114 0 -190.5 76
t-76.5 190q0 113 77 189zM108 275q0 -88 60 -145t146 -57q85 0 145.5 58t60.5 144q0 84 -60 142.5t-146 58.5q-87 0 -146.5 -58t-59.5 -143zM275 704q15 15 38 15q22 0 37.5 -15.5t15.5 -37.5t-15 -37q-16 -15 -38 -15t-37.5 15t-15.5 37t15 38z" />
    <glyph glyph-name="uni0122" unicode="&#x122;" horiz-adv-x="765" 
d="M143 603q102 105 249 105q109 0 193 -60.5t124 -161.5l-71 -15q-32 77 -96.5 122t-149.5 45q-119 0 -199 -83.5t-80 -204.5q0 -120 80 -204t199 -84q106 0 176 67.5t84 175.5l-261 -1l-1 63h334v-23q0 -150 -93 -250.5t-239 -100.5q-148 0 -249.5 104t-101.5 253
q0 148 102 253zM341 -63h85l-93 -171h-62z" />
    <glyph glyph-name="uni0123" unicode="&#x123;" horiz-adv-x="642" 
d="M41 275q0 113 76.5 188.5t187.5 75.5h3q68 0 122.5 -31t85.5 -83v105h70v-470q0 -76 -23 -134t-61.5 -90.5t-82.5 -48.5t-92 -16q-90 0 -164 49t-94 142h70q18 -63 71.5 -94t115.5 -31q35 0 66.5 11t60 34.5t45.5 67.5t18 103v69q-31 -52 -85.5 -82.5t-122.5 -30.5
q-114 0 -190.5 76t-76.5 190zM168 130q60 -57 146 -57q85 0 145.5 58t60.5 144q0 84 -60 142.5t-146 58.5q-87 0 -146.5 -58t-59.5 -143q0 -88 60 -145zM251 602l56 165h54l-37 -165h-73z" />
    <glyph glyph-name="Hbar" unicode="&#x126;" horiz-adv-x="732" 
d="M86 0v515h-67v62h67v123h72v-123h416v123h72v-123h67v-62h-67v-515h-72v317h-416v-317h-72zM158 383h416v132h-416v-132z" />
    <glyph glyph-name="hbar" unicode="&#x127;" horiz-adv-x="606" 
d="M66 0v594h-59v50h59v56h70v-56h189v-50h-189v-166q26 48 75.5 79.5t115.5 31.5q93 0 159 -60t66 -161v-318h-70v296q0 83 -48 130t-118 47q-78 0 -129 -57t-51 -146v-270h-70z" />
    <glyph glyph-name="Imacron" unicode="&#x12a;" horiz-adv-x="202" 
d="M-48 801v52h300v-52h-300zM65 0v700h72v-700h-72z" />
    <glyph glyph-name="imacron" unicode="&#x12b;" horiz-adv-x="205" 
d="M-47 631v52h300v-52h-300zM68 0v530h70v-530h-70z" />
    <glyph glyph-name="Iogonek" unicode="&#x12e;" horiz-adv-x="202" 
d="M67 0h-2v700h72v-700h-34q-85 -59 -85 -109q0 -37 38 -46.5t68 -9.5t66 7v-49q-26 -6 -45 -6.5t-22 -0.5q-33 0 -70 6.5t-63 29t-26 57.5q0 69 103 121z" />
    <glyph glyph-name="iogonek" unicode="&#x12f;" horiz-adv-x="205" 
d="M-36 -121q0 67 104 122v529h70v-529l-31 -1q-1 -1 -10 -7.5t-17.5 -13t-20.5 -17t-20.5 -21.5t-14.5 -24t-6 -26q0 -37 38 -46.5t68 -9.5t66 7v-49q-26 -6 -45 -6.5t-22 -0.5q-33 0 -70 6.5t-63 29t-26 57.5zM51 675q0 22 15 37.5t37 15.5t37.5 -15.5t15.5 -37.5
q0 -23 -15 -38t-38 -15q-22 0 -37 15.5t-15 37.5z" />
    <glyph glyph-name="Idotaccent" unicode="&#x130;" horiz-adv-x="202" 
d="M137 700v-700h-72v700h72zM49 836q0 22 15.5 37.5t37.5 15.5t37.5 -15.5t15.5 -37.5t-15 -37q-16 -15 -38 -15t-37.5 15t-15.5 37z" />
    <glyph glyph-name="dotlessi" unicode="&#x131;" horiz-adv-x="205" 
d="M68 0v530h70v-530h-70z" />
    <glyph glyph-name="uni0136" unicode="&#x136;" horiz-adv-x="637" 
d="M61 700h73v-422l383 422h90l-292 -320l302 -380h-90l-260 326l-133 -145v-181h-73v700zM279 -63h85l-93 -171h-62z" />
    <glyph glyph-name="uni0137" unicode="&#x137;" horiz-adv-x="548" 
d="M128 700v-487l298 317h86l-228 -240l238 -290h-84l-197 243l-113 -119v-124h-70v700h70zM228 -63h85l-93 -171h-62z" />
    <glyph glyph-name="Lacute" unicode="&#x139;" horiz-adv-x="539" 
d="M261 772l89 128h88l-116 -128h-61zM61 0v700h72v-633h367v-67h-439z" />
    <glyph glyph-name="lacute" unicode="&#x13a;" horiz-adv-x="195" 
d="M66 772l89 128h88l-116 -128h-61zM63 0v700h70v-700h-70z" />
    <glyph glyph-name="uni013B" unicode="&#x13b;" horiz-adv-x="539" 
d="M61 0v700h72v-633h367v-67h-439zM167 -234l70 171h85l-93 -171h-62z" />
    <glyph glyph-name="uni013C" unicode="&#x13c;" horiz-adv-x="195" 
d="M63 0v700h70v-700h-70zM-15 -234l70 171h85l-93 -171h-62z" />
    <glyph glyph-name="Lcaron" unicode="&#x13d;" horiz-adv-x="539" 
d="M133 700v-633h367v-67h-439v700h72zM143 885h75l74 -91l73 91h74l-90 -113h-115z" />
    <glyph glyph-name="lcaron" unicode="&#x13e;" horiz-adv-x="306" 
d="M133 700v-700h-70v700h70zM259 700l-12 -209h-54l-7 209h73z" />
    <glyph glyph-name="Lslash" unicode="&#x141;" horiz-adv-x="556" 
d="M84 0v324l-69 -44v63l69 44v313h71v-272l185 119v-66l-185 -117v-297h361v-67h-432z" />
    <glyph glyph-name="lslash" unicode="&#x142;" horiz-adv-x="339" 
d="M135 0v342l-112 -55v65l112 56v292h72v-262l109 54v-66l-109 -54v-372h-72z" />
    <glyph glyph-name="Nacute" unicode="&#x143;" horiz-adv-x="705" 
d="M202 700l366 -668v668h71v-700h-136l-369 674v-674h-70v700h138zM323 772l89 128h88l-116 -128h-61z" />
    <glyph glyph-name="nacute" unicode="&#x144;" horiz-adv-x="594" 
d="M56 530h70v-102q26 48 75.5 79.5t115.5 31.5q93 0 159 -60t66 -161v-318h-70v296q0 83 -48 130t-118 47q-78 0 -129 -57t-51 -146v-270h-70v530zM274 602l89 128h88l-116 -128h-61z" />
    <glyph glyph-name="uni0145" unicode="&#x145;" horiz-adv-x="705" 
d="M202 700l366 -668v668h71v-700h-136l-369 674v-674h-70v700h138zM242 -234l70 171h85l-93 -171h-62z" />
    <glyph glyph-name="uni0146" unicode="&#x146;" horiz-adv-x="594" 
d="M56 530h70v-102q26 48 75.5 79.5t115.5 31.5q93 0 159 -60t66 -161v-318h-70v296q0 83 -48 130t-118 47q-78 0 -129 -57t-51 -146v-270h-70v530zM191 -234l70 171h85l-93 -171h-62z" />
    <glyph glyph-name="Ncaron" unicode="&#x147;" horiz-adv-x="705" 
d="M64 700h138l366 -668v668h71v-700h-136l-369 674v-674h-70v700zM281 885l74 -91l73 91h74l-90 -113h-115l-91 113h75z" />
    <glyph glyph-name="ncaron" unicode="&#x148;" horiz-adv-x="594" 
d="M56 0v530h70v-102q26 48 75.5 79.5t115.5 31.5q93 0 159 -60t66 -161v-318h-70v296q0 83 -48 130t-118 47q-78 0 -129 -57t-51 -146v-270h-70zM156 715h75l74 -91l73 91h74l-90 -113h-115z" />
    <glyph glyph-name="Eng" unicode="&#x14a;" horiz-adv-x="708" 
d="M407 -138q91 -17 130.5 7t39.5 96v35h-52l-392 652v-652h-71v700h125l388 -645v645h71v-731q0 -221 -239 -174v67z" />
    <glyph glyph-name="eng" unicode="&#x14b;" horiz-adv-x="581" 
d="M297 -190v69q92 -17 130.5 12.5t38.5 106.5v298q0 83 -48 130t-118 47q-78 0 -129 -57t-51 -146v-270h-70v530h70v-102q26 48 75.5 79.5t115.5 31.5q93 0 159 -60t66 -161v-321q0 -232 -239 -187z" />
    <glyph glyph-name="Omacron" unicode="&#x14c;" horiz-adv-x="788" 
d="M145 603q102 105 249 105q146 0 248.5 -104.5t102.5 -253.5v-3q0 -146 -102 -250t-249 -104q-148 0 -249.5 104t-101.5 253q0 148 102 253zM195 146q79 -85 199 -85q119 0 199 84t80 205t-80 205.5t-199 84.5q-118 0 -198.5 -84.5t-80.5 -205.5q0 -120 80 -204zM548 853
v-52h-301v52h301z" />
    <glyph glyph-name="omacron" unicode="&#x14d;" horiz-adv-x="623" 
d="M119 459q79 80 192 80q114 0 193 -80.5t79 -192.5q0 -113 -79 -193q-80 -81 -193 -81t-192 80t-79 194q0 113 79 193zM167 118q59 -61 144 -61q86 0 145.5 61t59.5 148t-59.5 147.5t-145.5 60.5t-145 -60.5t-59 -147.5q0 -88 60 -148zM461 683v-52h-300v52h300z" />
    <glyph glyph-name="Ohungarumlaut" unicode="&#x150;" horiz-adv-x="788" 
d="M145 603q102 105 249 105q146 0 248.5 -104.5t102.5 -253.5v-3q0 -146 -102 -250t-249 -104q-148 0 -249.5 104t-101.5 253q0 148 102 253zM115 350q0 -120 79.5 -204.5t199.5 -84.5q119 0 199 84t80 205t-80 205.5t-199 84.5q-118 0 -198.5 -84.5t-80.5 -205.5zM464 785
l89 128h85l-112 -128h-62zM358 913h85l-113 -128h-61z" />
    <glyph glyph-name="ohungarumlaut" unicode="&#x151;" horiz-adv-x="623" 
d="M40 266q0 113 79 193t192 80q114 0 193 -80.5t79 -192.5q0 -113 -79 -193q-80 -81 -193 -81t-192 80t-79 194zM107 266q0 -88 59.5 -148.5t144.5 -60.5q86 0 145.5 61t59.5 148t-59.5 147.5t-145.5 60.5t-145 -60.5t-59 -147.5zM153 615l89 128h85l-112 -128h-62z
M348 615l90 128h84l-112 -128h-62z" />
    <glyph glyph-name="OE" unicode="&#x152;" horiz-adv-x="1199" 
d="M385 -7q-148 0 -250 104t-102 253q0 148 102.5 253t249.5 105q89 0 164 -45t116 -120v157h486v-67h-415v-250h375v-65h-375v-251h415v-67h-486v157q-41 -74 -115.5 -119t-164.5 -45zM385 61q119 0 199 84t80 205q0 120 -80.5 205t-198.5 85q-119 0 -199 -84.5t-80 -205.5
q0 -120 79.5 -204.5t199.5 -84.5z" />
    <glyph glyph-name="oe" unicode="&#x153;" horiz-adv-x="1090" 
d="M308 -8q-113 0 -192 80t-79 194q0 113 79 193t192 80q79 0 143 -42.5t95 -110.5q31 69 95 111t143 42q103 0 177.5 -69t88.5 -170q5 -36 1 -60h-468q7 -81 64 -132.5t137 -51.5q55 0 103 25.5t77 69.5l65 -13q-32 -66 -99.5 -106t-145.5 -40q-79 0 -143 42t-95 111
q-31 -68 -95 -110.5t-143 -42.5zM583 297h398q-8 76 -63.5 127t-133.5 51q-80 0 -136.5 -51.5t-64.5 -126.5zM308 57q86 0 145.5 61t59.5 148q0 86 -60 147t-145 61q-86 0 -145 -60.5t-59 -147.5q0 -88 59.5 -148.5t144.5 -60.5z" />
    <glyph glyph-name="Racute" unicode="&#x154;" horiz-adv-x="621" 
d="M361 700q98 0 157.5 -63t59.5 -153q0 -81 -48 -136.5t-121 -69.5l176 -278h-82l-172 271h-198v-271h-72v700h300zM133 634v-300h215q70 0 115 41t45 110q0 63 -39 106t-108 43h-228zM268 772l89 128h88l-116 -128h-61z" />
    <glyph glyph-name="racute" unicode="&#x155;" horiz-adv-x="377" 
d="M126 530v-112q26 64 75.5 90.5t102.5 26.5q22 0 46 -4v-73q-28 6 -53 6q-61 0 -116 -45.5t-55 -153.5v-265h-70v530h70zM160 602l89 128h88l-116 -128h-61z" />
    <glyph glyph-name="uni0156" unicode="&#x156;" horiz-adv-x="621" 
d="M61 0v700h300q98 0 157.5 -63t59.5 -153q0 -81 -48 -136.5t-121 -69.5l176 -278h-82l-172 271h-198v-271h-72zM348 334q70 0 115 41t45 110q0 63 -39 106t-108 43h-228v-300h215zM188 -234l70 171h85l-93 -171h-62z" />
    <glyph glyph-name="uni0157" unicode="&#x157;" horiz-adv-x="377" 
d="M126 530v-112q26 64 75.5 90.5t102.5 26.5q22 0 46 -4v-73q-28 6 -53 6q-61 0 -116 -45.5t-55 -153.5v-265h-70v530h70zM74 -234l70 171h85l-93 -171h-62z" />
    <glyph glyph-name="Rcaron" unicode="&#x158;" horiz-adv-x="621" 
d="M61 700h300q98 0 157.5 -63t59.5 -153q0 -81 -48 -136.5t-121 -69.5l176 -278h-82l-172 271h-198v-271h-72v700zM133 634v-300h215q70 0 115 41t45 110q0 63 -39 106t-108 43h-228zM225 885l74 -91l73 91h74l-90 -113h-115l-91 113h75z" />
    <glyph glyph-name="rcaron" unicode="&#x159;" horiz-adv-x="377" 
d="M56 530h70v-112q26 64 75.5 90.5t102.5 26.5q22 0 46 -4v-73q-28 6 -53 6q-61 0 -116 -45.5t-55 -153.5v-265h-70v530zM42 715h75l74 -91l73 91h74l-90 -113h-115z" />
    <glyph glyph-name="Sacute" unicode="&#x15a;" 
d="M48 514q0 91 79 143t182 52q142 0 252 -87v-80q-114 100 -252 100q-74 0 -132 -33.5t-58 -93.5q0 -20 7 -35.5t24 -28t33 -21.5t46.5 -18t51.5 -14.5t60 -14.5q130 -29 183.5 -78t54.5 -121q0 -63 -37.5 -108t-93 -64.5t-119.5 -19.5h-6q-153 1 -273 112v79
q131 -123 277 -123q75 0 128 31.5t53 90.5q0 52 -47.5 85.5t-160.5 59.5q-132 29 -192 70.5t-60 116.5zM369 900h88l-116 -128h-61z" />
    <glyph glyph-name="sacute" unicode="&#x15b;" horiz-adv-x="512" 
d="M105 499q61 40 150 40q119 0 206 -66v-71q-104 76 -206 76q-57 0 -98 -24.5t-41 -65.5q0 -14 5 -25.5t18 -20t24.5 -14.5t36 -12.5t40.5 -10t49 -9.5q100 -22 144.5 -60t44.5 -94v-2q0 -71 -58.5 -109.5t-144.5 -38.5q-127 0 -229 83v78q37 -40 101.5 -69.5t127.5 -29.5
q55 0 93.5 25t38.5 63q0 70 -157 100q-106 20 -156 52.5t-50 92.5q0 71 61 112zM315 730h88l-116 -128h-61z" />
    <glyph glyph-name="Scedilla" unicode="&#x15e;" 
d="M327 60q75 0 128 31.5t53 90.5q0 52 -47.5 85.5t-160.5 59.5q-132 29 -192 70.5t-60 116.5q0 91 79 143t182 52q142 0 252 -87v-80q-114 100 -252 100q-74 0 -132 -33.5t-58 -93.5q0 -20 7 -35.5t24 -28t33 -21.5t46.5 -18t51.5 -14.5t60 -14.5q130 -29 183.5 -78
t54.5 -121v-2q0 -90 -72 -139t-175 -51l-16 -38q44 -9 79 -33t35 -61q0 -28 -25.5 -46.5t-60 -23.5t-55.5 -6t-28 -1q-23 0 -37 4v51q22 -5 46 -5t63.5 6.5t39.5 31.5q0 21 -36.5 36t-69.5 18l27 68q-126 10 -248 112v79q140 -124 281 -124z" />
    <glyph glyph-name="scedilla" unicode="&#x15f;" horiz-adv-x="512" 
d="M44 387q0 71 61 111.5t150 40.5q119 0 206 -66v-71q-104 76 -206 76q-57 0 -98 -24.5t-41 -65.5q0 -14 5 -25.5t18 -20t24.5 -14.5t36 -12.5t40.5 -10t49 -9.5q100 -22 144.5 -60t44.5 -94v-2q0 -71 -58.5 -109.5t-144.5 -38.5h-1l-12 -29q43 -8 78 -32.5t35 -60.5
q0 -29 -25.5 -47.5t-60 -23.5t-55.5 -6t-28 -1q-23 0 -37 4v51q22 -5 46 -5t63.5 6.5t39.5 31.5q0 22 -36.5 37t-69.5 17l24 60q-107 13 -190 81v78q37 -40 101.5 -69.5t127.5 -29.5q55 0 93.5 25t38.5 63q0 70 -157 100q-106 20 -156 52.5t-50 92.5z" />
    <glyph glyph-name="Scaron" unicode="&#x160;" 
d="M48 514q0 91 79 143t182 52q142 0 252 -87v-80q-114 100 -252 100q-74 0 -132 -33.5t-58 -93.5q0 -20 7 -35.5t24 -28t33 -21.5t46.5 -18t51.5 -14.5t60 -14.5q130 -29 183.5 -78t54.5 -121q0 -63 -37.5 -108t-93 -64.5t-119.5 -19.5h-6q-153 1 -273 112v79
q131 -123 277 -123q75 0 128 31.5t53 90.5q0 52 -47.5 85.5t-160.5 59.5q-132 29 -192 70.5t-60 116.5zM163 885h75l74 -91l73 91h74l-90 -113h-115z" />
    <glyph glyph-name="scaron" unicode="&#x161;" horiz-adv-x="512" 
d="M44 387q0 71 61 111.5t150 40.5q119 0 206 -66v-71q-104 76 -206 76q-57 0 -98 -24.5t-41 -65.5q0 -14 5 -25.5t18 -20t24.5 -14.5t36 -12.5t40.5 -10t49 -9.5q100 -22 144.5 -60t44.5 -94v-2q0 -71 -58.5 -109.5t-144.5 -38.5q-127 0 -229 83v78q37 -40 101.5 -69.5
t127.5 -29.5q55 0 93.5 25t38.5 63q0 70 -157 100q-106 20 -156 52.5t-50 92.5zM183 715l74 -91l73 91h74l-90 -113h-115l-91 113h75z" />
    <glyph glyph-name="uni0162" unicode="&#x162;" horiz-adv-x="619" 
d="M587 700v-67h-238v-633h-24l-16 -37q43 -8 78.5 -32.5t35.5 -60.5q0 -29 -25.5 -47.5t-60 -23.5t-55.5 -6t-28 -1q-24 0 -37 4v51q22 -5 46 -5q23 0 62.5 6.5t39.5 31.5q0 21 -37 36.5t-68 17.5l25 66h-8v633h-245v67h555z" />
    <glyph glyph-name="uni0163" unicode="&#x163;" horiz-adv-x="423" 
d="M142 530v144l69 21v-165h178v-62h-178v-306q0 -105 96 -105q34 0 81 13v-68q-50 -13 -90 -13q-14 0 -27 2l-11 -28q43 -8 78 -32.5t35 -60.5q0 -29 -25.5 -47.5t-60 -23.5t-55.5 -6t-28 -1q-23 0 -37 4v51q22 -5 46 -5t63.5 6.5t39.5 31.5q0 22 -36.5 37t-69.5 17l25 65
q-93 33 -93 162v307h-115v62h115z" />
    <glyph glyph-name="Tcaron" unicode="&#x164;" horiz-adv-x="619" 
d="M32 633v67h555v-67h-238v-633h-72v633h-245zM162 885h75l74 -91l73 91h74l-90 -113h-115z" />
    <glyph glyph-name="tcaron" unicode="&#x165;" horiz-adv-x="423" 
d="M27 530h115v144l69 21v-165h178v-62h-178v-306q0 -105 96 -105q34 0 81 13v-68q-49 -12 -89 -12q-56 0 -106.5 32t-50.5 139v307h-115v62zM33 863h75l74 -91l73 91h74l-90 -113h-115z" />
    <glyph glyph-name="Tbar" unicode="&#x166;" horiz-adv-x="619" 
d="M277 0v370h-194v68h194v195h-245v67h555v-67h-238v-195h187v-68h-187v-370h-72z" />
    <glyph glyph-name="tbar" unicode="&#x167;" horiz-adv-x="420" 
d="M388 2q-118 -29 -182 11.5t-64 147.5v117h-115v55h115v135h-115v62h115v126l70 39l-1 -165h178v-62h-178v-135h171v-55h-171v-116q0 -143 177 -92v-68z" />
    <glyph glyph-name="Umacron" unicode="&#x16a;" horiz-adv-x="685" 
d="M129 700v-416q0 -107 64 -165t149 -58q86 0 150 58t64 165v416h72v-416q0 -138 -83 -215t-203 -77q-76 0 -139.5 31.5t-105 99.5t-41.5 161v416h73zM196 801v52h300v-52h-300z" />
    <glyph glyph-name="umacron" unicode="&#x16b;" horiz-adv-x="594" 
d="M120 530v-296q0 -82 48.5 -129.5t117.5 -47.5q78 0 129 57t51 146v270h70v-530h-70v102q-26 -48 -75.5 -79.5t-115.5 -31.5q-92 0 -158.5 60t-66.5 161v318h70zM143 631v52h300v-52h-300z" />
    <glyph glyph-name="Uring" unicode="&#x16e;" horiz-adv-x="685" 
d="M56 700h73v-416q0 -107 64 -165t149 -58q86 0 150 58t64 165v416h72v-416q0 -138 -83 -215t-203 -77q-76 0 -139.5 31.5t-105 99.5t-41.5 161v416zM281 910q27 27 65 27t65 -27.5t27 -65.5t-27 -64.5t-65 -26.5q-39 0 -66 26.5t-27 64.5q0 39 28 66zM309 808
q15 -15 37 -15q21 0 36 15t15 36q0 22 -15 37t-36 15q-22 0 -35.5 -15t-15.5 -37v-3q0 -19 14 -33z" />
    <glyph glyph-name="uring" unicode="&#x16f;" horiz-adv-x="594" 
d="M50 530h70v-296q0 -82 48.5 -129.5t117.5 -47.5q78 0 129 57t51 146v270h70v-530h-70v102q-26 -48 -75.5 -79.5t-115.5 -31.5q-92 0 -158.5 60t-66.5 161v318zM229 740q27 27 65 27t65 -27.5t27 -65.5t-27 -64.5t-65 -26.5q-39 0 -66 26.5t-27 64.5q0 39 28 66zM257 638
q15 -15 37 -15q21 0 36 15t15 36q0 22 -15 37t-36 15q-22 0 -35.5 -15t-15.5 -37v-3q0 -19 14 -33z" />
    <glyph glyph-name="Uhungarumlaut" unicode="&#x170;" horiz-adv-x="685" 
d="M129 700v-416q0 -107 64 -165t149 -58q86 0 150 58t64 165v416h72v-416q0 -138 -83 -215t-203 -77q-76 0 -139.5 31.5t-105 99.5t-41.5 161v416h73zM502 913h85l-113 -128h-61zM217 785l90 128h84l-112 -128h-62z" />
    <glyph glyph-name="uhungarumlaut" unicode="&#x171;" horiz-adv-x="594" 
d="M50 212v318h70v-296q0 -82 48.5 -129.5t117.5 -47.5q78 0 129 57t51 146v270h70v-530h-70v102q-26 -48 -75.5 -79.5t-115.5 -31.5q-92 0 -158.5 60t-66.5 161zM419 743h85l-112 -128h-62zM224 743h85l-113 -128h-61z" />
    <glyph glyph-name="Uogonek" unicode="&#x172;" horiz-adv-x="685" 
d="M56 284v416h73v-416q0 -107 64 -165t149 -58q86 0 150 58t64 165v416h72v-416q0 -113 -56.5 -185t-147.5 -96q-89 -60 -89 -112q0 -37 38.5 -46.5t67.5 -9.5q31 0 67 7v-49q-26 -6 -45 -6.5t-22 -0.5q-33 0 -70 6.5t-63 29t-26 57.5q0 63 89 114q-9 -1 -29 -1
q-76 0 -139.5 31.5t-105 99.5t-41.5 161z" />
    <glyph glyph-name="uogonek" unicode="&#x173;" horiz-adv-x="594" 
d="M120 530v-296q0 -82 48.5 -129.5t117.5 -47.5q78 0 129 57t51 146v270h70v-526l-32 -4q-1 -1 -10 -7.5t-17.5 -13t-20.5 -17t-20.5 -21.5t-14.5 -24t-6 -26q0 -37 38 -46.5t68 -9.5t66 7v-49q-26 -6 -45 -6.5t-22 -0.5q-33 0 -70 6.5t-63 29t-26 57.5q0 67 105 123v100
q-26 -48 -75.5 -79.5t-115.5 -31.5q-92 0 -158.5 60t-66.5 161v318h70z" />
    <glyph glyph-name="Wcircumflex" unicode="&#x174;" horiz-adv-x="975" 
d="M34 700h75l149 -667l171 667h120l168 -666l149 666h75l-165 -700h-123l-164 672l-172 -672h-121zM430 885h115l91 -113h-74l-74 91l-74 -91h-74z" />
    <glyph glyph-name="wcircumflex" unicode="&#x175;" horiz-adv-x="816" 
d="M26 530h73l133 -491l121 491h111l120 -492l133 492h73l-152 -530h-110l-120 492l-120 -492h-111zM350 715h115l91 -113h-74l-74 91l-74 -91h-74z" />
    <glyph glyph-name="Ycircumflex" unicode="&#x176;" horiz-adv-x="653" 
d="M28 700h79l220 -384l220 384h78l-261 -462v-238h-72v237zM179 772l90 113h115l91 -113h-74l-74 91l-74 -91h-74z" />
    <glyph glyph-name="ycircumflex" unicode="&#x177;" horiz-adv-x="559" 
d="M93 530l187 -444l177 444h76l-301 -740h-75l87 212l-227 528h76zM127 602l90 113h115l91 -113h-74l-74 91l-74 -91h-74z" />
    <glyph glyph-name="Ydieresis" unicode="&#x178;" horiz-adv-x="653" 
d="M28 700h79l220 -384l220 384h78l-261 -462v-238h-72v237zM167 838q0 21 14 35t35 14t35 -14t14 -35t-14 -35t-35 -14t-35 14t-14 35zM404 873q14 14 35 14q20 0 34.5 -14t14.5 -35t-14.5 -35t-34.5 -14q-21 0 -35 14t-14 35t14 35z" />
    <glyph glyph-name="Zacute" unicode="&#x179;" horiz-adv-x="614" 
d="M276 772l89 128h88l-116 -128h-61zM51 74l423 559h-422v67h511v-63l-433 -570h424v-67h-503v74z" />
    <glyph glyph-name="zacute" unicode="&#x17a;" horiz-adv-x="508" 
d="M225 602l89 128h88l-116 -128h-61zM46 71l329 393h-328v66h414v-67l-332 -398h327v-65h-410v71z" />
    <glyph glyph-name="Zdotaccent" unicode="&#x17b;" horiz-adv-x="614" 
d="M51 0v74l423 559h-422v67h511v-63l-433 -570h424v-67h-503zM254 836q0 22 15 37.5t38 15.5q22 0 37.5 -15.5t15.5 -37.5t-15 -37q-16 -15 -38 -15t-37.5 15t-15.5 37z" />
    <glyph glyph-name="zdotaccent" unicode="&#x17c;" horiz-adv-x="508" 
d="M46 0v71l329 393h-328v66h414v-67l-332 -398h327v-65h-410zM203 666q0 22 15.5 37.5t37.5 15.5t37.5 -15.5t15.5 -37.5t-15 -37q-16 -15 -38 -15t-37.5 15t-15.5 37z" />
    <glyph glyph-name="Zcaron" unicode="&#x17d;" horiz-adv-x="614" 
d="M51 0v74l423 559h-422v67h511v-63l-433 -570h424v-67h-503zM159 885h75l74 -91l73 91h74l-90 -113h-115z" />
    <glyph glyph-name="zcaron" unicode="&#x17e;" horiz-adv-x="508" 
d="M46 0v71l329 393h-328v66h414v-67l-332 -398h327v-65h-410zM107 715h75l74 -91l73 91h74l-90 -113h-115z" />
    <glyph glyph-name="uni0218" unicode="&#x218;" 
d="M48 514q0 91 79 143t182 52q142 0 252 -87v-80q-114 100 -252 100q-74 0 -132 -33.5t-58 -93.5q0 -20 7 -35.5t24 -28t33 -21.5t46.5 -18t51.5 -14.5t60 -14.5q130 -29 183.5 -78t54.5 -121q0 -63 -37.5 -108t-93 -64.5t-119.5 -19.5h-6q-153 1 -273 112v79
q131 -123 277 -123q75 0 128 31.5t53 90.5q0 52 -47.5 85.5t-160.5 59.5q-132 29 -192 70.5t-60 116.5zM269 -72h85l-93 -171h-62z" />
    <glyph glyph-name="uni0219" unicode="&#x219;" horiz-adv-x="512" 
d="M105 499q61 40 150 40q119 0 206 -66v-71q-104 76 -206 76q-57 0 -98 -24.5t-41 -65.5q0 -14 5 -25.5t18 -20t24.5 -14.5t36 -12.5t40.5 -10t49 -9.5q100 -22 144.5 -60t44.5 -94v-2q0 -71 -58.5 -109.5t-144.5 -38.5q-127 0 -229 83v78q37 -40 101.5 -69.5t127.5 -29.5
q55 0 93.5 25t38.5 63q0 70 -157 100q-106 20 -156 52.5t-50 92.5q0 71 61 112zM145 -234l70 171h85l-93 -171h-62z" />
    <glyph glyph-name="uni021A" unicode="&#x21a;" horiz-adv-x="619" 
d="M32 700h555v-67h-238v-633h-72v633h-245v67zM192 -234l70 171h85l-93 -171h-62z" />
    <glyph glyph-name="uni021B" unicode="&#x21b;" horiz-adv-x="423" 
d="M27 530h115v144l69 21v-165h178v-62h-178v-306q0 -105 96 -105q34 0 81 13v-68q-49 -12 -89 -12q-56 0 -106.5 32t-50.5 139v307h-115v62zM213 -63h85l-93 -171h-62z" />
    <glyph glyph-name="uni0237" unicode="&#x237;" horiz-adv-x="213" 
d="M-93 -205v68q39 -7 68 -7q42 0 72 19.5t30 94.5v560h70v-561q0 -111 -48 -147t-113 -36q-35 0 -79 9z" />
    <glyph glyph-name="uni02BC" unicode="&#x2bc;" horiz-adv-x="600" 
 />
    <glyph glyph-name="gravecomb" unicode="&#x300;" horiz-adv-x="0" 
d="M-204 602l-113 128h85l89 -128h-61z" />
    <glyph glyph-name="acutecomb" unicode="&#x301;" horiz-adv-x="0" 
d="M-187 602l89 128h88l-116 -128h-61z" />
    <glyph glyph-name="uni0302" unicode="&#x302;" horiz-adv-x="0" 
d="M-273 715h115l91 -113h-74l-74 91l-74 -91h-74z" />
    <glyph glyph-name="tildecomb" unicode="&#x303;" horiz-adv-x="0" 
d="M-451 614q3 54 34 89.5t78 35.5q28 0 52.5 -15t38.5 -32.5t33 -32.5t37 -15q25 0 40.5 23.5t16.5 61.5h53q-2 -59 -32 -96t-78 -37q-27 0 -51 14.5t-38 32.5t-33.5 32.5t-38.5 14.5q-26 0 -41.5 -21.5t-17.5 -54.5h-53z" />
    <glyph glyph-name="uni0304" unicode="&#x304;" horiz-adv-x="0" 
d="M-434 631v52h300v-52h-300z" />
    <glyph glyph-name="uni0306" unicode="&#x306;" horiz-adv-x="0" 
d="M-370 724q0 -34 23.5 -55.5t62.5 -21.5t62.5 21.5t23.5 55.5h49q0 -52 -38.5 -88.5t-96.5 -36.5q-57 0 -95.5 36.5t-38.5 88.5h48z" />
    <glyph glyph-name="uni0307" unicode="&#x307;" horiz-adv-x="0" 
d="M-187 666q0 22 15.5 37.5t37.5 15.5t37.5 -15.5t15.5 -37.5t-16 -37q-15 -15 -37 -15t-37.5 15t-15.5 37z" />
    <glyph glyph-name="uni0308" unicode="&#x308;" horiz-adv-x="0" 
d="M-340 668q0 21 14 35t35 14t35 -14t14 -35t-14 -35t-35 -14t-35 14t-14 35zM-117 668q0 21 14 35t35 14q20 0 34.5 -14t14.5 -35t-14.5 -35t-34.5 -14q-21 0 -35 14t-14 35z" />
    <glyph glyph-name="uni030A" unicode="&#x30a;" horiz-adv-x="0" 
d="M-208 740q28 27 66 27t65 -27.5t27 -65.5t-27 -64.5t-65 -26.5q-39 0 -66 26.5t-27 64.5q0 39 27 66zM-179 638q15 -15 37 -15q21 0 36 15t15 36q0 22 -15 37t-36 15q-22 0 -35.5 -15t-15.5 -37v-3q0 -19 14 -33z" />
    <glyph glyph-name="uni030B" unicode="&#x30b;" horiz-adv-x="0" 
d="M-149 730h85l-112 -128h-62zM-433 602l89 128h85l-113 -128h-61z" />
    <glyph glyph-name="uni030C" unicode="&#x30c;" horiz-adv-x="0" 
d="M-448 715h75l74 -91l73 91h74l-90 -113h-115z" />
    <glyph glyph-name="uni0312" unicode="&#x312;" horiz-adv-x="0" 
d="M-499 602l56 165h54l-37 -165h-73z" />
    <glyph glyph-name="uni0326" unicode="&#x326;" horiz-adv-x="0" 
d="M-388 -234l70 171h85l-93 -171h-62z" />
    <glyph glyph-name="uni0327" unicode="&#x327;" horiz-adv-x="0" 
d="M-178 -148q54 9 54 34q0 22 -36.5 37t-69.5 17l32 82l37 -6l-19 -47q43 -8 78 -32.5t35 -60.5q0 -29 -25.5 -47.5t-60 -23.5t-55.5 -6t-28 -1q-23 0 -37 4v51q22 -5 48 -5q22 0 47 4z" />
    <glyph glyph-name="uni0328" unicode="&#x328;" horiz-adv-x="0" 
d="M-461 -111q0 37 31.5 69.5t61 47.5t33.5 15h1h29q-3 0 -27 -16.5t-50 -46.5t-26 -58q0 -36 38 -45.5t68 -9.5t66 7v-49q-26 -6 -45 -6.5t-22 -0.5q-33 0 -69.5 6.5t-62.5 29t-26 57.5z" />
    <glyph glyph-name="uni0400" unicode="&#x400;" horiz-adv-x="614" 
d="M563 700v-67h-430v-249h390v-66h-390v-251h430v-67h-502v700h502zM168 900h85l89 -128h-61z" />
    <glyph glyph-name="uni0401" unicode="&#x401;" horiz-adv-x="614" 
d="M563 700v-67h-430v-249h390v-66h-390v-251h430v-67h-502v700h502zM147 838q0 21 14 35t35 14t35 -14t14 -35t-14 -35t-35 -14t-35 14t-14 35zM384 873q14 14 35 14q20 0 34.5 -14t14.5 -35t-14.5 -35t-34.5 -14q-21 0 -35 14t-14 35t14 35z" />
    <glyph glyph-name="uni0402" unicode="&#x402;" horiz-adv-x="857" 
d="M274 0v633h-246v67h556v-67h-238v-255q30 48 85.5 79.5t130.5 31.5q115 0 185.5 -69t70.5 -175v-15q0 -91 -65 -160.5t-163 -69.5h-113v66h100q73 0 121 50t48 118v4q0 85 -52.5 134.5t-141.5 49.5q-95 0 -150.5 -57t-55.5 -150v-215h-72z" />
    <glyph glyph-name="uni0403" unicode="&#x403;" horiz-adv-x="579" 
d="M451 900l-115 -128h-62l89 128h88zM548 700v-67h-415v-633h-72v700h487z" />
    <glyph glyph-name="uni0404" unicode="&#x404;" horiz-adv-x="723" 
d="M374 65q78 0 139.5 43.5t93.5 116.5h78q-37 -104 -121.5 -166t-189.5 -62q-141 0 -236 104t-95 253q0 150 95 254t236 104q104 0 189.5 -62t122.5 -167h-79q-33 74 -94.5 117.5t-138.5 43.5q-105 0 -177 -74t-81 -187h370v-66h-369q11 -109 82 -180.5t175 -71.5z" />
    <glyph glyph-name="uni0405" unicode="&#x405;" 
d="M127 657q79 52 182 52q142 0 252 -87v-80q-114 100 -252 100q-74 0 -132 -33.5t-58 -93.5q0 -20 7 -35.5t24 -28t33 -21.5t46.5 -18t51.5 -14.5t60 -14.5q130 -29 183.5 -78t54.5 -121q0 -63 -37.5 -108t-93 -64.5t-119.5 -19.5h-6q-153 1 -273 112v79q131 -123 277 -123
q75 0 128 31.5t53 90.5q0 52 -47.5 85.5t-160.5 59.5q-132 29 -192 70.5t-60 116.5q0 91 79 143z" />
    <glyph glyph-name="uni0406" unicode="&#x406;" horiz-adv-x="479" 
d="M35 67h168v566h-168v67h409v-67h-169v-566h169v-67h-409v67z" />
    <glyph glyph-name="uni0407" unicode="&#x407;" horiz-adv-x="479" 
d="M35 633v67h409v-67h-169v-566h169v-67h-409v67h168v566h-168zM79 838q0 21 14 35t35 14t35 -14t14 -35t-14 -35t-35 -14t-35 14t-14 35zM316 873q14 14 35 14q20 0 34.5 -14t14.5 -35t-14.5 -35t-34.5 -14q-21 0 -35 14t-14 35t14 35z" />
    <glyph glyph-name="uni0408" unicode="&#x408;" horiz-adv-x="594" 
d="M44 237h72q1 -77 53 -126.5t125 -49.5q174 0 174 236v336h-353v67h425v-411q0 -136 -64 -216t-182 -80q-105 0 -177.5 68.5t-72.5 172.5v3z" />
    <glyph glyph-name="uni0409" unicode="&#x409;" horiz-adv-x="1103" 
d="M859 405q97 0 153 -59.5t56 -142.5t-56 -143.5t-153 -60.5h-318v648h-306v-344q0 -65 -10.5 -116.5t-34 -94t-66.5 -64.5t-102 -18v66q43 -3 72 14t43.5 52t20 73.5t5.5 88.5v410h450v-309h246zM850 65q71 0 108.5 40t37.5 97q0 58 -37.5 97.5t-108.5 39.5l-237 1v-275
h237z" />
    <glyph glyph-name="uni040A" unicode="&#x40a;" horiz-adv-x="1130" 
d="M887 394q97 -1 153 -59t56 -138t-56.5 -138.5t-152.5 -58.5h-331v328h-423v-328h-72v700h72v-306h423v306h72v-306h259zM877 66q71 0 109 38.5t38 92.5t-38 92.5t-109 38.5h-249v-262h249z" />
    <glyph glyph-name="uni040B" unicode="&#x40b;" horiz-adv-x="864" 
d="M26 633v67h556v-67h-238v-255q70 111 216 111q111 0 183.5 -64.5t72.5 -167.5v-257h-72v246q0 85 -54 130t-140 45q-97 0 -151.5 -56.5t-54.5 -149.5v-215h-72v633h-246z" />
    <glyph glyph-name="uni040C" unicode="&#x40c;" horiz-adv-x="635" 
d="M133 700v-322l369 322h96l-392 -343l394 -357h-99l-368 335v-335h-72v700h72zM388 900h88l-116 -128h-61z" />
    <glyph glyph-name="uni040D" unicode="&#x40d;" horiz-adv-x="697" 
d="M64 700h70v-668l367 668h138v-700h-71v674l-369 -674h-135v700zM289 900l90 -128h-62l-112 128h84z" />
    <glyph glyph-name="uni040F" unicode="&#x40f;" horiz-adv-x="682" 
d="M621 700v-700h-244v-142h-72v142h-244v700h72v-632h416v632h72z" />
    <glyph glyph-name="uni0410" unicode="&#x410;" horiz-adv-x="732" 
d="M309 700h119l268 -700h-76l-67 174h-372l-68 -174h-76zM204 240h327l-162 420z" />
    <glyph glyph-name="uni0411" unicode="&#x411;" horiz-adv-x="632" 
d="M392 406q97 0 153 -60t56 -143q0 -82 -56.5 -142.5t-152.5 -60.5h-331v700h498v-67h-426v-227h259zM383 66q71 0 108.5 40t37.5 97q0 58 -37.5 97.5t-108.5 39.5h-250v-274h250z" />
    <glyph glyph-name="uni0412" unicode="&#x412;" horiz-adv-x="640" 
d="M64 700h314q96 0 151.5 -48t55.5 -129q0 -60 -29.5 -103t-81.5 -60q133 -36 133 -171q0 -89 -58 -139t-161 -50h-324v700zM136 326v-260h248q71 0 111 34.5t40 98.5q0 66 -43.5 96.5t-113.5 30.5h-242zM370 386q66 0 105.5 34.5t39.5 93.5q0 56 -37 88t-102 32h-240v-248
h234z" />
    <glyph glyph-name="uni0413" unicode="&#x413;" horiz-adv-x="576" 
d="M548 700v-67h-415v-633h-72v700h487z" />
    <glyph glyph-name="uni0414" unicode="&#x414;" horiz-adv-x="722" 
d="M613 66h84v-208h-72v142h-531v-142h-72v208q141 0 141 260v374h450v-634zM166 66h375v567h-306v-308q0 -174 -69 -259z" />
    <glyph glyph-name="uni0415" unicode="&#x415;" horiz-adv-x="614" 
d="M563 700v-67h-430v-249h390v-66h-390v-251h430v-67h-502v700h502z" />
    <glyph glyph-name="uni0416" unicode="&#x416;" horiz-adv-x="901" 
d="M865 700l-319 -344l319 -356h-86l-292 328v-328h-72v328l-293 -328h-86l319 356l-319 344h87l292 -316v316h72v-316l292 316h86z" />
    <glyph glyph-name="uni0417" unicode="&#x417;" horiz-adv-x="630" 
d="M313 -7q-126 0 -203 59t-77 142v3h72q0 -59 59.5 -98.5t150.5 -39.5q90 0 148 39t58 101q0 60 -54.5 97t-153.5 37h-128v66h128q87 0 140 35.5t53 88.5q0 52 -51.5 86t-139.5 34q-85 0 -140 -36t-55 -84h-72v6q0 79 75.5 129.5t189.5 50.5q118 0 192 -50.5t74 -132.5
q0 -61 -37.5 -100t-90.5 -58q65 -19 104 -62.5t39 -105.5q0 -88 -76.5 -147.5t-204.5 -59.5z" />
    <glyph glyph-name="uni0418" unicode="&#x418;" horiz-adv-x="697" 
d="M64 0v700h70v-668l367 668h138v-700h-71v674l-369 -674h-135z" />
    <glyph glyph-name="uni0419" unicode="&#x419;" horiz-adv-x="697" 
d="M352 769q-57 0 -95.5 36.5t-38.5 89.5h48q0 -34 23.5 -56t62.5 -22q38 0 62 22t24 56h49q0 -53 -38.5 -89.5t-96.5 -36.5zM64 0v700h70v-668l367 668h138v-700h-71v674l-369 -674h-135z" />
    <glyph glyph-name="uni041A" unicode="&#x41a;" horiz-adv-x="627" 
d="M600 0h-99l-368 335v-335h-72v700h72v-322l369 322h96l-392 -343z" />
    <glyph glyph-name="uni041B" unicode="&#x41b;" horiz-adv-x="670" 
d="M20 -4v66q35 -3 60.5 9t41 32.5t24.5 52t12 63t3 71.5v410h450v-700h-72v633h-306v-344q0 -51 -6.5 -94.5t-21.5 -82t-39 -65t-61 -40.5t-85 -11z" />
    <glyph glyph-name="uni041C" unicode="&#x41c;" horiz-adv-x="873" 
d="M194 700l242 -675l242 675h134v-700h-70v670l-240 -670h-133l-238 667v-667h-70v700h133z" />
    <glyph glyph-name="uni041D" unicode="&#x41d;" horiz-adv-x="689" 
d="M133 700v-317h423v317h72v-700h-72v317h-423v-317h-72v700h72z" />
    <glyph glyph-name="uni041E" unicode="&#x41e;" horiz-adv-x="788" 
d="M145 603q102 105 249 105q146 0 248.5 -104.5t102.5 -253.5v-3q0 -146 -102 -250t-249 -104q-148 0 -249.5 104t-101.5 253q0 148 102 253zM115 350q0 -120 79.5 -204.5t199.5 -84.5q119 0 199 84t80 205t-80 205.5t-199 84.5q-118 0 -198.5 -84.5t-80.5 -205.5z" />
    <glyph glyph-name="uni041F" unicode="&#x41f;" horiz-adv-x="683" 
d="M61 0v700h561v-700h-72v633h-417v-633h-72z" />
    <glyph glyph-name="uni0420" unicode="&#x420;" horiz-adv-x="616" 
d="M62 0v700h301q99 0 158 -64t59 -159q0 -96 -59 -159.5t-158 -63.5h-229v-254h-72zM134 320h223q72 0 111.5 45t39.5 114q0 68 -39.5 111.5t-111.5 43.5h-223v-314z" />
    <glyph glyph-name="uni0421" unicode="&#x421;" horiz-adv-x="753" 
d="M145 608q102 104 249 104q108 0 193 -60t126 -159l-70 -20q-32 77 -97.5 123.5t-151.5 47.5h-3q-115 0 -195.5 -84.5t-80.5 -205.5q0 -120 80 -204.5t199 -84.5q86 0 151.5 46.5t97.5 122.5l70 -19q-40 -98 -125 -158t-194 -60q-148 0 -249.5 104.5t-101.5 252.5
q0 149 102 254z" />
    <glyph glyph-name="uni0422" unicode="&#x422;" horiz-adv-x="619" 
d="M32 700h555v-67h-238v-633h-72v633h-245v67z" />
    <glyph glyph-name="uni0423" unicode="&#x423;" horiz-adv-x="613" 
d="M510 700h75l-259 -586q-32 -75 -87 -105t-159 -10v68q32 -7 58 -7.5t44.5 5t31.5 13t23.5 21t16 23.5t12.5 26l16 37l-253 515h78l211 -434z" />
    <glyph glyph-name="uni0424" unicode="&#x424;" horiz-adv-x="687" 
d="M650 351q0 -114 -79.5 -199t-191.5 -87v-65h-72v65q-111 2 -190 87t-79 199q0 113 79 198t190 87v64h72v-64q112 -2 191.5 -87.5t79.5 -197.5zM108 351q0 -91 58 -154.5t141 -65.5v438q-83 -2 -141 -65.5t-58 -152.5zM379 131q84 2 142 66t58 154q0 88 -58 152t-142 66
v-438z" />
    <glyph glyph-name="uni0425" unicode="&#x425;" horiz-adv-x="689" 
d="M47 0l231 350l-231 350h82l215 -322l216 322h82l-232 -350l232 -350h-82l-216 322l-215 -322h-82z" />
    <glyph glyph-name="uni0426" unicode="&#x426;" horiz-adv-x="641" 
d="M521 68h84v-210h-72v142h-472v700h71v-632h318v632h71v-632z" />
    <glyph glyph-name="uni0427" unicode="&#x427;" horiz-adv-x="642" 
d="M580 700v-700h-72v322q-70 -111 -216 -111q-111 0 -183.5 64.5t-72.5 167.5v257h72v-246q0 -85 54 -130t140 -45q97 0 151.5 56.5t54.5 149.5v215h72z" />
    <glyph glyph-name="uni0428" unicode="&#x428;" horiz-adv-x="936" 
d="M805 700h70v-700h-814v700h70v-634h302v634h70v-634h302v634z" />
    <glyph glyph-name="uni0429" unicode="&#x429;" horiz-adv-x="997" 
d="M875 66h85v-208h-72v142h-827v700h70v-634h302v634h70v-634h302v634h70v-634z" />
    <glyph glyph-name="uni042A" unicode="&#x42a;" horiz-adv-x="747" 
d="M504 406q97 -1 153 -60.5t56 -142.5q0 -82 -56.5 -142.5t-152.5 -60.5h-331v634h-135v66h207v-294h259zM494 66q71 0 109 40t38 97t-38 97t-109 40h-249v-274h249z" />
    <glyph glyph-name="uni042B" unicode="&#x42b;" horiz-adv-x="782" 
d="M61 0v700h72v-294h259q97 -1 153 -60.5t56 -142.5q0 -82 -56.5 -142.5t-152.5 -60.5h-331zM649 0v700h72v-700h-72zM133 66h250q71 0 108.5 39.5t37.5 97.5q0 57 -37.5 97t-108.5 40h-250v-274z" />
    <glyph glyph-name="uni042C" unicode="&#x42c;" horiz-adv-x="636" 
d="M61 0v700h72v-294h259q97 -1 153 -60.5t56 -142.5q0 -82 -56.5 -142.5t-152.5 -60.5h-331zM133 66h250q71 0 108.5 39.5t37.5 97.5q0 57 -37.5 97t-108.5 40h-250v-274z" />
    <glyph glyph-name="uni042D" unicode="&#x42d;" horiz-adv-x="723" 
d="M349 712q141 0 236.5 -104t95.5 -254q0 -149 -95 -253t-237 -104q-105 0 -189.5 62t-121.5 166h78q32 -72 93.5 -116t139.5 -44q104 0 175 71.5t82 180.5h-369v66h370q-9 113 -81 187t-177 74q-77 0 -138.5 -43.5t-94.5 -117.5h-78q37 104 122 166.5t189 62.5z" />
    <glyph glyph-name="uni042E" unicode="&#x42e;" horiz-adv-x="966" 
d="M572 708q146 0 248.5 -104.5t103.5 -253.5q0 -148 -102.5 -252.5t-249.5 -104.5q-139 0 -238.5 93t-111.5 231h-89v-317h-72v700h72v-316h90q12 137 111.5 230.5t237.5 93.5zM572 61q119 0 199 84t80 205t-80 205.5t-199 84.5q-118 0 -198.5 -84.5t-80.5 -205.5
q0 -120 80 -204.5t199 -84.5z" />
    <glyph glyph-name="uni042F" unicode="&#x42f;" horiz-adv-x="634" 
d="M34 0l178 280q-72 14 -119 69t-47 135q0 90 60 153t158 63h309v-700h-72v270h-212l-173 -270h-82zM277 336h224v298h-237q-69 0 -107.5 -42.5t-38.5 -105.5q0 -68 44.5 -109t114.5 -41z" />
    <glyph glyph-name="uni0430" unicode="&#x430;" horiz-adv-x="644" 
d="M119 459q78 80 189 80q67 0 122 -32.5t86 -86.5v110h70v-530h-70v110q-31 -54 -86 -86t-122 -32q-111 0 -189 80.5t-78 193.5t78 193zM108 266q0 -88 60 -149t146 -61q85 0 145.5 62t60.5 148t-60.5 147.5t-145.5 61.5q-86 0 -146 -61.5t-60 -147.5z" />
    <glyph glyph-name="uni0431" unicode="&#x431;" horiz-adv-x="591" 
d="M308 -8q-122 0 -193 95.5t-71 257.5q0 166 78 260.5t215 94.5h174v-62h-176q-107 0 -164.5 -77t-58.5 -205l3 -47q13 67 70.5 111.5t131.5 44.5q100 -1 168 -70t68 -164q0 -99 -68.5 -169t-176.5 -70zM310 58q73 0 123 49t50 123q0 72 -50.5 122.5t-122.5 50.5t-122 -50
t-50 -123q0 -74 49.5 -123t122.5 -49z" />
    <glyph glyph-name="uni0432" unicode="&#x432;" horiz-adv-x="554" 
d="M59 0v530h272q76 0 122.5 -36.5t46.5 -101.5q0 -44 -23 -75t-61 -45q101 -26 101 -126q0 -69 -49.5 -107.5t-129.5 -38.5h-279zM128 296h193q51 0 80 21.5t30 65.5q1 43 -26.5 64t-78.5 21h-198v-172zM128 62h204q114 0 114 91q0 90 -119 90h-199v-181z" />
    <glyph glyph-name="uni0433" unicode="&#x433;" horiz-adv-x="474" 
d="M446 530v-66h-317v-467h-70v533h387z" />
    <glyph glyph-name="uni0434" unicode="&#x434;" horiz-adv-x="638" 
d="M531 62h70v-170h-66v108h-444v-108h-66v170q107 1 107 200v268h399v-468zM152 62h310v406h-261v-205q0 -132 -49 -201z" />
    <glyph glyph-name="uni0435" unicode="&#x435;" 
d="M121 459q79 80 191 80q103 0 178.5 -69t87.5 -170q4 -18 4 -34q0 -13 -3 -25h-467q7 -81 64 -133t136 -52q55 0 103 25.5t77 69.5l66 -13q-33 -66 -100.5 -106t-145.5 -40q-114 0 -192.5 80t-78.5 194q0 113 80 193zM112 296h397q-8 76 -63 127.5t-134 51.5
q-80 0 -136 -51.5t-64 -127.5z" />
    <glyph glyph-name="uni0436" unicode="&#x436;" horiz-adv-x="723" 
d="M697 530l-242 -261l242 -269h-79l-222 247v-247h-68v248l-222 -248h-80l242 270l-242 260h81l221 -240v240h68v-239l221 239h80z" />
    <glyph glyph-name="uni0437" unicode="&#x437;" horiz-adv-x="545" 
d="M265 -8q-105 0 -170 46t-70 116h66q5 -44 52 -71.5t121 -27.5t122.5 28.5t48.5 74.5q0 41 -40.5 66.5t-121.5 25.5h-118v53h118q73 0 112 23.5t39 61.5q0 39 -43 64t-117 25t-115.5 -23.5t-46.5 -62.5h-66q4 67 66.5 107.5t162.5 40.5q98 0 161.5 -39.5t63.5 -104.5
q0 -82 -98 -117q49 -13 79.5 -46.5t30.5 -79.5q0 -67 -66.5 -113.5t-170.5 -46.5z" />
    <glyph glyph-name="uni0438" unicode="&#x438;" horiz-adv-x="592" 
d="M532 530v-530h-67v509l-268 -509h-137v530h68v-504l265 504h139z" />
    <glyph glyph-name="uni0439" unicode="&#x439;" horiz-adv-x="592" 
d="M296 599q-57 0 -95.5 36.5t-38.5 88.5h48q0 -34 23.5 -55.5t62.5 -21.5t62.5 21.5t23.5 55.5h49q0 -52 -38.5 -88.5t-96.5 -36.5zM532 530v-530h-67v509l-268 -509h-137v530h68v-504l265 504h139z" />
    <glyph glyph-name="uni043A" unicode="&#x43a;" horiz-adv-x="531" 
d="M502 0h-93l-280 253v-253h-70v530h70v-245l279 245h93l-298 -260z" />
    <glyph glyph-name="uni043B" unicode="&#x43b;" horiz-adv-x="590" 
d="M25 -5v62q43 -3 68 20t32 57t7 85v311h398v-530h-69v464h-259v-246q0 -232 -177 -223z" />
    <glyph glyph-name="uni043C" unicode="&#x43c;" horiz-adv-x="750" 
d="M60 530h127l188 -494l188 494h128v-530h-68v500l-191 -500h-114l-190 499v-499h-68v530z" />
    <glyph glyph-name="uni043D" unicode="&#x43d;" horiz-adv-x="592" 
d="M59 0v530h70v-232h333v232h70v-530h-70v233h-333v-233h-70z" />
    <glyph glyph-name="uni043E" unicode="&#x43e;" horiz-adv-x="632" 
d="M122 459q79 80 194 80q114 0 193 -80.5t79 -192.5q0 -113 -79 -193.5t-193 -80.5q-115 0 -194 80t-79 194q0 113 79 193zM171 118q59 -61 145 -61t145 61t59 148t-59 147.5t-145 60.5q-87 0 -146 -60.5t-59 -147.5q0 -88 60 -148z" />
    <glyph glyph-name="uni043F" unicode="&#x43f;" horiz-adv-x="585" 
d="M59 0v530h467v-530h-70v464h-327v-464h-70z" />
    <glyph glyph-name="uni0440" unicode="&#x440;" horiz-adv-x="646" 
d="M59 530h70v-108q32 53 86.5 85t121.5 32q112 0 190 -80.5t78 -192.5q0 -115 -78 -194.5t-190 -79.5q-67 0 -122 32t-86 86v-320h-70v740zM126 266q0 -87 59.5 -148t146.5 -61q86 0 145.5 60.5t59.5 148.5q0 86 -59.5 147t-145.5 61t-146 -61t-60 -147z" />
    <glyph glyph-name="uni0441" unicode="&#x441;" horiz-adv-x="597" 
d="M120 459q79 80 192 80q84 0 151 -47t97 -123l-67 -14q-24 54 -72 86.5t-109 32.5q-85 0 -144.5 -61t-59.5 -147q0 -88 59.5 -148.5t144.5 -60.5q61 0 109 32.5t72 86.5l67 -15q-30 -76 -96.5 -122.5t-151.5 -46.5q-115 0 -193.5 81t-78.5 193q0 113 80 193z" />
    <glyph glyph-name="uni0442" unicode="&#x442;" horiz-adv-x="544" 
d="M240 0v466h-211v64h486v-64h-205v-466h-70z" />
    <glyph glyph-name="uni0443" unicode="&#x443;" horiz-adv-x="559" 
d="M21 530h76l184 -438l177 438h75l-302 -740h-74l87 212z" />
    <glyph glyph-name="uni0444" unicode="&#x444;" horiz-adv-x="673" 
d="M632 266q0 -111 -76 -190t-185 -83v-62h-68v62q-108 3 -184 82t-76 191t76 191t184 82v62h68v-62q110 -4 185.5 -83t75.5 -190zM111 266q0 -87 55.5 -146t136.5 -62v416q-82 -3 -137 -62.5t-55 -145.5zM371 58q82 4 137.5 63t55.5 145t-55.5 145t-137.5 63v-416z" />
    <glyph glyph-name="uni0445" unicode="&#x445;" horiz-adv-x="547" 
d="M28 0l190 265l-190 265h79l167 -229l167 229h79l-189 -265l189 -265h-79l-167 229l-167 -229h-79z" />
    <glyph glyph-name="uni0446" unicode="&#x446;" horiz-adv-x="592" 
d="M482 66h72v-174h-68v108h-427v530h69v-464h285v464h69v-464z" />
    <glyph glyph-name="uni0447" unicode="&#x447;" horiz-adv-x="540" 
d="M481 530v-530h-70v230q-58 -81 -164 -81q-89 0 -149 52.5t-60 143.5v185h70v-174q0 -70 40.5 -105.5t105.5 -35.5q71 0 114 42.5t43 117.5v155h70z" />
    <glyph glyph-name="uni0448" unicode="&#x448;" horiz-adv-x="755" 
d="M643 530h68v-530h-652v530h69v-464h223v464h68v-464h224v464z" />
    <glyph glyph-name="uni0449" unicode="&#x449;" horiz-adv-x="815" 
d="M711 66h70v-174h-66v108h-656v530h69v-464h223v464h68v-464h224v464h68v-464z" />
    <glyph glyph-name="uni044A" unicode="&#x44a;" horiz-adv-x="629" 
d="M421 342q75 -1 123 -51t48 -121t-48 -120.5t-123 -49.5h-278v470h-112v60h181v-188h209zM404 64q55 0 86.5 30t31.5 76q0 47 -31.5 77.5t-86.5 30.5h-192v-214h192z" />
    <glyph glyph-name="uni044B" unicode="&#x44b;" horiz-adv-x="680" 
d="M59 0v530h69v-188h209q75 -1 123 -51t48 -121t-48 -120.5t-123 -49.5h-278zM551 0v530h70v-530h-70zM128 64h192q55 0 86.5 30t31.5 77t-31.5 77t-86.5 30h-192v-214z" />
    <glyph glyph-name="uni044C" unicode="&#x44c;" horiz-adv-x="545" 
d="M59 0v530h69v-188h209q75 -1 123 -51t48 -121t-48 -120.5t-123 -49.5h-278zM128 64h192q55 0 86.5 30t31.5 76q0 47 -31.5 77.5t-86.5 30.5h-192v-214z" />
    <glyph glyph-name="uni044D" unicode="&#x44d;" horiz-adv-x="573" 
d="M277 539q108 0 180.5 -79.5t72.5 -194.5q0 -114 -72.5 -193.5t-180.5 -79.5q-81 0 -145.5 47.5t-92.5 126.5h70q23 -48 66 -78.5t100 -30.5q76 0 127 51.5t59 130.5h-276v53h276q-8 80 -59.5 131t-126.5 51q-56 0 -100.5 -30t-67.5 -80h-69q28 80 92.5 127.5t146.5 47.5z
" />
    <glyph glyph-name="uni044E" unicode="&#x44e;" horiz-adv-x="795" 
d="M479 539q114 0 193.5 -80.5t79.5 -192.5q0 -113 -79.5 -193.5t-193.5 -80.5q-105 0 -182 70t-88 173h-81v-235h-69v530h69v-233h81q11 103 88 172.5t182 69.5zM479 57q86 0 145.5 61t59.5 148q0 86 -60 147t-145 61q-86 0 -145 -60.5t-59 -147.5q0 -88 59.5 -148.5
t144.5 -60.5z" />
    <glyph glyph-name="uni044F" unicode="&#x44f;" horiz-adv-x="544" 
d="M34 0l135 208q-54 13 -90.5 54.5t-36.5 102.5q0 69 47.5 117t122.5 48h272v-530h-68v201h-173l-131 -201h-78zM231 262h185v206h-192q-52 0 -81.5 -29.5t-29.5 -72.5q0 -47 34 -75.5t84 -28.5z" />
    <glyph glyph-name="uni0450" unicode="&#x450;" 
d="M121 459q79 80 191 80q103 0 178.5 -69t87.5 -170q4 -18 4 -34q0 -13 -3 -25h-467q7 -81 64 -133t136 -52q55 0 103 25.5t77 69.5l66 -13q-33 -66 -100.5 -106t-145.5 -40q-114 0 -192.5 80t-78.5 194q0 113 80 193zM112 296h397q-8 76 -63 127.5t-134 51.5
q-80 0 -136 -51.5t-64 -127.5zM169 730h85l89 -128h-61z" />
    <glyph glyph-name="uni0451" unicode="&#x451;" horiz-adv-x="600" 
d="M196 615q-21 0 -35 14t-14 35q0 20 14 34.5t35 14.5t35 -14.5t14 -34.5q0 -21 -14 -35t-35 -14zM418 615q-20 0 -34.5 14t-14.5 35q0 20 14.5 34.5t34.5 14.5q21 0 35 -14.5t14 -34.5q0 -21 -14 -35t-35 -14zM312 -8q-114 0 -192.5 80t-78.5 194q0 113 79.5 193t191.5 80
q103 0 178.5 -69t87.5 -170q7 -34 1 -59h-467q7 -81 64 -133t136 -52q55 0 103 25.5t77 69.5l66 -13q-33 -66 -100.5 -106t-145.5 -40zM509 297q-8 76 -63 127t-134 51q-80 0 -136 -51t-64 -127h397z" />
    <glyph glyph-name="uni0452" unicode="&#x452;" horiz-adv-x="618" 
d="M15 594v50h60v56h70v-56h188v-50h-188v-166q26 48 75.5 79.5t115.5 31.5q92 0 158.5 -60t66.5 -161v-321q0 -229 -239 -182v64q92 -17 130.5 11.5t38.5 104.5v301q0 83 -48.5 130t-118.5 47q-78 0 -128.5 -57t-50.5 -146v-270h-70v594h-60z" />
    <glyph glyph-name="uni0453" unicode="&#x453;" horiz-adv-x="474" 
d="M404 730l-115 -128h-62l89 128h88zM446 530v-66h-317v-464h-70v530h387z" />
    <glyph glyph-name="uni0454" unicode="&#x454;" horiz-adv-x="573" 
d="M298 57q57 0 100 30.5t66 78.5h70q-28 -79 -92.5 -126.5t-145.5 -47.5q-108 0 -180.5 79.5t-72.5 193.5q0 115 72.5 194.5t180.5 79.5q81 0 145.5 -47.5t93.5 -127.5h-69q-23 50 -67.5 80t-100.5 30q-76 0 -127 -51t-59 -131h276v-53h-276q8 -79 59.5 -130.5t126.5 -51.5
z" />
    <glyph glyph-name="uni0455" unicode="&#x455;" horiz-adv-x="512" 
d="M44 387q0 71 61 111.5t150 40.5q119 0 206 -66v-71q-104 76 -206 76q-57 0 -98 -24.5t-41 -65.5q0 -14 5 -25.5t18 -20t24.5 -14.5t36 -12.5t40.5 -10t49 -9.5q100 -22 144.5 -60t44.5 -94v-2q0 -71 -58.5 -109.5t-144.5 -38.5q-127 0 -229 83v78q37 -40 101.5 -69.5
t127.5 -29.5q55 0 93.5 25t38.5 63q0 70 -157 100q-106 20 -156 52.5t-50 92.5z" />
    <glyph glyph-name="uni0456" unicode="&#x456;" horiz-adv-x="205" 
d="M138 530v-530h-70v530h70zM66 709q15 14 37 14q23 0 38 -14.5t15 -36.5t-15 -36.5t-38 -14.5q-22 0 -37 14.5t-15 36.5t15 37z" />
    <glyph glyph-name="uni0457" unicode="&#x457;" horiz-adv-x="205" 
d="M138 530v-530h-70v530h70zM-57 668q0 21 14 35t35 14t35 -14t14 -35t-14 -35t-35 -14t-35 14t-14 35zM166 668q0 21 14 35t35 14q20 0 34.5 -14t14.5 -35t-14.5 -35t-34.5 -14q-21 0 -35 14t-14 35z" />
    <glyph glyph-name="uni0458" unicode="&#x458;" horiz-adv-x="213" 
d="M-92 -203v63q40 -7 69 -7q40 0 70 18t30 92v567h70v-564q0 -110 -47.5 -144t-110.5 -34q-36 0 -81 9zM74 713q15 15 37 15t37.5 -15.5t15.5 -37.5q0 -23 -15 -38t-38 -15q-22 0 -37 15.5t-15 37.5t15 38z" />
    <glyph glyph-name="uni0459" unicode="&#x459;" horiz-adv-x="927" 
d="M32 -5v62q43 -3 68 20t32 57t7 85v311h373v-188h209q75 -1 123 -51t48 -121t-48 -120.5t-123 -49.5h-279v464h-233v-246q0 -232 -177 -223zM512 64h192q55 0 86.5 30t31.5 76q0 47 -31.5 77.5t-86.5 30.5h-192v-214z" />
    <glyph glyph-name="uni045A" unicode="&#x45a;" horiz-adv-x="940" 
d="M59 0v530h70v-222h321v222h70v-222h210q75 -1 123 -46.5t48 -108.5t-48 -108t-123 -45h-280v243h-321v-243h-70zM520 64h193q55 0 86 25.5t31 64.5t-31 64.5t-86 25.5h-193v-180z" />
    <glyph glyph-name="uni045B" unicode="&#x45b;" horiz-adv-x="612" 
d="M75 0v594h-60v50h60v56h70v-56h188v-50h-188v-166q26 48 75.5 79.5t115.5 31.5q92 0 158.5 -60t66.5 -161v-318h-70v296q0 83 -48.5 130t-118.5 47q-78 0 -128.5 -57t-50.5 -146v-270h-70z" />
    <glyph glyph-name="uni045C" unicode="&#x45c;" horiz-adv-x="531" 
d="M129 530v-245l279 245h93l-298 -260l299 -270h-93l-280 253v-253h-70v530h70zM344 730h88l-116 -128h-61z" />
    <glyph glyph-name="uni045D" unicode="&#x45d;" horiz-adv-x="592" 
d="M60 530h68v-504l265 504h139v-530h-67v509l-268 -509h-137v530zM145 730h88l89 -128h-62z" />
    <glyph glyph-name="uni045F" unicode="&#x45f;" horiz-adv-x="572" 
d="M513 530v-530h-193v-108h-68v108h-193v530h70v-464h314v464h70z" />
    <glyph glyph-name="uni0490" unicode="&#x490;" horiz-adv-x="576" 
d="M476 842h72v-209h-415v-633h-72v700h415v142z" />
    <glyph glyph-name="uni0491" unicode="&#x491;" horiz-adv-x="474" 
d="M378 638h68v-174h-317v-467h-70v533h319v108z" />
    <glyph glyph-name="Wgrave" unicode="&#x1e80;" horiz-adv-x="975" 
d="M34 700h75l149 -667l171 667h120l168 -666l149 666h75l-165 -700h-123l-164 672l-172 -672h-121zM349 900h85l89 -128h-61z" />
    <glyph glyph-name="wgrave" unicode="&#x1e81;" horiz-adv-x="816" 
d="M26 530h73l133 -491l121 491h111l120 -492l133 492h73l-152 -530h-110l-120 492l-120 -492h-111zM270 730h85l89 -128h-61z" />
    <glyph glyph-name="Wacute" unicode="&#x1e82;" horiz-adv-x="975" 
d="M34 700h75l149 -667l171 667h120l168 -666l149 666h75l-165 -700h-123l-164 672l-172 -672h-121zM546 900h88l-116 -128h-61z" />
    <glyph glyph-name="wacute" unicode="&#x1e83;" horiz-adv-x="816" 
d="M26 530h73l133 -491l121 491h111l120 -492l133 492h73l-152 -530h-110l-120 492l-120 -492h-111zM467 730h88l-116 -128h-61z" />
    <glyph glyph-name="Wdieresis" unicode="&#x1e84;" horiz-adv-x="975" 
d="M34 700h75l149 -667l171 667h120l168 -666l149 666h75l-165 -700h-123l-164 672l-172 -672h-121zM328 838q0 21 14 35t35 14t35 -14t14 -35t-14 -35t-35 -14t-35 14t-14 35zM565 873q14 14 35 14q20 0 34.5 -14t14.5 -35t-14.5 -35t-34.5 -14q-21 0 -35 14t-14 35t14 35z
" />
    <glyph glyph-name="wdieresis" unicode="&#x1e85;" horiz-adv-x="816" 
d="M26 530h73l133 -491l121 491h111l120 -492l133 492h73l-152 -530h-110l-120 492l-120 -492h-111zM248 668q0 21 14 35t35 14t35 -14t14 -35t-14 -35t-35 -14t-35 14t-14 35zM485 703q14 14 35 14q20 0 34.5 -14t14.5 -35t-14.5 -35t-34.5 -14q-21 0 -35 14t-14 35t14 35z
" />
    <glyph glyph-name="Ygrave" unicode="&#x1ef2;" horiz-adv-x="653" 
d="M28 700h79l220 -384l220 384h78l-261 -462v-238h-72v237zM189 900h85l89 -128h-61z" />
    <glyph glyph-name="ygrave" unicode="&#x1ef3;" horiz-adv-x="559" 
d="M93 530l187 -444l177 444h76l-301 -740h-75l87 212l-227 528h76zM137 730h85l89 -128h-61z" />
    <glyph glyph-name="endash" unicode="&#x2013;" horiz-adv-x="502" 
d="M43 254v64h416v-64h-416z" />
    <glyph glyph-name="emdash" unicode="&#x2014;" horiz-adv-x="821" 
d="M43 254v64h735v-64h-735z" />
    <glyph glyph-name="quoteleft" unicode="&#x2018;" horiz-adv-x="214" 
d="M170 498h-54l-72 221h74z" />
    <glyph glyph-name="quoteright" unicode="&#x2019;" horiz-adv-x="214" 
d="M44 498l52 221h74l-72 -221h-54z" />
    <glyph glyph-name="quotesinglbase" unicode="&#x201a;" horiz-adv-x="200" 
d="M23 -114l51 220h74l-71 -220h-54z" />
    <glyph glyph-name="quotedblleft" unicode="&#x201c;" horiz-adv-x="346" 
d="M170 498h-54l-72 221h74zM301 498h-54l-71 221h74z" />
    <glyph glyph-name="quotedblright" unicode="&#x201d;" horiz-adv-x="333" 
d="M38 498l52 221h73l-71 -221h-54zM170 498l51 221h74l-71 -221h-54z" />
    <glyph glyph-name="quotedblbase" unicode="&#x201e;" horiz-adv-x="200" 
d="M82 106h73l-71 -220h-54z" />
    <glyph glyph-name="dagger" unicode="&#x2020;" horiz-adv-x="444" 
d="M190 297v219h-139v64h139v120h64v-120h140v-64h-140v-219h-64z" />
    <glyph glyph-name="daggerdbl" unicode="&#x2021;" horiz-adv-x="444" 
d="M190 207v129h-139v61h139v115h-139v61h139v127h64v-127h140v-61h-140v-115h140v-61h-140v-129h-64z" />
    <glyph glyph-name="bullet" unicode="&#x2022;" horiz-adv-x="308" 
d="M154 227q-29 0 -50 21t-21 50q0 30 21 51t50 21q30 0 51 -21t21 -51q0 -29 -21 -50t-51 -21z" />
    <glyph glyph-name="ellipsis" unicode="&#x2026;" horiz-adv-x="505" 
d="M93 -8q-23 0 -38.5 15.5t-15.5 38.5q0 22 15.5 37.5t38.5 15.5t38.5 -15t15.5 -38t-15.5 -38.5t-38.5 -15.5zM251 -8q-23 0 -38.5 15.5t-15.5 38.5q0 22 15.5 37.5t38.5 15.5t38.5 -15t15.5 -38t-15.5 -38.5t-38.5 -15.5zM411 -8q-23 0 -38 15.5t-15 38.5q0 22 15 37.5
t38 15.5t38.5 -15t15.5 -38t-15.5 -38.5t-38.5 -15.5z" />
    <glyph glyph-name="perthousand" unicode="&#x2030;" horiz-adv-x="1047" 
d="M191 425q-60 0 -102 42t-42 101q0 60 42.5 102t101.5 42t101.5 -42t42.5 -102q0 -59 -42.5 -101t-101.5 -42zM71 0l524 700h60l-524 -700h-60zM191 473q40 0 67.5 27.5t27.5 66.5q0 41 -27.5 69t-67.5 28t-67.5 -28t-27.5 -69q0 -39 27.5 -66.5t67.5 -27.5zM512 -10
q-60 0 -102 42t-42 101q0 60 42.5 102t101.5 42t101.5 -42t42.5 -102q0 -59 -42.5 -101t-101.5 -42zM856 -10q-60 0 -102 42t-42 101q0 60 42.5 102t101.5 42t101.5 -42t42.5 -102q0 -59 -42.5 -101t-101.5 -42zM512 39q40 0 67 27.5t27 66.5q0 40 -27 68t-67 28t-67.5 -28
t-27.5 -68q0 -39 27.5 -66.5t67.5 -27.5zM856 39q40 0 67.5 27.5t27.5 66.5q0 40 -27.5 68t-67.5 28t-67 -28t-27 -68q0 -39 27 -66.5t67 -27.5z" />
    <glyph glyph-name="guilsinglleft" unicode="&#x2039;" horiz-adv-x="403" 
d="M359 -3l-315 229v75l315 230v-70l-268 -197l268 -197v-70z" />
    <glyph glyph-name="guilsinglright" unicode="&#x203a;" horiz-adv-x="403" 
d="M44 -3v70l268 197l-268 197v70l315 -230v-75z" />
    <glyph glyph-name="fraction" unicode="&#x2044;" horiz-adv-x="201" 
d="M-154 0l486 700h60l-486 -700h-60z" />
    <glyph glyph-name="uni2070" unicode="&#x2070;" horiz-adv-x="370" 
d="M184 344q-64 0 -103.5 51t-39.5 134t39.5 134.5t103.5 51.5t104.5 -51.5t40.5 -134.5t-40 -134t-105 -51zM184 390q43 -1 70.5 38t27.5 101t-27 101t-71 39t-70.5 -38.5t-26.5 -101.5q0 -62 27 -100.5t70 -38.5z" />
    <glyph glyph-name="Euro" unicode="&#x20ac;" horiz-adv-x="844" 
d="M473 -8q-129 0 -225.5 80.5t-124.5 205.5h-72l-1 49h65q-3 20 -3 40q0 21 3 42h-64l-1 48h74q28 124 124.5 204.5t224.5 80.5q104 0 187 -54t132 -154h-76q-39 68 -105.5 103.5t-137.5 35.5q-100 1 -175 -59.5t-100 -156.5l370 1v-49h-382q-2 -14 -2 -42q0 -14 2 -40
l382 1v-50h-370q25 -95 100 -156t175 -61q78 0 141.5 37.5t102.5 102.5h76q-38 -96 -125 -152.5t-195 -56.5z" />
    <glyph glyph-name="trademark" unicode="&#x2122;" horiz-adv-x="679" 
d="M286 700h62l86 -246l87 246h63v-269h-36v241l-87 -241h-53l-86 240v-240h-36v269zM41 700h214v-34h-87v-235h-36v235h-91v34z" />
    <glyph glyph-name="uni2150" unicode="&#x2150;" horiz-adv-x="772" 
d="M151 314v336h-117v52h171v-388h-54zM92 0l486 700h60l-486 -700h-60zM515 -8l165 335h-191v53h250l1 -52l-164 -336h-61z" />
    <glyph glyph-name="uni2151" unicode="&#x2151;" horiz-adv-x="812" 
d="M151 314v336h-117v52h171v-388h-54zM92 0l486 700h60l-486 -700h-60zM628 -16q-54 0 -89 35t-43 85h56q5 -29 27 -48t50 -19q46 0 73 39t26 94q-14 -24 -43 -39.5t-64 -15.5q-55 1 -93.5 39t-38.5 93q0 58 39.5 96.5t98.5 39.5q70 0 111 -53t41 -143q0 -91 -41.5 -147
t-109.5 -56zM628 165q34 0 58 24.5t24 58.5t-24 58.5t-58 24.5t-58.5 -24.5t-24.5 -58.5t24.5 -58.5t58.5 -24.5z" />
    <glyph glyph-name="uni2152" unicode="&#x2152;" horiz-adv-x="1079" 
d="M151 314v336h-117v52h171v-388h-54zM92 0l486 700h60l-486 -700h-60zM890 -13q-70 0 -112.5 54.5t-42.5 144.5t43 145t112 55q70 0 113 -55.5t43 -144.5t-43 -144t-113 -55zM597 -8v336h-116v53h171v-389h-55zM890 42q45 0 73.5 40.5t28.5 103.5q0 64 -28.5 105t-73.5 41
t-72.5 -40.5t-27.5 -105.5q0 -64 28 -104t72 -40z" />
    <glyph glyph-name="onethird" unicode="&#x2153;" horiz-adv-x="801" 
d="M151 314v336h-117v52h171v-388h-54zM92 0l486 700h60l-486 -700h-60zM632 -16q-57 0 -97.5 38t-41.5 94h57q-1 -31 23.5 -54.5t58.5 -23.5q35 0 58 20.5t23 52.5q0 43 -41 61.5t-99 2.5l-26 34l134 116h-175v53h251l1 -57l-114 -98q57 -1 90.5 -32t33.5 -81
q0 -55 -38 -90.5t-98 -35.5z" />
    <glyph glyph-name="twothirds" unicode="&#x2154;" horiz-adv-x="902" 
d="M50 314l1 43l151 169q42 45 42 76q0 22 -20 37.5t-48 15.5q-33 0 -56 -25t-23 -60l-55 -1q1 61 39 100t96 39q52 0 86.5 -29.5t35.5 -74.5q0 -51 -59 -114l-110 -123h174v-52zM193 0l486 700h60l-486 -700h-60zM733 -16q-57 0 -97 38t-41 94h56q-1 -31 23.5 -54.5
t58.5 -23.5q35 0 58 20.5t23 52.5q0 43 -41 61.5t-99 2.5l-25 34l133 116h-174v53h251v-57l-114 -98q57 -1 90.5 -32t33.5 -81q0 -55 -38 -90.5t-98 -35.5z" />
    <glyph glyph-name="uni2155" unicode="&#x2155;" horiz-adv-x="800" 
d="M151 314v336h-117v52h171v-388h-54zM92 0l486 700h60l-486 -700h-60zM629 -15q-58 0 -97.5 37t-43.5 95h57q1 -34 25 -56.5t59 -22.5t59 24.5t24 59.5t-24.5 59t-59.5 24q-53 0 -79 -36h-51l5 209h250l1 -53h-197l-3 -96q33 27 82 27q55 -1 93 -39.5t38 -94.5
q1 -59 -38.5 -98.5t-99.5 -38.5z" />
    <glyph glyph-name="uni2156" unicode="&#x2156;" horiz-adv-x="901" 
d="M50 314l1 43l151 169q42 45 42 76q0 22 -20 37.5t-48 15.5q-33 0 -56 -25t-23 -60l-55 -1q1 61 39 100t96 39q52 0 86.5 -29.5t35.5 -74.5q0 -51 -59 -114l-110 -123h174v-52zM193 0l486 700h60l-486 -700h-60zM731 -15q-58 0 -97.5 36.5t-44.5 95.5h57q1 -34 25 -56.5
t59 -22.5t59 24.5t24 59.5q1 35 -23.5 59t-60.5 24q-53 0 -79 -36h-51l6 209h250v-53h-197l-3 -96q33 27 82 27q55 -1 93.5 -39.5t38.5 -94.5q0 -59 -39.5 -98.5t-98.5 -38.5z" />
    <glyph glyph-name="uni2157" unicode="&#x2157;" horiz-adv-x="916" 
d="M208 0l486 700h60l-486 -700h-60zM186 306q-58 0 -98 37.5t-41 93.5l57 1q-1 -32 23.5 -55.5t58.5 -23.5q35 0 58 21t23 52q0 43 -41 61.5t-100 2.5l-25 34l134 116h-175v53h251v-57l-114 -97q57 -1 91 -32t34 -81q0 -55 -38.5 -90.5t-97.5 -35.5zM746 -15
q-58 0 -97.5 36.5t-44.5 95.5h57q1 -34 25 -56.5t59 -22.5t59 24.5t24 59.5q1 35 -23.5 59t-60.5 24q-53 0 -79 -36h-51l6 209h250v-53h-197l-3 -96q33 27 82 27q55 -1 93.5 -39.5t38.5 -94.5q0 -59 -39.5 -98.5t-98.5 -38.5z" />
    <glyph glyph-name="uni2158" unicode="&#x2158;" horiz-adv-x="883" 
d="M171 314v79h-190v41l163 268h83v-259h58v-50h-58v-79h-56zM175 0l486 700h60l-486 -700h-60zM46 443h125v201zM713 -15q-58 0 -97.5 36.5t-44.5 95.5h58q0 -34 24 -56.5t59 -22.5t59 24.5t24 59.5q1 35 -23.5 59t-60.5 24q-51 0 -79 -36h-51l6 209h250v-53h-197l-3 -96
q35 27 82 27q55 -1 93.5 -39.5t38.5 -94.5q0 -59 -39.5 -98.5t-98.5 -38.5z" />
    <glyph glyph-name="uni2159" unicode="&#x2159;" horiz-adv-x="812" 
d="M151 314v336h-117v52h171v-388h-54zM92 0l486 700h60l-486 -700h-60zM642 -16q-71 0 -112.5 53t-40.5 144t43 146t110 55q55 0 89.5 -34.5t42.5 -83.5h-56q-6 29 -27.5 47.5t-49.5 18.5q-42 0 -67.5 -36.5t-27.5 -92.5q35 51 103 51q55 -1 92.5 -38.5t37.5 -93.5
q0 -59 -39 -97.5t-98 -38.5zM641 37q35 -1 59.5 23t24.5 59q0 34 -24 58t-59 24t-59.5 -24t-24.5 -58t24 -58t59 -24z" />
    <glyph glyph-name="uni215A" unicode="&#x215a;" horiz-adv-x="916" 
d="M196 0l486 700h60l-486 -700h-60zM183 307q-58 0 -97.5 36.5t-43.5 94.5h57q1 -34 25 -56t59 -22t58.5 24t24.5 59q0 35 -24.5 59.5t-60.5 24.5q-51 0 -78 -37h-51l5 209h250v-53h-197l-3 -96q35 27 82 27q56 -1 94 -39t38 -94q0 -60 -39 -99t-99 -38zM746 -16
q-71 0 -112 53.5t-40 143.5t43 145.5t110 55.5q54 0 88.5 -34.5t42.5 -83.5h-56q-6 29 -27.5 47.5t-49.5 18.5q-42 0 -67 -36t-27 -93q15 23 43 37t59 14q56 -1 93.5 -39t37.5 -93q0 -58 -39.5 -97t-98.5 -39zM746 37q34 -1 58.5 23t24.5 59q0 34 -24 58t-59 24t-59.5 -24
t-24.5 -58t24.5 -58t59.5 -24z" />
    <glyph glyph-name="oneeighth" unicode="&#x215b;" horiz-adv-x="815" 
d="M151 314v336h-117v52h171v-388h-54zM92 0l486 700h60l-486 -700h-60zM636 -15q-64 0 -105.5 33t-41.5 83q0 64 60 92q-52 28 -52 86q0 45 39 74.5t100 29.5t100 -29t39 -75q0 -58 -52 -86q60 -28 60 -92q0 -50 -41.5 -83t-105.5 -33zM636 214q35 0 59 17.5t24 43.5
q0 25 -24 41t-59 16t-59 -16t-24 -41t24 -43t59 -18zM636 36q40 0 65.5 18.5t25.5 47.5q0 32 -24.5 50t-66.5 18q-41 0 -66 -18.5t-25 -49.5q0 -29 25.5 -47.5t65.5 -18.5z" />
    <glyph glyph-name="threeeighths" unicode="&#x215c;" horiz-adv-x="932" 
d="M208 0l486 700h60l-486 -700h-60zM186 306q-58 0 -98 37.5t-41 93.5l57 1q-1 -32 23.5 -55.5t58.5 -23.5q35 0 58 21t23 52q0 43 -41 61.5t-100 2.5l-25 34l134 116h-175v53h251v-57l-114 -97q57 -1 91 -32t34 -81q0 -55 -38.5 -90.5t-97.5 -35.5zM752 -15q-64 0 -105 33
t-41 83q0 64 60 92q-53 29 -53 86q0 45 39 74.5t100 29.5q62 0 101 -29t39 -75q0 -57 -53 -86q60 -28 60 -92q0 -51 -41 -83.5t-106 -32.5zM752 214q35 0 59 17.5t24 43.5q0 25 -24 41t-59 16t-59 -16t-24 -41t24 -43t59 -18zM752 36q40 0 65.5 18.5t25.5 47.5
q0 32 -24.5 50t-66.5 18q-41 0 -66 -18.5t-25 -49.5q0 -29 25.5 -47.5t65.5 -18.5z" />
    <glyph glyph-name="fiveeighths" unicode="&#x215d;" horiz-adv-x="920" 
d="M196 0l486 700h60l-486 -700h-60zM183 307q-58 0 -97.5 36.5t-43.5 94.5h57q1 -34 25 -56t59 -22t58.5 24t24.5 59q0 35 -24.5 59.5t-60.5 24.5q-51 0 -78 -37h-51l5 209h250v-53h-197l-3 -96q35 27 82 27q56 -1 94 -39t38 -94q0 -60 -39 -99t-99 -38zM740 -15
q-64 0 -105 33t-41 83q0 64 60 92q-53 29 -53 86q0 45 39 74.5t100 29.5q62 0 101 -29t39 -75q0 -57 -53 -86q60 -28 60 -92q0 -51 -41 -83.5t-106 -32.5zM740 214q35 0 59 17.5t24 43.5q0 25 -24 41t-59 16t-59 -16t-24 -41t24 -43t59 -18zM740 36q40 0 65.5 18.5
t25.5 47.5q0 32 -24.5 50t-66.5 18q-41 0 -66 -18.5t-25 -49.5q0 -29 25.5 -47.5t65.5 -18.5z" />
    <glyph glyph-name="seveneighths" unicode="&#x215e;" horiz-adv-x="866" 
d="M69 314l165 334h-191v53h249l1 -51l-163 -336h-61zM143 0l486 700h60l-486 -700h-60zM687 -15q-65 0 -106 32.5t-41 83.5q0 64 60 92q-52 28 -52 86q0 45 39 74.5t100 29.5t100 -29t39 -75q0 -58 -52 -86q60 -28 60 -92q0 -50 -41.5 -83t-105.5 -33zM687 214
q35 0 59 17.5t24 43.5q0 25 -24 41t-59 16q-36 0 -60 -16t-24 -41t24.5 -43t59.5 -18zM687 36q40 0 65.5 18.5t25.5 47.5q0 32 -24.5 50t-66.5 18q-41 0 -66 -18.5t-25 -49.5q0 -29 25.5 -47.5t65.5 -18.5z" />
    <glyph glyph-name="uni215F" unicode="&#x215f;" horiz-adv-x="536" 
d="M151 314v336h-117v52h171v-388h-54zM92 0l486 700h60l-486 -700h-60z" />
    <glyph glyph-name="uni2189" unicode="&#x2189;" horiz-adv-x="953" 
d="M199 312q-70 0 -113 54.5t-43 143.5q0 90 43 145t113 55q69 0 112 -55.5t43 -144.5q0 -88 -43 -143t-112 -55zM244 0l486 700h60l-486 -700h-60zM199 366q44 0 72.5 40.5t28.5 103.5q0 64 -28.5 105.5t-72.5 41.5q-46 0 -73.5 -40.5t-27.5 -106.5q0 -64 28 -104t73 -40z
M784 -16q-57 0 -97 38t-41 94h56q-1 -31 23.5 -54.5t58.5 -23.5q35 0 58 20.5t23 52.5q0 43 -41 61.5t-99 2.5l-25 34l133 116h-174v53h251v-57l-114 -98q57 -1 90.5 -32t33.5 -81q0 -55 -38 -90.5t-98 -35.5z" />
    <glyph glyph-name="arrowleft" unicode="&#x2190;" horiz-adv-x="628" 
d="M318 81l-275 245v18l275 244l41 -42l-212 -180h459v-62h-459l212 -180z" />
    <glyph glyph-name="arrowup" unicode="&#x2191;" horiz-adv-x="584" 
d="M261 64v459l-180 -212l-42 41l244 275h18l244 -275l-42 -41l-180 213v-460h-62z" />
    <glyph glyph-name="arrowright" unicode="&#x2192;" horiz-adv-x="616" 
d="M307 104l-41 42l212 180h-459v62h459l-213 180l42 42l275 -244l-1 -18z" />
    <glyph glyph-name="arrowdown" unicode="&#x2193;" horiz-adv-x="584" 
d="M279 60l-245 274l42 41l180 -212v459h62l1 -458l180 211l42 -41l-245 -274h-17z" />
    <glyph glyph-name="arrowboth" unicode="&#x2194;" horiz-adv-x="1003" 
d="M662 98l-41 43l213 180l-666 1l212 -180l-41 -43l-275 245v18l275 244l41 -42l-212 -180l665 -1l-212 180l41 42l275 -244v-18z" />
    <glyph glyph-name="arrowupdn" unicode="&#x2195;" horiz-adv-x="665" 
d="M329 -76l-245 275l43 41l179 -212l1 647l-180 -212l-42 41l245 275h17l245 -275l-42 -41l-180 212l-1 -647l180 212l42 -41l-245 -275h-17z" />
    <glyph glyph-name="uni2196" unicode="&#x2196;" horiz-adv-x="569" 
d="M451 103l-325 324l23 -277h-59l-21 367l12 12l367 -21l-1 -59l-277 23l325 -325z" />
    <glyph glyph-name="uni2197" unicode="&#x2197;" horiz-adv-x="538" 
d="M80 129l-44 44l325 324l-277 -22l-1 59l367 21l13 -13l-22 -367l-59 1l23 277z" />
    <glyph glyph-name="uni2198" unicode="&#x2198;" horiz-adv-x="538" 
d="M451 151l-367 22l2 59l276 -23l-324 325l44 44l324 -325l-22 277l59 1l21 -367z" />
    <glyph glyph-name="uni2199" unicode="&#x2199;" horiz-adv-x="538" 
d="M85 137l-13 13l21 367l59 -1l-23 -277l325 325l44 -45l-324 -324l277 23l1 -59z" />
    <glyph glyph-name="emptyset" unicode="&#x2205;" horiz-adv-x="666" 
d="M41 -94l116 155q-91 80 -91 205q0 113 79.5 193t191.5 80q80 0 145 -43l83 111h60l-104 -140q88 -80 88 -201q0 -114 -79 -194t-193 -80q-78 0 -141 41l-95 -127h-60zM196 116l247 326q-48 32 -106 32q-86 0 -145 -61t-59 -147q0 -90 63 -150zM337 57q86 0 145.5 61
t59.5 148q0 86 -60 146l-247 -325q46 -30 102 -30z" />
    <glyph glyph-name="minus" unicode="&#x2212;" horiz-adv-x="532" 
d="M50 251v64h431l1 -64h-432z" />
    <glyph glyph-name="approxequal" unicode="&#x2248;" horiz-adv-x="656" 
d="M114 323q4 60 35.5 97t81.5 37q29 0 54 -13.5t39.5 -29.5t34 -29.5t39.5 -13.5q60 0 62 91h53q-2 -64 -33 -103.5t-82 -39.5q-35 0 -63 21.5t-52.5 43t-51.5 21.5q-59 0 -65 -82h-52zM114 149q4 59 35.5 96.5t81.5 37.5q29 0 54 -13.5t39.5 -29.5t34 -29.5t39.5 -13.5
q60 0 62 90h53q-2 -64 -33 -103.5t-82 -39.5q-35 0 -63 21.5t-52.5 43t-51.5 21.5q-59 0 -65 -81h-52z" />
    <glyph glyph-name="notequal" unicode="&#x2260;" horiz-adv-x="507" 
d="M93 17l72 143h-118v64h149l64 126l-213 -1v64h244l66 131h46l-66 -131h122l1 -63h-154l-64 -126h217l1 -64h-249l-72 -143h-46z" />
    <glyph glyph-name="lessequal" unicode="&#x2264;" horiz-adv-x="586" 
d="M539 104l-492 224v100l492 226v-69l-454 -206l454 -205v-70zM47 -1v64h490l1 -64h-491z" />
    <glyph glyph-name="greaterequal" unicode="&#x2265;" horiz-adv-x="586" 
d="M47 104v70l454 205l-454 206v69l492 -226v-100zM48 -1v64h490l1 -64h-491z" />
    <glyph glyph-name="I.ss01" horiz-adv-x="479" 
d="M35 67h168v566h-168v67h409v-67h-169v-566h169v-67h-409v67z" />
    <glyph glyph-name="Iacute.ss01" horiz-adv-x="479" 
d="M35 0v67h168v566h-168v67h409v-67h-169v-566h169v-67h-409zM298 900h88l-116 -128h-61z" />
    <glyph glyph-name="Icircumflex.ss01" horiz-adv-x="479" 
d="M203 67v566h-168v67h409v-67h-169v-566h169v-67h-409v67h168zM92 772l90 113h115l91 -113h-74l-74 91l-74 -91h-74z" />
    <glyph glyph-name="Idieresis.ss01" horiz-adv-x="479" 
d="M35 633v67h409v-67h-169v-566h169v-67h-409v67h168v566h-168zM79 838q0 21 14 35t35 14t35 -14t14 -35t-14 -35t-35 -14t-35 14t-14 35zM316 873q14 14 35 14q20 0 34.5 -14t14.5 -35t-14.5 -35t-34.5 -14q-21 0 -35 14t-14 35t14 35z" />
    <glyph glyph-name="Idotaccent.ss01" horiz-adv-x="479" 
d="M35 700h409v-67h-169v-566h169v-67h-409v67h168v566h-168v67zM203 874q15 15 37 15t37.5 -15.5t15.5 -37.5t-15 -37q-16 -15 -38 -15t-37.5 15t-15.5 37t16 38z" />
    <glyph glyph-name="Igrave.ss01" horiz-adv-x="479" 
d="M35 0v67h168v566h-168v67h409v-67h-169v-566h169v-67h-409zM186 900l89 -128h-61l-113 128h85z" />
    <glyph glyph-name="Imacron.ss01" horiz-adv-x="479" 
d="M35 0v67h168v566h-168v67h409v-67h-169v-566h169v-67h-409zM90 801v52h300v-52h-300z" />
    <glyph glyph-name="Iogonek.ss01" horiz-adv-x="479" 
d="M35 0v67h168v566h-168v67h409v-67h-169v-566h169v-67h-66q-85 -59 -85 -110q0 -36 38 -45.5t68 -9.5t66 7v-49q-26 -6 -45 -6.5t-22 -0.5q-33 0 -69.5 6.5t-62.5 29t-26 57.5q0 69 102 121h-307z" />
    <glyph glyph-name="i.loclTRK" horiz-adv-x="205" 
d="M138 530v-530h-70v530h70zM51 666q0 22 15.5 37.5t37.5 15.5t37.5 -15.5t15.5 -37.5t-15 -37q-16 -15 -38 -15t-37.5 15t-15.5 37z" />
    <glyph glyph-name="a.ss01" horiz-adv-x="577" 
d="M97 268q57 47 180 47l175 1v42q0 58 -47.5 88.5t-119.5 30.5q-60 0 -104.5 -22t-54.5 -73h-67q6 74 70 115.5t155 41.5q100 0 167.5 -47t67.5 -125v-367h-67v123q-73 -131 -217 -131q-79 0 -134.5 39t-58.5 114v5q0 72 55 118zM112 144q4 -43 41 -67.5t87 -24.5
q85 0 148.5 62t63.5 148l-165 -1q-96 0 -136 -33t-40 -74q0 -5 1 -10z" />
    <glyph glyph-name="aacute.ss01" horiz-adv-x="577" 
d="M97 268q57 47 180 47l175 1v42q0 58 -47.5 88.5t-119.5 30.5q-60 0 -104.5 -22t-54.5 -73h-67q6 74 70 115.5t155 41.5q100 0 167.5 -47t67.5 -125v-367h-67v123q-73 -131 -217 -131q-79 0 -134.5 39t-58.5 114v5q0 72 55 118zM112 144q4 -43 41 -67.5t87 -24.5
q85 0 148.5 62t63.5 148l-165 -1q-96 0 -136 -33t-40 -74q0 -5 1 -10zM253 602l89 128h88l-116 -128h-61z" />
    <glyph glyph-name="abreve.ss01" horiz-adv-x="577" 
d="M97 268q57 47 180 47l175 1v42q0 58 -47.5 88.5t-119.5 30.5q-60 0 -104.5 -22t-54.5 -73h-67q6 74 70 115.5t155 41.5q100 0 167.5 -47t67.5 -125v-367h-67v123q-73 -131 -217 -131q-79 0 -134.5 39t-58.5 114v5q0 72 55 118zM112 144q4 -43 41 -67.5t87 -24.5
q85 0 148.5 62t63.5 148l-165 -1q-96 0 -136 -33t-40 -74q0 -5 1 -10zM150 724h48q0 -34 23.5 -55.5t62.5 -21.5t62.5 21.5t23.5 55.5h49q0 -52 -38.5 -88.5t-96.5 -36.5q-57 0 -95.5 36.5t-38.5 88.5z" />
    <glyph glyph-name="acircumflex.ss01" horiz-adv-x="577" 
d="M97 268q57 47 180 47l175 1v42q0 58 -47.5 88.5t-119.5 30.5q-60 0 -104.5 -22t-54.5 -73h-67q6 74 70 115.5t155 41.5q100 0 167.5 -47t67.5 -125v-367h-67v123q-73 -131 -217 -131q-79 0 -134.5 39t-58.5 114v5q0 72 55 118zM112 144q4 -43 41 -67.5t87 -24.5
q85 0 148.5 62t63.5 148l-165 -1q-96 0 -136 -33t-40 -74q0 -5 1 -10zM226 715h115l91 -113h-74l-74 91l-74 -91h-74z" />
    <glyph glyph-name="adieresis.ss01" horiz-adv-x="577" 
d="M97 268q57 47 180 47l175 1v42q0 58 -47.5 88.5t-119.5 30.5q-60 0 -104.5 -22t-54.5 -73h-67q6 74 70 115.5t155 41.5q100 0 167.5 -47t67.5 -125v-367h-67v123q-73 -131 -217 -131q-79 0 -134.5 39t-58.5 114v5q0 72 55 118zM112 144q4 -43 41 -67.5t87 -24.5
q85 0 148.5 62t63.5 148l-165 -1q-96 0 -136 -33t-40 -74q0 -5 1 -10zM124 668q0 21 14 35t35 14t35 -14t14 -35t-14 -35t-35 -14t-35 14t-14 35zM347 668q0 21 14 35t35 14q20 0 34.5 -14t14.5 -35t-14.5 -35t-34.5 -14q-21 0 -35 14t-14 35z" />
    <glyph glyph-name="agrave.ss01" horiz-adv-x="577" 
d="M97 268q57 47 180 47l175 1v42q0 58 -47.5 88.5t-119.5 30.5q-60 0 -104.5 -22t-54.5 -73h-67q6 74 70 115.5t155 41.5q100 0 167.5 -47t67.5 -125v-367h-67v123q-73 -131 -217 -131q-79 0 -134.5 39t-58.5 114v5q0 72 55 118zM112 144q4 -43 41 -67.5t87 -24.5
q85 0 148.5 62t63.5 148l-165 -1q-96 0 -136 -33t-40 -74q0 -5 1 -10zM230 730l89 -128h-61l-113 128h85z" />
    <glyph glyph-name="amacron.ss01" horiz-adv-x="577" 
d="M97 268q57 47 180 47l175 1v42q0 58 -47.5 88.5t-119.5 30.5q-60 0 -104.5 -22t-54.5 -73h-67q6 74 70 115.5t155 41.5q100 0 167.5 -47t67.5 -125v-367h-67v123q-73 -131 -217 -131q-79 0 -134.5 39t-58.5 114v5q0 72 55 118zM112 144q4 -43 41 -67.5t87 -24.5
q85 0 148.5 62t63.5 148l-165 -1q-96 0 -136 -33t-40 -74q0 -5 1 -10zM134 683h300v-52h-300v52z" />
    <glyph glyph-name="aogonek.ss01" horiz-adv-x="577" 
d="M97 268q57 47 180 47l175 1v42q0 58 -47.5 88.5t-119.5 30.5q-60 0 -104.5 -22t-54.5 -73h-67q6 74 70 115.5t155 41.5q100 0 167.5 -47t67.5 -125v-367h-32q-32 -20 -61.5 -51t-29.5 -63q0 -36 38 -45.5t68 -9.5t66 7v-49q-26 -6 -45 -6.5t-22 -0.5q-33 0 -69.5 6.5
t-62.5 29t-26 57.5q0 42 35.5 74.5t74.5 50.5h-1v123q-73 -131 -217 -131q-79 0 -134.5 39t-58.5 114v5q0 72 55 118zM112 144q4 -43 41 -67.5t87 -24.5q85 0 148.5 62t63.5 148l-165 -1q-96 0 -136 -33t-40 -74q0 -5 1 -10z" />
    <glyph glyph-name="aring.ss01" horiz-adv-x="577" 
d="M97 268q57 47 180 47l175 1v42q0 58 -47.5 88.5t-119.5 30.5q-60 0 -104.5 -22t-54.5 -73h-67q6 74 70 115.5t155 41.5q100 0 167.5 -47t67.5 -125v-367h-67v123q-73 -131 -217 -131q-79 0 -134.5 39t-58.5 114v5q0 72 55 118zM112 144q4 -43 41 -67.5t87 -24.5
q85 0 148.5 62t63.5 148l-165 -1q-96 0 -136 -33t-40 -74q0 -5 1 -10zM192 674q0 39 27.5 66t65.5 27t65 -27.5t27 -65.5t-27 -64.5t-65 -26.5q-39 0 -66 26.5t-27 64.5zM248 638q15 -15 37 -15q21 0 36 15t15 36q0 22 -15 37t-36 15q-22 0 -35.5 -15t-15.5 -37v-3
q0 -19 14 -33z" />
    <glyph glyph-name="atilde.ss01" horiz-adv-x="577" 
d="M97 268q57 47 180 47l175 1v42q0 58 -47.5 88.5t-119.5 30.5q-60 0 -104.5 -22t-54.5 -73h-67q6 74 70 115.5t155 41.5q100 0 167.5 -47t67.5 -125v-367h-67v123q-73 -131 -217 -131q-79 0 -134.5 39t-58.5 114v5q0 72 55 118zM112 144q4 -43 41 -67.5t87 -24.5
q85 0 148.5 62t63.5 148l-165 -1q-96 0 -136 -33t-40 -74q0 -5 1 -10zM92 614q3 54 34 89.5t78 35.5q28 0 52.5 -15t38.5 -32.5t33 -32.5t37 -15q25 0 40.5 23.5t16.5 61.5h53q-2 -59 -32 -96t-78 -37q-27 0 -51 14.5t-38 32.5t-33.5 32.5t-38.5 14.5q-26 0 -41.5 -21.5
t-17.5 -54.5h-53z" />
    <glyph glyph-name="ae.ss01" horiz-adv-x="1100" 
d="M1053 240h-467v-10q10 -77 67 -125.5t134 -48.5q55 0 103 25.5t77 69.5l65 -13q-33 -66 -100.5 -106t-144.5 -40q-123 0 -201 94v-86h-70v110q-31 -54 -86 -86t-122 -32q-111 0 -189 80.5t-78 193.5t78 193t189 80q67 0 122 -32.5t86 -86.5v110h70v-88q76 97 201 97
q103 0 177.5 -69t87.5 -170q7 -35 1 -60zM314 56q85 0 145.5 62t60.5 148t-60.5 147.5t-145.5 61.5q-86 0 -146 -61.5t-60 -147.5q0 -88 60 -149t146 -61zM786 475q-77 0 -133 -48.5t-67 -121.5v-8h398q-8 76 -63.5 127t-134.5 51z" />
    <glyph glyph-name="y.ss01" horiz-adv-x="569" 
d="M96 530l189 -498l187 498h73l-284 -740h-70l82 210h-47l-203 530h73z" />
    <glyph glyph-name="yacute.ss01" horiz-adv-x="569" 
d="M23 530h73l189 -498l187 498h73l-284 -740h-70l82 210h-47zM254 602l89 128h88l-116 -128h-61z" />
    <glyph glyph-name="ycircumflex.ss01" horiz-adv-x="569" 
d="M96 530l189 -498l187 498h73l-284 -740h-70l82 210h-47l-203 530h73zM137 602l90 113h115l91 -113h-74l-74 91l-74 -91h-74z" />
    <glyph glyph-name="ydieresis.ss01" horiz-adv-x="569" 
d="M23 530h73l189 -498l187 498h73l-284 -740h-70l82 210h-47zM124 668q0 21 14 35t35 14t35 -14t14 -35t-14 -35t-35 -14t-35 14t-14 35zM361 703q14 14 35 14q20 0 34.5 -14t14.5 -35t-14.5 -35t-34.5 -14q-21 0 -35 14t-14 35t14 35z" />
    <glyph glyph-name="ygrave.ss01" horiz-adv-x="569" 
d="M96 530l189 -498l187 498h73l-284 -740h-70l82 210h-47l-203 530h73zM146 730h85l89 -128h-61z" />
    <glyph glyph-name="f_t" horiz-adv-x="789" 
d="M144 530v19q0 105 56 134.5t111 29.5q41 0 89 -12v-56q-47 11 -86 11q-4 0 -27.5 -1t-49 -28t-25.5 -79v-18h296v144l69 21v-165h177v-62h-177v-306q0 -105 97 -105q34 0 80 13v-68q-49 -12 -89 -12q-56 0 -106.5 32t-50.5 139v307h-294l1 -468h-69l-2 468h-119v62h119z
" />
    <glyph glyph-name="uni0414.loclBGR" horiz-adv-x="735" 
d="M616 66h84v-208h-72v142h-531v-142h-72v208q141 0 141 260v374h450v-634zM169 66h375v567h-306v-308q0 -174 -69 -259z" />
    <glyph glyph-name="uni041B.loclBGR" horiz-adv-x="680" 
d="M28 -4v66q35 -3 60.5 9t41 32.5t24.5 52t12 63t3 71.5v410h450v-700h-72v633h-306v-344q0 -51 -6.5 -94.5t-21.5 -82t-39 -65t-61 -40.5t-85 -11z" />
    <glyph glyph-name="uni0424.loclBGR" horiz-adv-x="704" 
d="M653 351q0 -114 -79.5 -199t-191.5 -87v-65h-71v65q-112 2 -191 87t-79 199q0 113 79 198t191 87v64h71v-64q112 -2 191.5 -87.5t79.5 -197.5zM111 351q0 -90 58 -154t142 -66v438q-84 -2 -142 -65.5t-58 -152.5zM382 131q84 2 142 66t58 154q0 88 -58 152t-142 66v-438z
" />
    <glyph glyph-name="uni0432.loclBGR" horiz-adv-x="555" 
d="M59 0v530h272q76 0 122.5 -36.5t46.5 -101.5q0 -44 -23 -75t-61 -45q101 -26 101 -126q0 -69 -49.5 -107.5t-129.5 -38.5h-279zM128 296h193q51 0 80 21.5t30 65.5q1 43 -26.5 64t-78.5 21h-198v-172zM128 62h204q114 0 114 91q0 90 -119 90h-199v-181z" />
    <glyph glyph-name="uni0433.loclBGR" horiz-adv-x="474" 
d="M446 530v-66h-317v-467h-70v533h387z" />
    <glyph glyph-name="uni0434.loclBGR" horiz-adv-x="602" 
d="M500 62h70v-170h-67v108h-418v-108h-66v170q107 1 107 200v268h374v-468zM146 62h284v406h-235v-205q0 -132 -49 -201z" />
    <glyph glyph-name="uni0436.loclBGR" horiz-adv-x="727" 
d="M699 530l-242 -261l242 -269h-80l-221 247v-247h-68v248l-222 -248h-80l242 269l-242 261h80l222 -240v240h68v-239l221 239h80z" />
    <glyph glyph-name="uni0437.loclBGR" horiz-adv-x="550" 
d="M274 -8q-104 0 -169.5 46t-70.5 116h66q5 -44 52 -71.5t122 -27.5q74 0 122.5 28.5t48.5 74.5q0 41 -41 66.5t-122 25.5h-118v53h118q73 0 112 23.5t39 61.5q0 39 -43 64t-116 25q-75 0 -116 -23.5t-46 -62.5h-67q5 68 67 108t162 40q98 0 162 -39.5t64 -104.5
q0 -81 -99 -117q49 -13 79.5 -46.5t30.5 -79.5q0 -67 -66.5 -113.5t-170.5 -46.5z" />
    <glyph glyph-name="uni0438.loclBGR" horiz-adv-x="592" 
d="M532 530v-530h-67v509l-268 -509h-137v530h68v-504l265 504h139z" />
    <glyph glyph-name="uni0439.loclBGR" horiz-adv-x="592" 
d="M296 599q-57 0 -95.5 36.5t-38.5 88.5h48q0 -34 23.5 -55.5t62.5 -21.5t62.5 21.5t23.5 55.5h49q0 -52 -38.5 -88.5t-96.5 -36.5zM532 530v-530h-67v509l-268 -509h-137v530h68v-504l265 504h139z" />
    <glyph glyph-name="uni045D.loclBGR" horiz-adv-x="592" 
d="M60 530h68v-504l265 504h139v-530h-67v509l-268 -509h-137v530zM145 730h88l89 -128h-62z" />
    <glyph glyph-name="uni043A.loclBGR" horiz-adv-x="533" 
d="M502 0h-93l-280 253v-253h-70v530h70v-245l279 245h93l-298 -260z" />
    <glyph glyph-name="uni043B.loclBGR" horiz-adv-x="564" 
d="M25 -5v62q43 -3 68 20t32 57t7 85v311h373v-530h-70v464h-233v-246q0 -232 -177 -223z" />
    <glyph glyph-name="uni043F.loclBGR" horiz-adv-x="573" 
d="M59 0v530h454v-530h-70v464h-314v-464h-70z" />
    <glyph glyph-name="uni0442.loclBGR" horiz-adv-x="542" 
d="M239 0v466h-211v64h486v-64h-205v-466h-70z" />
    <glyph glyph-name="uni0446.loclBGR" horiz-adv-x="551" 
d="M444 66h72v-174h-68v108h-389v530h69v-464h248v464h68v-464z" />
    <glyph glyph-name="uni0448.loclBGR" horiz-adv-x="770" 
d="M643 530h68v-530h-652v530h69v-464h223v464h68v-464h224v464z" />
    <glyph glyph-name="uni0449.loclBGR" horiz-adv-x="815" 
d="M711 66h70v-174h-66v108h-656v530h69v-464h223v464h68v-464h224v464h68v-464z" />
    <glyph glyph-name="uni044C.loclBGR" horiz-adv-x="540" 
d="M59 0v530h69v-188h209q75 -1 123 -51t48 -121t-48 -120.5t-123 -49.5h-278zM128 64h192q55 0 86.5 30t31.5 76q0 47 -31.5 77.5t-86.5 30.5h-192v-214z" />
    <glyph glyph-name="uni044A.loclBGR" horiz-adv-x="619" 
d="M416 342q75 -1 123 -51t48 -121t-48 -120.5t-123 -49.5h-278v470h-112v60h181v-188h209zM399 64q55 0 86.5 30t31.5 76q0 47 -31.5 77.5t-86.5 30.5h-192v-214h192z" />
    <glyph glyph-name="uni044E.loclBGR" horiz-adv-x="795" 
d="M479 539q114 0 193.5 -80.5t79.5 -192.5q0 -113 -79.5 -193.5t-193.5 -80.5q-105 0 -182 70t-88 173h-81v-235h-69v530h69v-233h81q11 103 88 172.5t182 69.5zM479 57q86 0 145.5 61t59.5 148q0 86 -60 147t-145 61q-86 0 -145 -60.5t-59 -147.5q0 -88 59.5 -148.5
t144.5 -60.5z" />
    <glyph glyph-name="uni0431.loclSRB" horiz-adv-x="593" 
d="M308 -8q-122 0 -193 95.5t-71 257.5q0 166 78 260.5t215 94.5h174v-62h-176q-107 0 -164.5 -77t-58.5 -205l3 -47q13 67 70.5 111.5t131.5 44.5q100 -1 168 -70t68 -164q0 -99 -68.5 -169t-176.5 -70zM310 58q73 0 123 49t50 123q0 72 -50.5 122.5t-122.5 50.5t-122 -50
t-50 -123q0 -74 49.5 -123t122.5 -49z" />
    <glyph glyph-name="zero.dnom" horiz-adv-x="398" 
d="M199 -13q-71 0 -113.5 54.5t-42.5 144.5t43 145t113 55q69 0 112 -55.5t43 -144.5t-43 -144t-112 -55zM199 42q44 0 72.5 40.5t28.5 103.5q0 64 -28.5 105t-72.5 41q-46 0 -73.5 -40.5t-27.5 -105.5q0 -64 28 -104t73 -40z" />
    <glyph glyph-name="one.dnom" horiz-adv-x="245" 
d="M151 -8v336h-117v53h171v-389h-54z" />
    <glyph glyph-name="two.dnom" horiz-adv-x="347" 
d="M50 -7l1 43l151 169q42 45 42 75q0 22 -20 37.5t-48 15.5q-33 0 -56 -24.5t-23 -59.5l-55 -1q1 61 39 100t96 39q52 0 86.5 -29.5t35.5 -74.5q0 -52 -59 -114l-110 -124h174v-52h-254z" />
    <glyph glyph-name="three.dnom" horiz-adv-x="362" 
d="M186 -16q-58 0 -98 38t-41 94h57q-1 -31 23.5 -54.5t58.5 -23.5q35 0 58 20.5t23 52.5q0 43 -41 61.5t-100 2.5l-25 34l134 116h-175v53h251v-57l-114 -98q57 -1 91 -32t34 -81q0 -55 -38.5 -90.5t-97.5 -35.5z" />
    <glyph glyph-name="four.dnom" horiz-adv-x="329" 
d="M171 -8v80l-190 -1v42l163 268h83v-259h58v-50h-58v-80h-56zM46 122h125v200z" />
    <glyph glyph-name="five.dnom" horiz-adv-x="350" 
d="M183 -15q-58 0 -97.5 37t-43.5 95h57q1 -34 25 -56.5t59 -22.5q34 0 58 24.5t25 59.5q0 35 -24.5 59t-60.5 24q-52 0 -78 -36h-51l5 209h250v-53h-197l-3 -96q35 27 82 27q56 -1 94 -39.5t38 -94.5q0 -60 -39 -99t-99 -38z" />
    <glyph glyph-name="six.dnom" horiz-adv-x="376" 
d="M196 -16q-71 0 -112.5 53t-40.5 144q1 90 43 145.5t110 55.5q54 0 88.5 -34.5t42.5 -83.5h-55q-6 29 -27.5 47.5t-50.5 18.5q-41 0 -66.5 -36.5t-27.5 -92.5q35 51 102 51q56 -1 93.5 -39t37.5 -93q0 -59 -39 -97.5t-98 -38.5zM195 37q35 -1 59 23t24 59t-24 58.5
t-59 23.5t-59.5 -24t-23.5 -58q0 -34 24 -58t59 -24z" />
    <glyph glyph-name="seven.dnom" horiz-adv-x="328" 
d="M69 -8l165 335h-191v53h249l1 -52l-163 -336h-61z" />
    <glyph glyph-name="eight.dnom" horiz-adv-x="380" 
d="M189 -15q-64 0 -105 33t-41 83q0 64 60 92q-52 28 -52 86q0 45 38.5 74.5t99.5 29.5q62 0 101 -29t39 -75q0 -58 -53 -86q61 -28 61 -92q0 -50 -41.5 -83t-106.5 -33zM189 214q35 0 59 17.5t24 43.5q0 25 -23.5 41t-59.5 16q-35 0 -59 -16t-24 -41t24 -43t59 -18zM189 36
q40 0 65.5 18.5t25.5 47.5q0 32 -24.5 50t-66.5 18q-41 0 -65.5 -18.5t-24.5 -49.5q0 -29 25 -47.5t65 -18.5z" />
    <glyph glyph-name="nine.dnom" horiz-adv-x="376" 
d="M181 -16q-54 0 -89 35.5t-42 84.5h56q4 -29 26 -48t51 -19q45 0 72.5 39t25.5 94q-13 -24 -42 -39.5t-64 -15.5q-56 1 -94 39t-38 93q0 58 39.5 96.5t98.5 39.5q70 0 111 -53t41 -143q0 -91 -42 -147t-110 -56zM182 165q33 0 57.5 24.5t24.5 58.5t-24 58.5t-58 24.5
t-58.5 -24.5t-24.5 -58.5t24.5 -58.5t58.5 -24.5z" />
    <glyph glyph-name="zero.numr" horiz-adv-x="398" 
d="M199 312q-70 0 -113 54.5t-43 143.5q0 90 43 145t113 55q69 0 112 -55.5t43 -144.5q0 -88 -43 -143t-112 -55zM199 366q44 0 72.5 40.5t28.5 103.5q0 64 -28.5 105.5t-72.5 41.5q-46 0 -73.5 -40.5t-27.5 -106.5q0 -64 28 -104t73 -40z" />
    <glyph glyph-name="one.numr" horiz-adv-x="245" 
d="M151 314v336h-117v52h171v-388h-54z" />
    <glyph glyph-name="two.numr" horiz-adv-x="347" 
d="M50 314l1 43l151 169q42 45 42 76q0 22 -20 37.5t-48 15.5q-33 0 -56 -25t-23 -60l-55 -1q1 61 39 100t96 39q52 0 86.5 -29.5t35.5 -74.5q0 -51 -59 -114l-110 -123h174v-52z" />
    <glyph glyph-name="three.numr" horiz-adv-x="362" 
d="M186 306q-58 0 -98 37.5t-41 93.5l57 1q-1 -32 23.5 -55.5t58.5 -23.5q35 0 58 21t23 52q0 43 -41 61.5t-100 2.5l-25 34l134 116h-175v53h251v-57l-114 -97q57 -1 91 -32t34 -81q0 -55 -38.5 -90.5t-97.5 -35.5z" />
    <glyph glyph-name="four.numr" horiz-adv-x="329" 
d="M171 314v79h-190v41l163 268h83v-259h58v-50h-58v-79h-56zM46 443h125v201z" />
    <glyph glyph-name="five.numr" horiz-adv-x="350" 
d="M183 307q-58 0 -97.5 36.5t-43.5 94.5h57q1 -34 25 -56t59 -22t58.5 24t24.5 59q0 35 -24.5 59.5t-60.5 24.5q-51 0 -78 -37h-51l5 209h250v-53h-197l-3 -96q35 27 82 27q56 -1 94 -39t38 -94q0 -60 -39 -99t-99 -38z" />
    <glyph glyph-name="six.numr" horiz-adv-x="376" 
d="M196 306q-71 -1 -112.5 52t-40.5 144q1 90 43 145.5t110 55.5q54 0 88.5 -34.5t42.5 -83.5h-55q-6 29 -27.5 47.5t-50.5 18.5q-41 0 -66.5 -36t-27.5 -93q35 51 102 51q55 0 93 -38t38 -94q0 -59 -39 -97.5t-98 -37.5zM195 358q35 -1 59 23.5t24 59.5q0 34 -24 57.5
t-59 23.5t-59.5 -24t-23.5 -58q0 -34 24.5 -58t58.5 -24z" />
    <glyph glyph-name="seven.numr" horiz-adv-x="328" 
d="M69 314l165 334h-191v53h249l1 -51l-163 -336h-61z" />
    <glyph glyph-name="eight.numr" horiz-adv-x="380" 
d="M189 306q-64 0 -105 33t-41 83q0 64 60 93q-52 28 -52 85q0 45 38.5 74.5t99.5 29.5q62 0 101 -29t39 -75q0 -57 -53 -85q61 -30 61 -93q0 -50 -41.5 -83t-106.5 -33zM189 535q35 0 59 17.5t24 43.5q0 25 -23.5 41.5t-59.5 16.5q-35 0 -59 -16.5t-24 -41.5t24 -43t59 -18
zM189 357q40 0 65.5 18.5t25.5 47.5q0 32 -24.5 50t-66.5 18q-41 0 -65.5 -18.5t-24.5 -49.5q0 -29 25 -47.5t65 -18.5z" />
    <glyph glyph-name="nine.numr" horiz-adv-x="376" 
d="M181 306q-54 0 -89 35t-42 84h56q5 -29 27 -48t50 -19q45 0 72.5 39.5t25.5 93.5q-13 -24 -42 -39.5t-64 -14.5q-56 0 -94 38t-38 94q0 58 39.5 96t98.5 39q70 1 111 -52t41 -144t-42 -146.5t-110 -55.5zM182 487q33 0 57.5 24t24.5 58t-24 58.5t-58 24.5t-58.5 -24
t-24.5 -59q0 -34 24.5 -58t58.5 -24z" />
    <glyph glyph-name="ampersand.ss01" horiz-adv-x="705" 
d="M658 372q-106 -167 -150 -227l148 -145l-88 -1l-100 97q-91 -104 -205 -104q-96 0 -155.5 56.5t-59.5 142.5q0 51 24 97t65 77h54q-81 84 -81 167q0 78 54.5 128.5t141.5 50.5q89 0 142 -52.5t53 -135.5q0 -103 -93 -196h-83q108 99 108 193q0 60 -36 96t-91 36
q-52 0 -89 -32t-37 -85q0 -70 116 -182l165 -162q50 70 123 181h74zM265 52q82 0 158 88l-218 211q-88 -66 -88 -157q0 -64 41 -103t107 -39z" />
    <glyph glyph-name="brevecombcy" horiz-adv-x="0" 
 />
    <glyph glyph-name="newGlyph" horiz-adv-x="600" 
 />
    </font>
</defs>
</svg>
