<?xml version="1.0" standalone="no"?>
<!DOCTYPE svg PUBLIC "-//W3C//DTD SVG 1.1//EN" "http://www.w3.org/Graphics/SVG/1.1/DTD/svg11.dtd" >
<svg xmlns="http://www.w3.org/2000/svg" xmlns:xlink="http://www.w3.org/1999/xlink" version="1.1">
<metadata>
Created by FontForge 20170731 at Mon Nov  2 06:35:22 2020
 By Aleksey,,,
Copyright (c) 2020 by Ellen Luff &#38; Tom Anders Watkins. All rights reserved.
</metadata>
<defs>
<font id="Jeko-ExtraBold" horiz-adv-x="614" >
  <font-face 
    font-family="Jeko-ExtraBold"
    font-weight="400"
    font-stretch="normal"
    units-per-em="1000"
    panose-1="0 0 9 0 0 0 0 0 0 0"
    ascent="765"
    descent="-235"
    x-height="530"
    cap-height="700"
    bbox="-521 -231 1174 959"
    underline-thickness="50"
    underline-position="-150"
    unicode-range="U+0020-FB01"
  />
<missing-glyph horiz-adv-x="505" 
d="M94 -210v1010h320v-1010h-320zM336 -3v114h-167v-114h167zM169 -26v-34h70l-70 -47v-33h167v33h-103l71 47h32v34h-167zM336 172v114h-101v-57h35v24h33v-48h-101v81h-33v-114h167zM169 602v-105h167v34h-66v71h-101zM336 628v34h-66v37h66v33h-166v-33h65v-37h-66v-34
h167zM169 399v-33h101v70h66v34h-167v-34h66v-37h-66zM169 342v-34h167v101h-33v-67h-134zM202 78h101v-48h-101v48zM202 568h33v-37h-33v37z" />
    <glyph glyph-name="fi" unicode="fi" horiz-adv-x="591" 
d="M551 530v-530h-130v418h-174l1 -418h-128l-3 418h-92v112h92v20q0 87 63.5 134.5t155.5 44t176 -51.5l-53 -91q-56 36 -107.5 38.5t-80.5 -20t-29 -59.5v-15h309z" />
    <glyph glyph-name="f_f" unicode="ff" horiz-adv-x="799" 
d="M771 605q-30 9 -57.5 11.5t-52 -1t-39 -20.5t-14.5 -45v-20h154v-112h-149l1 -418h-128l-3 418h-236l1 -418h-128l-3 418h-92v112h92v20q0 57 26 96t68.5 55t92.5 16.5t101 -15.5v-97q-30 9 -57.5 11.5t-52 -1t-39 -20.5t-14.5 -45v-20h241v20q0 57 26 96t68.5 55
t92.5 16.5t101 -15.5v-97z" />
    <glyph glyph-name="f_f_i" unicode="ffi" horiz-adv-x="894" 
d="M855 530v-530h-130v418h-165l1 -418h-129l-2 418h-183l1 -418h-128l-3 418h-92v112h92v20q0 64 36.5 108.5t92 61t123.5 9.5t130 -40q58 41 147 38t170 -48l-53 -91q-87 49 -147.5 31.5t-60.5 -74.5v-15h300zM430 550q0 26 7 54q-82 39 -138.5 17t-56.5 -76v-15h188v20z
" />
    <glyph glyph-name=".notdef" horiz-adv-x="505" 
d="M94 -210v1010h320v-1010h-320zM336 -3v114h-167v-114h167zM169 -26v-34h70l-70 -47v-33h167v33h-103l71 47h32v34h-167zM336 172v114h-101v-57h35v24h33v-48h-101v81h-33v-114h167zM169 602v-105h167v34h-66v71h-101zM336 628v34h-66v37h66v33h-166v-33h65v-37h-66v-34
h167zM169 399v-33h101v70h66v34h-167v-34h66v-37h-66zM169 342v-34h167v101h-33v-67h-134zM202 78h101v-48h-101v48zM202 568h33v-37h-33v37z" />
    <glyph glyph-name=".null" horiz-adv-x="0" 
 />
    <glyph glyph-name="uni000D" horiz-adv-x="333" 
 />
    <glyph glyph-name="space" unicode=" " horiz-adv-x="274" 
 />
    <glyph glyph-name="exclam" unicode="!" horiz-adv-x="245" 
d="M202 700l-19 -261l-17 -215h-85l-36 476h157zM41 74q0 34 23.5 57t57.5 23t57.5 -23t23.5 -57t-23 -57q-24 -23 -58 -23t-57.5 23t-23.5 57z" />
    <glyph glyph-name="quotedbl" unicode="&#x22;" horiz-adv-x="374" 
d="M37 700h127l-13 -249h-102zM211 700h126l-12 -249h-102z" />
    <glyph glyph-name="numbersign" unicode="#" horiz-adv-x="860" 
d="M80 276h150l48 150h-157l31 99h158l57 175h99l-56 -175h154l57 175h99l-56 -175h148l-31 -99h-149l-48 -150h156l-31 -99h-158l-57 -177h-99l57 177h-155l-57 -177h-99l57 177h-149zM330 276h154l48 150h-154z" />
    <glyph glyph-name="dollar" unicode="$" horiz-adv-x="620" 
d="M33 240h130q3 -54 33 -84.5t77 -41.5v189q-226 52 -226 197q0 80 63 139t163 68v64h82v-65q102 -12 165.5 -73.5t64.5 -153.5l-133 1q-4 84 -97 108v-183q104 -18 168 -71t64 -138q0 -86 -60.5 -141t-171.5 -62v-73h-82v76q-102 14 -171 73.5t-69 164.5v6zM355 109
q48 4 76.5 26t28.5 57q0 60 -105 90v-173zM174 505q0 -58 99 -83v169q-47 -5 -73 -29t-26 -57z" />
    <glyph glyph-name="percent" unicode="%" horiz-adv-x="715" 
d="M69 0l493 700h100l-493 -700h-100zM378 131q0 60 42.5 102t101.5 42t101.5 -42t42.5 -102q0 -59 -42.5 -101t-101.5 -42q-60 0 -102 42t-42 101zM92 670q42 42 101 42t101.5 -42t42.5 -102q0 -59 -42.5 -101t-101.5 -42q-60 0 -102 42t-42 101q0 60 43 102zM478 87
q18 -18 44 -18q25 0 43 18t18 44t-18 44.5t-43 18.5q-26 0 -44 -18.5t-18 -44.5t18 -44zM132 568q0 -26 18 -44t43 -18q26 0 44 18t18 44t-18 44.5t-44 18.5q-25 0 -43 -18.5t-18 -44.5z" />
    <glyph glyph-name="ampersand" unicode="&#x26;" horiz-adv-x="760" 
d="M46 182q0 61 39 102.5t108 73.5q-45 45 -67 83t-22 84q0 79 61 134t159 55t158.5 -54t60.5 -129q0 -104 -168 -188l111 -109q54 74 96 145h137q-97 -155 -149 -226l156 -153l-160 -1l-69 67q-80 -74 -202 -74q-107 0 -178 51.5t-71 138.5zM211 123q37 -23 87 -23
q65 0 114 47l-152 146q-87 -49 -87 -109q0 -39 38 -61zM310 411q106 65 106 119q0 30 -26 53t-66 23q-38 0 -64 -21.5t-26 -52.5q0 -39 76 -121z" />
    <glyph glyph-name="quotesingle" unicode="'" horiz-adv-x="201" 
d="M48 462l-11 238h127l-18 -238h-98z" />
    <glyph glyph-name="parenleft" unicode="(" horiz-adv-x="350" 
d="M97 552q51 111 128 193l94 -1q-62 -74 -112.5 -192t-50.5 -244t50 -243.5t112 -192.5h-95q-76 83 -126.5 194t-50.5 242q0 132 51 244z" />
    <glyph glyph-name="parenright" unicode=")" horiz-adv-x="359" 
d="M36 -128q61 73 111.5 192t50.5 245t-49.5 243t-111.5 193h94q178 -194 178 -436q0 -132 -51.5 -243t-128.5 -194h-93z" />
    <glyph glyph-name="asterisk" unicode="*" horiz-adv-x="433" 
d="M171 326l24 150l-119 -95l-45 77l144 55l-144 55l45 77l119 -95l-24 151h90l-23 -151l119 96l44 -78l-142 -55l142 -55l-44 -78l-119 96l23 -150h-90z" />
    <glyph glyph-name="plus" unicode="+" horiz-adv-x="558" 
d="M225 345v157h117v-157h165l1 -117h-166v-157h-117v157h-166v117h166z" />
    <glyph glyph-name="comma" unicode="," horiz-adv-x="241" 
d="M27 -119l51 264h128l-81 -264h-98z" />
    <glyph glyph-name="hyphen" unicode="-" horiz-adv-x="444" 
d="M41 228v117h363v-117h-363z" />
    <glyph glyph-name="period" unicode="." horiz-adv-x="226" 
d="M28 76q0 35 25 59.5t60 24.5t59.5 -24.5t24.5 -59.5t-24 -59q-25 -25 -60 -25t-60 24.5t-25 59.5z" />
    <glyph glyph-name="slash" unicode="/" horiz-adv-x="438" 
d="M31 0l251 700h126l-251 -700h-126z" />
    <glyph glyph-name="zero" unicode="0" horiz-adv-x="642" 
d="M112 612q76 97 208 97q133 0 209.5 -97.5t76.5 -261.5t-77 -261t-209 -97q-134 0 -209.5 96t-75.5 261t77 263zM208 181q42 -63 112 -63q73 0 114.5 64t41.5 168t-42.5 168.5t-113.5 64.5q-72 0 -113.5 -64.5t-41.5 -169.5q0 -106 43 -168z" />
    <glyph glyph-name="one" unicode="1" horiz-adv-x="379" 
d="M192 0v576h-164v124h294v-700h-130z" />
    <glyph glyph-name="two" unicode="2" horiz-adv-x="576" 
d="M120 649q71 60 170 60q97 0 166.5 -58.5t69.5 -164.5q0 -86 -86 -175l-178 -185h265l-1 -126h-466v90l285 300q49 51 51 93v6q0 41 -29 72t-77 31q-49 0 -79.5 -32t-32.5 -79h-130q1 107 72 168z" />
    <glyph glyph-name="three" unicode="3" horiz-adv-x="585" 
d="M172 219q2 -48 35.5 -79t85.5 -31q53 0 84.5 30t31.5 74q0 67 -47 94.5t-95 27.5q-30 0 -64 -8l-47 60l208 189h-307v124h464l1 -143l-156 -140q76 -12 124.5 -63t48.5 -136q0 -108 -74 -167t-172 -59q-103 0 -176.5 66.5t-75.5 160.5h131z" />
    <glyph glyph-name="four" unicode="4" horiz-adv-x="636" 
d="M299 700h213v-462h84v-114h-84v-124h-130v124h-350v96zM382 238v369l-208 -369h208z" />
    <glyph glyph-name="five" unicode="5" horiz-adv-x="597" 
d="M179 219q6 -49 42 -77.5t84 -28.5q57 0 90 37t35 91v3q0 55 -35.5 91t-94.5 36q-37 0 -67 -14t-45 -34h-130l10 377h464l1 -124h-340l-3 -149q52 53 139 53h3q100 -1 164 -70.5t64 -165.5v-3q0 -107 -68 -178t-176 -71h-9q-98 0 -172.5 59.5t-88.5 167.5h133z" />
    <glyph glyph-name="six" unicode="6" 
d="M120 611q75 98 201 98q92 0 162 -55t92 -146h-133q-12 35 -46 59.5t-77 24.5q-71 0 -111 -60.5t-40 -135.5v-17q59 89 174 89h3q103 -1 168 -69.5t65 -162.5q0 -101 -68 -172.5t-185 -71.5q-127 0 -203.5 93t-76.5 262q0 165 75 264zM189 234q0 -54 36.5 -89.5
t90.5 -35.5q55 0 92 35.5t37 89.5q0 55 -37 91t-92 36q-54 0 -90.5 -36.5t-36.5 -90.5z" />
    <glyph glyph-name="seven" unicode="7" horiz-adv-x="512" 
d="M367 575h-331v125h461l1 -142l-257 -558h-145z" />
    <glyph glyph-name="eight" unicode="8" horiz-adv-x="623" 
d="M41 208q0 61 34 100t82 58q-103 47 -103 152q0 88 76.5 139.5t180.5 51.5t180.5 -51.5t76.5 -139.5q0 -105 -103 -152q48 -19 82 -58t34 -100q0 -90 -74 -153q-75 -63 -196 -63t-195.5 63t-74.5 153zM176 210q0 -48 39 -76t96 -28t96.5 28t39.5 76q0 46 -36.5 77.5
t-99.5 31.5t-99 -31.5t-36 -77.5zM188 505q0 -41 35 -70t88 -29t88 28.5t35 70.5q0 41 -35.5 66t-87.5 25q-51 0 -87 -25.5t-36 -65.5z" />
    <glyph glyph-name="nine" unicode="9" horiz-adv-x="615" 
d="M113 638q70 71 186 71q127 0 201.5 -94.5t74.5 -259.5q0 -167 -74 -265t-202 -98q-94 0 -162.5 54.5t-91.5 146.5h133q13 -35 46.5 -59.5t76.5 -24.5q47 0 81 31.5t48.5 73t18.5 89.5q1 9 1 16q-21 -38 -66 -63.5t-102 -25.5q-109 1 -174.5 69t-65.5 166q0 101 71 173z
M174 467q0 -53 38 -88.5t90 -35.5q51 0 88.5 35.5t37.5 88.5t-37.5 89t-88.5 36q-52 0 -90 -36t-38 -89z" />
    <glyph glyph-name="colon" unicode=":" horiz-adv-x="225" 
d="M56 131q23 23 57 23t57 -23t23 -57t-23 -57t-57 -23t-57.5 23t-23.5 57t24 57zM56 510q23 23 57 23t57 -23t23 -57t-23 -57t-57 -23t-57.5 23t-23.5 57t24 57z" />
    <glyph glyph-name="semicolon" unicode=";" horiz-adv-x="225" 
d="M51 143h127l-79 -267h-98zM56 513q23 23 57 23t57.5 -23.5t23.5 -57.5t-23 -57q-24 -23 -58 -23t-57 23t-23 57t23 58z" />
    <glyph glyph-name="less" unicode="&#x3c;" horiz-adv-x="567" 
d="M49 369l468 208v-125l-380 -164l380 -161v-126l-468 206v162z" />
    <glyph glyph-name="equal" unicode="=" horiz-adv-x="544" 
d="M494 258v-117h-445v117h445zM49 335v117h445v-116z" />
    <glyph glyph-name="greater" unicode="&#x3e;" horiz-adv-x="562" 
d="M512 369v-162l-463 -210v126l376 165l-376 167v126z" />
    <glyph glyph-name="question" unicode="?" horiz-adv-x="576" 
d="M51 475q1 110 73 172t173 62q97 0 165.5 -61t68.5 -153q0 -43 -18.5 -75t-45 -50.5t-53 -34t-45 -37.5t-19.5 -51l-1 -36h-126v65q0 35 18.5 63t45 46t53.5 33.5t45.5 34.5t18.5 42q0 39 -28.5 65.5t-77.5 27.5h-3q-49 0 -80.5 -30t-33.5 -83h-130zM235 131q23 23 57 23
t57.5 -23t23.5 -57t-23 -57q-24 -24 -58 -24t-57.5 23.5t-23.5 57.5t24 57z" />
    <glyph glyph-name="at" unicode="@" horiz-adv-x="912" 
d="M168 618q119 116 298 116q88 0 159 -25t114.5 -63.5t72.5 -90t40.5 -100.5t11.5 -98q0 -106 -50 -181.5t-132 -75.5q-74 0 -112 67q-52 -62 -136 -62q-89 0 -148 62.5t-59 151.5q0 91 59.5 153.5t144.5 62.5h3q75 0 126 -54v46h96v-296q0 -26 14 -37t28 -11q9 0 28.5 7.5
t40.5 44.5q29 51 29 120q0 57 -17.5 109t-53.5 99t-103 75.5t-156 28.5q-151 0 -250.5 -97.5t-99.5 -244.5q0 -149 100.5 -250.5t260.5 -101.5q72 0 144 23l20 -63q-91 -27 -164 -27q-188 0 -308 121.5t-120 297.5t119 293zM324 319q0 -49 34.5 -84.5t83.5 -35.5
q48 1 82.5 36.5t34.5 83.5q0 49 -34.5 85t-82.5 36q-50 0 -84 -36t-34 -85z" />
    <glyph glyph-name="A" unicode="A" horiz-adv-x="756" 
d="M33 0l244 700h209l238 -700h-139l-49 146h-312l-51 -146h-140zM496 268l-115 346l-117 -346h232z" />
    <glyph glyph-name="B" unicode="B" horiz-adv-x="654" 
d="M377 700q99 0 157.5 -52.5t58.5 -132.5q0 -51 -23.5 -92.5t-64.5 -64.5q58 -24 87.5 -69t29.5 -101q0 -82 -60 -135t-163 -53h-342v700h320zM187 296v-175h203q43 0 69 24.5t26 63.5q0 38 -27 62.5t-69 24.5h-202zM187 579v-175h184q42 0 68 25.5t26 62.5t-25.5 62
t-66.5 25h-186z" />
    <glyph glyph-name="C" unicode="C" horiz-adv-x="740" 
d="M137 603q104 105 252 105q106 0 191 -58.5t128 -154.5l-128 -37q-28 56 -77.5 89t-113.5 33q-95 0 -158.5 -66.5t-63.5 -163.5t63.5 -163t158.5 -66q131 0 188 118l130 -35q-42 -95 -126.5 -153t-191.5 -58q-148 0 -252 104.5t-104 252.5t104 253z" />
    <glyph glyph-name="D" unicode="D" horiz-adv-x="703" 
d="M51 -1v702h257q150 0 254 -101.5t104.5 -176t0.5 -76.5q0 -146 -103.5 -247t-255.5 -101h-257zM187 125h121q101 0 164 64t63 161q0 98 -63 161.5t-164 63.5h-121v-450z" />
    <glyph glyph-name="E" unicode="E" 
d="M559 700v-125h-368v-164h328v-122h-328v-164h368v-125h-503v700h503z" />
    <glyph glyph-name="F" unicode="F" horiz-adv-x="602" 
d="M567 700v-125h-376v-164h336v-121h-336v-290h-135v700h511z" />
    <glyph glyph-name="G" unicode="G" horiz-adv-x="751" 
d="M133 602q104 105 252 105q107 0 191 -56.5t127 -153.5l-128 -36q-27 55 -77.5 86.5t-112.5 31.5q-95 0 -158.5 -66.5t-63.5 -163.5q0 -96 63.5 -162.5t158.5 -66.5q72 0 128 41t78 114l-203 -1l-2 114h336v-50q0 -150 -96 -248t-241 -98q-148 0 -252.5 104.5
t-104.5 252.5t105 253z" />
    <glyph glyph-name="H" unicode="H" horiz-adv-x="716" 
d="M191 700v-289h334v289h135v-700h-135v290h-334v-290h-135v700h135z" />
    <glyph glyph-name="I" unicode="I" horiz-adv-x="265" 
d="M65 0v700h135v-700h-135z" />
    <glyph glyph-name="J" unicode="J" horiz-adv-x="600" 
d="M37 240h134q2 -61 38.5 -91t86.5 -30q118 0 118 160v296h-297v125h432v-438q0 -124 -69 -196t-184 -72q-110 0 -184.5 64.5t-74.5 175.5v6z" />
    <glyph glyph-name="K" unicode="K" horiz-adv-x="688" 
d="M56 0v700h136v-345l302 345h166l-288 -323l296 -377h-166l-218 277l-92 -103v-174h-136z" />
    <glyph glyph-name="L" unicode="L" horiz-adv-x="569" 
d="M56 0v700h135v-575h346v-125h-481z" />
    <glyph glyph-name="M" unicode="M" horiz-adv-x="913" 
d="M272 700l184 -601l184 601h217v-700h-130v573l-175 -573h-192l-174 570v-570h-130v700h216z" />
    <glyph glyph-name="N" unicode="N" horiz-adv-x="732" 
d="M281 700l259 -581v581h132v-700h-215l-266 597v-597h-132v700h222z" />
    <glyph glyph-name="O" unicode="O" horiz-adv-x="778" 
d="M33 349q0 148 104 253t252 105t252 -104.5t105 -253.5v-3q0 -146 -104 -249q-105 -105 -253 -105t-252 104.5t-104 252.5zM231 186q63 -68 158 -68t158.5 67t63.5 164t-63.5 165t-158.5 68q-94 0 -158 -68t-64 -165q0 -96 64 -163z" />
    <glyph glyph-name="P" unicode="P" horiz-adv-x="649" 
d="M56 0v700h315q102 0 172 -70.5t70 -167.5q0 -100 -69 -168t-173 -68h-179v-226h-136zM192 347h171q53 0 86.5 34.5t33.5 84.5q0 49 -33 81t-87 32h-171v-232z" />
    <glyph glyph-name="Q" unicode="Q" horiz-adv-x="798" 
d="M136 602q104 105 252 105q147 0 251.5 -105t105.5 -253q0 -128 -84 -230l111 -119h-144l-46 50q-88 -58 -194 -58q-148 0 -252.5 104.5t-104.5 252.5t105 253zM230 186q63 -68 158 -68q57 0 106 27l-162 172h145l93 -99q40 55 40 131q0 97 -63.5 165t-158.5 68
q-94 0 -158 -68t-64 -165q0 -96 64 -163z" />
    <glyph glyph-name="R" unicode="R" horiz-adv-x="654" 
d="M56 0v700h315q102 0 172 -70t70 -167q0 -70 -40.5 -127.5t-105.5 -80.5l156 -255h-153l-145 238h-134v-238h-135zM369 355q48 0 81 32t33 80t-32 80t-80 32h-180v-224h178z" />
    <glyph glyph-name="S" unicode="S" 
d="M38 503q0 91 77.5 148t186.5 57q134 0 256 -76v-139q-59 41 -128 65.5t-128 24.5q-54 0 -92 -21.5t-38 -57.5q0 -19 13 -34t37 -25.5t53 -18.5t66 -17q15 -3 22 -5q222 -55 222 -210v-2q0 -96 -78.5 -148t-183.5 -52h-8q-158 3 -264 98v139q130 -111 273 -111
q54 0 90.5 19.5t36.5 55.5q0 35 -41 60.5t-147 51.5q-225 54 -225 198z" />
    <glyph glyph-name="T" unicode="T" horiz-adv-x="634" 
d="M34 700h566v-125h-212v-575h-134v575h-220v125z" />
    <glyph glyph-name="U" unicode="U" horiz-adv-x="691" 
d="M51 699h136v-416q0 -72 47 -118t111 -46t112 46t48 118v416h134v-416q0 -127 -84 -209t-210 -82q-123 0 -208.5 81.5t-85.5 209.5v416z" />
    <glyph glyph-name="V" unicode="V" horiz-adv-x="751" 
d="M36 700h148l190 -606l195 606h146l-233 -700h-216z" />
    <glyph glyph-name="W" unicode="W" horiz-adv-x="1029" 
d="M39 700h139l114 -583l123 583h202l120 -581l114 581h139l-151 -700h-203l-120 608l-125 -608h-203z" />
    <glyph glyph-name="X" unicode="X" horiz-adv-x="739" 
d="M189 700l180 -289l181 289h153l-219 -350l219 -350h-153l-181 289l-180 -289h-153l217 350l-217 350h153z" />
    <glyph glyph-name="Y" unicode="Y" horiz-adv-x="670" 
d="M26 700h143l166 -329l166 329h143l-240 -477v-223h-135v219z" />
    <glyph glyph-name="Z" unicode="Z" 
d="M568 700v-116l-376 -459l366 -1v-124h-512v140l354 435h-354v125h522z" />
    <glyph glyph-name="bracketleft" unicode="[" horiz-adv-x="421" 
d="M386 751v-96h-227v-689h227v-96h-340v881h340z" />
    <glyph glyph-name="backslash" unicode="\" horiz-adv-x="438" 
d="M282 0l-251 700h126l251 -700h-126z" />
    <glyph glyph-name="bracketright" unicode="]" horiz-adv-x="421" 
d="M376 751v-881h-340v96h226v689h-226v96h340z" />
    <glyph glyph-name="asciicircum" unicode="^" horiz-adv-x="555" 
d="M200 700h154l152 -316h-118l-110 236l-110 -236h-119z" />
    <glyph glyph-name="underscore" unicode="_" horiz-adv-x="651" 
d="M36 -112v112h578v-112h-578z" />
    <glyph glyph-name="a" unicode="a" horiz-adv-x="643" 
d="M113 460q77 79 186 79q95 0 159 -67v58h130v-530h-130v57q-63 -65 -159 -65q-108 0 -185.5 81t-77.5 192q0 115 77 195zM158 265q0 -64 44.5 -109.5t109.5 -45.5q63 0 108.5 46t45.5 109t-45.5 109.5t-108.5 46.5q-65 0 -109.5 -46t-44.5 -110z" />
    <glyph glyph-name="b" unicode="b" horiz-adv-x="643" 
d="M56 700h130v-229q60 67 158 68h3q109 0 184.5 -79t75.5 -195q0 -113 -74.5 -193t-188.5 -80q-96 0 -158 65v-57h-130v700zM223 156q45 -46 109 -46q63 0 108.5 46t45.5 109t-45.5 109.5t-108.5 46.5q-64 0 -109.5 -46.5t-45.5 -109.5t46 -109z" />
    <glyph glyph-name="c" unicode="c" horiz-adv-x="592" 
d="M116 460q80 79 193 79q84 0 152 -47.5t98 -125.5l-119 -33q-18 40 -52.5 64.5t-78.5 24.5q-63 0 -107 -46.5t-44 -110.5t44 -110t107 -46q45 0 79.5 24.5t51.5 64.5l119 -34q-30 -77 -97.5 -124.5t-152.5 -47.5q-114 0 -193.5 80.5t-79.5 192.5q0 115 80 195z" />
    <glyph glyph-name="d" unicode="d" horiz-adv-x="643" 
d="M113 460q77 79 186 79q95 0 159 -67v228h130v-700h-130v57q-63 -65 -159 -65q-108 0 -185.5 81t-77.5 192q0 115 77 195zM158 265q0 -64 44.5 -109.5t109.5 -45.5q63 0 108.5 46t45.5 109t-45.5 109.5t-108.5 46.5q-65 0 -109.5 -46t-44.5 -110z" />
    <glyph glyph-name="e" unicode="e" horiz-adv-x="618" 
d="M116 460q80 79 193 79q98 0 173.5 -63.5t93.5 -158.5q6 -28 6 -54q0 -24 -5 -46h-412q11 -52 50 -81t94 -29q83 0 136 55l114 -31q-31 -63 -102.5 -101t-147.5 -38q-114 0 -193.5 80.5t-79.5 192.5q0 115 80 195zM165 316h285q-11 46 -49 77t-93 31t-93.5 -31t-49.5 -77z
" />
    <glyph glyph-name="f" unicode="f" horiz-adv-x="433" 
d="M25 530h92v20q0 57 26 96t68.5 55t68.5 16.5t27 0.5q49 0 98 -16v-97q-30 9 -49.5 11t-30.5 2q-15 0 -34.5 -3t-34 -20t-14.5 -45v-20h154v-112h-149l1 -418h-128l-3 418h-92v112z" />
    <glyph glyph-name="g" unicode="g" horiz-adv-x="639" 
d="M36 273q0 115 75 190.5t182 75.5h6q97 -1 159 -67v58h130v-496q0 -119 -75 -192t-188 -73q-94 0 -167.5 52t-97.5 152h130q31 -82 133 -82q61 0 97.5 36t37.5 105v36q-60 -62 -159 -62q-114 0 -188.5 77t-74.5 190zM158 273q0 -63 46 -107q45 -44 108 -44t108.5 44
t45.5 107q0 62 -45 106t-109 44t-109 -44t-45 -106z" />
    <glyph glyph-name="h" unicode="h" 
d="M56 700h130v-230q58 69 156 69q91 0 156 -58t65 -154v-327h-130v293q0 56 -34 90.5t-83 34.5q-58 0 -94 -41.5t-36 -103.5v-273h-130v700z" />
    <glyph glyph-name="i" unicode="i" horiz-adv-x="245" 
d="M188 530v-530h-130v530h130zM66 717q24 23 58 23t58 -23t24 -56t-24 -55q-24 -23 -58 -23t-58 22.5t-24 55.5t24 56z" />
    <glyph glyph-name="j" unicode="j" horiz-adv-x="247" 
d="M-82 -204v114q35 -4 61 -4q39 0 61.5 13.5t22.5 61.5v549h130v-542q0 -199 -193 -199q-37 0 -82 7zM70 726q24 24 58 24t58 -24t24 -58t-24 -57q-24 -24 -58 -24t-58 23.5t-24 57.5t24 58z" />
    <glyph glyph-name="k" unicode="k" horiz-adv-x="586" 
d="M186 700v-406l217 236h155l-227 -242l233 -288h-152l-158 204l-68 -74v-130h-130v700h130z" />
    <glyph glyph-name="l" unicode="l" horiz-adv-x="235" 
d="M53 0v700h130v-700h-130z" />
    <glyph glyph-name="m" unicode="m" horiz-adv-x="909" 
d="M56 530h130v-59q57 68 140 68q49 0 92.5 -23.5t70.5 -66.5q31 42 78.5 66t96.5 24q81 0 140.5 -57t59.5 -155v-327h-130v297q0 57 -25 90.5t-71 33.5q-52 0 -80.5 -33.5t-32.5 -86.5v-301h-130v297q0 57 -25 90.5t-71 33.5q-57 0 -85 -40t-28 -100v-281h-130v530z" />
    <glyph glyph-name="n" unicode="n" horiz-adv-x="605" 
d="M51 530h130v-60q60 69 157 69q91 0 156 -58t65 -154v-327h-130v293q0 56 -34 90.5t-83 34.5q-58 0 -94.5 -41.5t-36.5 -103.5v-273h-130v530z" />
    <glyph glyph-name="o" unicode="o" horiz-adv-x="613" 
d="M114 459q80 80 192 80q113 0 193 -80.5t80 -192.5q0 -113 -80 -193.5t-193 -80.5q-112 0 -192 81t-80 193q0 113 80 193zM155 266q0 -64 44 -109.5t107 -45.5q64 0 108 45.5t44 109.5t-44 109t-108 45q-63 0 -107 -45.5t-44 -108.5z" />
    <glyph glyph-name="p" unicode="p" horiz-adv-x="639" 
d="M51 530h130v-57q62 65 159 65q108 0 185.5 -81t77.5 -192q0 -115 -77 -194t-186 -79q-97 0 -159 67v-269h-130v740zM173 265q0 -63 45.5 -109.5t108.5 -46.5q65 0 109.5 46t44.5 110t-44.5 110t-109.5 46q-63 0 -108.5 -46.5t-45.5 -109.5z" />
    <glyph glyph-name="q" unicode="q" horiz-adv-x="639" 
d="M36 265q0 111 77.5 192t185.5 81q97 0 159 -65v57h130v-740h-130v269q-62 -67 -159 -67q-109 0 -186 79t-77 194zM158 265q0 -64 44.5 -110t109.5 -46q63 0 108.5 46.5t45.5 109.5t-45.5 109.5t-108.5 46.5q-65 0 -109.5 -46t-44.5 -110z" />
    <glyph glyph-name="r" unicode="r" horiz-adv-x="408" 
d="M51 530h130v-79q26 45 68 65t86 20q21 0 44 -4v-139q-31 10 -60 10q-41 0 -89.5 -28.5t-48.5 -104.5v-270h-130v530z" />
    <glyph glyph-name="s" unicode="s" horiz-adv-x="508" 
d="M37 377q0 76 61 119t158 43q115 0 204 -52v-123q-122 64 -204 64q-39 0 -62 -14t-23 -36q0 -12 6.5 -20.5t23 -14.5t29.5 -9.5t41.5 -9.5t43.5 -10q89 -23 129.5 -63.5t40.5 -99.5q0 -82 -64.5 -120.5t-152.5 -38.5q-111 0 -216 64v131q36 -29 98.5 -55.5t117.5 -26.5
q34 0 59 12.5t25 35.5q0 24 -30.5 39t-98.5 29q-96 20 -141 56t-45 100z" />
    <glyph glyph-name="t" unicode="t" horiz-adv-x="451" 
d="M29 418v112h95v122l129 37v-159h158v-112h-158v-243q0 -41 27 -51t47 -10q36 0 89 16v-126q-55 -15 -102 -15q-60 0 -125 35t-65 150v244h-95z" />
    <glyph glyph-name="u" unicode="u" horiz-adv-x="613" 
d="M50 530h130v-293q0 -56 34 -90.5t83 -34.5q58 0 94.5 41.5t36.5 103.5v273h130v-530h-130v60q-62 -69 -157 -69q-91 0 -156 58t-65 154v327z" />
    <glyph glyph-name="v" unicode="v" horiz-adv-x="595" 
d="M25 530h138l135 -447l134 447h139l-168 -530h-211z" />
    <glyph glyph-name="w" unicode="w" horiz-adv-x="827" 
d="M25 530h130l85 -405l93 405h163l93 -406l84 406h131l-127 -530h-173l-89 417l-90 -417h-174z" />
    <glyph glyph-name="x" unicode="x" horiz-adv-x="584" 
d="M26 0l166 265l-166 265h143l124 -194l124 194h144l-167 -265l167 -265h-144l-124 194l-124 -194h-143z" />
    <glyph glyph-name="y" unicode="y" horiz-adv-x="595" 
d="M11 530h139l148 -374l140 374h138l-294 -740h-135l84 213z" />
    <glyph glyph-name="z" unicode="z" horiz-adv-x="514" 
d="M41 134l271 275h-270v121h429v-125l-276 -285h275v-121h-429v135z" />
    <glyph glyph-name="braceleft" unicode="{" horiz-adv-x="463" 
d="M46 373h50q14 0 31.5 6t21.5 13t10 29.5t6 45.5v70q0 108 61.5 162.5t165.5 54.5h35v-95h-35q-19 0 -37 -5t-38 -17t-32 -37.5t-12 -62.5q0 -101 -13 -152t-49 -72q37 -22 49.5 -73t12.5 -152q0 -30 9.5 -52.5t23.5 -35.5t32.5 -21t33.5 -10.5t29 -2.5h26v-95h-26
q-105 0 -170.5 55t-65.5 162q0 47 -0.5 71t-6 46t-10 29t-22.5 13.5t-31 6.5h-49v119z" />
    <glyph glyph-name="bar" unicode="|" horiz-adv-x="302" 
d="M93 -210v910h116v-910h-116z" />
    <glyph glyph-name="braceright" unicode="}" horiz-adv-x="463" 
d="M36 -34h26q19 0 38 5t40.5 16.5t35 37.5t13.5 63q0 100 13 151t50 73q-37 22 -50 73.5t-13 151.5q0 37 -12 62.5t-31.5 37.5t-37.5 17t-37 5h-35v95h35q104 0 165 -54.5t61 -162.5q0 -79 7 -114.5t18 -42.5t38 -7h57v-119h-57q-27 -1 -38 -8.5t-18 -43t-7 -114.5
q0 -106 -65.5 -161.5t-169.5 -55.5h-26v95z" />
    <glyph glyph-name="asciitilde" unicode="~" horiz-adv-x="563" 
d="M58 211q5 69 42 116t94 47q31 0 59 -13.5t45.5 -29.5t37 -29.5t35.5 -13.5q43 0 44 73h90q-2 -72 -38 -117.5t-96 -45.5q-30 0 -57.5 13.5t-44 29.5t-37 29.5t-38.5 13.5q-19 0 -31 -20t-14 -53h-91z" />
    <glyph glyph-name="exclamdown" unicode="&#xa1;" horiz-adv-x="228" 
d="M73 310h85l27 -476h-139zM57 517q23 23 57 23t57.5 -23t23.5 -57t-23 -57q-24 -24 -58 -24t-57.5 23.5t-23.5 57.5t24 57z" />
    <glyph glyph-name="cent" unicode="&#xa2;" horiz-adv-x="633" 
d="M111 525q60 73 151 94v86h121v-85q73 -17 127 -71t73 -129h-129q-18 40 -52.5 64.5t-78.5 24.5q-64 0 -108 -46t-44 -110t44.5 -110t107.5 -46q45 0 79.5 24.5t51.5 63.5h129q-18 -74 -72 -128t-128 -70v-86h-121v86q-93 21 -152.5 95.5t-59.5 170.5q0 98 61 172z" />
    <glyph glyph-name="sterling" unicode="&#xa3;" horiz-adv-x="596" 
d="M23 122q70 76 78 148h-78v108h67q-2 6 -7.5 24.5t-7.5 28t-5.5 24.5t-5 28.5t-1.5 27.5q0 95 65 148t170 53q115 0 174 -62.5t61 -171.5h-126q-5 126 -109 126q-46 0 -74.5 -23.5t-29.5 -69.5q0 -19 4.5 -39.5t13.5 -49t13 -44.5h202v-108h-197q-8 -73 -74 -148h360v-122
h-493v122z" />
    <glyph glyph-name="currency" unicode="&#xa4;" horiz-adv-x="529" 
d="M59 201l65 65q-34 48 -34 103q0 1 0.5 29t33.5 73l-64 64l39 39l65 -65q44 30 95 30q3 0 31.5 -1t73.5 -34l68 68l39 -39l-69 -70q29 -43 29 -95.5t-31 -95.5l71 -71l-39 -38l-71 70q-43 -32 -71 -32.5t-30 -0.5q-52 0 -95 29l-67 -67zM206 329q16 -24 32.5 -26.5
t21.5 -2.5q22 0 42 15.5t25 42.5q1 7 1 13q0 21 -14.5 41.5t-31 23t-22.5 2.5q-21 0 -41 -15t-23 -32t-3 -23q0 -21 13 -39z" />
    <glyph glyph-name="yen" unicode="&#xa5;" horiz-adv-x="691" 
d="M29 700h141l176 -298l176 298h139l-207 -359h94v-82h-139v-58h139v-82h-139v-119h-130v119h-134v82h134v58h-134v82h92z" />
    <glyph glyph-name="brokenbar" unicode="&#xa6;" horiz-adv-x="302" 
d="M93 337v363h116v-363h-116zM209 154v-363h-116v363h116z" />
    <glyph glyph-name="section" unicode="&#xa7;" horiz-adv-x="577" 
d="M179 52q9 -43 44 -62t78 -19q42 0 68 15.5t26 38.5v2q0 13 -8 22t-25 15.5t-30.5 10.5t-41 9.5t-40.5 8.5q-39 10 -67.5 20.5t-58.5 28.5t-46 45t-16 62q1 77 78 120q-81 41 -81 122q0 45 21.5 78t56.5 50.5t71 25.5t74 8q62 0 113.5 -18t87 -61.5t35.5 -107.5h-121
q-8 42 -43.5 61.5t-78.5 19.5q-42 0 -67.5 -15.5t-25.5 -38.5v-2q0 -12 7 -21t25 -16t30 -10.5t41.5 -9.5t41.5 -9q32 -8 54 -14.5t49.5 -19.5t44 -28t28 -39.5t11.5 -54.5q0 -79 -76 -122q80 -39 80 -120q0 -45 -21.5 -78.5t-56.5 -50.5t-71.5 -25t-74.5 -8
q-99 0 -167 46.5t-69 140.5h121zM216 208q31 -19 75 -19q45 0 72.5 18t27.5 52q0 70 -101 70q-45 0 -75 -17t-30 -53q0 -33 31 -51z" />
    <glyph glyph-name="copyright" unicode="&#xa9;" horiz-adv-x="636" 
d="M126 630q80 79 192 79t192.5 -80t80.5 -194q0 -113 -80 -193t-193 -80q-114 0 -193.5 80.5t-79.5 192.5q0 115 81 195zM158 272q64 -67 160 -67q97 0 160.5 66t63.5 162q0 97 -64 164t-161 67q-96 0 -160 -66t-64 -163t65 -163zM218 542q43 42 102 42q50 0 89 -31t51 -80
h-70q-20 47 -70 47q-33 0 -56 -24.5t-23 -57.5t23 -57.5t56 -24.5q50 0 70 46h70q-12 -48 -50.5 -79t-89.5 -31q-60 0 -102.5 43t-42.5 103q0 61 43 104z" />
    <glyph glyph-name="ordfeminine" unicode="&#xaa;" horiz-adv-x="206" 
d="M36 620q20 14 55 14h54v9q0 27 -40 27q-33 0 -41 -22l-44 -1q0 28 24 45.5t60 17.5q35 0 60 -17.5t25 -44.5v-129h-44v22q-19 -25 -59 -25q-27 0 -48.5 14t-21.5 46v3q0 28 20 41zM190 500v-35h-175v35h175zM63 574q1 -19 26 -19q21 0 38.5 13.5t17.5 31.5h-46
q-36 0 -36 -22v-4z" />
    <glyph glyph-name="guillemotleft" unicode="&#xab;" horiz-adv-x="664" 
d="M266 349l361 274v-126l-286 -210l286 -214v-125l-361 277v124zM397 623v-126l-285 -210l285 -214v-125l-360 277v124z" />
    <glyph glyph-name="registered" unicode="&#xae;" horiz-adv-x="525" 
d="M103 731q62 63 159 63t159 -64t62 -158q0 -93 -62 -157t-159 -64q-99 0 -160 64t-61 157q0 95 62 159zM80 572q0 -78 50 -132t132 -54t132 54t50 132t-51 132.5t-131 54.5q-81 0 -131.5 -55t-50.5 -132zM178 454v247h107q36 0 60.5 -24.5t24.5 -58.5q0 -53 -52 -74
l56 -90h-55l-50 83h-43v-83h-48zM226 580h58q16 0 27.5 11t11.5 28t-10.5 27.5t-27.5 10.5h-59v-77z" />
    <glyph glyph-name="degree" unicode="&#xb0;" horiz-adv-x="361" 
d="M88 668q38 38 92 38t92.5 -38.5t38.5 -92.5q0 -53 -38.5 -91t-92.5 -38q-55 0 -93 38t-38 91q0 55 39 93zM125 575q0 -23 16 -39q16 -17 39 -17t39.5 16.5t16.5 39.5t-16.5 40t-39.5 17t-39 -16.5t-16 -40.5z" />
    <glyph glyph-name="plusminus" unicode="&#xb1;" horiz-adv-x="548" 
d="M50 419h166v157h117v-157h165v-117h-165v-157h-117v157h-167zM49 111h449v-117h-449v117z" />
    <glyph glyph-name="twosuperior" unicode="&#xb2;" horiz-adv-x="345" 
d="M82 679q35 35 92 35q53 0 88 -32.5t35 -83.5q0 -45 -45 -93l-81 -83h126l-1 -73h-242v52l144 151q23 25 24 44v3q0 19 -13.5 32.5t-34.5 13.5q-22 0 -36.5 -15.5t-14.5 -36.5v-3l-75 -1v6q0 51 34 84z" />
    <glyph glyph-name="threesuperior" unicode="&#xb3;" horiz-adv-x="346" 
d="M41 465l76 -1v-3q0 -21 15 -36t40 -15q24 0 38.5 13t14.5 34q0 32 -22.5 43.5t-44.5 11.5q-15 0 -33 -4l-28 36l97 89h-145v72h242l1 -79l-73 -65q38 -9 59.5 -36t21.5 -66q0 -57 -38.5 -87.5t-89.5 -30.5q-55 0 -93 36t-38 85v3z" />
    <glyph glyph-name="paragraph" unicode="&#xb6;" horiz-adv-x="612" 
d="M49 552q0 38 14.5 66t37 43t58 24t67.5 12t76 3h105v-700h-105v394q-59 1 -101.5 7.5t-78.5 23.5t-54.5 48.5t-18.5 78.5zM458 700h105v-700h-105v700z" />
    <glyph glyph-name="periodcentered" unicode="&#xb7;" horiz-adv-x="262" 
d="M50 304q0 34 23.5 57.5t57.5 23.5t57.5 -23.5t23.5 -57.5t-23 -57q-24 -23 -58 -23t-57.5 23t-23.5 57z" />
    <glyph glyph-name="onesuperior" unicode="&#xb9;" horiz-adv-x="242" 
d="M110 345v288h-82v72h158v-360h-76z" />
    <glyph glyph-name="ordmasculine" unicode="&#xba;" horiz-adv-x="241" 
d="M56 687q31 31 75 31q43 0 74 -31t31 -74q0 -44 -31 -75t-74 -31t-74.5 31.5t-31.5 74.5t31 74zM87 613q0 -19 12.5 -32t31.5 -13q17 0 30 13t13 32t-12.5 31.5t-30.5 12.5q-19 0 -31.5 -12.5t-12.5 -31.5z" />
    <glyph glyph-name="guillemotright" unicode="&#xbb;" horiz-adv-x="664" 
d="M266 73l286 214l-286 210v126l361 -274v-124l-361 -277v125zM397 349v-124l-360 -277v125l285 214l-285 210v126z" />
    <glyph glyph-name="onequarter" unicode="&#xbc;" horiz-adv-x="859" 
d="M638 415h143v-267h48v-86h-48v-72h-96v72h-202v68zM601 700h100l-486 -700h-100zM35 711h191v-424h-96v333h-95v91zM685 148v165l-91 -165h91z" />
    <glyph glyph-name="onehalf" unicode="&#xbd;" horiz-adv-x="874" 
d="M589 374q44 47 114 47q60 0 100 -35.5t40 -88.5q0 -61 -87 -152l-61 -63h149v-90l-289 -1v73l140 148q53 54 53 79q0 16 -13.5 26.5t-33.5 10.5q-27 0 -42 -19t-15 -42q0 -6 1 -12l-97 -1v9q0 67 41 111zM115 0l486 700h100l-486 -700h-100zM35 620v91h191v-424h-96v333
h-95z" />
    <glyph glyph-name="threequarters" unicode="&#xbe;" horiz-adv-x="1007" 
d="M630 130l155 285h143v-267h48v-86h-48v-72h-96v72h-202v68zM65 428l98 1q-1 -4 -1 -9q0 -18 16 -34.5t43 -16.5q24 0 40.5 15t16.5 37q0 33 -25.5 44t-47.5 11q-19 0 -41 -6l-45 57l113 89h-158v92h289l1 -99l-88 -69q45 -10 71 -42.5t26 -78.5q0 -61 -43 -100
q-43 -40 -109 -40t-111 43t-45 99v7zM748 700h100l-486 -700h-100zM741 148h91v165z" />
    <glyph glyph-name="questiondown" unicode="&#xbf;" horiz-adv-x="597" 
d="M76 113q18 32 44.5 50t53 34t45.5 37.5t20 50.5l1 36h125v-64q0 -35 -18.5 -63t-45 -46t-53 -33.5t-45 -35t-18.5 -42.5q0 -38 28 -64.5t77 -27.5h3q50 0 81.5 30t33.5 82h130q-1 -109 -73 -171.5t-173 -62.5q-97 0 -166 61.5t-69 153.5q0 43 19 75zM216 459q0 34 24 57
q23 23 57 23t57 -23t23 -57t-23 -57.5t-57 -23.5t-57.5 23.5t-23.5 57.5z" />
    <glyph glyph-name="Agrave" unicode="&#xc0;" horiz-adv-x="756" 
d="M33 0l244 700h209l238 -700h-139l-49 146h-312l-51 -146h-140zM496 268l-115 346l-117 -346h232zM198 908h154l98 -142h-115z" />
    <glyph glyph-name="Aacute" unicode="&#xc1;" horiz-adv-x="756" 
d="M33 0l244 700h209l238 -700h-139l-49 146h-312l-51 -146h-140zM496 268l-115 346l-117 -346h232zM422 908h154l-137 -142h-116z" />
    <glyph glyph-name="Acircumflex" unicode="&#xc2;" horiz-adv-x="756" 
d="M277 700h209l238 -700h-139l-49 146h-312l-51 -146h-140zM496 268l-115 346l-117 -346h232zM193 766l95 127h187l96 -127h-130l-59 79l-60 -79h-129z" />
    <glyph glyph-name="Atilde" unicode="&#xc3;" horiz-adv-x="756" 
d="M277 700h209l238 -700h-139l-49 146h-312l-51 -146h-140zM160 782q5 62 42 103.5t96 41.5q37 0 70 -20t57.5 -40t41.5 -20q21 0 33 20t13 51h91q-2 -65 -39 -109t-97 -44q-37 0 -68.5 20t-56 40t-44.5 20q-21 0 -33.5 -18t-14.5 -45h-91zM496 268l-115 346l-117 -346h232
z" />
    <glyph glyph-name="Adieresis" unicode="&#xc4;" horiz-adv-x="756" 
d="M277 700h209l238 -700h-139l-49 146h-312l-51 -146h-140zM496 268l-115 346l-117 -346h232zM424 836q0 31 21 52t52 21q30 0 51.5 -21t21.5 -52q0 -30 -21.5 -51t-51.5 -21q-31 0 -52 21t-21 51zM193 836q0 31 21.5 52t51.5 21q31 0 52 -21t21 -52q0 -30 -21 -51t-52 -21
q-30 0 -51.5 21t-21.5 51z" />
    <glyph glyph-name="Aring" unicode="&#xc5;" horiz-adv-x="756" 
d="M277 700h209l238 -700h-139l-49 146h-312l-51 -146h-140zM496 268l-115 346l-117 -346h232zM279 856q0 43 30.5 73t72.5 30t72 -30.5t30 -72.5t-30 -71.5t-72 -29.5q-43 0 -73 29.5t-30 71.5zM355 829q11 -11 27 -11t27 11t11 27t-11 27.5t-27 11.5t-26.5 -11t-11.5 -28
v-2q0 -15 11 -25z" />
    <glyph glyph-name="AE" unicode="&#xc6;" horiz-adv-x="1077" 
d="M36 0l357 700h633v-125h-368v-165h328v-122h-328v-164h368v-124h-503v146h-273l-74 -146h-140zM523 268v307h-59l-155 -307h214z" />
    <glyph glyph-name="Ccedilla" unicode="&#xc7;" horiz-adv-x="740" 
d="M33 350q0 148 104 253t252 105q106 0 191 -58.5t128 -154.5l-128 -37q-28 56 -77.5 89t-113.5 33q-95 0 -158.5 -66.5t-63.5 -163.5t63.5 -163t158.5 -66q131 0 188 118l130 -35q-39 -88 -114.5 -144.5t-172.5 -65.5l-6 -19q13 -3 24 -6.5t36 -14t40.5 -31.5t15.5 -48
q0 -36 -30.5 -58t-70 -27t-72.5 -5q-3 0 -22 0.5t-36 5.5v83q31 -5 57 -5q20 0 48 4.5t28 22.5q0 7 -6.5 13t-15.5 9.5t-20.5 6.5t-20.5 4t-17 2l-9 1l15 62q-137 12 -231 114t-94 242z" />
    <glyph glyph-name="Egrave" unicode="&#xc8;" 
d="M56 0v700h503v-125h-368v-164h328v-122h-328v-164h368v-125h-503zM125 908h154l98 -142h-115z" />
    <glyph glyph-name="Eacute" unicode="&#xc9;" 
d="M559 700v-125h-368v-164h328v-122h-328v-164h368v-125h-503v700h503zM251 766l99 142h154l-137 -142h-116z" />
    <glyph glyph-name="Ecircumflex" unicode="&#xca;" 
d="M559 700v-125h-368v-164h328v-122h-328v-164h368v-125h-503v700h503zM120 766l95 127h187l96 -127h-130l-59 79l-60 -79h-129z" />
    <glyph glyph-name="Edieresis" unicode="&#xcb;" 
d="M559 700v-125h-368v-164h328v-122h-328v-164h368v-125h-503v700h503zM372 881q21 21 52 21t52 -21t21 -52t-21 -51q-21 -21 -52 -21t-52 20.5t-21 51.5t21 52zM142 881q21 21 52 21t52 -21t21 -52t-21 -51q-21 -21 -52 -21t-52 20.5t-21 51.5t21 52z" />
    <glyph glyph-name="Igrave" unicode="&#xcc;" horiz-adv-x="265" 
d="M87 766l-137 142h154l98 -142h-115zM65 0v700h135v-700h-135z" />
    <glyph glyph-name="Iacute" unicode="&#xcd;" horiz-adv-x="265" 
d="M75 766l99 142h154l-137 -142h-116zM65 0v700h135v-700h-135z" />
    <glyph glyph-name="Icircumflex" unicode="&#xce;" horiz-adv-x="265" 
d="M65 700h135v-700h-135v700zM-56 766l95 127h187l96 -127h-130l-59 79l-60 -79h-129z" />
    <glyph glyph-name="Idieresis" unicode="&#xcf;" horiz-adv-x="265" 
d="M65 700h135v-700h-135v700zM-34 888q22 21 52 21q31 0 52 -21t21 -52q0 -30 -21 -51t-52 -21q-30 0 -51.5 21t-21.5 51q0 31 21 52zM176 836q0 31 21 52t52 21q30 0 51.5 -21t21.5 -52q0 -30 -21.5 -51t-51.5 -21q-31 0 -52 21t-21 51z" />
    <glyph glyph-name="Eth" unicode="&#xd0;" horiz-adv-x="757" 
d="M105 408v293h257q150 0 254 -101.5t104.5 -176t0.5 -76.5q0 -146 -103.5 -247t-255.5 -101h-257v293h-84v116h84zM240 292v-167h122q101 0 164 64t63 161q0 98 -63 161.5t-164 63.5h-122v-167h160v-116h-160z" />
    <glyph glyph-name="Ntilde" unicode="&#xd1;" horiz-adv-x="732" 
d="M59 0v700h222l259 -581v581h132v-700h-215l-266 597v-597h-132zM186 886q37 41 96 41q37 0 70 -20t57.5 -40t41.5 -20q21 0 33 20t13 51h91q-2 -65 -39 -109t-97 -44q-37 0 -68.5 20t-56 40t-44.5 20q-21 0 -33.5 -18t-14.5 -45h-91q5 62 42 104z" />
    <glyph glyph-name="Ograve" unicode="&#xd2;" horiz-adv-x="778" 
d="M137 602q104 105 252 105t252 -104.5t105 -253.5v-3q0 -146 -104 -249q-105 -105 -253 -105t-252 104.5t-104 252.5t104 253zM231 186q63 -68 158 -68t158.5 67t63.5 164t-63.5 165t-158.5 68q-94 0 -158 -68t-64 -165q0 -96 64 -163zM206 908h154l98 -142h-115z" />
    <glyph glyph-name="Oacute" unicode="&#xd3;" horiz-adv-x="778" 
d="M33 349q0 148 104 253t252 105t252 -104.5t105 -253.5v-3q0 -146 -104 -249q-105 -105 -253 -105t-252 104.5t-104 252.5zM231 186q63 -68 158 -68t158.5 67t63.5 164t-63.5 165t-158.5 68q-94 0 -158 -68t-64 -165q0 -96 64 -163zM430 908h154l-137 -142h-116z" />
    <glyph glyph-name="Ocircumflex" unicode="&#xd4;" horiz-adv-x="778" 
d="M33 349q0 148 104 253t252 105t252 -104.5t105 -253.5v-3q0 -146 -104 -249q-105 -105 -253 -105t-252 104.5t-104 252.5zM231 186q63 -68 158 -68t158.5 67t63.5 164t-63.5 165t-158.5 68q-94 0 -158 -68t-64 -165q0 -96 64 -163zM296 893h187l96 -127h-130l-59 79
l-60 -79h-129z" />
    <glyph glyph-name="Otilde" unicode="&#xd5;" horiz-adv-x="778" 
d="M33 349q0 148 104 253t252 105t252 -104.5t105 -253.5v-3q0 -146 -104 -249q-105 -105 -253 -105t-252 104.5t-104 252.5zM231 186q63 -68 158 -68t158.5 67t63.5 164t-63.5 165t-158.5 68q-94 0 -158 -68t-64 -165q0 -96 64 -163zM167 777q4 67 41 110.5t95 43.5
q31 0 59 -13.5t45 -29.5t36.5 -29.5t35.5 -13.5q43 0 44 72h91q-2 -71 -38.5 -117t-96.5 -46q-38 0 -70.5 21.5t-58 43t-47.5 21.5q-43 0 -46 -63h-90z" />
    <glyph glyph-name="Odieresis" unicode="&#xd6;" horiz-adv-x="778" 
d="M33 349q0 148 104 253t252 105t252 -104.5t105 -253.5v-3q0 -146 -104 -249q-105 -105 -253 -105t-252 104.5t-104 252.5zM231 186q63 -68 158 -68t158.5 67t63.5 164t-63.5 165t-158.5 68q-94 0 -158 -68t-64 -165q0 -96 64 -163zM432 829q0 31 21 52t52 21t52 -21
t21 -52t-21 -51q-21 -21 -52 -21t-52 20.5t-21 51.5zM202 829q0 31 21 52t52 21q30 0 51.5 -21t21.5 -52q0 -30 -21.5 -51t-51.5 -21q-31 0 -52 20.5t-21 51.5z" />
    <glyph glyph-name="multiply" unicode="&#xd7;" horiz-adv-x="524" 
d="M397 72l-135 135l-136 -135l-76 76l136 135l-135 135l76 76l135 -135l136 134l76 -76l-135 -134l134 -135z" />
    <glyph glyph-name="Oslash" unicode="&#xd8;" horiz-adv-x="775" 
d="M154 -45l-68 45l60 86q-54 50 -84.5 118t-30.5 145q0 148 104 253t252 105q92 0 167 -43l58 82l68 -46l-58 -81q120 -107 122 -270q1 -148 -104 -252.5t-253 -104.5q-94 0 -174 47zM222 193l260 366q-46 23 -95 23q-95 0 -158.5 -68t-63.5 -165q0 -91 57 -156zM387 118
q95 0 159 67t64 164q0 96 -62 163l-263 -370q50 -24 102 -24z" />
    <glyph glyph-name="Ugrave" unicode="&#xd9;" horiz-adv-x="691" 
d="M187 699v-416q0 -72 47 -118t111 -46t112 46t48 118v416h134v-416q0 -127 -84 -209t-210 -82q-123 0 -208.5 81.5t-85.5 209.5v416h136zM162 908h154l98 -142h-115z" />
    <glyph glyph-name="Uacute" unicode="&#xda;" horiz-adv-x="691" 
d="M51 283v416h136v-416q0 -72 47 -118t111 -46t112 46t48 118v416h134v-416q0 -127 -84 -209t-210 -82q-123 0 -208.5 81.5t-85.5 209.5zM387 908h154l-137 -142h-116z" />
    <glyph glyph-name="Ucircumflex" unicode="&#xdb;" horiz-adv-x="691" 
d="M51 283v416h136v-416q0 -72 47 -118t111 -46t112 46t48 118v416h134v-416q0 -127 -84 -209t-210 -82q-123 0 -208.5 81.5t-85.5 209.5zM157 766l95 127h187l96 -127h-130l-59 79l-60 -79h-129z" />
    <glyph glyph-name="Udieresis" unicode="&#xdc;" horiz-adv-x="691" 
d="M51 283v416h136v-416q0 -72 47 -118t111 -46t112 46t48 118v416h134v-416q0 -127 -84 -209t-210 -82q-123 0 -208.5 81.5t-85.5 209.5zM388 829q0 31 21 52t52 21t52 -21t21 -52t-21 -51q-21 -21 -52 -21t-52 20.5t-21 51.5zM158 829q0 31 21 52t52 21t52 -21t21 -52
t-21 -51q-21 -21 -52 -21t-52 20.5t-21 51.5z" />
    <glyph glyph-name="Yacute" unicode="&#xdd;" horiz-adv-x="670" 
d="M26 700h143l166 -329l166 329h143l-240 -477v-223h-135v219zM377 908h154l-137 -142h-116z" />
    <glyph glyph-name="Thorn" unicode="&#xde;" horiz-adv-x="633" 
d="M49 0v700h135v-107h171q102 0 172 -70t70 -168q0 -99 -69 -166.5t-173 -68.5l-171 -1v-119h-135zM184 240l162 1q54 0 87.5 34.5t33.5 84.5q0 48 -33.5 80t-87.5 32l-162 -1v-231z" />
    <glyph glyph-name="germandbls" unicode="&#xdf;" horiz-adv-x="667" 
d="M612 700l1 -143l-174 -140q84 -6 137.5 -59.5t53.5 -139.5q0 -80 -50 -140t-105.5 -72.5t-87.5 -12.5q-56 0 -120 20v123q59 -27 104 -27q12 0 43 5.5t58.5 36.5t27.5 70q0 59 -48 87t-98 28q-30 0 -64 -8v119l162 129h-267v-576h-135v700h562z" />
    <glyph glyph-name="agrave" unicode="&#xe0;" horiz-adv-x="643" 
d="M113 460q77 79 186 79q95 0 159 -67v58h130v-530h-130v57q-63 -65 -159 -65q-108 0 -185.5 81t-77.5 192q0 115 77 195zM203 156q44 -46 109 -46q63 0 108.5 46t45.5 109t-45.5 109.5t-108.5 46.5q-65 0 -109.5 -46t-44.5 -110t45 -109zM300 738l98 -142h-115l-137 142
h154z" />
    <glyph glyph-name="aacute" unicode="&#xe1;" horiz-adv-x="643" 
d="M113 460q77 79 186 79q95 0 159 -67v58h130v-530h-130v57q-63 -65 -159 -65q-108 0 -185.5 81t-77.5 192q0 115 77 195zM203 156q44 -46 109 -46q63 0 108.5 46t45.5 109t-45.5 109.5t-108.5 46.5q-65 0 -109.5 -46t-44.5 -110t45 -109zM272 596l99 142h154l-137 -142
h-116z" />
    <glyph glyph-name="acircumflex" unicode="&#xe2;" horiz-adv-x="643" 
d="M113 460q77 79 186 79q95 0 159 -67v58h130v-530h-130v57q-63 -65 -159 -65q-108 0 -185.5 81t-77.5 192q0 115 77 195zM203 156q44 -46 109 -46q63 0 108.5 46t45.5 109t-45.5 109.5t-108.5 46.5q-65 0 -109.5 -46t-44.5 -110t45 -109zM236 723h187l96 -127h-130l-59 79
l-60 -79h-129z" />
    <glyph glyph-name="atilde" unicode="&#xe3;" horiz-adv-x="643" 
d="M113 460q77 79 186 79q95 0 159 -67v58h130v-530h-130v57q-63 -65 -159 -65q-108 0 -185.5 81t-77.5 192q0 115 77 195zM158 265q0 -64 44.5 -109.5t109.5 -45.5q63 0 108.5 46t45.5 109t-45.5 109.5t-108.5 46.5q-65 0 -109.5 -46t-44.5 -110zM150 716q37 41 96 41
q37 0 70 -20t57.5 -40t41.5 -20q21 0 33 20t13 51h91q-2 -65 -39 -109t-97 -44q-37 0 -68.5 20t-56 40t-44.5 20q-21 0 -33.5 -18t-14.5 -45h-91q5 62 42 104z" />
    <glyph glyph-name="adieresis" unicode="&#xe4;" horiz-adv-x="643" 
d="M36 265q0 115 77 194.5t186 79.5q95 0 159 -67v58h130v-530h-130v57q-63 -65 -159 -65q-108 0 -185.5 81t-77.5 192zM158 265q0 -64 44.5 -109.5t109.5 -45.5q63 0 108.5 46t45.5 109t-45.5 109.5t-108.5 46.5q-65 0 -109.5 -46t-44.5 -110zM141 666q0 31 21.5 52
t51.5 21q31 0 52 -21t21 -52q0 -30 -21 -51t-52 -21q-30 0 -51.5 21t-21.5 51zM372 666q0 31 21 52t52 21q30 0 51.5 -21t21.5 -52q0 -30 -21.5 -51t-51.5 -21q-31 0 -52 21t-21 51z" />
    <glyph glyph-name="aring" unicode="&#xe5;" horiz-adv-x="643" 
d="M36 265q0 115 77 194.5t186 79.5q95 0 159 -67v58h130v-530h-130v57q-63 -65 -159 -65q-108 0 -185.5 81t-77.5 192zM203 156q44 -46 109 -46q63 0 108.5 46t45.5 109t-45.5 109.5t-108.5 46.5q-65 0 -109.5 -46t-44.5 -110t45 -109zM227 686q0 43 30.5 73t72.5 30
t72 -30.5t30 -72.5t-30 -71.5t-72 -29.5q-43 0 -73 29.5t-30 71.5zM303 659q11 -11 27 -11t27 11t11 27t-11 27.5t-27 11.5t-26.5 -11t-11.5 -28v-2q0 -15 11 -25z" />
    <glyph glyph-name="ae" unicode="&#xe6;" horiz-adv-x="979" 
d="M669 -8q-68 0 -123.5 31t-89.5 84q-17 -44 -74 -78.5t-131 -34.5q-98 0 -158 44.5t-60 122.5q-1 79 60 118t156 39h158v35q0 39 -33.5 58t-86.5 19q-99 0 -118 -63l-123 -2q1 81 67.5 128.5t170.5 47.5q65 0 119.5 -22t81.5 -60q75 80 184 80q97 0 171.5 -63.5
t95.5 -158.5q12 -54 1 -100h-412q11 -52 50 -81t94 -29q83 0 136 55l114 -31q-31 -63 -102.5 -101t-147.5 -38zM525 316h285q-11 46 -49 77t-93 31t-93.5 -31t-49.5 -77zM262 101q68 0 103 35t42 89h-134q-60 -1 -88 -19t-22 -49q9 -56 99 -56z" />
    <glyph glyph-name="ccedilla" unicode="&#xe7;" horiz-adv-x="592" 
d="M36 265q0 115 80 194.5t193 79.5q84 0 152 -47.5t98 -125.5l-119 -33q-18 40 -52.5 64.5t-78.5 24.5q-63 0 -107 -46.5t-44 -110.5t44 -110t107 -46q45 0 79.5 24.5t51.5 64.5l119 -34q-27 -69 -85.5 -115.5t-133.5 -54.5l-5 -19q13 -3 24 -6.5t36 -14t40.5 -31.5
t15.5 -48q0 -36 -30.5 -58t-70 -27t-72.5 -5q-3 0 -22 0.5t-36 5.5v83q31 -5 57 -5q20 0 48 4.5t28 22.5q0 7 -6.5 13t-15.5 9.5t-20.5 6.5t-20.5 4l-26 3l15 62q-104 11 -173.5 89t-69.5 182z" />
    <glyph glyph-name="egrave" unicode="&#xe8;" horiz-adv-x="618" 
d="M116 460q80 79 193 79q98 0 173.5 -63.5t93.5 -158.5q6 -28 6 -54q0 -24 -5 -46h-412q11 -52 50 -81t94 -29q83 0 136 55l114 -31q-31 -63 -102.5 -101t-147.5 -38q-114 0 -193.5 80.5t-79.5 192.5q0 115 80 195zM165 316h285q-11 46 -49 77t-93 31t-93.5 -31t-49.5 -77z
M120 738h154l98 -142h-115z" />
    <glyph glyph-name="eacute" unicode="&#xe9;" horiz-adv-x="618" 
d="M116 460q80 79 193 79q98 0 173.5 -63.5t93.5 -158.5q6 -28 6 -54q0 -24 -5 -46h-412q11 -52 50 -81t94 -29q83 0 136 55l114 -31q-31 -63 -102.5 -101t-147.5 -38q-114 0 -193.5 80.5t-79.5 192.5q0 115 80 195zM165 316h285q-11 46 -49 77t-93 31t-93.5 -31t-49.5 -77z
M345 738h154l-137 -142h-116z" />
    <glyph glyph-name="ecircumflex" unicode="&#xea;" horiz-adv-x="618" 
d="M116 460q80 79 193 79q98 0 173.5 -63.5t93.5 -158.5q6 -28 6 -54q0 -24 -5 -46h-412q11 -52 50 -81t94 -29q83 0 136 55l114 -31q-31 -63 -102.5 -101t-147.5 -38q-114 0 -193.5 80.5t-79.5 192.5q0 115 80 195zM115 596l95 127h187l96 -127h-130l-59 79l-60 -79h-129z
M165 316h285q-11 46 -49 77t-93 31t-93.5 -31t-49.5 -77z" />
    <glyph glyph-name="edieresis" unicode="&#xeb;" horiz-adv-x="618" 
d="M116 460q80 79 193 79q98 0 173.5 -63.5t93.5 -158.5q6 -28 6 -54q0 -24 -5 -46h-412q11 -52 50 -81t94 -29q83 0 136 55l114 -31q-31 -63 -102.5 -101t-147.5 -38q-114 0 -193.5 80.5t-79.5 192.5q0 115 80 195zM165 316h285q-11 46 -49 77t-93 31t-93.5 -31t-49.5 -77z
M367 718q21 21 52 21q30 0 51.5 -21t21.5 -52q0 -30 -21.5 -51t-51.5 -21q-31 0 -52 21t-21 51q0 31 21 52zM137 718q21 21 51 21q31 0 52 -21t21 -52q0 -30 -21 -51t-52 -21q-30 0 -51.5 21t-21.5 51q0 31 22 52z" />
    <glyph glyph-name="igrave" unicode="&#xec;" horiz-adv-x="245" 
d="M77 596l-137 142h154l98 -142h-115zM58 0v530h130v-530h-130z" />
    <glyph glyph-name="iacute" unicode="&#xed;" horiz-adv-x="245" 
d="M65 596l99 142h154l-137 -142h-116zM58 0v530h130v-530h-130z" />
    <glyph glyph-name="icircumflex" unicode="&#xee;" horiz-adv-x="245" 
d="M58 530h130v-530h-130v530zM-65 596l95 127h187l96 -127h-130l-59 79l-60 -79h-129z" />
    <glyph glyph-name="idieresis" unicode="&#xef;" horiz-adv-x="245" 
d="M188 530v-530h-130v530h130zM-64 659q0 31 21 52t52 21t52 -21t21 -52t-21 -51q-21 -21 -52 -21t-52 20.5t-21 51.5zM187 711q21 21 52 21t52 -21t21 -52t-21 -51q-21 -21 -52 -21t-52 20.5t-21 51.5t21 52z" />
    <glyph glyph-name="eth" unicode="&#xf0;" horiz-adv-x="587" 
d="M290 -8q-115 -1 -184 70.5t-69 173.5q0 94 63 162.5t165 69.5q63 1 111 -25t66 -64q2 50 -19 100t-63 87l-212 -80v90l120 47q-61 22 -126 22v93q141 0 247 -71l138 53v-91l-67 -26q87 -96 87 -256q0 -43 -5.5 -85t-22.5 -93t-44 -88.5t-75 -63t-110 -25.5zM286 109
q56 0 90.5 36t35.5 87q1 54 -35 88.5t-91 34.5t-90.5 -35t-35.5 -87t34.5 -88.5t91.5 -35.5z" />
    <glyph glyph-name="ntilde" unicode="&#xf1;" horiz-adv-x="605" 
d="M181 530v-60q60 69 157 69q91 0 156 -58t65 -154v-327h-130v293q0 56 -34 90.5t-83 34.5q-58 0 -94.5 -41.5t-36.5 -103.5v-273h-130v530h130zM87 607q5 67 42 110.5t95 43.5q31 0 59 -13.5t45 -29.5t36.5 -29.5t35.5 -13.5q43 0 44 72h90q-2 -71 -38 -117t-96 -46
q-38 0 -70.5 21.5t-58 43t-47.5 21.5q-43 0 -46 -63h-91z" />
    <glyph glyph-name="ograve" unicode="&#xf2;" horiz-adv-x="613" 
d="M114 459q80 80 192 80q113 0 193 -80.5t80 -192.5q0 -113 -80 -193.5t-193 -80.5q-112 0 -192 81t-80 193q0 113 80 193zM155 266q0 -64 44 -109.5t107 -45.5q64 0 108 45.5t44 109.5t-44 109t-108 45q-63 0 -107 -45.5t-44 -108.5zM123 738h154l98 -142h-115z" />
    <glyph glyph-name="oacute" unicode="&#xf3;" horiz-adv-x="613" 
d="M114 459q80 80 192 80q113 0 193 -80.5t80 -192.5q0 -113 -80 -193.5t-193 -80.5q-112 0 -192 81t-80 193q0 113 80 193zM155 266q0 -64 44 -109.5t107 -45.5q64 0 108 45.5t44 109.5t-44 109t-108 45q-63 0 -107 -45.5t-44 -108.5zM347 738h154l-137 -142h-116z" />
    <glyph glyph-name="ocircumflex" unicode="&#xf4;" horiz-adv-x="613" 
d="M114 459q80 80 192 80q113 0 193 -80.5t80 -192.5q0 -113 -80 -193.5t-193 -80.5q-112 0 -192 81t-80 193q0 113 80 193zM199 157q44 -46 107 -46q64 0 108 45.5t44 109.5t-44 109t-108 45q-63 0 -107 -45.5t-44 -108.5q0 -64 44 -109zM213 723h187l96 -127h-130l-59 79
l-60 -79h-129z" />
    <glyph glyph-name="otilde" unicode="&#xf5;" horiz-adv-x="613" 
d="M114 459q80 80 192 80q113 0 193 -80.5t80 -192.5q0 -113 -80 -193.5t-193 -80.5q-112 0 -192 81t-80 193q0 113 80 193zM199 157q44 -46 107 -46q64 0 108 45.5t44 109.5t-44 109t-108 45q-63 0 -107 -45.5t-44 -108.5q0 -64 44 -109zM84 607q5 67 41.5 110.5t94.5 43.5
q31 0 59 -13.5t45.5 -29.5t37 -29.5t35.5 -13.5q41 0 44 72h90q-2 -71 -38.5 -117t-95.5 -46q-30 0 -57.5 13.5t-44 29.5t-37 29.5t-38.5 13.5q-42 0 -45 -63h-91z" />
    <glyph glyph-name="odieresis" unicode="&#xf6;" horiz-adv-x="613" 
d="M34 266q0 113 80 193t192 80q113 0 193 -80.5t80 -192.5q0 -113 -80 -193.5t-193 -80.5q-112 0 -192 81t-80 193zM155 266q0 -64 44 -109.5t107 -45.5q64 0 108 45.5t44 109.5t-44 109t-108 45q-63 0 -107 -45.5t-44 -108.5zM349 659q0 31 21 52t52 21t52 -21t21 -52
t-21 -51q-21 -21 -52 -21t-52 20.5t-21 51.5zM119 659q0 31 21 52t52 21t52 -21t21 -52t-21 -51q-21 -21 -52 -21t-52 20.5t-21 51.5z" />
    <glyph glyph-name="divide" unicode="&#xf7;" horiz-adv-x="548" 
d="M276 408q-34 0 -57.5 23t-23.5 57t23.5 57.5t57.5 23.5t57.5 -23.5t23.5 -57.5t-23.5 -57t-57.5 -23zM49 228v117h449v-117h-449zM276 4q-34 0 -57.5 23t-23.5 57t23.5 57.5t57.5 23.5t57.5 -23.5t23.5 -57.5t-23.5 -57t-57.5 -23z" />
    <glyph glyph-name="oslash" unicode="&#xf8;" horiz-adv-x="613" 
d="M132 -39l-59 39l47 66q-86 83 -86 200q0 113 80 193t192 80q69 0 125 -31l44 61l59 -39l-44 -63q89 -81 89 -201q0 -113 -80 -193.5t-193 -80.5q-68 0 -128 33zM190 167l172 242q-25 11 -56 11q-63 0 -107 -45.5t-44 -108.5q0 -54 35 -99zM306 111q64 0 108 45.5
t44 109.5q0 58 -38 101l-173 -243q29 -13 59 -13z" />
    <glyph glyph-name="ugrave" unicode="&#xf9;" horiz-adv-x="613" 
d="M180 530v-293q0 -56 34 -90.5t83 -34.5q58 0 94.5 41.5t36.5 103.5v273h130v-530h-130v60q-62 -69 -157 -69q-91 0 -156 58t-65 154v327h130zM118 738h154l98 -142h-115z" />
    <glyph glyph-name="uacute" unicode="&#xfa;" horiz-adv-x="613" 
d="M50 530h130v-293q0 -56 34 -90.5t83 -34.5q58 0 94.5 41.5t36.5 103.5v273h130v-530h-130v60q-62 -69 -157 -69q-91 0 -156 58t-65 154v327zM343 738h154l-137 -142h-116z" />
    <glyph glyph-name="ucircumflex" unicode="&#xfb;" horiz-adv-x="613" 
d="M180 530v-293q0 -56 34 -90.5t83 -34.5q58 0 94.5 41.5t36.5 103.5v273h130v-530h-130v60q-62 -69 -157 -69q-91 0 -156 58t-65 154v327h130zM113 596l95 127h187l96 -127h-130l-59 79l-60 -79h-129z" />
    <glyph glyph-name="udieresis" unicode="&#xfc;" horiz-adv-x="613" 
d="M50 203v327h130v-293q0 -56 34 -90.5t83 -34.5q58 0 94.5 41.5t36.5 103.5v273h130v-530h-130v60q-62 -69 -157 -69q-91 0 -156 58t-65 154zM135 711q21 21 52 21t52 -21t21 -52t-21 -51q-21 -21 -52 -21t-52 20.5t-21 51.5t21 52zM344 659q0 31 21 52t52 21t52 -21
t21 -52t-21 -51q-21 -21 -52 -21t-52 20.5t-21 51.5z" />
    <glyph glyph-name="yacute" unicode="&#xfd;" horiz-adv-x="595" 
d="M11 530h139l148 -374l140 374h138l-294 -740h-135l84 213zM334 738h154l-137 -142h-116z" />
    <glyph glyph-name="thorn" unicode="&#xfe;" horiz-adv-x="600" 
d="M32 -205v905h138v-227q63 65 158 65q108 0 185.5 -81t77.5 -192q0 -115 -77 -194t-186 -79q-94 0 -158 67v-264h-138zM316 109q65 0 109.5 46t44.5 110t-44.5 109.5t-109.5 45.5q-63 0 -109 -46t-46 -109t46 -109.5t109 -46.5z" />
    <glyph glyph-name="ydieresis" unicode="&#xff;" horiz-adv-x="595" 
d="M150 530l148 -374l140 374h138l-294 -740h-135l84 213l-220 527h139zM127 718q21 21 51 21q31 0 52 -21t21 -52q0 -30 -21 -51t-52 -21q-30 0 -51.5 21t-21.5 51q0 31 22 52zM357 718q21 21 52 21q30 0 51.5 -21t21.5 -52q0 -30 -21.5 -51t-51.5 -21q-31 0 -52 21t-21 51
q0 31 21 52z" />
    <glyph glyph-name="Amacron" unicode="&#x100;" horiz-adv-x="756" 
d="M277 700h209l238 -700h-139l-49 146h-312l-51 -146h-140zM496 268l-115 346l-117 -346h232zM557 867v-91h-350v91h350z" />
    <glyph glyph-name="amacron" unicode="&#x101;" horiz-adv-x="643" 
d="M113 460q77 79 186 79q95 0 159 -67v58h130v-530h-130v57q-63 -65 -159 -65q-108 0 -185.5 81t-77.5 192q0 115 77 195zM203 156q44 -46 109 -46q63 0 108.5 46t45.5 109t-45.5 109.5t-108.5 46.5q-65 0 -109.5 -46t-44.5 -110t45 -109zM155 697h350v-91h-350v91z" />
    <glyph glyph-name="Abreve" unicode="&#x102;" horiz-adv-x="756" 
d="M277 700h209l238 -700h-139l-49 146h-312l-51 -146h-140zM496 268l-115 346l-117 -346h232zM238 895h80q0 -24 17.5 -39.5t46.5 -15.5t46.5 15.5t17.5 39.5h81q0 -57 -41 -96q-42 -39 -104 -39t-103 39t-41 96z" />
    <glyph glyph-name="abreve" unicode="&#x103;" horiz-adv-x="643" 
d="M113 460q77 79 186 79q95 0 159 -67v58h130v-530h-130v57q-63 -65 -159 -65q-108 0 -185.5 81t-77.5 192q0 115 77 195zM158 265q0 -64 44.5 -109.5t109.5 -45.5q63 0 108.5 46t45.5 109t-45.5 109.5t-108.5 46.5q-65 0 -109.5 -46t-44.5 -110zM186 725h80
q0 -24 17.5 -39.5t46.5 -15.5t46.5 15.5t17.5 39.5h81q0 -57 -41 -96q-42 -39 -104 -39t-103 39t-41 96z" />
    <glyph glyph-name="Aogonek" unicode="&#x104;" horiz-adv-x="738" 
d="M277 700h209l238 -700h-116q-54 -48 -54 -84q0 -26 20.5 -29.5t34.5 -3.5q27 0 66 7v-82q-18 -5 -36.5 -5.5t-23.5 -0.5q-28 0 -62.5 5t-61.5 27.5t-27 59.5q0 71 116 121l-44 131h-312l-51 -146h-140zM496 268l-115 346l-117 -346h232z" />
    <glyph glyph-name="aogonek" unicode="&#x105;" horiz-adv-x="636" 
d="M36 265q0 115 77 194.5t186 79.5q95 0 159 -67v58h130v-530h-75q-54 -48 -54 -84q0 -26 20.5 -29.5t34.5 -3.5q27 0 66 7v-82q-18 -5 -36.5 -5.5t-23.5 -0.5q-28 0 -62 5t-61 27.5t-27 59.5q0 60 88 108v55q-63 -65 -159 -65q-108 0 -185.5 81t-77.5 192zM203 156
q44 -46 109 -46q63 0 108.5 46t45.5 109t-45.5 109.5t-108.5 46.5q-65 0 -109.5 -46t-44.5 -110t45 -109z" />
    <glyph glyph-name="Cacute" unicode="&#x106;" horiz-adv-x="740" 
d="M137 603q104 105 252 105q106 0 191 -58.5t128 -154.5l-128 -37q-28 56 -77.5 89t-113.5 33q-95 0 -158.5 -66.5t-63.5 -163.5t63.5 -163t158.5 -66q131 0 188 118l130 -35q-42 -95 -126.5 -153t-191.5 -58q-148 0 -252 104.5t-104 252.5t104 253zM425 908h154l-137 -142
h-116z" />
    <glyph glyph-name="cacute" unicode="&#x107;" horiz-adv-x="592" 
d="M116 460q80 79 193 79q84 0 152 -47.5t98 -125.5l-119 -33q-18 40 -52.5 64.5t-78.5 24.5q-63 0 -107 -46.5t-44 -110.5t44 -110t107 -46q45 0 79.5 24.5t51.5 64.5l119 -34q-30 -77 -97.5 -124.5t-152.5 -47.5q-114 0 -193.5 80.5t-79.5 192.5q0 115 80 195zM246 596
l99 142h154l-137 -142h-116z" />
    <glyph glyph-name="Cdotaccent" unicode="&#x10a;" horiz-adv-x="740" 
d="M33 350q0 148 104 253t252 105q106 0 191 -58.5t128 -154.5l-128 -37q-28 56 -77.5 89t-113.5 33q-95 0 -158.5 -66.5t-63.5 -163.5t63.5 -163t158.5 -66q131 0 188 118l130 -35q-42 -95 -126.5 -153t-191.5 -58q-148 0 -252 104.5t-104 252.5zM303 842q0 34 24 57.5
t58 23.5t58 -23.5t24 -57.5t-24 -57q-24 -24 -58 -24t-58 23.5t-24 57.5z" />
    <glyph glyph-name="cdotaccent" unicode="&#x10b;" horiz-adv-x="592" 
d="M36 265q0 115 80 194.5t193 79.5q84 0 152 -47.5t98 -125.5l-119 -33q-18 40 -52.5 64.5t-78.5 24.5q-63 0 -107 -46.5t-44 -110.5t44 -110t107 -46q45 0 79.5 24.5t51.5 64.5l119 -34q-30 -77 -97.5 -124.5t-152.5 -47.5q-114 0 -193.5 80.5t-79.5 192.5zM222 672
q0 34 24 57.5t58 23.5t58 -23.5t24 -57.5t-24 -57q-24 -24 -58 -24t-58 23.5t-24 57.5z" />
    <glyph glyph-name="Ccaron" unicode="&#x10c;" horiz-adv-x="740" 
d="M137 603q104 105 252 105q106 0 191 -58.5t128 -154.5l-128 -37q-28 56 -77.5 89t-113.5 33q-95 0 -158.5 -66.5t-63.5 -163.5t63.5 -163t158.5 -66q131 0 188 118l130 -35q-42 -95 -126.5 -153t-191.5 -58q-148 0 -252 104.5t-104 252.5t104 253zM195 893h130l59 -78
l60 78h129l-96 -127h-187z" />
    <glyph glyph-name="ccaron" unicode="&#x10d;" horiz-adv-x="592" 
d="M116 460q80 79 193 79q84 0 152 -47.5t98 -125.5l-119 -33q-18 40 -52.5 64.5t-78.5 24.5q-63 0 -107 -46.5t-44 -110.5t44 -110t107 -46q45 0 79.5 24.5t51.5 64.5l119 -34q-30 -77 -97.5 -124.5t-152.5 -47.5q-114 0 -193.5 80.5t-79.5 192.5q0 115 80 195zM245 723
l59 -78l60 78h129l-96 -127h-187l-95 127h130z" />
    <glyph glyph-name="Dcaron" unicode="&#x10e;" horiz-adv-x="703" 
d="M51 -1v702h257q150 0 254 -101.5t104.5 -176t0.5 -76.5q0 -146 -103.5 -247t-255.5 -101h-257zM187 575v-450h121q101 0 164 64t63 161q0 98 -63 161.5t-164 63.5h-121zM133 893h130l59 -78l60 78h129l-96 -127h-187z" />
    <glyph glyph-name="dcaron" unicode="&#x10f;" horiz-adv-x="818" 
d="M113 460q77 79 186 79q95 0 159 -67v228h130v-700h-130v57q-63 -65 -159 -65q-108 0 -185.5 81t-77.5 192q0 115 77 195zM203 156q44 -46 109 -46q63 0 108.5 46t45.5 109t-45.5 109.5t-108.5 46.5q-65 0 -109.5 -46t-44.5 -110t45 -109zM654 700h127l-17 -238h-98z" />
    <glyph glyph-name="Dcroat" unicode="&#x110;" horiz-adv-x="757" 
d="M105 -1v293h-84v116h84v293h257q150 0 254 -101.5t105 -249.5t-103 -249.5t-256 -101.5h-257zM240 125h122q101 0 164 64t63 161q0 98 -63 161.5t-164 63.5h-122v-167h160v-116h-160v-167z" />
    <glyph glyph-name="dcroat" unicode="&#x111;" horiz-adv-x="658" 
d="M299 -8q-108 0 -185.5 81t-77.5 192q0 115 77 194.5t186 79.5q95 0 159 -67v104h-152v82h152v42h130v-42h49v-82h-49v-576h-130v57q-63 -65 -159 -65zM312 110q63 0 108.5 46t45.5 109t-45.5 109.5t-108.5 46.5q-65 0 -109.5 -46t-44.5 -110t44.5 -109.5t109.5 -45.5z
" />
    <glyph glyph-name="Emacron" unicode="&#x112;" 
d="M56 0v700h503v-125h-368v-164h328v-122h-328v-164h368v-125h-503zM133 867h351v-91h-351v91z" />
    <glyph glyph-name="emacron" unicode="&#x113;" horiz-adv-x="618" 
d="M116 460q80 79 193 79q98 0 173.5 -63.5t93.5 -158.5q6 -28 6 -54q0 -24 -5 -46h-412q11 -52 50 -81t94 -29q83 0 136 55l114 -31q-31 -63 -102.5 -101t-147.5 -38q-114 0 -193.5 80.5t-79.5 192.5q0 115 80 195zM129 697h350v-91h-350v91zM165 316h285q-11 46 -49 77
t-93 31t-93.5 -31t-49.5 -77z" />
    <glyph glyph-name="Edotaccent" unicode="&#x116;" 
d="M56 700h503v-125h-368v-164h328v-122h-328v-164h368v-125h-503v700zM227 842q0 34 24 57.5t58 23.5t58 -23.5t24 -57.5t-24 -57q-24 -24 -58 -24t-58 23.5t-24 57.5z" />
    <glyph glyph-name="edotaccent" unicode="&#x117;" horiz-adv-x="618" 
d="M36 265q0 115 80 194.5t193 79.5q98 0 173.5 -63.5t93.5 -158.5q6 -28 6 -54q0 -24 -5 -46h-412q11 -52 50 -81t94 -29q83 0 136 55l114 -31q-31 -63 -102.5 -101t-147.5 -38q-114 0 -193.5 80.5t-79.5 192.5zM165 316h285q-11 46 -49 77t-93 31t-93.5 -31t-49.5 -77z
M222 672q0 34 24 57.5t58 23.5t58 -23.5t24 -57.5t-24 -57q-24 -24 -58 -24t-58 23.5t-24 57.5z" />
    <glyph glyph-name="Eogonek" unicode="&#x118;" 
d="M56 700h503v-125h-368v-164h328v-122h-328v-164h368v-125h-75q-54 -48 -54 -84q0 -26 20.5 -29.5t34.5 -3.5q27 0 67 7v-82q-18 -5 -36.5 -5.5t-23.5 -0.5q-28 0 -62.5 5t-61.5 27.5t-27 59.5q0 59 84 106h-369v700z" />
    <glyph glyph-name="eogonek" unicode="&#x119;" horiz-adv-x="618" 
d="M36 265q0 115 80 194.5t193 79.5q98 0 173.5 -63.5t93.5 -158.5q6 -28 6 -54q0 -24 -5 -46h-412q11 -52 50 -81t94 -29q83 0 136 55l114 -31q-40 -82 -143 -119q-68 -55 -68 -97q0 -25 20.5 -28.5t34.5 -3.5q27 0 66 7v-82q-18 -5 -36.5 -5.5t-24.5 -0.5q-27 0 -61 4.5
t-61 27.5t-27 60q0 54 73 99q-8 -1 -23 -1q-114 0 -193.5 80.5t-79.5 192.5zM165 316h285q-11 46 -49 77t-93 31t-93.5 -31t-49.5 -77z" />
    <glyph glyph-name="Ecaron" unicode="&#x11a;" 
d="M56 0v700h503v-125h-368v-164h328v-122h-328v-164h368v-125h-503zM120 893h130l59 -78l60 78h129l-96 -127h-187z" />
    <glyph glyph-name="ecaron" unicode="&#x11b;" horiz-adv-x="618" 
d="M116 460q80 79 193 79q98 0 173.5 -63.5t93.5 -158.5q6 -28 6 -54q0 -24 -5 -46h-412q11 -52 50 -81t94 -29q83 0 136 55l114 -31q-31 -63 -102.5 -101t-147.5 -38q-114 0 -193.5 80.5t-79.5 192.5q0 115 80 195zM245 723l59 -78l60 78h129l-96 -127h-187l-95 127h130z
M165 316h285q-11 46 -49 77t-93 31t-93.5 -31t-49.5 -77z" />
    <glyph glyph-name="Gbreve" unicode="&#x11e;" horiz-adv-x="751" 
d="M28 349q0 148 104.5 253t252.5 105q107 0 191 -56.5t127 -153.5l-128 -36q-27 55 -77.5 86.5t-112.5 31.5q-95 0 -158.5 -66.5t-63.5 -163.5q0 -96 63.5 -162.5t158.5 -66.5q72 0 128 41t78 114l-203 -1l-2 114h336v-50q0 -150 -96 -248t-241 -98q-148 0 -252.5 104.5
t-104.5 252.5zM236 895h80q0 -24 17.5 -39.5t46.5 -15.5t46.5 15.5t17.5 39.5h81q0 -57 -41 -96q-42 -39 -104 -39t-103 39t-41 96z" />
    <glyph glyph-name="gbreve" unicode="&#x11f;" horiz-adv-x="639" 
d="M36 273q0 115 75 190.5t182 75.5h6q97 -1 159 -67v58h130v-496q0 -119 -75 -192t-188 -73q-94 0 -167.5 52t-97.5 152h130q31 -82 133 -82q61 0 97.5 36t37.5 105v36q-60 -62 -159 -62q-114 0 -188.5 77t-74.5 190zM204 166q45 -44 108 -44t108.5 44t45.5 107
q0 62 -45 106t-109 44t-109 -44t-45 -106q0 -63 46 -107zM246 725q0 -24 17.5 -39.5t46.5 -15.5t46.5 15.5t17.5 39.5h81q0 -57 -41 -96q-42 -39 -104 -39t-103 39t-41 96h80z" />
    <glyph glyph-name="Gdotaccent" unicode="&#x120;" horiz-adv-x="751" 
d="M28 349q0 148 104.5 253t252.5 105q107 0 191 -56.5t127 -153.5l-128 -36q-27 55 -77.5 86.5t-112.5 31.5q-95 0 -158.5 -66.5t-63.5 -163.5q0 -96 63.5 -162.5t158.5 -66.5q72 0 128 41t78 114l-203 -1l-2 114h336v-50q0 -150 -96 -248t-241 -98q-148 0 -252.5 104.5
t-104.5 252.5zM298 842q0 34 24 57.5t58 23.5t58 -23.5t24 -57.5t-24 -57q-24 -24 -58 -24t-58 23.5t-24 57.5z" />
    <glyph glyph-name="gdotaccent" unicode="&#x121;" horiz-adv-x="639" 
d="M36 273q0 115 75 190.5t182 75.5h6q97 -1 159 -67v58h130v-496q0 -119 -75 -192t-188 -73q-94 0 -167.5 52t-97.5 152h130q31 -82 133 -82q61 0 97.5 36t37.5 105v36q-60 -62 -159 -62q-114 0 -188.5 77t-74.5 190zM204 166q45 -44 108 -44t108.5 44t45.5 107
q0 62 -45 106t-109 44t-109 -44t-45 -106q0 -63 46 -107zM228 672q0 34 24 57.5t58 23.5t58 -23.5t24 -57.5t-24 -57q-24 -24 -58 -24t-58 23.5t-24 57.5z" />
    <glyph glyph-name="uni0122" unicode="&#x122;" horiz-adv-x="751" 
d="M133 602q104 105 252 105q107 0 191 -56.5t127 -153.5l-128 -36q-27 55 -77.5 86.5t-112.5 31.5q-95 0 -158.5 -66.5t-63.5 -163.5q0 -96 63.5 -162.5t158.5 -66.5q72 0 128 41t78 114l-203 -1l-2 114h336v-50q0 -150 -96 -248t-241 -98q-148 0 -252.5 104.5
t-104.5 252.5t105 253zM300 -65h154l-133 -150h-116z" />
    <glyph glyph-name="uni0123" unicode="&#x123;" horiz-adv-x="639" 
d="M112 465q74 74 181 74h6q97 -1 159 -67v58h130v-496q0 -119 -75 -192t-188 -73q-94 0 -167.5 52t-97.5 152h130q31 -82 133 -82q61 0 97.5 36t37.5 105v36q-60 -62 -159 -62q-114 0 -188.5 77t-74.5 190q0 115 76 192zM158 273q0 -63 46 -107q45 -44 108 -44t108.5 44
t45.5 107q0 62 -45 106t-109 44t-109 -44t-45 -106zM220 596l60 193h98l-30 -193h-128z" />
    <glyph glyph-name="Hbar" unicode="&#x126;" horiz-adv-x="782" 
d="M89 0v496h-69v112h69v92h135v-92h334v92h134v-92h70v-112h-70v-496h-134v290h-334v-290h-135zM224 411h334v85h-334v-85z" />
    <glyph glyph-name="hbar" unicode="&#x127;" horiz-adv-x="624" 
d="M65 0v575h-49v82h49v43h130v-43h149v-82h-149v-105q60 69 157 69q91 0 156 -58t65 -154v-327h-130v293q0 56 -34 90.5t-83 34.5q-58 0 -94.5 -41.5t-36.5 -103.5v-273h-130z" />
    <glyph glyph-name="Imacron" unicode="&#x12a;" horiz-adv-x="265" 
d="M-42 776v91h350v-91h-350zM65 0v700h135v-700h-135z" />
    <glyph glyph-name="imacron" unicode="&#x12b;" horiz-adv-x="245" 
d="M-52 606v91h351v-91h-351zM58 0v530h130v-530h-130z" />
    <glyph glyph-name="Iogonek" unicode="&#x12e;" horiz-adv-x="265" 
d="M108 0h-43v700h135v-674h1l-1 -1v-25h-33q-55 -48 -55 -84q0 -25 21.5 -28.5t35.5 -3.5q27 0 65 6v-82q-18 -5 -36.5 -5.5t-23.5 -0.5q-28 0 -62.5 5t-61.5 27.5t-27 59.5q0 59 85 106z" />
    <glyph glyph-name="iogonek" unicode="&#x12f;" horiz-adv-x="245" 
d="M-30 -106q0 60 88 108v528h130v-530h-72q-56 -48 -56 -84q0 -26 20.5 -29.5t34.5 -3.5q27 0 66 7v-82q-18 -5 -36.5 -5.5t-23.5 -0.5q-28 0 -62.5 5t-61.5 27.5t-27 59.5zM66 726q24 24 58 24t58 -24t24 -58t-24 -57q-24 -24 -58 -24t-58 23.5t-24 57.5t24 58z" />
    <glyph glyph-name="Idotaccent" unicode="&#x130;" horiz-adv-x="265" 
d="M200 700v-700h-135v700h135zM75 900q24 23 58 23t58 -23.5t24 -57.5t-24 -57q-24 -24 -58 -24t-58 23.5t-24 57.5t24 58z" />
    <glyph glyph-name="dotlessi" unicode="&#x131;" horiz-adv-x="245" 
d="M58 0v530h130v-530h-130z" />
    <glyph glyph-name="uni0136" unicode="&#x136;" horiz-adv-x="688" 
d="M56 700h136v-345l302 345h166l-288 -323l296 -377h-166l-218 277l-92 -103v-174h-136v700zM273 -65h154l-133 -150h-116z" />
    <glyph glyph-name="uni0137" unicode="&#x137;" horiz-adv-x="586" 
d="M186 700v-406l217 236h155l-227 -242l233 -288h-152l-158 204l-68 -74v-130h-130v700h130zM216 -65h154l-133 -150h-116z" />
    <glyph glyph-name="Lacute" unicode="&#x139;" horiz-adv-x="569" 
d="M239 766l99 142h154l-137 -142h-116zM56 0v700h135v-575h346v-125h-481z" />
    <glyph glyph-name="lacute" unicode="&#x13a;" horiz-adv-x="235" 
d="M56 766l99 142h154l-137 -142h-116zM53 0v700h130v-700h-130z" />
    <glyph glyph-name="uni013B" unicode="&#x13b;" horiz-adv-x="569" 
d="M56 0v700h135v-575h346v-125h-481zM124 -215l95 150h154l-133 -150h-116z" />
    <glyph glyph-name="uni013C" unicode="&#x13c;" horiz-adv-x="235" 
d="M53 0v700h130v-700h-130zM-57 -215l95 150h154l-133 -150h-116z" />
    <glyph glyph-name="Lcaron" unicode="&#x13d;" horiz-adv-x="569" 
d="M56 0v700h135v-575h346v-125h-481zM108 893h130l59 -78l60 78h129l-96 -127h-187z" />
    <glyph glyph-name="lcaron" unicode="&#x13e;" horiz-adv-x="404" 
d="M183 700v-700h-130v700h130zM362 700l-17 -238h-98l-12 238h127z" />
    <glyph glyph-name="Lslash" unicode="&#x141;" horiz-adv-x="573" 
d="M74 0v309l-62 -34v111l62 34v280h134v-209l170 94v-115l-170 -92v-253h333v-125h-467z" />
    <glyph glyph-name="lslash" unicode="&#x142;" horiz-adv-x="413" 
d="M139 0v311l-118 -46v117l118 46v272h135v-222l118 46v-117l-118 -46v-361h-135z" />
    <glyph glyph-name="Nacute" unicode="&#x143;" horiz-adv-x="732" 
d="M281 700l259 -581v581h132v-700h-215l-266 597v-597h-132v700h222zM308 766l99 142h154l-137 -142h-116z" />
    <glyph glyph-name="nacute" unicode="&#x144;" horiz-adv-x="605" 
d="M51 530h130v-60q60 69 157 69q91 0 156 -58t65 -154v-327h-130v293q0 56 -34 90.5t-83 34.5q-58 0 -94.5 -41.5t-36.5 -103.5v-273h-130v530zM252 596l99 142h154l-137 -142h-116z" />
    <glyph glyph-name="uni0145" unicode="&#x145;" horiz-adv-x="732" 
d="M281 700l259 -581v581h132v-700h-215l-266 597v-597h-132v700h222zM290 -65h154l-133 -150h-116z" />
    <glyph glyph-name="uni0146" unicode="&#x146;" horiz-adv-x="605" 
d="M51 530h130v-60q60 69 157 69q91 0 156 -58t65 -154v-327h-130v293q0 56 -34 90.5t-83 34.5q-58 0 -94.5 -41.5t-36.5 -103.5v-273h-130v530zM135 -215l95 150h154l-133 -150h-116z" />
    <glyph glyph-name="Ncaron" unicode="&#x147;" horiz-adv-x="732" 
d="M281 700l259 -581v581h132v-700h-215l-266 597v-597h-132v700h222zM177 893h130l59 -78l60 78h129l-96 -127h-187z" />
    <glyph glyph-name="ncaron" unicode="&#x148;" horiz-adv-x="605" 
d="M51 0v530h130v-60q60 69 157 69q91 0 156 -58t65 -154v-327h-130v293q0 56 -34 90.5t-83 34.5q-58 0 -94.5 -41.5t-36.5 -103.5v-273h-130zM121 723h130l59 -78l60 78h129l-96 -127h-187z" />
    <glyph glyph-name="Eng" unicode="&#x14a;" horiz-adv-x="733" 
d="M398 -83q82 -11 115 7t33 61v15h-83l-272 590v-590h-132v700h217l266 -574l-1 574h132l1 -705q0 -123 -70.5 -174.5t-205.5 -28.5v125z" />
    <glyph glyph-name="eng" unicode="&#x14b;" horiz-adv-x="603" 
d="M283 -212v126q87 -11 116 10t29 72v297q0 56 -34 90.5t-84 34.5q-58 0 -94 -41.5t-36 -103.5v-273h-130v530h130v-60q60 69 157 69q91 0 156 -58t65 -154v-332q0 -124 -70 -176.5t-205 -30.5z" />
    <glyph glyph-name="Omacron" unicode="&#x14c;" horiz-adv-x="778" 
d="M33 349q0 148 104 253t252 105t252 -104.5t105 -253.5v-3q0 -146 -104 -249q-105 -105 -253 -105t-252 104.5t-104 252.5zM167 349q0 -96 64 -163q63 -68 158 -68t158.5 67t63.5 164t-63.5 165t-158.5 68q-94 0 -158 -68t-64 -165zM215 867h351v-91h-351v91z" />
    <glyph glyph-name="omacron" unicode="&#x14d;" horiz-adv-x="613" 
d="M114 459q80 80 192 80q113 0 193 -80.5t80 -192.5q0 -113 -80 -193.5t-193 -80.5q-112 0 -192 81t-80 193q0 113 80 193zM155 266q0 -64 44 -109.5t107 -45.5q64 0 108 45.5t44 109.5t-44 109t-108 45q-63 0 -107 -45.5t-44 -108.5zM482 697v-91h-351v91h351z" />
    <glyph glyph-name="Ohungarumlaut" unicode="&#x150;" horiz-adv-x="778" 
d="M137 602q104 105 252 105t252 -104.5t105 -253.5v-3q0 -146 -104 -249q-105 -105 -253 -105t-252 104.5t-104 252.5t104 253zM231 186q63 -68 158 -68t158.5 67t63.5 164t-63.5 165t-158.5 68q-94 0 -158 -68t-64 -165q0 -96 64 -163zM539 911h153l-136 -142h-116z
M324 911h154l-137 -142h-115z" />
    <glyph glyph-name="ohungarumlaut" unicode="&#x151;" horiz-adv-x="613" 
d="M114 459q80 80 192 80q113 0 193 -80.5t80 -192.5q0 -113 -80 -193.5t-193 -80.5q-112 0 -192 81t-80 193q0 113 80 193zM155 266q0 -64 44 -109.5t107 -45.5q64 0 108 45.5t44 109.5t-44 109t-108 45q-63 0 -107 -45.5t-44 -108.5zM111 599l98 142h154l-137 -142h-115z
M325 599l99 142h153l-137 -142h-115z" />
    <glyph glyph-name="OE" unicode="&#x152;" horiz-adv-x="1159" 
d="M387 -8q-148 0 -252 104.5t-104 252.5t104 253t252 105q131 0 224 -87v80h502v-125h-368v-164h328v-122h-328v-164h368v-125h-502v79q-95 -87 -224 -87zM387 118q95 0 159 67t64 164t-64 165t-159 68t-158.5 -68t-63.5 -165q0 -96 63.5 -163.5t158.5 -67.5z" />
    <glyph glyph-name="oe" unicode="&#x153;" horiz-adv-x="1048" 
d="M312 -8q-112 0 -192.5 81t-80.5 193t80.5 192.5t192.5 80.5q64 0 119.5 -28.5t92.5 -77.5q37 49 92.5 77.5t119.5 28.5q97 0 171.5 -63.5t95.5 -158.5q12 -54 1 -100h-412q11 -52 50 -81t94 -29q83 0 136 55l114 -31q-31 -63 -102.5 -101t-147.5 -38q-132 0 -212 106
q-37 -49 -93 -77.5t-119 -28.5zM592 316h285q-11 46 -49 77t-93 31t-93.5 -31t-49.5 -77zM312 111q63 0 107 45.5t44 109.5t-44 109t-107 45t-107 -45.5t-44 -108.5q0 -64 44 -109.5t107 -45.5z" />
    <glyph glyph-name="Racute" unicode="&#x154;" horiz-adv-x="654" 
d="M371 700q102 0 172 -70t70 -167q0 -70 -40.5 -127.5t-105.5 -80.5l156 -255h-153l-145 238h-134v-238h-135v700h315zM191 579v-224h178q48 0 81 32t33 80t-32 80t-80 32h-180zM257 766l99 142h154l-137 -142h-116z" />
    <glyph glyph-name="racute" unicode="&#x155;" horiz-adv-x="408" 
d="M181 530v-79q26 45 68 65t86 20q21 0 44 -4v-139q-31 10 -60 10q-41 0 -89.5 -28.5t-48.5 -104.5v-270h-130v530h130zM239 738h154l-137 -142h-116z" />
    <glyph glyph-name="uni0156" unicode="&#x156;" horiz-adv-x="654" 
d="M56 700h315q102 0 172 -70t70 -167q0 -70 -40.5 -127.5t-105.5 -80.5l156 -255h-153l-145 238h-134v-238h-135v700zM191 355h178q48 0 81 32t33 80t-32 80t-80 32h-180v-224zM256 -65h154l-133 -150h-116z" />
    <glyph glyph-name="uni0157" unicode="&#x157;" horiz-adv-x="408" 
d="M181 530v-79q26 45 68 65t86 20q21 0 44 -4v-139q-31 10 -60 10q-41 0 -89.5 -28.5t-48.5 -104.5v-270h-130v530h130zM121 -65h154l-133 -150h-116z" />
    <glyph glyph-name="Rcaron" unicode="&#x158;" horiz-adv-x="654" 
d="M56 700h315q102 0 172 -70t70 -167q0 -70 -40.5 -127.5t-105.5 -80.5l156 -255h-153l-145 238h-134v-238h-135v700zM191 579v-224h178q48 0 81 32t33 80t-32 80t-80 32h-180zM257 893l59 -78l60 78h129l-96 -127h-187l-95 127h130z" />
    <glyph glyph-name="rcaron" unicode="&#x159;" horiz-adv-x="408" 
d="M51 530h130v-79q26 45 68 65t86 20q21 0 44 -4v-139q-31 10 -60 10q-41 0 -89.5 -28.5t-48.5 -104.5v-270h-130v530zM9 723h130l59 -78l60 78h129l-96 -127h-187z" />
    <glyph glyph-name="Sacute" unicode="&#x15a;" 
d="M38 503q0 91 77.5 148t186.5 57q134 0 256 -76v-139q-59 41 -128 65.5t-128 24.5q-54 0 -92 -21.5t-38 -57.5q0 -19 13 -34t37 -25.5t53 -18.5t66 -17q15 -3 22 -5q222 -55 222 -210v-2q0 -96 -78.5 -148t-183.5 -52h-8q-158 3 -264 98v139q130 -111 273 -111
q54 0 90.5 19.5t36.5 55.5q0 35 -41 60.5t-147 51.5q-225 54 -225 198zM352 908h154l-137 -142h-116z" />
    <glyph glyph-name="sacute" unicode="&#x15b;" horiz-adv-x="508" 
d="M37 377q0 76 61 119t158 43q115 0 204 -52v-123q-122 64 -204 64q-39 0 -62 -14t-23 -36q0 -12 6.5 -20.5t23 -14.5t29.5 -9.5t41.5 -9.5t43.5 -10q89 -23 129.5 -63.5t40.5 -99.5q0 -82 -64.5 -120.5t-152.5 -38.5q-111 0 -216 64v131q36 -29 98.5 -55.5t117.5 -26.5
q34 0 59 12.5t25 35.5q0 24 -30.5 39t-98.5 29q-96 20 -141 56t-45 100zM196 596l99 142h154l-137 -142h-116z" />
    <glyph glyph-name="Scedilla" unicode="&#x15e;" 
d="M116 651q77 57 186 57q134 0 256 -76v-139q-59 41 -128 65.5t-128 24.5q-54 0 -92 -21.5t-38 -57.5q0 -19 13 -34t37 -25.5t53 -18.5t66 -17q15 -3 22 -5q222 -55 222 -210v-3q0 -85 -65.5 -137t-162.5 -61l-8 -26q9 -2 16.5 -3.5t27.5 -9.5t34 -18t25.5 -29t11.5 -41
q0 -35 -30.5 -57t-69.5 -27t-72 -5q-3 0 -22.5 0.5t-35.5 5.5v82q30 -4 55 -4q21 0 49.5 4.5t28.5 22.5q0 10 -12.5 18t-30 11t-30 4.5t-17.5 1.5l18 70q-131 9 -255 98v139q159 -112 284 -112q54 0 90.5 19.5t36.5 55.5q0 35 -41 60.5t-147 51.5q-225 54 -225 198
q0 91 78 148z" />
    <glyph glyph-name="scedilla" unicode="&#x15f;" horiz-adv-x="508" 
d="M37 377q0 76 61 119t158 43q115 0 204 -52v-123q-122 64 -204 64q-39 0 -62 -14t-23 -36q0 -12 6.5 -20.5t23 -14.5t29.5 -9.5t41.5 -9.5t43.5 -10q89 -23 129.5 -63.5t40.5 -99.5q0 -75 -54.5 -113.5t-133.5 -44.5l-5 -18q13 -3 24 -6.5t36 -14t40.5 -31.5t15.5 -48
q0 -36 -30.5 -58t-70 -27t-72.5 -5q-3 0 -22 0.5t-36 5.5v83q31 -5 57 -5q20 0 48 4.5t28 22.5q0 7 -6.5 13t-15.5 9.5t-20.5 6.5t-20.5 4t-17 2l-9 1l15 61q-93 8 -184 63v131q36 -29 98.5 -55.5t117.5 -26.5q34 0 59 12.5t25 35.5q0 24 -30.5 39t-98.5 29q-96 20 -141 56
t-45 100z" />
    <glyph glyph-name="Scaron" unicode="&#x160;" 
d="M116 651q77 57 186 57q134 0 256 -76v-139q-59 41 -128 65.5t-128 24.5q-54 0 -92 -21.5t-38 -57.5q0 -19 13 -34t37 -25.5t53 -18.5t66 -17q15 -3 22 -5q222 -55 222 -210v-2q0 -96 -78.5 -148t-183.5 -52h-8q-158 3 -264 98v139q130 -111 273 -111q54 0 90.5 19.5
t36.5 55.5q0 35 -41 60.5t-147 51.5q-225 54 -225 198q0 91 78 148zM122 893h130l59 -78l60 78h129l-96 -127h-187z" />
    <glyph glyph-name="scaron" unicode="&#x161;" horiz-adv-x="508" 
d="M98 496q61 43 158 43q115 0 204 -52v-123q-122 64 -204 64q-39 0 -62 -14t-23 -36q0 -12 6.5 -20.5t23 -14.5t29.5 -9.5t41.5 -9.5t43.5 -10q89 -23 129.5 -63.5t40.5 -99.5q0 -82 -64.5 -120.5t-152.5 -38.5q-111 0 -216 64v131q36 -29 98.5 -55.5t117.5 -26.5
q34 0 59 12.5t25 35.5q0 24 -30.5 39t-98.5 29q-96 20 -141 56t-45 100q0 76 61 119zM65 723h130l59 -78l60 78h129l-96 -127h-187z" />
    <glyph glyph-name="uni0162" unicode="&#x162;" horiz-adv-x="634" 
d="M600 700v-125h-212v-575h-42l-7 -25q115 -26 115 -100q0 -36 -30.5 -58t-70 -27t-72.5 -5q-3 0 -22 0.5t-36 5.5v82q29 -4 54 -4q21 0 50 4.5t29 22.5q0 6 -4.5 11.5t-12 9t-16 6t-18.5 4.5t-17 3l-14 2h-7l17 68h-30v575h-220v125h566z" />
    <glyph glyph-name="uni0163" unicode="&#x163;" horiz-adv-x="451" 
d="M29 530h95v122l129 37v-159h158v-112h-158v-243q0 -41 27 -51t47 -10q36 0 89 16v-126q-56 -15 -104 -15q-14 0 -28 1l-4 -15q13 -3 24 -6.5t36 -14t40.5 -31.5t15.5 -48q0 -36 -30.5 -58t-70 -27t-72.5 -5q-3 0 -22 0.5t-36 5.5v83q31 -5 57 -5q20 0 48 4.5t28 22.5
q0 7 -6.5 13t-15.5 9.5t-20.5 6.5t-20.5 4t-17 2l-9 1l18 72q-103 43 -103 170v244h-95v112z" />
    <glyph glyph-name="Tcaron" unicode="&#x164;" horiz-adv-x="634" 
d="M34 700h566v-125h-212v-575h-134v575h-220v125zM128 893h130l59 -78l60 78h129l-96 -127h-187z" />
    <glyph glyph-name="tcaron" unicode="&#x165;" horiz-adv-x="451" 
d="M29 530h95v122l129 37v-159h158v-112h-158v-243q0 -41 27 -51t47 -10q36 0 89 16v-126q-55 -15 -102 -15q-60 0 -125 35t-65 150v244h-95v112zM139 841l59 -78l60 78h129l-96 -127h-187l-95 127h130z" />
    <glyph glyph-name="Tbar" unicode="&#x166;" horiz-adv-x="634" 
d="M254 0v326h-193v126h193v123h-220v125h566v-125h-212v-123h186v-126h-186v-326h-134z" />
    <glyph glyph-name="tbar" unicode="&#x167;" horiz-adv-x="450" 
d="M416 4q-126 -35 -209 10t-83 160v66h-95v95h95v83h-95v112h95l1 95l129 64l-1 -159h158v-112h-158l-1 -83h157v-95h-157v-65q0 -41 40 -56t124 11v-126z" />
    <glyph glyph-name="Umacron" unicode="&#x16a;" horiz-adv-x="691" 
d="M51 699h136v-416q0 -72 47 -118t111 -46t112 46t48 118v416h134v-416q0 -127 -84 -209t-210 -82q-123 0 -208.5 81.5t-85.5 209.5v416zM171 776v91h351v-91h-351z" />
    <glyph glyph-name="umacron" unicode="&#x16b;" horiz-adv-x="613" 
d="M50 530h130v-293q0 -56 34 -90.5t83 -34.5q58 0 94.5 41.5t36.5 103.5v273h130v-530h-130v60q-62 -69 -157 -69q-91 0 -156 58t-65 154v327zM126 606v91h351v-91h-351z" />
    <glyph glyph-name="Uring" unicode="&#x16e;" horiz-adv-x="691" 
d="M187 699v-416q0 -72 47 -118t111 -46t112 46t48 118v416h134v-416q0 -127 -84 -209t-210 -82q-123 0 -208.5 81.5t-85.5 209.5v416h136zM243 856q0 43 30.5 73t72.5 30t72 -30.5t30 -72.5t-30 -71.5t-72 -29.5q-43 0 -73 29.5t-30 71.5zM319 829q11 -11 27 -11t27 11
t11 27t-11 27.5t-27 11.5t-26.5 -11t-11.5 -28v-2q0 -15 11 -25z" />
    <glyph glyph-name="uring" unicode="&#x16f;" horiz-adv-x="613" 
d="M180 530v-293q0 -56 34 -90.5t83 -34.5q58 0 94.5 41.5t36.5 103.5v273h130v-530h-130v60q-62 -69 -157 -69q-91 0 -156 58t-65 154v327h130zM230 759q30 30 72 30t72 -30.5t30 -72.5t-30 -71.5t-72 -29.5q-43 0 -73 29.5t-30 71.5q0 43 31 73zM275 659q11 -11 27 -11
t27 11t11 27t-11 27.5t-27 11.5t-26.5 -11t-11.5 -28v-2q0 -15 11 -25z" />
    <glyph glyph-name="Uhungarumlaut" unicode="&#x170;" horiz-adv-x="691" 
d="M187 699v-416q0 -72 47 -118t111 -46t112 46t48 118v416h134v-416q0 -127 -84 -209t-210 -82q-123 0 -208.5 81.5t-85.5 209.5v416h136zM396 769l99 142h154l-137 -142h-116zM182 769l99 142h153l-137 -142h-115z" />
    <glyph glyph-name="uhungarumlaut" unicode="&#x171;" horiz-adv-x="613" 
d="M50 530h130v-293q0 -56 34 -90.5t83 -34.5q58 0 94.5 41.5t36.5 103.5v273h130v-530h-130v60q-62 -69 -157 -69q-91 0 -156 58t-65 154v327zM105 599l99 142h154l-137 -142h-116zM320 599l98 142h154l-137 -142h-115z" />
    <glyph glyph-name="Uogonek" unicode="&#x172;" horiz-adv-x="691" 
d="M187 699v-416q0 -72 47 -118t111 -46t112 46t48 118v416h134v-416q0 -93 -47 -164t-126 -104q-74 -54 -74 -99q0 -26 20.5 -29.5t34.5 -3.5q27 0 67 7v-82q-18 -5 -36.5 -5.5t-23.5 -0.5q-28 0 -62.5 5t-61.5 27.5t-27 59.5q0 54 73 99q-10 -1 -31 -1q-123 0 -208.5 81.5
t-85.5 209.5v416h136z" />
    <glyph glyph-name="uogonek" unicode="&#x173;" horiz-adv-x="613" 
d="M180 530v-293q0 -56 34 -90.5t83 -34.5q58 0 94.5 41.5t36.5 103.5v273h130v-529l-76 -1q-56 -50 -56 -84q0 -26 20.5 -29.5t34.5 -3.5q27 0 67 7v-82q-18 -5 -36.5 -5.5t-23.5 -0.5q-28 0 -62.5 5t-61.5 27.5t-27 59.5q0 59 91 110v56q-62 -69 -157 -69q-91 0 -156 58
t-65 154v327h130z" />
    <glyph glyph-name="Wcircumflex" unicode="&#x174;" horiz-adv-x="1029" 
d="M39 700h139l114 -583l123 583h202l120 -581l114 581h139l-151 -700h-203l-120 608l-125 -608h-203zM422 893h187l96 -127h-130l-59 79l-60 -79h-129z" />
    <glyph glyph-name="wcircumflex" unicode="&#x175;" horiz-adv-x="827" 
d="M25 530h130l85 -405l93 405h163l93 -406l84 406h131l-127 -530h-173l-89 417l-90 -417h-174zM225 596l95 127h187l96 -127h-130l-59 79l-60 -79h-129z" />
    <glyph glyph-name="Ycircumflex" unicode="&#x176;" horiz-adv-x="670" 
d="M169 700l166 -329l166 329h143l-240 -477v-223h-135v219l-243 481h143zM147 766l95 127h187l96 -127h-130l-59 79l-60 -79h-129z" />
    <glyph glyph-name="ycircumflex" unicode="&#x177;" horiz-adv-x="595" 
d="M11 530h139l148 -374l140 374h138l-294 -740h-135l84 213zM105 596l95 127h187l96 -127h-130l-59 79l-60 -79h-129z" />
    <glyph glyph-name="Ydieresis" unicode="&#x178;" horiz-adv-x="670" 
d="M169 700l166 -329l166 329h143l-240 -477v-223h-135v219l-243 481h143zM169 888q21 21 51 21q31 0 52 -21t21 -52q0 -30 -21 -51t-52 -21q-30 0 -51.5 21t-21.5 51q0 31 22 52zM399 888q21 21 52 21q30 0 51.5 -21t21.5 -52q0 -30 -21.5 -51t-51.5 -21q-31 0 -52 21
t-21 51q0 31 21 52z" />
    <glyph glyph-name="Zacute" unicode="&#x179;" 
d="M400 575h-354v125h522v-116l-376 -459l366 -1v-124h-512v140zM249 766l99 142h154l-137 -142h-116z" />
    <glyph glyph-name="zacute" unicode="&#x17a;" horiz-adv-x="514" 
d="M202 596l99 142h154l-137 -142h-116zM41 134l271 275h-270v121h429v-125l-276 -285h275v-121h-429v135z" />
    <glyph glyph-name="Zdotaccent" unicode="&#x17b;" 
d="M400 575h-354v125h522v-116l-376 -459l366 -1v-124h-512v140zM249 900q24 23 58 23t58 -23.5t24 -57.5t-24 -57q-24 -24 -58 -24t-58 23.5t-24 57.5t24 58z" />
    <glyph glyph-name="zdotaccent" unicode="&#x17c;" horiz-adv-x="514" 
d="M41 -1v135l271 275h-270v121h429v-125l-276 -285h275v-121h-429zM203 730q24 23 58 23t58 -23.5t24 -57.5t-24 -57q-24 -24 -58 -24t-58 23.5t-24 57.5t24 58z" />
    <glyph glyph-name="Zcaron" unicode="&#x17d;" 
d="M400 575h-354v125h522v-116l-376 -459l366 -1v-124h-512v140zM248 893l59 -78l60 78h129l-96 -127h-187l-95 127h130z" />
    <glyph glyph-name="zcaron" unicode="&#x17e;" horiz-adv-x="514" 
d="M41 -1v135l271 275h-270v121h429v-125l-276 -285h275v-121h-429zM72 723h130l59 -78l60 78h129l-96 -127h-187z" />
    <glyph glyph-name="uni0218" unicode="&#x218;" 
d="M38 503q0 91 77.5 148t186.5 57q134 0 256 -76v-139q-59 41 -128 65.5t-128 24.5q-54 0 -92 -21.5t-38 -57.5q0 -19 13 -34t37 -25.5t53 -18.5t66 -17q15 -3 22 -5q222 -55 222 -210v-2q0 -96 -78.5 -148t-183.5 -52h-8q-158 3 -264 98v139q130 -111 273 -111
q54 0 90.5 19.5t36.5 55.5q0 35 -41 60.5t-147 51.5q-225 54 -225 198zM235 -73h154l-133 -150h-116z" />
    <glyph glyph-name="uni0219" unicode="&#x219;" horiz-adv-x="508" 
d="M37 377q0 76 61 119t158 43q115 0 204 -52v-123q-122 64 -204 64q-39 0 -62 -14t-23 -36q0 -12 6.5 -20.5t23 -14.5t29.5 -9.5t41.5 -9.5t43.5 -10q89 -23 129.5 -63.5t40.5 -99.5q0 -82 -64.5 -120.5t-152.5 -38.5q-111 0 -216 64v131q36 -29 98.5 -55.5t117.5 -26.5
q34 0 59 12.5t25 35.5q0 24 -30.5 39t-98.5 29q-96 20 -141 56t-45 100zM178 -65h154l-133 -150h-116z" />
    <glyph glyph-name="uni021A" unicode="&#x21a;" horiz-adv-x="634" 
d="M34 700h566v-125h-212v-575h-134v575h-220v125zM130 -215l95 150h154l-133 -150h-116z" />
    <glyph glyph-name="uni021B" unicode="&#x21b;" horiz-adv-x="451" 
d="M29 530h95v122l129 37v-159h158v-112h-158v-243q0 -41 27 -51t47 -10q36 0 89 16v-126q-55 -15 -102 -15q-60 0 -125 35t-65 150v244h-95v112zM71 -215l95 150h154l-133 -150h-116z" />
    <glyph glyph-name="uni0237" unicode="&#x237;" horiz-adv-x="247" 
d="M-83 -208v125q30 -3 53 -3q45 0 69 16t24 66v534h130v-535q0 -123 -59 -166.5t-139 -43.5q-36 0 -78 7z" />
    <glyph glyph-name="uni02BC" unicode="&#x2bc;" horiz-adv-x="600" 
 />
    <glyph glyph-name="gravecomb" unicode="&#x300;" horiz-adv-x="0" 
d="M-320 596l-137 142h154l98 -142h-115z" />
    <glyph glyph-name="acutecomb" unicode="&#x301;" horiz-adv-x="0" 
d="M-274 596l99 142h154l-137 -142h-116z" />
    <glyph glyph-name="uni0302" unicode="&#x302;" horiz-adv-x="0" 
d="M-373 723h187l96 -127h-130l-59 79l-60 -79h-129z" />
    <glyph glyph-name="tildecomb" unicode="&#x303;" horiz-adv-x="0" 
d="M-521 612q5 62 42 103.5t96 41.5q37 0 70 -20t57.5 -40t41.5 -20q21 0 33 20t13 51h91q-2 -65 -39 -109t-97 -44q-37 0 -68.5 20t-56 40t-44.5 20q-21 0 -33.5 -18t-14.5 -45h-91z" />
    <glyph glyph-name="uni0304" unicode="&#x304;" horiz-adv-x="0" 
d="M-461 606v91h350v-91h-350z" />
    <glyph glyph-name="uni0306" unicode="&#x306;" horiz-adv-x="0" 
d="M-428 725h80q0 -24 17.5 -39.5t46.5 -15.5t46.5 15.5t17.5 39.5h81q0 -57 -42 -96q-41 -39 -103 -39t-103 39t-41 96z" />
    <glyph glyph-name="uni0307" unicode="&#x307;" horiz-adv-x="0" 
d="M-347 672q0 34 24 57.5t58 23.5t58 -23.5t24 -57.5t-24 -57q-24 -24 -58 -24t-58 23.5t-24 57.5z" />
    <glyph glyph-name="uni0308" unicode="&#x308;" horiz-adv-x="0" 
d="M-402 718q22 21 52 21q31 0 52 -21t21 -52q0 -30 -21 -51t-52 -21q-30 0 -51.5 21t-21.5 51q0 31 21 52zM-171 718q21 21 52 21q30 0 51.5 -21t21.5 -52q0 -30 -21.5 -51t-51.5 -21q-31 0 -52 21t-21 51q0 31 21 52z" />
    <glyph glyph-name="uni030A" unicode="&#x30a;" horiz-adv-x="0" 
d="M-225 759q31 30 73 30t72 -30.5t30 -72.5t-30 -71.5t-72 -29.5q-43 0 -73 29.5t-30 71.5q0 43 30 73zM-180 659q12 -11 28 -11t27 11t11 27t-11 27.5t-27 11.5t-26.5 -11t-11.5 -28v-3q0 -14 10 -24z" />
    <glyph glyph-name="uni030B" unicode="&#x30b;" horiz-adv-x="0" 
d="M-147 738h153l-136 -142h-116zM-460 596l98 142h154l-137 -142h-115z" />
    <glyph glyph-name="uni030C" unicode="&#x30c;" horiz-adv-x="0" 
d="M-485 723h130l59 -78l60 78h129l-96 -127h-187z" />
    <glyph glyph-name="uni0312" unicode="&#x312;" horiz-adv-x="0" 
d="M-516 596l60 193h98l-30 -193h-128z" />
    <glyph glyph-name="uni0326" unicode="&#x326;" horiz-adv-x="0" 
d="M-452 -215l95 150h154l-133 -150h-116z" />
    <glyph glyph-name="uni0327" unicode="&#x327;" horiz-adv-x="0" 
d="M-321 -208v83q31 -5 57 -5q20 0 48 4.5t28 22.5q0 7 -6.5 13t-15.5 9.5t-20.5 6.5t-20.5 4t-17 2l-9 1l20 82l62 -1l-11 -38q13 -3 24 -6.5t36 -14t40.5 -31.5t15.5 -48q0 -36 -30.5 -58t-70 -27t-72.5 -5q-3 0 -22 0.5t-36 5.5z" />
    <glyph glyph-name="uni0328" unicode="&#x328;" horiz-adv-x="0" 
d="M-503 -111q0 24 14.5 46.5t35.5 37t42 26t35 17.5l15 5h35q-10 -6 -24.5 -17t-39 -40.5t-24.5 -53.5q0 -25 20.5 -28.5t34.5 -3.5q27 0 66 7v-82q-18 -5 -36.5 -5.5t-24.5 -0.5q-27 0 -61 4.5t-61 27.5t-27 60z" />
    <glyph glyph-name="uni0400" unicode="&#x400;" horiz-adv-x="640" 
d="M56 0v700h532v-125h-397v-164h357v-122h-357v-164h397v-125h-532zM137 908h154l98 -142h-115z" />
    <glyph glyph-name="uni0401" unicode="&#x401;" horiz-adv-x="640" 
d="M588 700v-125h-397v-164h357v-122h-357v-164h397v-125h-532v700h532zM154 888q21 21 51 21q31 0 52 -21t21 -52q0 -30 -21 -51t-52 -21q-30 0 -51.5 21t-21.5 51q0 31 22 52zM363 836q0 31 21 52t52 21q30 0 51.5 -21t21.5 -52q0 -30 -21.5 -51t-51.5 -21q-31 0 -52 21
t-21 51z" />
    <glyph glyph-name="uni0402" unicode="&#x402;" horiz-adv-x="861" 
d="M245 0v575h-219v125h565v-125h-211v-155q74 69 185 69q115 0 189.5 -70.5t74.5 -170.5v-20q0 -91 -64 -159.5t-164 -68.5h-115v121h85q54 0 89 32.5t35 82.5v1q0 56 -40 91.5t-112 35.5q-82 0 -122.5 -44t-40.5 -110v-210h-135z" />
    <glyph glyph-name="uni0403" unicode="&#x403;" horiz-adv-x="598" 
d="M510 908l-137 -142h-116l99 142h154zM572 700v-125h-381v-575h-135v700h516z" />
    <glyph glyph-name="uni0404" unicode="&#x404;" horiz-adv-x="725" 
d="M369 119q59 0 107 29t72 80h148q-36 -109 -127.5 -172t-199.5 -63q-142 0 -239 104t-97 253t97 253.5t239 104.5q108 0 199 -63t129 -173h-149q-24 52 -72.5 81t-106.5 29q-74 0 -127 -46.5t-69 -124.5h311v-121h-311q16 -78 69 -124.5t127 -46.5z" />
    <glyph glyph-name="uni0405" unicode="&#x405;" 
d="M38 503q0 91 77.5 148t186.5 57q134 0 256 -76v-139q-59 41 -128 65.5t-128 24.5q-54 0 -92 -21.5t-38 -57.5q0 -19 13 -34t37 -25.5t53 -18.5t66 -17q15 -3 22 -5q222 -55 222 -210v-2q0 -96 -78.5 -148t-183.5 -52h-8q-158 3 -264 98v139q130 -111 273 -111
q54 0 90.5 19.5t36.5 55.5q0 35 -41 60.5t-147 51.5q-225 54 -225 198z" />
    <glyph glyph-name="uni0406" unicode="&#x406;" horiz-adv-x="497" 
d="M35 125h146v450h-146v125h427v-125h-146v-450h146v-125h-427v125z" />
    <glyph glyph-name="uni0407" unicode="&#x407;" horiz-adv-x="497" 
d="M181 125v450h-146v125h427v-125h-146v-450h146v-125h-427v125h146zM291 836q0 31 21 52t52 21q30 0 51.5 -21t21.5 -52q0 -30 -21.5 -51t-51.5 -21q-31 0 -52 21t-21 51zM82 888q21 21 51 21q31 0 52 -21t21 -52q0 -30 -21 -51t-52 -21q-30 0 -51.5 21t-21.5 51
q0 31 22 52z" />
    <glyph glyph-name="uni0408" unicode="&#x408;" horiz-adv-x="600" 
d="M37 240h134q2 -61 38.5 -91t86.5 -30q118 0 118 160v296h-297v125h432v-438q0 -124 -69 -196t-184 -72q-110 0 -184.5 64.5t-74.5 175.5v6z" />
    <glyph glyph-name="uni0409" unicode="&#x409;" horiz-adv-x="1138" 
d="M887 433q100 -1 162 -64t62 -149q0 -87 -62.5 -153.5t-161.5 -66.5h-356v577h-240v-268q0 -70 -13 -124t-42 -98t-83 -66.5t-129 -18.5v121q37 -3 63.5 9t39.5 29t20.5 47t8.5 50t1 52v393h509v-269zM865 121q53 0 82.5 27.5t29.5 67.5q0 41 -29.5 68.5t-82.5 27.5
l-199 1v-192h199z" />
    <glyph glyph-name="uni040A" unicode="&#x40a;" horiz-adv-x="1136" 
d="M885 421q100 -1 162 -61.5t62 -145.5q0 -86 -62.5 -150t-161.5 -64h-359v300h-335v-300h-135v700h135v-279h335v279h135v-278zM863 121q53 0 82 25.5t29 64.5t-29 64t-82 25l-202 1v-180h202z" />
    <glyph glyph-name="uni040B" unicode="&#x40b;" horiz-adv-x="870" 
d="M21 575v125h566v-125h-212v-155q76 69 186 69q114 0 189 -69t75 -169v-251h-135v231q0 62 -40 97t-111 35q-83 0 -123.5 -43.5t-40.5 -109.5v-210h-134v575h-220z" />
    <glyph glyph-name="uni040C" unicode="&#x40c;" horiz-adv-x="664" 
d="M191 700v-291l273 291h172l-326 -347l331 -353h-175l-275 294v-294h-135v700h135zM397 908h154l-137 -142h-116z" />
    <glyph glyph-name="uni040D" unicode="&#x40d;" horiz-adv-x="725" 
d="M189 700l-1 -581l260 581h222v-700h-132v597l-265 -597h-216v700h132zM176 908h154l99 -142h-116z" />
    <glyph glyph-name="uni040F" unicode="&#x40f;" horiz-adv-x="716" 
d="M659 700v-700h-234v-162h-134v162h-235v700h135v-574h334v574h134z" />
    <glyph glyph-name="uni0410" unicode="&#x410;" horiz-adv-x="756" 
d="M279 700h206l240 -700h-139l-50 147h-312l-50 -147h-140zM264 268h233l-115 341z" />
    <glyph glyph-name="uni0411" unicode="&#x411;" horiz-adv-x="665" 
d="M414 434q100 0 162.5 -63.5t62.5 -150.5t-63 -153.5t-162 -66.5h-358v700h513v-124h-378v-142h223zM393 121q52 0 81.5 27.5t29.5 68.5t-29 68.5t-82 27.5h-202v-192h202z" />
    <glyph glyph-name="uni0412" unicode="&#x412;" horiz-adv-x="669" 
d="M396 700q99 0 158.5 -52.5t59.5 -132.5q0 -50 -24.5 -91.5t-65.5 -65.5q58 -24 86 -69t28 -101q0 -83 -58.5 -135.5t-161.5 -52.5h-361v700h339zM191 296v-175h218q43 0 69 24.5t26 63.5q0 38 -27 62.5t-69 24.5h-217zM191 579v-175h199q42 0 68 25.5t26 62.5t-25.5 62
t-67.5 25h-200z" />
    <glyph glyph-name="uni0413" unicode="&#x413;" horiz-adv-x="598" 
d="M572 700v-125h-381v-575h-135v700h516z" />
    <glyph glyph-name="uni0414" unicode="&#x414;" horiz-adv-x="788" 
d="M666 121h97v-283h-135v162h-469v-162h-135v283q37 0 63.5 16t39.5 36.5t20.5 53.5t8.5 53.5t1 50.5v369h509v-579zM247 121h284v454h-240v-245q0 -128 -44 -209z" />
    <glyph glyph-name="uni0415" unicode="&#x415;" horiz-adv-x="640" 
d="M588 700v-125h-397v-164h357v-122h-357v-164h397v-125h-532v700h532z" />
    <glyph glyph-name="uni0416" unicode="&#x416;" horiz-adv-x="909" 
d="M878 700l-263 -349l263 -351h-152l-204 276v-276h-134v276l-204 -276h-153l263 351l-263 349h153l204 -274v274h134v-274l204 274h152z" />
    <glyph glyph-name="uni0417" unicode="&#x417;" horiz-adv-x="642" 
d="M320 -8q-133 0 -211 62.5t-78 153.5v2h134q0 -40 44.5 -68.5t115.5 -28.5q67 0 109 25.5t42 67.5q0 41 -40 68.5t-116 27.5h-113v121h113q66 0 104.5 25t38.5 61q0 35 -37.5 57t-100.5 22q-66 0 -106.5 -25.5t-40.5 -57.5h-135v13q0 89 79.5 140t197.5 51q119 0 198 -51
t79 -141q0 -105 -104 -151q49 -19 83.5 -57.5t34.5 -99.5q0 -91 -78.5 -154t-212.5 -63z" />
    <glyph glyph-name="uni0418" unicode="&#x418;" horiz-adv-x="725" 
d="M57 0v700h132l-1 -581l260 581h222v-700h-132v597l-265 -597h-216z" />
    <glyph glyph-name="uni0419" unicode="&#x419;" horiz-adv-x="725" 
d="M363 760q-62 0 -103 39t-41 96h81q0 -24 17 -39.5t46 -15.5t46.5 15.5t17.5 39.5h81q0 -57 -41.5 -96t-103.5 -39zM57 0v700h132l-1 -581l260 581h222v-700h-132v597l-265 -597h-216z" />
    <glyph glyph-name="uni041A" unicode="&#x41a;" horiz-adv-x="662" 
d="M641 0h-175l-275 294v-294h-135v700h135v-291l273 291h172l-326 -347z" />
    <glyph glyph-name="uni041B" unicode="&#x41b;" horiz-adv-x="713" 
d="M20 -1v121q37 -3 63.5 9t39.5 29t20 47.5t8 50t1 52.5v392h509v-700h-134v575h-240v-268q0 -70 -13 -124.5t-42.5 -98.5t-83 -66.5t-128.5 -18.5z" />
    <glyph glyph-name="uni041C" unicode="&#x41c;" horiz-adv-x="913" 
d="M272 700l184 -601l184 601h217v-700h-130v573l-175 -573h-192l-174 570v-570h-130v700h216z" />
    <glyph glyph-name="uni041D" unicode="&#x41d;" horiz-adv-x="717" 
d="M191 700v-289h335v289h135v-700h-135v290h-335v-290h-135v700h135z" />
    <glyph glyph-name="uni041E" unicode="&#x41e;" horiz-adv-x="778" 
d="M33 349q0 148 104 253t252 105t252 -104.5t105 -253.5v-3q0 -146 -104 -249q-105 -105 -253 -105t-252 104.5t-104 252.5zM231 186q63 -68 158 -68t158.5 67t63.5 164t-63.5 165t-158.5 68q-94 0 -158 -68t-64 -165q0 -96 64 -163z" />
    <glyph glyph-name="uni041F" unicode="&#x41f;" horiz-adv-x="716" 
d="M56 0v700h604v-700h-135v575h-334v-575h-135z" />
    <glyph glyph-name="uni0420" unicode="&#x420;" horiz-adv-x="649" 
d="M57 0v700h319q102 0 172 -70.5t70 -167.5q0 -99 -69.5 -167.5t-172.5 -68.5h-184v-226h-135zM192 347h171q53 0 86.5 34.5t33.5 84.5q0 49 -33 81t-87 32h-171v-232z" />
    <glyph glyph-name="uni0421" unicode="&#x421;" horiz-adv-x="740" 
d="M137 603q104 105 252 105q106 0 191 -58.5t128 -154.5l-128 -37q-27 56 -77 90t-114 34h-3q-91 0 -155 -67.5t-64 -164.5t64 -164t158 -67q64 0 113.5 33.5t74.5 86.5l130 -35q-42 -95 -126.5 -153t-191.5 -58q-148 0 -252 104.5t-104 252.5t104 253z" />
    <glyph glyph-name="uni0422" unicode="&#x422;" horiz-adv-x="634" 
d="M34 700h566v-125h-212v-575h-134v575h-220v125z" />
    <glyph glyph-name="uni0423" unicode="&#x423;" horiz-adv-x="644" 
d="M489 700h138l-241 -555q-42 -98 -109.5 -132t-186.5 -16v124q28 -5 52 -4.5t40.5 3t30.5 10.5t22.5 14.5t16.5 19t12 20.5t10 21l-252 495h142l176 -344z" />
    <glyph glyph-name="uni0424" unicode="&#x424;" horiz-adv-x="734" 
d="M707 350q0 -114 -81 -199t-192 -89v-62h-134v62q-110 4 -191 89.5t-81 198.5q0 114 81 199t191 89v62h134v-62q110 -4 191.5 -89.5t81.5 -198.5zM158 350q0 -70 40.5 -116.5t101.5 -50.5v333q-61 -4 -101.5 -50t-40.5 -116zM434 183q62 4 102.5 50.5t40.5 116.5
t-40.5 115.5t-102.5 50.5v-333z" />
    <glyph glyph-name="uni0425" unicode="&#x425;" horiz-adv-x="739" 
d="M189 700l180 -289l181 289h153l-219 -350l219 -350h-153l-181 289l-180 -289h-153l217 350l-217 350h153z" />
    <glyph glyph-name="uni0426" unicode="&#x426;" horiz-adv-x="695" 
d="M575 126h97v-288h-134v162h-482v700h133v-574h254v574h132v-574z" />
    <glyph glyph-name="uni0427" unicode="&#x427;" horiz-adv-x="672" 
d="M615 700v-700h-134v280q-76 -69 -186 -69q-114 0 -189 69t-75 169v251h135v-231q0 -62 40 -97t111 -35q83 0 123.5 43.5t40.5 109.5v210h134z" />
    <glyph glyph-name="uni0428" unicode="&#x428;" horiz-adv-x="969" 
d="M783 700h130v-700h-857v700h130v-579h233v579h130v-579h234v579z" />
    <glyph glyph-name="uni0429" unicode="&#x429;" horiz-adv-x="1037" 
d="M913 121h97v-283h-135v162h-819v700h130v-579h233v579h130v-579h234v579h130v-579z" />
    <glyph glyph-name="uni042A" unicode="&#x42a;" horiz-adv-x="785" 
d="M534 433q100 -1 162 -64t62 -149q0 -87 -62.5 -153.5t-161.5 -66.5h-359v579h-147v121h282v-266zM512 121q53 0 82 27.5t29 68.5q0 40 -29.5 67.5t-81.5 27.5l-202 1v-192h202z" />
    <glyph glyph-name="uni042B" unicode="&#x42b;" horiz-adv-x="875" 
d="M56 0v700h135v-266l223 -1q101 -1 163 -64t62 -149q0 -87 -63 -153.5t-162 -66.5h-358zM684 0v700h135v-700h-135zM191 121h202q53 0 82 27.5t29 68.5q0 40 -29.5 67.5t-81.5 27.5l-202 1v-192z" />
    <glyph glyph-name="uni042C" unicode="&#x42c;" horiz-adv-x="666" 
d="M56 0v700h135v-266l223 -1q101 -1 163 -64t62 -149q0 -87 -63 -153.5t-162 -66.5h-358zM191 121h202q53 0 82 27.5t29 68.5q0 40 -29.5 67.5t-81.5 27.5l-202 1v-192z" />
    <glyph glyph-name="uni042D" unicode="&#x42d;" horiz-adv-x="725" 
d="M355 708q143 0 240 -104.5t97 -253.5t-97 -253t-240 -104q-108 0 -199.5 63t-127.5 172h149q24 -51 72 -80t106 -29q75 0 128 46.5t69 124.5h-311v121h311q-16 78 -69 124.5t-128 46.5q-59 0 -106.5 -29t-71.5 -81h-149q38 110 129 173t198 63z" />
    <glyph glyph-name="uni042E" unicode="&#x42e;" horiz-adv-x="994" 
d="M605 707q147 0 251.5 -105t105.5 -253q0 -148 -104.5 -252.5t-252.5 -104.5q-131 0 -230.5 84.5t-121.5 211.5h-62v-288h-135v700h135v-286h63q23 126 122 209.5t229 83.5zM605 118q95 0 158.5 67t63.5 164t-63.5 165t-158.5 68q-94 0 -158 -68t-64 -165
q0 -96 63.5 -163.5t158.5 -67.5z" />
    <glyph glyph-name="uni042F" unicode="&#x42f;" horiz-adv-x="671" 
d="M27 0l158 259q-63 25 -101.5 80t-38.5 124q0 96 72 166.5t174 70.5h324v-700h-135v237h-155l-146 -237h-152zM294 358h186v221h-189q-48 0 -79.5 -32t-31.5 -78q0 -47 33 -79t81 -32z" />
    <glyph glyph-name="uni0430" unicode="&#x430;" horiz-adv-x="643" 
d="M113 460q77 79 186 79q95 0 159 -67v58h130v-530h-130v57q-63 -65 -159 -65q-108 0 -185.5 81t-77.5 192q0 115 77 195zM158 265q0 -64 44.5 -109.5t109.5 -45.5q63 0 108.5 46t45.5 109t-45.5 109.5t-108.5 46.5q-65 0 -109.5 -46t-44.5 -110z" />
    <glyph glyph-name="uni0431" unicode="&#x431;" horiz-adv-x="590" 
d="M304 -8q-127 0 -197 97.5t-70 257.5q0 171 78 262t219 91h159v-112h-161q-85 0 -126.5 -55t-43.5 -137v-17q18 37 63 63.5t101 25.5q105 -1 171 -70t66 -162q0 -98 -72 -171t-187 -73zM308 112q52 0 88.5 34.5t36.5 87.5t-36.5 88t-88.5 35q-51 0 -87 -35t-36 -88
t36 -87.5t87 -34.5z" />
    <glyph glyph-name="uni0432" unicode="&#x432;" horiz-adv-x="583" 
d="M52 0v530h300q80 0 132.5 -38.5t52.5 -105.5q0 -76 -68 -116q86 -34 86 -119q0 -66 -52.5 -108.5t-133.5 -42.5h-317zM178 311h161q72 0 72 54q0 53 -71 53h-162v-107zM178 112h176q71 0 71 54q0 53 -72 53h-175v-107z" />
    <glyph glyph-name="uni0433" unicode="&#x433;" horiz-adv-x="500" 
d="M475 530v-121h-293v-416h-130v537h423z" />
    <glyph glyph-name="uni0434" unicode="&#x434;" horiz-adv-x="667" 
d="M557 112h82v-235h-121v123h-372v-123h-121v235q28 0 48 11.5t30 26t15.5 38.5t6.5 40.5t1 40.5v261h431v-418zM224 112h205v306h-175v-145q0 -96 -30 -161z" />
    <glyph glyph-name="uni0435" unicode="&#x435;" horiz-adv-x="618" 
d="M116 460q80 79 193 79q98 0 173.5 -63.5t93.5 -158.5q6 -28 6 -53q0 -23 -5 -45h-411q12 -52 50.5 -81t92.5 -29q83 0 134 53l116 -31q-31 -63 -102.5 -101t-147.5 -38q-114 0 -193.5 80.5t-79.5 192.5q0 115 80 195zM166 314h282q-11 46 -48.5 77t-91.5 31t-92 -31
t-50 -77z" />
    <glyph glyph-name="uni0436" unicode="&#x436;" horiz-adv-x="756" 
d="M735 530l-200 -264l200 -266h-139l-155 208v-208h-126v208l-155 -208h-139l200 266l-200 264h140l154 -207v207h126v-207l154 207h140z" />
    <glyph glyph-name="uni0437" unicode="&#x437;" horiz-adv-x="559" 
d="M279 -8q-113 0 -183 52.5t-71 126.5h121q1 -30 37.5 -48t94.5 -18q54 0 90.5 18.5t36.5 49.5q0 54 -120 54h-107v92h107q110 0 110 50q0 26 -31 42t-86 16q-58 0 -89.5 -16t-32.5 -42h-122q1 79 72 124.5t173 45.5q98 0 167.5 -41t69.5 -113q0 -70 -80 -109
q37 -12 63.5 -41.5t26.5 -73.5q0 -71 -69 -120t-178 -49z" />
    <glyph glyph-name="uni0438" unicode="&#x438;" horiz-adv-x="631" 
d="M579 530v-530h-125v451l-182 -451h-220v530h126v-440l177 440h224z" />
    <glyph glyph-name="uni0439" unicode="&#x439;" horiz-adv-x="631" 
d="M316 590q-62 0 -103 39t-41 96h80q0 -24 17.5 -39.5t46.5 -15.5t46.5 15.5t17.5 39.5h81q0 -57 -41.5 -96t-103.5 -39zM579 530v-530h-125v451l-182 -451h-220v530h126v-440l177 440h224z" />
    <glyph glyph-name="uni043A" unicode="&#x43a;" horiz-adv-x="576" 
d="M554 0h-163l-209 223v-223h-130v530h130v-220l207 220h162l-248 -263z" />
    <glyph glyph-name="uni043B" unicode="&#x43b;" horiz-adv-x="625" 
d="M25 -1v112q28 -2 48 4.5t30 17t15.5 29.5t6.5 33t1 38v297h447v-530h-129v409h-188v-177q0 -54 -10.5 -94.5t-35 -74.5t-71.5 -50.5t-114 -13.5z" />
    <glyph glyph-name="uni043C" unicode="&#x43c;" horiz-adv-x="823" 
d="M52 530h218l141 -449l142 449h218v-530h-127v431l-136 -431h-194l-135 429v-429h-127v530z" />
    <glyph glyph-name="uni043D" unicode="&#x43d;" horiz-adv-x="621" 
d="M52 0v530h130v-203h257v203h130v-530h-130v207h-257v-207h-130z" />
    <glyph glyph-name="uni043E" unicode="&#x43e;" horiz-adv-x="619" 
d="M34 266q0 113 80 193t196 80q115 0 195 -80.5t80 -192.5q0 -114 -80 -194t-195 -80t-195.5 80.5t-80.5 193.5zM158 266q0 -64 44 -109q44 -46 108 -46t107.5 45.5t43.5 109.5t-43 109t-108 45t-108.5 -45t-43.5 -109z" />
    <glyph glyph-name="uni043F" unicode="&#x43f;" horiz-adv-x="609" 
d="M52 0v530h505v-530h-130v409h-245v-409h-130z" />
    <glyph glyph-name="uni0440" unicode="&#x440;" horiz-adv-x="640" 
d="M52 530h130v-57q62 65 158 65q110 0 188 -81t78 -192q0 -115 -77.5 -194t-188.5 -79q-99 0 -158 67v-269h-130v740zM173 265q0 -64 45 -109t110 -45t109.5 45t44.5 109t-44.5 109.5t-109.5 45.5t-110 -45.5t-45 -109.5z" />
    <glyph glyph-name="uni0441" unicode="&#x441;" horiz-adv-x="592" 
d="M115 460q80 79 194 79q84 0 152 -47.5t98 -125.5l-119 -33q-16 40 -51.5 63.5t-79.5 23.5q-64 0 -107.5 -45t-43.5 -110q0 -64 44 -109t107 -45q44 0 79.5 23.5t51.5 63.5l119 -34q-30 -77 -97.5 -124.5t-152.5 -47.5q-116 0 -195.5 80.5t-79.5 192.5q0 115 81 195z" />
    <glyph glyph-name="uni0442" unicode="&#x442;" horiz-adv-x="559" 
d="M218 0v412h-184v118h491v-118h-177v-412h-130z" />
    <glyph glyph-name="uni0443" unicode="&#x443;" horiz-adv-x="595" 
d="M20 530h139l143 -360l138 360h136l-295 -740h-134l84 213z" />
    <glyph glyph-name="uni0444" unicode="&#x444;" horiz-adv-x="688" 
d="M658 267q0 -111 -73 -188.5t-177 -83.5v-60h-126v60q-103 6 -176 84t-73 188q0 111 72.5 188.5t176.5 83.5v59h126v-59q104 -6 177 -84t73 -188zM157 267q0 -63 35.5 -105.5t89.5 -48.5v307q-54 -6 -89.5 -48t-35.5 -105zM408 113q54 6 90 48.5t36 105.5q0 62 -35.5 104
t-90.5 49v-307z" />
    <glyph glyph-name="uni0445" unicode="&#x445;" horiz-adv-x="584" 
d="M26 0l166 265l-166 265h143l124 -194l124 194h144l-167 -265l167 -265h-144l-124 194l-124 -194h-143z" />
    <glyph glyph-name="uni0446" unicode="&#x446;" horiz-adv-x="626" 
d="M504 121h87v-244h-126v123h-413v530h127v-409h198v409h127v-409z" />
    <glyph glyph-name="uni0447" unicode="&#x447;" horiz-adv-x="578" 
d="M526 530v-530h-130v185q-62 -50 -140 -50q-95 0 -161.5 58.5t-66.5 156.5v180h130v-155q0 -59 29.5 -89t84.5 -30q57 0 90.5 32t33.5 91v151h130z" />
    <glyph glyph-name="uni0448" unicode="&#x448;" horiz-adv-x="833" 
d="M658 530h126v-530h-732v530h126v-409h177v409h126v-409h177v409z" />
    <glyph glyph-name="uni0449" unicode="&#x449;" horiz-adv-x="893" 
d="M784 121h82v-244h-121v123h-693v530h126v-409h177v409h126v-409h177v409h126v-409z" />
    <glyph glyph-name="uni044A" unicode="&#x44a;" horiz-adv-x="683" 
d="M467 367q77 -1 130.5 -54.5t53.5 -129.5q0 -77 -53.5 -130t-130.5 -53h-319v422h-122v108h248v-162zM435 117q41 0 63.5 17.5t22.5 48.5t-22.5 49t-63.5 18l-161 1v-134h161z" />
    <glyph glyph-name="uni044B" unicode="&#x44b;" horiz-adv-x="770" 
d="M52 0v530h126v-162l193 -1q77 -1 130.5 -54.5t53.5 -129.5q0 -77 -53.5 -130t-130.5 -53h-319zM588 0v530h130v-530h-130zM178 117h161q41 0 63.5 17.5t22.5 48.5t-22.5 49t-63.5 18l-161 1v-134z" />
    <glyph glyph-name="uni044C" unicode="&#x44c;" horiz-adv-x="587" 
d="M52 0v530h126v-162l193 -1q77 -1 130.5 -54.5t53.5 -129.5q0 -77 -53.5 -130t-130.5 -53h-319zM178 117h161q41 0 63.5 17.5t22.5 48.5t-22.5 49t-63.5 18l-161 1v-134z" />
    <glyph glyph-name="uni044D" unicode="&#x44d;" horiz-adv-x="570" 
d="M279 539q109 0 183.5 -80t74.5 -194q0 -113 -74.5 -193t-183.5 -80q-83 0 -153 48.5t-97 131.5h127q45 -61 119 -61q51 0 86 30t47 79h-217v93h216q-12 48 -47 77.5t-85 29.5q-74 0 -121 -62h-126q29 84 98.5 132.5t152.5 48.5z" />
    <glyph glyph-name="uni044E" unicode="&#x44e;" horiz-adv-x="817" 
d="M509 539q114 0 194.5 -80.5t80.5 -192.5q0 -114 -80 -194t-195 -80q-99 0 -174.5 62.5t-95.5 155.5h-61v-210h-126v530h126v-207h61q20 93 95.5 154.5t174.5 61.5zM509 111q63 0 107 45.5t44 109.5t-44 109t-107 45q-64 0 -108 -45t-44 -109q0 -63 44.5 -109t107.5 -46z
" />
    <glyph glyph-name="uni044F" unicode="&#x44f;" horiz-adv-x="579" 
d="M27 0l120 187q-48 20 -77.5 62t-29.5 98q0 78 55 130.5t133 52.5h299v-530h-125v171h-121l-110 -171h-144zM257 283h145v135h-146q-38 0 -61.5 -18.5t-23.5 -48.5q0 -31 24.5 -49.5t61.5 -18.5z" />
    <glyph glyph-name="uni0450" unicode="&#x450;" horiz-adv-x="618" 
d="M116 460q80 79 193 79q98 0 173.5 -63.5t93.5 -158.5q6 -28 6 -53q0 -23 -5 -45h-411q12 -52 50.5 -81t92.5 -29q83 0 134 53l116 -31q-31 -63 -102.5 -101t-147.5 -38q-114 0 -193.5 80.5t-79.5 192.5q0 115 80 195zM166 314h282q-11 46 -48.5 77t-91.5 31t-92 -31
t-50 -77zM120 738h154l98 -142h-115z" />
    <glyph glyph-name="uni0451" unicode="&#x451;" horiz-adv-x="600" 
d="M189 593q-31 0 -52 21t-21 52q0 30 21 51.5t52 21.5t52 -21.5t21 -51.5q0 -31 -21 -52t-52 -21zM419 593q-31 0 -52 21t-21 52q0 30 21 51.5t52 21.5t52 -21.5t21 -51.5q0 -31 -21 -52t-52 -21zM309 -8q-114 0 -193.5 80.5t-79.5 192.5q0 115 80 194.5t193 79.5
q98 0 173.5 -63.5t93.5 -158.5q12 -53 1 -98h-411q12 -52 50.5 -81t92.5 -29q83 0 134 53l116 -31q-31 -63 -102.5 -101t-147.5 -38zM448 316q-11 46 -48 76t-92 30t-92.5 -30t-49.5 -76h282z" />
    <glyph glyph-name="uni0452" unicode="&#x452;" horiz-adv-x="620" 
d="M15 575v82h50v43h130v-43h148v-82h-148v-105q58 69 156 69q91 0 156 -58t65 -154v-332q0 -242 -275 -195v114q47 -4 75.5 -3.5t44 12t20.5 26t5 39.5v305q0 56 -34 90.5t-83 34.5q-58 0 -94 -41.5t-36 -103.5v-273h-130v575h-50z" />
    <glyph glyph-name="uni0453" unicode="&#x453;" horiz-adv-x="500" 
d="M464 738l-137 -142h-116l99 142h154zM475 530v-121h-293v-409h-130v530h423z" />
    <glyph glyph-name="uni0454" unicode="&#x454;" horiz-adv-x="570" 
d="M295 111q74 0 119 61h127q-28 -83 -98 -131.5t-153 -48.5q-108 0 -182.5 80t-74.5 193q0 114 74.5 194t182.5 80q83 0 153 -48.5t99 -132.5h-126q-47 62 -121 62q-50 0 -85 -29.5t-47 -77.5h216v-93h-217q12 -49 47 -79t86 -30z" />
    <glyph glyph-name="uni0455" unicode="&#x455;" horiz-adv-x="508" 
d="M37 377q0 76 61 119t158 43q115 0 204 -52v-123q-122 64 -204 64q-39 0 -62 -14t-23 -36q0 -12 6.5 -20.5t23 -14.5t29.5 -9.5t41.5 -9.5t43.5 -10q89 -23 129.5 -63.5t40.5 -99.5q0 -82 -64.5 -120.5t-152.5 -38.5q-111 0 -216 64v131q36 -29 98.5 -55.5t117.5 -26.5
q34 0 59 12.5t25 35.5q0 24 -30.5 39t-98.5 29q-96 20 -141 56t-45 100z" />
    <glyph glyph-name="uni0456" unicode="&#x456;" horiz-adv-x="245" 
d="M188 530v-530h-130v530h130zM66 717q24 23 58 23t58 -23t24 -56t-24 -55q-24 -23 -58 -23t-58 22.5t-24 55.5t24 56z" />
    <glyph glyph-name="uni0457" unicode="&#x457;" horiz-adv-x="245" 
d="M58 530h130v-530h-130v530zM-44 718q22 21 52 21q31 0 52 -21t21 -52q0 -30 -21 -51t-52 -21q-30 0 -51.5 21t-21.5 51q0 31 21 52zM166 666q0 31 21 52t52 21q30 0 51.5 -21t21.5 -52q0 -30 -21.5 -51t-51.5 -21q-31 0 -52 21t-21 51z" />
    <glyph glyph-name="uni0458" unicode="&#x458;" horiz-adv-x="247" 
d="M-82 -204v114q35 -4 61 -4q39 0 61.5 13.5t22.5 61.5v549h130v-542q0 -199 -193 -199q-37 0 -82 7zM70 726q24 24 58 24t58 -24t24 -58t-24 -57q-24 -24 -58 -24t-58 23.5t-24 57.5t24 58z" />
    <glyph glyph-name="uni0459" unicode="&#x459;" horiz-adv-x="990" 
d="M34 -1v112q35 -2 57 6.5t31 30t11 38.5t2 47v297h443v-162l193 -1q77 -1 130.5 -54.5t53.5 -129.5q0 -77 -53.5 -130t-130.5 -53h-323v409h-183v-177q0 -54 -10.5 -94.5t-35 -74.5t-71.5 -50.5t-114 -13.5zM578 117h161q41 0 63.5 17.5t22.5 48.5t-22.5 49t-63.5 18
l-161 1v-134z" />
    <glyph glyph-name="uni045A" unicode="&#x45a;" horiz-adv-x="976" 
d="M52 0v530h130v-192h254v192h130v-192l194 -1q77 -1 130.5 -50.5t53.5 -118.5t-53.5 -118.5t-130.5 -49.5h-324v217h-254v-217h-130zM566 117h162q40 0 63 14t23 37q0 24 -22.5 38t-63.5 14l-162 1v-104z" />
    <glyph glyph-name="uni045B" unicode="&#x45b;" horiz-adv-x="618" 
d="M65 0v575h-50v82h50v43h130v-43h148v-82h-148v-105q58 69 156 69q91 0 156 -58t65 -154v-327h-130v293q0 56 -34 90.5t-83 34.5q-58 0 -94 -41.5t-36 -103.5v-273h-130z" />
    <glyph glyph-name="uni045C" unicode="&#x45c;" horiz-adv-x="576" 
d="M182 530v-220l207 220h162l-248 -263l251 -267h-163l-209 223v-223h-130v530h130zM347 738h155l-138 -142h-115z" />
    <glyph glyph-name="uni045D" unicode="&#x45d;" horiz-adv-x="631" 
d="M52 530h126v-440l177 440h224v-530h-125v451l-182 -451h-220v530zM270 738l98 -142h-115l-138 142h155z" />
    <glyph glyph-name="uni045F" unicode="&#x45f;" horiz-adv-x="606" 
d="M554 530v-530h-188v-123h-126v123h-188v530h130v-409h242v409h130z" />
    <glyph glyph-name="uni0490" unicode="&#x490;" horiz-adv-x="598" 
d="M438 862h134v-287h-381v-575h-135v700h382v162z" />
    <glyph glyph-name="uni0491" unicode="&#x491;" horiz-adv-x="500" 
d="M349 653h126v-244h-293v-416h-130v537h297v123z" />
    <glyph glyph-name="Wgrave" unicode="&#x1e80;" horiz-adv-x="1029" 
d="M39 700h139l114 -583l123 583h202l120 -581l114 581h139l-151 -700h-203l-120 608l-125 -608h-203zM332 908h154l98 -142h-115z" />
    <glyph glyph-name="wgrave" unicode="&#x1e81;" horiz-adv-x="827" 
d="M155 530l85 -405l93 405h163l93 -406l84 406h131l-127 -530h-173l-89 417l-90 -417h-174l-126 530h130zM230 738h154l98 -142h-115z" />
    <glyph glyph-name="Wacute" unicode="&#x1e82;" horiz-adv-x="1029" 
d="M39 700h139l114 -583l123 583h202l120 -581l114 581h139l-151 -700h-203l-120 608l-125 -608h-203zM557 908h154l-137 -142h-116z" />
    <glyph glyph-name="wacute" unicode="&#x1e83;" horiz-adv-x="827" 
d="M25 530h130l85 -405l93 405h163l93 -406l84 406h131l-127 -530h-173l-89 417l-90 -417h-174zM454 738h154l-137 -142h-116z" />
    <glyph glyph-name="Wdieresis" unicode="&#x1e84;" horiz-adv-x="1029" 
d="M39 700h139l114 -583l123 583h202l120 -581l114 581h139l-151 -700h-203l-120 608l-125 -608h-203zM350 888q21 21 51 21q31 0 52 -21t21 -52q0 -30 -21 -51t-52 -21q-30 0 -51.5 21t-21.5 51q0 31 22 52zM559 836q0 31 21 52t52 21q30 0 51.5 -21t21.5 -52
q0 -30 -21.5 -51t-51.5 -21q-31 0 -52 21t-21 51z" />
    <glyph glyph-name="wdieresis" unicode="&#x1e85;" horiz-adv-x="827" 
d="M25 530h130l85 -405l93 405h163l93 -406l84 406h131l-127 -530h-173l-89 417l-90 -417h-174zM477 718q21 21 52 21q30 0 51.5 -21t21.5 -52q0 -30 -21.5 -51t-51.5 -21q-31 0 -52 21t-21 51q0 31 21 52zM247 718q21 21 51 21q31 0 52 -21t21 -52q0 -30 -21 -51t-52 -21
q-30 0 -51.5 21t-21.5 51q0 31 22 52z" />
    <glyph glyph-name="Ygrave" unicode="&#x1ef2;" horiz-adv-x="670" 
d="M169 700l166 -329l166 329h143l-240 -477v-223h-135v219l-243 481h143zM152 908h154l98 -142h-115z" />
    <glyph glyph-name="ygrave" unicode="&#x1ef3;" horiz-adv-x="595" 
d="M11 530h139l148 -374l140 374h138l-294 -740h-135l84 213zM110 738h154l98 -142h-115z" />
    <glyph glyph-name="endash" unicode="&#x2013;" horiz-adv-x="487" 
d="M41 228v117h405v-117h-405z" />
    <glyph glyph-name="emdash" unicode="&#x2014;" horiz-adv-x="767" 
d="M41 228v117h685v-117h-685z" />
    <glyph glyph-name="quoteleft" unicode="&#x2018;" horiz-adv-x="252" 
d="M216 440h-98l-81 264h127z" />
    <glyph glyph-name="quoteright" unicode="&#x2019;" horiz-adv-x="252" 
d="M37 440l51 264h128l-81 -264h-98z" />
    <glyph glyph-name="quotesinglbase" unicode="&#x201a;" horiz-adv-x="246" 
d="M13 -119l51 264h127l-80 -264h-98z" />
    <glyph glyph-name="quotedblleft" unicode="&#x201c;" horiz-adv-x="432" 
d="M216 440h-98l-81 264h127zM395 440h-98l-81 264h128z" />
    <glyph glyph-name="quotedblright" unicode="&#x201d;" horiz-adv-x="429" 
d="M36 440l51 264h127l-80 -264h-98zM215 440l51 264h127l-80 -264h-98z" />
    <glyph glyph-name="quotedblbase" unicode="&#x201e;" horiz-adv-x="246" 
d="M81 145h128l-81 -264h-98z" />
    <glyph glyph-name="dagger" unicode="&#x2020;" horiz-adv-x="459" 
d="M172 297v193h-114v116h114v94h116v-94h113v-116h-113v-193h-116z" />
    <glyph glyph-name="daggerdbl" unicode="&#x2021;" horiz-adv-x="459" 
d="M172 207v106h-114v107h114v69h-114v107h114v104h116v-104h113v-107h-113v-69h113v-107h-113v-106h-116z" />
    <glyph glyph-name="bullet" unicode="&#x2022;" horiz-adv-x="447" 
d="M224 188q-46 0 -78.5 32t-32.5 78t32.5 78.5t78.5 32.5t78.5 -32.5t32.5 -78.5t-32.5 -78t-78.5 -32z" />
    <glyph glyph-name="ellipsis" unicode="&#x2026;" horiz-adv-x="712" 
d="M116 -8q-35 0 -59.5 24.5t-24.5 59.5t24.5 59.5t59.5 24.5t60 -24.5t25 -59.5t-25 -59.5t-60 -24.5zM354 -8q-35 0 -59.5 24.5t-24.5 59.5t24.5 59.5t59.5 24.5t60 -24.5t25 -59.5t-25 -59.5t-60 -24.5zM596 -8q-35 0 -59.5 24.5t-24.5 59.5t24.5 59.5t59.5 24.5
t59.5 -24.5t24.5 -59.5t-24.5 -59.5t-59.5 -24.5z" />
    <glyph glyph-name="perthousand" unicode="&#x2030;" horiz-adv-x="1046" 
d="M193 425q-60 0 -102 42t-42 101q0 60 42.5 102t101.5 42t101.5 -42t42.5 -102q0 -59 -42.5 -101t-101.5 -42zM69 0l493 700h100l-493 -700h-100zM193 506q26 0 44 18t18 44t-18 44.5t-44 18.5q-25 0 -43 -18.5t-18 -44.5t18 -44t43 -18zM522 -12q-60 0 -102 42t-42 101
q0 60 42.5 102t101.5 42t101.5 -42t42.5 -102q0 -59 -42.5 -101t-101.5 -42zM853 -12q-60 0 -102 42t-42 101q0 60 42.5 102t101.5 42t101.5 -42t42.5 -102q0 -59 -42.5 -101t-101.5 -42zM522 69q25 0 43 18t18 44t-18 44.5t-43 18.5q-26 0 -44 -18.5t-18 -44.5t18 -44
t44 -18zM853 69q26 0 43.5 18t17.5 44t-17.5 44.5t-43.5 18.5t-43.5 -18.5t-17.5 -44.5t17.5 -44t43.5 -18z" />
    <glyph glyph-name="guilsinglleft" unicode="&#x2039;" horiz-adv-x="434" 
d="M397 -8l-360 231v124l360 234v-126l-268 -169l268 -168v-126z" />
    <glyph glyph-name="guilsinglright" unicode="&#x203a;" horiz-adv-x="434" 
d="M37 -8v126l269 168l-269 169v126l360 -234v-124z" />
    <glyph glyph-name="fraction" unicode="&#x2044;" horiz-adv-x="221" 
d="M-159 0l486 700h100l-486 -700h-100z" />
    <glyph glyph-name="uni2070" unicode="&#x2070;" horiz-adv-x="368" 
d="M183 345q-68 0 -108 49.5t-40 134.5t40 135t108 50t108 -50t40 -135t-40 -134.5t-108 -49.5zM183 418q33 0 53 30t20 81t-20 81.5t-53 30.5t-52.5 -30t-19.5 -82t19.5 -81.5t52.5 -29.5z" />
    <glyph glyph-name="Euro" unicode="&#x20ac;" horiz-adv-x="856" 
d="M472 -8q-119 1 -212.5 75t-127.5 189h-82v81h67q-2 11 -2 32q0 18 2 27h-67v82h81q33 117 127.5 192.5t213.5 75.5q221 0 325 -229h-136q-19 32 -46 54t-55 32t-48.5 13.5t-39.5 3.5q-67 1 -121.5 -38.5t-81.5 -103.5h285v-82h-307q-1 -9 -1 -27q0 -10 2 -32l306 1v-82
h-283q27 -62 80.5 -100t120.5 -38q115 0 190 102h136q-31 -107 -121.5 -168t-204.5 -60z" />
    <glyph glyph-name="trademark" unicode="&#x2122;" horiz-adv-x="644" 
d="M275 700h80l66 -216l67 216h81v-255h-50v205l-63 -205h-69l-63 203v-203h-49v255zM36 700h207v-47h-77v-208h-50v208h-80v47z" />
    <glyph glyph-name="uni2150" unicode="&#x2150;" horiz-adv-x="864" 
d="M130 287v333h-95v91h191v-424h-96zM115 0l486 700h100l-486 -700h-100zM577 -10l156 331h-184v90h284l1 -94l-151 -327h-106z" />
    <glyph glyph-name="uni2151" unicode="&#x2151;" horiz-adv-x="910" 
d="M130 287v333h-95v91h191v-424h-96zM115 0l486 700h100l-486 -700h-100zM707 -18q-59 0 -99.5 37t-51.5 99h96q6 -21 22 -34t36 -13q38 0 60.5 30t22.5 59q-9 -16 -38 -27.5t-64 -10.5q-61 1 -101 42t-40 102q0 67 43.5 108.5t112.5 42.5q81 1 127.5 -56.5t46.5 -158.5
q0 -97 -48 -158.5t-125 -61.5zM709 206q25 0 42.5 18t17.5 44t-17.5 43.5t-42.5 17.5q-26 0 -44 -17.5t-18 -43.5t18 -44t44 -18z" />
    <glyph glyph-name="uni2152" unicode="&#x2152;" horiz-adv-x="1205" 
d="M130 287v333h-95v91h191v-424h-96zM115 0l486 700h100l-486 -700h-100zM999 -11q-81 0 -127.5 58t-46.5 159t47 159.5t127 58.5t127.5 -59t47.5 -159q0 -99 -47.5 -158t-127.5 -59zM625 -10v333h-95v92h191v-425h-96zM999 83q37 0 58.5 33.5t21.5 89.5t-22 90.5t-58 34.5
q-37 0 -58 -33.5t-21 -91.5q0 -57 21.5 -90t57.5 -33z" />
    <glyph glyph-name="onethird" unicode="&#x2153;" horiz-adv-x="899" 
d="M130 287v333h-95v91h191v-424h-96zM115 0l486 700h100l-486 -700h-100zM716 -18q-65 0 -112 44.5t-44 105.5l98 1q-4 -24 13.5 -42t44.5 -18q24 0 40.5 15t16.5 37q0 33 -34 47.5t-80 1.5l-45 57l113 89h-158v92h289l1 -99l-88 -69q45 -10 71 -42.5t26 -78.5
q0 -61 -43.5 -101t-108.5 -40z" />
    <glyph glyph-name="twothirds" unicode="&#x2154;" horiz-adv-x="1027" 
d="M60 288l1 72l139 148q53 56 53 80q0 15 -14 26t-33 11q-27 0 -43.5 -21.5t-12.5 -52.5l-97 -1q-3 73 41 120.5t114 47.5q61 0 100.5 -35.5t39.5 -88.5q0 -62 -87 -153l-61 -63h149v-89zM243 0l486 700h100l-486 -700h-100zM844 -18q-66 0 -112.5 45t-42.5 105l97 1
q-4 -24 13.5 -42t44.5 -18q24 0 40.5 15t16.5 37q0 33 -33.5 47.5t-80.5 1.5l-44 57l112 89h-157v92h288l1 -99l-88 -69q45 -10 71 -42.5t26 -78.5q0 -61 -43.5 -101t-108.5 -40z" />
    <glyph glyph-name="uni2155" unicode="&#x2155;" horiz-adv-x="897" 
d="M130 287v333h-95v91h191v-424h-96zM115 0l486 700h100l-486 -700h-100zM710 -16q-68 0 -113 41.5t-49 108.5h99q-1 -27 16 -43t46 -16q28 0 44.5 17t16.5 45q1 29 -17 47t-47 18q-43 0 -59 -27h-91l6 237h288l1 -92h-196l-2 -54q31 20 72 20q61 -1 101 -43t40 -104
q1 -68 -43.5 -112t-112.5 -43z" />
    <glyph glyph-name="uni2156" unicode="&#x2156;" horiz-adv-x="1025" 
d="M60 288l1 72l139 148q53 56 53 80q0 15 -14 26t-33 11q-27 0 -43.5 -21.5t-12.5 -52.5l-97 -1q-3 73 41 120.5t114 47.5q61 0 100.5 -35.5t39.5 -88.5q0 -62 -87 -153l-61 -63h149v-89zM243 0l486 700h100l-486 -700h-100zM838 -16q-68 0 -113 41.5t-49 108.5h99
q-1 -27 16 -43t46 -16q28 0 44.5 17t17.5 45q1 29 -17.5 47t-47.5 18q-44 0 -58 -27h-91l6 237h287l1 -92h-196l-2 -54q31 20 72 20q61 -2 101.5 -44t40.5 -103q0 -68 -44.5 -112t-112.5 -43z" />
    <glyph glyph-name="uni2157" unicode="&#x2157;" horiz-adv-x="1044" 
d="M221 279q-66 0 -112.5 44.5t-43.5 104.5l98 1q-4 -24 13.5 -42t44.5 -18q24 0 40.5 15t16.5 37q0 33 -33.5 47.5t-80.5 1.5l-45 57l113 89h-158v92h289l1 -99l-88 -69q45 -10 71 -42.5t26 -78.5q0 -61 -43 -100.5t-109 -39.5zM262 0l486 700h100l-486 -700h-100zM857 -16
q-68 0 -113 41.5t-49 108.5h99q-1 -27 16 -43t46 -16q28 0 44.5 17t17.5 45q1 29 -17.5 47t-47.5 18q-44 0 -58 -27h-91l6 237h287l1 -92h-196l-2 -54q31 20 72 20q61 -2 101.5 -44t40.5 -103q0 -68 -44.5 -112t-112.5 -43z" />
    <glyph glyph-name="uni2158" unicode="&#x2158;" horiz-adv-x="1013" 
d="M190 287v72h-202v67l155 285h143v-267h48v-85h-48v-72h-96zM231 0l486 700h100l-486 -700h-100zM99 444h91v166zM826 -16q-68 0 -113 41.5t-49 108.5h99q-1 -27 16 -43t46 -16q27 0 43.5 17t17.5 45q1 29 -17 47t-48 18q-42 0 -58 -27h-91l6 237h288l1 -92h-197l-1 -54
q31 20 72 20q61 -1 101 -43t40 -104q1 -68 -43.5 -112t-112.5 -43z" />
    <glyph glyph-name="uni2159" unicode="&#x2159;" horiz-adv-x="910" 
d="M130 287v333h-95v91h191v-424h-96zM115 0l486 700h100l-486 -700h-100zM724 -18q-83 0 -130 58.5t-44 157.5q2 98 50.5 158t124.5 60q59 0 99 -36.5t51 -97.5h-95q-6 20 -21.5 32.5t-35.5 12.5q-30 0 -49 -23.5t-25 -56.5q36 31 90 31q61 -1 101 -42t40 -102
q0 -66 -44 -109t-112 -43zM722 71q27 -1 44.5 16t17.5 45q0 26 -17.5 42.5t-43.5 16.5q-28 0 -46 -17t-17 -43q0 -26 17 -43t45 -17z" />
    <glyph glyph-name="uni215A" unicode="&#x215a;" horiz-adv-x="1030" 
d="M215 281q-68 0 -113 41t-49 108h99q-1 -27 16 -43t46 -16q28 0 44.5 17t17.5 45q0 29 -18 47t-47 18q-44 0 -58 -27h-91l5 238h288l1 -93h-196l-2 -54q31 20 72 20q61 -1 101 -43t40 -104q1 -68 -43.5 -112t-112.5 -42zM234 0l486 700h100l-486 -700h-100zM843 -18
q-82 0 -129 58.5t-45 157.5q2 98 51 158t125 60q59 0 98.5 -36.5t50.5 -97.5h-95q-6 20 -21.5 32.5t-35.5 12.5q-30 0 -48.5 -23t-24.5 -57q34 31 89 31q61 -1 101 -42t40 -102q0 -66 -44 -109t-112 -43zM841 71q28 -1 45 16t17 45q0 26 -17 42.5t-44 16.5q-28 0 -46 -17
t-17 -43q0 -26 17.5 -43t44.5 -17z" />
    <glyph glyph-name="oneeighth" unicode="&#x215b;" horiz-adv-x="912" 
d="M130 287v333h-95v91h191v-424h-96zM115 0l486 700h100l-486 -700h-100zM715 -17q-71 0 -118 38t-47 96q0 62 54 91q-47 32 -47 89q0 52 44.5 86t113.5 34q70 0 114.5 -33.5t44.5 -86.5q0 -57 -48 -89q55 -30 55 -91q0 -58 -47 -96t-119 -38zM715 241q26 0 43.5 14
t17.5 34q0 19 -17 30.5t-44 11.5q-26 0 -43 -12t-17 -30q0 -20 17.5 -34t42.5 -14zM715 68q30 0 49.5 14t19.5 36q0 25 -18.5 39.5t-50.5 14.5q-30 0 -49 -15t-19 -39q0 -22 19 -36t49 -14z" />
    <glyph glyph-name="threeeighths" unicode="&#x215c;" horiz-adv-x="1059" 
d="M221 279q-66 0 -112.5 44.5t-43.5 104.5l98 1q-4 -24 13.5 -42t44.5 -18q24 0 40.5 15t16.5 37q0 33 -33.5 47.5t-80.5 1.5l-45 57l113 89h-158v92h289l1 -99l-88 -69q45 -10 71 -42.5t26 -78.5q0 -61 -43 -100.5t-109 -39.5zM262 0l486 700h100l-486 -700h-100zM862 -17
q-71 0 -118 38t-47 96q0 62 55 91q-48 33 -48 89q0 52 44.5 86t113.5 34q70 0 115 -34t45 -86q0 -56 -49 -89q56 -30 56 -91q0 -58 -47.5 -96t-119.5 -38zM862 241q26 0 43.5 14t17.5 34q0 19 -17 30.5t-44 11.5q-26 0 -43 -12t-17 -30q0 -20 17.5 -34t42.5 -14zM862 68
q31 0 50 14t19 36q0 25 -18.5 39.5t-50.5 14.5q-30 0 -48.5 -15t-18.5 -39q0 -22 18.5 -36t48.5 -14z" />
    <glyph glyph-name="fiveeighths" unicode="&#x215d;" horiz-adv-x="1031" 
d="M215 281q-68 0 -113 41t-49 108h99q-1 -27 16 -43t46 -16q28 0 44.5 17t17.5 45q0 29 -18 47t-47 18q-44 0 -58 -27h-91l5 238h288l1 -93h-196l-2 -54q31 20 72 20q61 -1 101 -43t40 -104q1 -68 -43.5 -112t-112.5 -42zM234 0l486 700h100l-486 -700h-100zM834 -17
q-71 0 -118 38t-47 96q0 62 55 91q-48 33 -48 89q0 52 44.5 86t113.5 34q70 0 115 -34t45 -86q0 -56 -49 -89q56 -30 56 -91q0 -58 -47.5 -96t-119.5 -38zM834 241q26 0 43.5 14t17.5 34q0 19 -17 30.5t-44 11.5q-26 0 -43 -12t-17 -30q0 -20 17.5 -34t42.5 -14zM834 68
q31 0 50 14t19 36q0 25 -18.5 39.5t-50.5 14.5q-30 0 -48.5 -15t-18.5 -39q0 -22 18.5 -36t48.5 -14z" />
    <glyph glyph-name="seveneighths" unicode="&#x215e;" horiz-adv-x="1005" 
d="M82 287l156 330h-184v90h284l1 -94l-151 -326h-106zM209 0l486 700h100l-486 -700h-100zM809 -17q-72 0 -119 38t-47 96q0 62 55 91q-48 33 -48 89q0 52 45 86t114 34t114 -34t45 -86q0 -56 -48 -89q55 -31 55 -91q0 -58 -47.5 -96t-118.5 -38zM809 241q25 0 42.5 14
t17.5 34q0 19 -17 30.5t-43 11.5t-43.5 -12t-17.5 -30q0 -20 18 -34t43 -14zM809 68q30 0 49 14t19 36q0 25 -18.5 39.5t-49.5 14.5t-49.5 -15t-18.5 -39q0 -22 19 -36t49 -14z" />
    <glyph glyph-name="uni215F" unicode="&#x215f;" horiz-adv-x="705" 
d="M130 287v333h-95v91h191v-424h-96zM115 0l486 700h100l-486 -700h-100z" />
    <glyph glyph-name="uni2189" unicode="&#x2189;" horiz-adv-x="1086" 
d="M230 286q-81 0 -127.5 58t-46.5 159q0 100 47 158.5t127 58.5t127.5 -59t47.5 -158q0 -100 -47.5 -158.5t-127.5 -58.5zM302 0l486 700h100l-486 -700h-100zM230 380q37 0 58.5 33.5t21.5 89.5t-22 90.5t-58 34.5q-37 0 -58 -33.5t-21 -91.5q0 -57 21.5 -90t57.5 -33z
M903 -18q-66 0 -112.5 45t-42.5 105l97 1q-4 -24 13.5 -42t44.5 -18q24 0 40.5 15t16.5 37q0 33 -33.5 47.5t-80.5 1.5l-44 57l112 89h-157v92h288l1 -99l-88 -69q45 -10 71 -42.5t26 -78.5q0 -61 -43.5 -101t-108.5 -40z" />
    <glyph glyph-name="arrowleft" unicode="&#x2190;" horiz-adv-x="606" 
d="M271 74l-270 264v8l270 264l75 -76l-145 -136h372v-112h-372l145 -136z" />
    <glyph glyph-name="arrowup" unicode="&#x2191;" horiz-adv-x="597" 
d="M243 65l-1 372l-136 -145l-76 75l264 270h8l264 -270l-76 -75l-136 146v-373h-111z" />
    <glyph glyph-name="arrowright" unicode="&#x2192;" horiz-adv-x="603" 
d="M320 86l-76 75l146 136h-373v112l372 1l-145 136l76 75l271 -264l-1 -7z" />
    <glyph glyph-name="arrowdown" unicode="&#x2193;" horiz-adv-x="597" 
d="M284 41l-264 270l75 75l136 -145v372h112l1 -371l136 144l75 -75l-264 -270h-7z" />
    <glyph glyph-name="arrowboth" unicode="&#x2194;" horiz-adv-x="1025" 
d="M701 83l-75 76l146 136l-528 1l145 -136l-76 -76l-270 264v8l270 264l76 -76l-146 -136l528 -1l-145 136l75 76l271 -264l-1 -8z" />
    <glyph glyph-name="arrowupdn" unicode="&#x2195;" horiz-adv-x="632" 
d="M290 -93l-264 270l75 76l136 -146l1 485l-136 -145l-75 75l264 271h7l264 -271l-75 -75l-136 146l-1 -485l136 145l75 -76l-264 -270h-7z" />
    <glyph glyph-name="uni2196" unicode="&#x2196;" horiz-adv-x="660" 
d="M441 99l-264 262l6 -198h-107l-4 377l6 5l377 -4v-106l-199 7l264 -265z" />
    <glyph glyph-name="uni2197" unicode="&#x2197;" horiz-adv-x="588" 
d="M133 108l-79 79l262 264l-198 -6l-1 107l379 4l5 -6l-5 -377h-107l7 198z" />
    <glyph glyph-name="uni2198" unicode="&#x2198;" horiz-adv-x="588" 
d="M498 132l-377 4v107l199 -7l-264 264l80 79l263 -263l-6 199h107l4 -378z" />
    <glyph glyph-name="uni2199" unicode="&#x2199;" horiz-adv-x="588" 
d="M86 122l-6 6l4 377h107l-7 -199l264 264l79 -80l-263 -263l199 6v-107z" />
    <glyph glyph-name="emptyset" unicode="&#x2205;" horiz-adv-x="666" 
d="M36 -92l112 159q-84 79 -84 198q0 115 80 194.5t192 79.5q66 0 124 -30l70 100h100l-104 -148q83 -80 83 -196q0 -113 -80 -193t-193 -80q-65 0 -121 28l-79 -112h-100zM219 169l170 240q-24 11 -53 11q-63 0 -107 -45.5t-44 -109.5q0 -54 34 -96zM336 111q64 0 108 45
t44 109q0 52 -32 95l-171 -239q23 -10 51 -10z" />
    <glyph glyph-name="minus" unicode="&#x2212;" horiz-adv-x="549" 
d="M50 228v117h449v-117h-449z" />
    <glyph glyph-name="approxequal" unicode="&#x2248;" horiz-adv-x="611" 
d="M71 340q5 68 41.5 111t94.5 43q31 0 59 -13.5t45.5 -29.5t37 -29.5t35.5 -13.5q42 0 43 72h91q-2 -71 -38.5 -117t-95.5 -46q-39 0 -71.5 21.5t-58 43t-47.5 21.5q-42 0 -46 -63h-90zM71 152q5 68 41.5 111t94.5 43q31 0 59 -13.5t45.5 -29.5t37 -29.5t35.5 -13.5
q42 0 43 73h91q-2 -72 -38.5 -117.5t-95.5 -45.5q-39 0 -71.5 21.5t-58 43t-47.5 21.5q-42 0 -46 -64h-90z" />
    <glyph glyph-name="notequal" unicode="&#x2260;" horiz-adv-x="544" 
d="M102 19l58 122h-111v117h167l38 78l-205 -1v117h260l57 118h70l-57 -118h115v-116h-170l-38 -78h208v-117h-264l-58 -122h-70z" />
    <glyph glyph-name="lessequal" unicode="&#x2264;" horiz-adv-x="567" 
d="M517 134l-468 205v162l468 208v-125l-380 -163l380 -161v-126zM49 -3v117h468v-117h-468z" />
    <glyph glyph-name="greaterequal" unicode="&#x2265;" horiz-adv-x="567" 
d="M49 134v126l381 161l-381 163v125l468 -208v-162zM50 -3v117h467v-117h-467z" />
    <glyph glyph-name="I.ss01" horiz-adv-x="497" 
d="M35 125h146v450h-146v125h427v-125h-146v-450h146v-125h-427v125z" />
    <glyph glyph-name="Iacute.ss01" horiz-adv-x="497" 
d="M35 0v125h146v450h-146v125h427v-125h-146v-450h146v-125h-427zM190 766l99 142h154l-137 -142h-116z" />
    <glyph glyph-name="Icircumflex.ss01" horiz-adv-x="497" 
d="M181 125v450h-146v125h427v-125h-146v-450h146v-125h-427v125h146zM60 766l95 127h187l96 -127h-130l-59 79l-60 -79h-129z" />
    <glyph glyph-name="Idieresis.ss01" horiz-adv-x="497" 
d="M181 125v450h-146v125h427v-125h-146v-450h146v-125h-427v125h146zM291 836q0 31 21 52t52 21q30 0 51.5 -21t21.5 -52q0 -30 -21.5 -51t-51.5 -21q-31 0 -52 21t-21 51zM82 888q21 21 51 21q31 0 52 -21t21 -52q0 -30 -21 -51t-52 -21q-30 0 -51.5 21t-21.5 51
q0 31 22 52z" />
    <glyph glyph-name="Idotaccent.ss01" horiz-adv-x="497" 
d="M35 700h427v-125h-146v-450h146v-125h-427v125h146v450h-146v125zM167 842q0 34 24 57.5t58 23.5t58 -23.5t24 -57.5t-24 -57q-24 -24 -58 -24t-58 23.5t-24 57.5z" />
    <glyph glyph-name="Igrave.ss01" horiz-adv-x="497" 
d="M35 0v125h146v450h-146v125h427v-125h-146v-450h146v-125h-427zM219 908l98 -142h-115l-137 142h154z" />
    <glyph glyph-name="Imacron.ss01" horiz-adv-x="497" 
d="M35 0v125h146v450h-146v125h427v-125h-146v-450h146v-125h-427zM74 776v91h350v-91h-350z" />
    <glyph glyph-name="Iogonek.ss01" horiz-adv-x="497" 
d="M35 575v125h427v-125h-146v-450h146v-125h-80q-54 -48 -54 -85q0 -25 20.5 -28.5t34.5 -3.5q27 0 66 7v-82q-18 -5 -36.5 -5.5t-24.5 -0.5q-27 0 -61 4.5t-61 27.5t-27 60q0 59 85 106h-289v125h146v450h-146z" />
    <glyph glyph-name="i.loclTRK" horiz-adv-x="245" 
d="M188 530v-530h-130v530h130zM66 730q24 23 58 23t58 -23.5t24 -57.5t-24 -57q-24 -24 -58 -24t-58 23.5t-24 57.5t24 58z" />
    <glyph glyph-name="a.ss01" horiz-adv-x="585" 
d="M93 282q57 40 158 40h155v29q0 39 -31.5 58t-83.5 19q-99 0 -118 -63l-124 -1q1 79 70 127t169 48q99 0 170 -48t71 -125v-366h-123v65q-22 -28 -66 -50.5t-104 -22.5q-33 0 -65 7.5t-64 25t-51.5 52t-19.5 81.5q0 83 57 124zM166 154q4 -30 27.5 -43t52.5 -13
q61 0 110.5 39t49.5 93h-132q-56 0 -82 -19.5t-26 -48.5v-8z" />
    <glyph glyph-name="aacute.ss01" horiz-adv-x="585" 
d="M93 282q57 40 158 40h155v29q0 39 -31.5 58t-83.5 19q-99 0 -118 -63l-124 -1q1 79 70 127t169 48q99 0 170 -48t71 -125v-366h-123v65q-22 -28 -66 -50.5t-104 -22.5q-33 0 -65 7.5t-64 25t-51.5 52t-19.5 81.5q0 83 57 124zM166 154q4 -30 27.5 -43t52.5 -13
q61 0 110.5 39t49.5 93h-132q-56 0 -82 -19.5t-26 -48.5v-8zM230 596l99 142h154l-137 -142h-116z" />
    <glyph glyph-name="abreve.ss01" horiz-adv-x="585" 
d="M36 158q0 83 57 123.5t158 40.5h155v29q0 39 -31.5 58t-83.5 19q-99 0 -118 -63l-124 -1q1 79 70 127t169 48q99 0 170 -48t71 -125v-366h-123v65q-22 -28 -66 -50.5t-104 -22.5q-33 0 -65 7.5t-64 25t-51.5 52t-19.5 81.5zM144 725h80q0 -24 17.5 -39.5t46.5 -15.5
t46.5 15.5t17.5 39.5h81q0 -57 -41 -96q-42 -39 -104 -39t-103 39t-41 96zM166 154q4 -30 27.5 -43t52.5 -13q61 0 110.5 39t49.5 93h-132q-56 0 -82 -19.5t-26 -48.5v-8z" />
    <glyph glyph-name="acircumflex.ss01" horiz-adv-x="585" 
d="M93 282q57 40 158 40h155v29q0 39 -31.5 58t-83.5 19q-99 0 -118 -63l-124 -1q1 79 70 127t169 48q99 0 170 -48t71 -125v-366h-123v65q-22 -28 -66 -50.5t-104 -22.5q-33 0 -65 7.5t-64 25t-51.5 52t-19.5 81.5q0 83 57 124zM99 596l95 127h187l96 -127h-130l-59 79
l-60 -79h-129zM166 154q4 -30 27.5 -43t52.5 -13q61 0 110.5 39t49.5 93h-132q-56 0 -82 -19.5t-26 -48.5v-8z" />
    <glyph glyph-name="adieresis.ss01" horiz-adv-x="585" 
d="M93 282q57 40 158 40h155v29q0 39 -31.5 58t-83.5 19q-99 0 -118 -63l-124 -1q1 79 70 127t169 48q99 0 170 -48t71 -125v-366h-123v65q-22 -28 -66 -50.5t-104 -22.5q-33 0 -65 7.5t-64 25t-51.5 52t-19.5 81.5q0 83 57 124zM166 154q4 -30 27.5 -43t52.5 -13
q61 0 110.5 39t49.5 93h-132q-56 0 -82 -19.5t-26 -48.5v-8zM100 666q0 31 21.5 52t51.5 21q31 0 52 -21t21 -52q0 -30 -21 -51t-52 -21q-30 0 -51.5 21t-21.5 51zM331 666q0 31 21 52t52 21q30 0 51.5 -21t21.5 -52q0 -30 -21.5 -51t-51.5 -21q-31 0 -52 21t-21 51z" />
    <glyph glyph-name="agrave.ss01" horiz-adv-x="585" 
d="M36 158q0 83 57 123.5t158 40.5h155v29q0 39 -31.5 58t-83.5 19q-99 0 -118 -63l-124 -1q1 79 70 127t169 48q99 0 170 -48t71 -125v-366h-123v65q-22 -28 -66 -50.5t-104 -22.5q-33 0 -65 7.5t-64 25t-51.5 52t-19.5 81.5zM166 154q4 -30 27.5 -43t52.5 -13
q61 0 110.5 39t49.5 93h-132q-56 0 -82 -19.5t-26 -48.5v-8zM104 738h154l98 -142h-115z" />
    <glyph glyph-name="amacron.ss01" horiz-adv-x="585" 
d="M93 282q57 40 158 40h155v29q0 39 -31.5 58t-83.5 19q-99 0 -118 -63l-124 -1q1 79 70 127t169 48q99 0 170 -48t71 -125v-366h-123v65q-22 -28 -66 -50.5t-104 -22.5q-33 0 -65 7.5t-64 25t-51.5 52t-19.5 81.5q0 83 57 124zM463 697v-91h-350v91h350zM166 154
q4 -30 27.5 -43t52.5 -13q61 0 110.5 39t49.5 93h-132q-56 0 -82 -19.5t-26 -48.5v-8z" />
    <glyph glyph-name="aogonek.ss01" horiz-adv-x="585" 
d="M93 282q57 40 158 40h155v29q0 39 -31.5 58t-83.5 19q-99 0 -118 -63l-124 -1q1 79 70 127t169 48q99 0 170 -48t71 -125v-366h-68q-65 -52 -65 -94q0 -25 20.5 -28.5t34.5 -3.5q27 0 66 7v-82q-18 -5 -36.5 -5.5t-24.5 -0.5q-27 0 -61 4.5t-61 27.5t-27 60q0 64 102 115
h-3v65q-22 -28 -66 -50.5t-104 -22.5q-33 0 -65 7.5t-64 25t-51.5 52t-19.5 81.5q0 83 57 124zM166 154q4 -30 27.5 -43t52.5 -13q61 0 110.5 39t49.5 93h-132q-56 0 -82 -19.5t-26 -48.5v-8z" />
    <glyph glyph-name="aring.ss01" horiz-adv-x="585" 
d="M36 158q0 83 57 123.5t158 40.5h155v29q0 39 -31.5 58t-83.5 19q-99 0 -118 -63l-124 -1q1 79 70 127t169 48q99 0 170 -48t71 -125v-366h-123v65q-22 -28 -66 -50.5t-104 -22.5q-33 0 -65 7.5t-64 25t-51.5 52t-19.5 81.5zM186 686q0 43 30.5 73t72.5 30
q41 0 71.5 -30.5t30.5 -72.5t-30 -71.5t-72 -29.5q-43 0 -73 29.5t-30 71.5zM166 154q4 -30 27.5 -43t52.5 -13q61 0 110.5 39t49.5 93h-132q-56 0 -82 -19.5t-26 -48.5v-8zM261 659q11 -11 28 -11q16 0 27 11t11 27t-11 27.5t-27 11.5t-26.5 -11t-11.5 -28v-3q0 -14 10 -24
z" />
    <glyph glyph-name="atilde.ss01" horiz-adv-x="585" 
d="M36 158q0 83 57 123.5t158 40.5h155v29q0 39 -31.5 58t-83.5 19q-99 0 -118 -63l-124 -1q1 79 70 127t169 48q99 0 170 -48t71 -125v-366h-123v65q-22 -28 -66 -50.5t-104 -22.5q-33 0 -65 7.5t-64 25t-51.5 52t-19.5 81.5zM66 612q5 62 42 103.5t96 41.5q37 0 70 -20
t57.5 -40t41.5 -20q21 0 33 20t13 51h91q-2 -65 -39 -109t-97 -44q-37 0 -68.5 20t-56 40t-44.5 20q-21 0 -33.5 -18t-14.5 -45h-91zM166 154q4 -30 27.5 -43t52.5 -13q61 0 110.5 39t49.5 93h-132q-56 0 -82 -19.5t-26 -48.5v-8z" />
    <glyph glyph-name="ae.ss01" horiz-adv-x="1040" 
d="M998 217h-410v-8q13 -48 51.5 -75t90.5 -27q83 0 136 55l114 -31q-31 -63 -102.5 -101t-147.5 -38q-77 0 -142 42v-34h-130v57q-63 -65 -159 -65q-108 0 -185.5 81t-77.5 192q0 115 77 194.5t186 79.5q95 0 159 -67v58h130v-35q63 44 142 44q97 0 171.5 -63.5
t95.5 -158.5q12 -54 1 -100zM729 424q-52 0 -90 -28.5t-51 -72.5v-7h283q-11 46 -49 77t-93 31zM312 110q63 0 108.5 46t45.5 109t-45.5 109.5t-108.5 46.5q-65 0 -109.5 -46t-44.5 -110t44.5 -109.5t109.5 -45.5z" />
    <glyph glyph-name="y.ss01" horiz-adv-x="591" 
d="M146 530l149 -459l146 459h133l-254 -740h-126l74 210h-73l-182 530h133z" />
    <glyph glyph-name="yacute.ss01" horiz-adv-x="591" 
d="M13 530h133l149 -459l146 459h133l-254 -740h-126l74 210h-73zM237 596l99 142h154l-137 -142h-116z" />
    <glyph glyph-name="ycircumflex.ss01" horiz-adv-x="591" 
d="M13 530h133l149 -459l146 459h133l-254 -740h-126l74 210h-73zM107 596l95 127h187l96 -127h-130l-59 79l-60 -79h-129z" />
    <glyph glyph-name="ydieresis.ss01" horiz-adv-x="591" 
d="M146 530l149 -459l146 459h133l-254 -740h-126l74 210h-73l-182 530h133zM129 718q21 21 51 21q31 0 52 -21t21 -52q0 -30 -21 -51t-52 -21q-30 0 -51.5 21t-21.5 51q0 31 22 52zM359 718q21 21 52 21q30 0 51.5 -21t21.5 -52q0 -30 -21.5 -51t-51.5 -21q-31 0 -52 21
t-21 51q0 31 21 52z" />
    <glyph glyph-name="ygrave.ss01" horiz-adv-x="591" 
d="M146 530l149 -459l146 459h133l-254 -740h-126l74 210h-73l-182 530h133zM112 738h154l98 -142h-115z" />
    <glyph glyph-name="f_t" horiz-adv-x="816" 
d="M25 418v112h92v20q0 57 26 96t68.5 55t68.5 16.5t27 0.5q49 0 98 -16v-97q-30 9 -49.5 11t-30.5 2q-15 0 -34.5 -3t-34 -20t-14.5 -45v-20h248v122l128 37v-159h158v-112h-158v-243q0 -41 27 -51t47 -10q36 0 89 16v-126q-55 -15 -102 -15q-60 0 -124.5 35t-64.5 150v244
h-243l1 -418h-128l-3 418h-92z" />
    <glyph glyph-name="uni0414.loclBGR" horiz-adv-x="790" 
d="M666 121h97v-283h-134v162h-470v-162h-134v283q37 0 63.5 16t39.5 36.5t20 53.5t8 53.5t1 50.5v369h509v-579zM247 121h285v454h-240v-245q0 -129 -45 -209z" />
    <glyph glyph-name="uni041B.loclBGR" horiz-adv-x="723" 
d="M26 -1v121q37 -3 63 9t39 29t20.5 47t8.5 50.5t1 52.5v392h509v-700h-134v575h-241v-268q0 -70 -13 -124.5t-42 -98.5t-82.5 -66.5t-128.5 -18.5z" />
    <glyph glyph-name="uni0424.loclBGR" horiz-adv-x="759" 
d="M707 350q0 -114 -81 -199t-191 -89v-62h-134v62q-110 4 -191.5 89.5t-81.5 198.5q0 114 81 199t192 89v62h134v-62q110 -4 191 -90t81 -198zM158 350q0 -70 41 -116.5t102 -50.5v333q-62 -4 -102.5 -50t-40.5 -116zM435 183q61 4 101.5 50.5t40.5 116.5t-40 115.5
t-102 50.5v-333z" />
    <glyph glyph-name="uni0432.loclBGR" horiz-adv-x="591" 
d="M52 0v530h300q80 0 132.5 -38.5t52.5 -105.5q0 -76 -68 -116q86 -34 86 -119q0 -66 -52.5 -108.5t-133.5 -42.5h-317zM178 311h161q72 0 72 54q0 53 -71 53h-162v-107zM178 112h176q71 0 71 54q0 53 -72 53h-175v-107z" />
    <glyph glyph-name="uni0433.loclBGR" horiz-adv-x="500" 
d="M475 530v-121h-293v-416h-130v537h423z" />
    <glyph glyph-name="uni0434.loclBGR" horiz-adv-x="656" 
d="M551 112h82v-235h-121v123h-367v-123h-121v235q28 0 48 11.5t30 26t15 39t6 40t1 40.5v261h427v-418zM223 112h200v306h-170v-145q0 -96 -30 -161z" />
    <glyph glyph-name="uni0436.loclBGR" horiz-adv-x="765" 
d="M739 530l-199 -265l199 -265h-139l-155 208v-208h-125v208l-155 -208h-139l199 266l-199 264h139l155 -208v208h125v-207l155 207h139z" />
    <glyph glyph-name="uni0437.loclBGR" horiz-adv-x="564" 
d="M281 -8q-113 0 -183 52.5t-71 126.5h121q1 -30 37.5 -48t94.5 -18q54 0 90.5 18.5t36.5 49.5q0 54 -120 54h-107v92h107q110 0 110 50q0 26 -31 42t-86 16q-58 0 -89.5 -16t-32.5 -42h-122q1 79 72 124.5t173 45.5q98 0 167.5 -41t69.5 -113q0 -70 -80 -109
q37 -12 63.5 -41.5t26.5 -73.5q0 -71 -69 -120t-178 -49z" />
    <glyph glyph-name="uni0438.loclBGR" horiz-adv-x="631" 
d="M579 530v-530h-125v451l-182 -451h-220v530h126v-440l177 440h224z" />
    <glyph glyph-name="uni0439.loclBGR" horiz-adv-x="631" 
d="M316 590q-62 0 -103 39t-41 96h80q0 -24 17.5 -39.5t46.5 -15.5t46.5 15.5t17.5 39.5h81q0 -57 -41.5 -96t-103.5 -39zM579 530v-530h-125v451l-182 -451h-220v530h126v-440l177 440h224z" />
    <glyph glyph-name="uni045D.loclBGR" horiz-adv-x="631" 
d="M52 530h126v-440l177 440h224v-530h-125v451l-182 -451h-220v530zM270 738l98 -142h-115l-138 142h155z" />
    <glyph glyph-name="uni043A.loclBGR" horiz-adv-x="580" 
d="M554 0h-163l-209 223v-223h-130v530h130v-220l207 220h162l-248 -263z" />
    <glyph glyph-name="uni043B.loclBGR" horiz-adv-x="620" 
d="M25 -1v112q28 -2 48 4.5t30 17t15.5 29.5t6.5 33t1 38v297h442v-530h-129v409h-183v-177q0 -54 -10.5 -94.5t-35 -74.5t-71.5 -50.5t-114 -13.5z" />
    <glyph glyph-name="uni043F.loclBGR" horiz-adv-x="607" 
d="M52 0v530h503v-530h-130v409h-243v-409h-130z" />
    <glyph glyph-name="uni0442.loclBGR" horiz-adv-x="543" 
d="M209 0v412h-183v118h491v-118h-178v-412h-130z" />
    <glyph glyph-name="uni0446.loclBGR" horiz-adv-x="610" 
d="M497 121h86v-244h-125v123h-406v530h127v-409h191v409h127v-409z" />
    <glyph glyph-name="uni0448.loclBGR" horiz-adv-x="836" 
d="M658 530h126v-530h-732v530h126v-409h177v409h126v-409h177v409z" />
    <glyph glyph-name="uni0449.loclBGR" horiz-adv-x="893" 
d="M784 121h82v-244h-121v123h-693v530h126v-409h177v409h126v-409h177v409h126v-409z" />
    <glyph glyph-name="uni044C.loclBGR" horiz-adv-x="590" 
d="M52 0v530h126v-162l193 -1q77 -1 130.5 -54.5t53.5 -129.5q0 -77 -53.5 -130t-130.5 -53h-319zM178 117h161q41 0 63.5 17.5t22.5 48.5t-22.5 49t-63.5 18l-161 1v-134z" />
    <glyph glyph-name="uni044A.loclBGR" horiz-adv-x="681" 
d="M462 367q77 -1 130.5 -54.5t53.5 -129.5q0 -77 -53.5 -130t-130.5 -53h-319v422h-122v108h248v-162zM430 117q41 0 63.5 17.5t22.5 48.5t-22.5 49t-63.5 18l-161 1v-134h161z" />
    <glyph glyph-name="uni044E.loclBGR" horiz-adv-x="817" 
d="M509 539q114 0 194.5 -80.5t80.5 -192.5q0 -114 -80 -194t-195 -80q-99 0 -174.5 62.5t-95.5 155.5h-61v-210h-126v530h126v-207h61q20 93 95.5 154.5t174.5 61.5zM509 111q63 0 107 45.5t44 109.5t-44 109t-107 45q-64 0 -108 -45t-44 -109q0 -63 44.5 -109t107.5 -46z
" />
    <glyph glyph-name="uni0431.loclSRB" horiz-adv-x="595" 
d="M304 -8q-127 0 -197 97.5t-70 257.5q0 171 78 262t219 91h159v-112h-161q-85 0 -126.5 -55t-43.5 -137v-17q18 37 63 63.5t101 25.5q105 -1 171 -70t66 -162q0 -98 -72 -171t-187 -73zM308 112q52 0 88.5 34.5t36.5 87.5t-36.5 88t-88.5 35q-51 0 -87 -35t-36 -88
t36 -87.5t87 -34.5z" />
    <glyph glyph-name="zero.dnom" horiz-adv-x="461" 
d="M230 -11q-81 0 -127.5 58t-46.5 159q0 100 47 159t127 59t127.5 -59t47.5 -159q0 -99 -47.5 -158t-127.5 -59zM230 83q37 0 58.5 33.5t21.5 89.5t-22 90.5t-58 34.5q-37 0 -58 -33.5t-21 -91.5q0 -57 21.5 -90t57.5 -33z" />
    <glyph glyph-name="one.dnom" horiz-adv-x="274" 
d="M130 -10v333h-95v92h191v-425h-96z" />
    <glyph glyph-name="two.dnom" horiz-adv-x="402" 
d="M60 -9l1 73l139 148q53 54 53 79q0 16 -13.5 26.5t-33.5 10.5q-27 0 -43.5 -21t-12.5 -52l-97 -1q-3 73 41 120t114 47q61 0 100.5 -35.5t39.5 -88.5q0 -61 -87 -152l-61 -63h149v-90z" />
    <glyph glyph-name="three.dnom" horiz-adv-x="421" 
d="M221 -18q-65 0 -112 44.5t-44 105.5l98 1q-4 -24 13.5 -42t44.5 -18q24 0 40.5 15t16.5 37q0 33 -33.5 47.5t-80.5 1.5l-45 57l113 89h-158v92h289l1 -99l-88 -69q45 -10 71 -42.5t26 -78.5q0 -61 -43.5 -101t-108.5 -40z" />
    <glyph glyph-name="four.dnom" horiz-adv-x="390" 
d="M190 -10v72h-202v68l155 285h143v-267h48v-86h-48v-72h-96zM99 148h91v165z" />
    <glyph glyph-name="five.dnom" horiz-adv-x="393" 
d="M215 -16q-68 0 -113 41.5t-49 108.5h99q-1 -27 16 -43t46 -16q28 0 44.5 17t17.5 45q0 29 -18 47t-47 18q-44 0 -58 -27h-91l5 237h288l1 -92h-196l-2 -54q31 20 72 20q61 -1 101 -43t40 -104q1 -68 -43.5 -112t-112.5 -43z" />
    <glyph glyph-name="six.dnom" horiz-adv-x="440" 
d="M229 -18q-82 0 -129 58.5t-45 157.5q2 98 50.5 158t124.5 60q59 0 99 -36.5t51 -97.5h-95q-6 20 -21.5 32.5t-35.5 12.5q-30 0 -49 -23.5t-25 -56.5q36 31 90 31q61 -1 101 -42t40 -102q0 -66 -44 -109t-112 -43zM227 71q28 -1 45 16t17 45q0 26 -17 42.5t-44 16.5
q-28 0 -46 -17t-17 -43q0 -26 17.5 -43t44.5 -17z" />
    <glyph glyph-name="seven.dnom" horiz-adv-x="374" 
d="M82 -10l156 331h-184v90h284l1 -94l-151 -327h-106z" />
    <glyph glyph-name="eight.dnom" horiz-adv-x="442" 
d="M220 -17q-71 0 -118 38t-47 96q0 62 54 91q-47 32 -47 89q0 52 44.5 86t113.5 34q70 0 114.5 -33.5t44.5 -86.5q0 -57 -48 -89q56 -30 56 -91q0 -58 -47.5 -96t-119.5 -38zM220 241q26 0 43.5 14t17.5 34q0 19 -17 30.5t-44 11.5q-26 0 -43 -12t-17 -30q0 -20 17.5 -34
t42.5 -14zM220 68q31 0 50 14t19 36q0 25 -18.5 39.5t-50.5 14.5q-30 0 -48.5 -15t-18.5 -39q0 -22 18.5 -36t48.5 -14z" />
    <glyph glyph-name="nine.dnom" horiz-adv-x="440" 
d="M212 -18q-59 0 -99.5 37t-51.5 99h96q6 -21 22 -34t36 -13q38 0 60.5 30t22.5 59q-9 -16 -38 -27.5t-63 -10.5q-61 1 -101.5 42t-40.5 102q0 67 43.5 108.5t112.5 42.5q81 1 127.5 -56.5t46.5 -158.5q0 -97 -48 -158.5t-125 -61.5zM214 206q25 0 42.5 18t17.5 44
t-17.5 43.5t-42.5 17.5q-26 0 -44 -17.5t-18 -43.5t18 -44t44 -18z" />
    <glyph glyph-name="zero.numr" horiz-adv-x="461" 
d="M230 286q-81 0 -127.5 58t-46.5 159q0 100 47 158.5t127 58.5t127.5 -59t47.5 -158q0 -100 -47.5 -158.5t-127.5 -58.5zM230 380q37 0 58.5 33.5t21.5 89.5t-22 90.5t-58 34.5q-37 0 -58 -33.5t-21 -91.5q0 -57 21.5 -90t57.5 -33z" />
    <glyph glyph-name="one.numr" horiz-adv-x="274" 
d="M130 287v333h-95v91h191v-424h-96z" />
    <glyph glyph-name="two.numr" horiz-adv-x="402" 
d="M60 288l1 72l139 148q53 56 53 80q0 15 -14 26t-33 11q-27 0 -43.5 -21.5t-12.5 -52.5l-97 -1q-3 73 41 120.5t114 47.5q61 0 100.5 -35.5t39.5 -88.5q0 -62 -87 -153l-61 -63h149v-89z" />
    <glyph glyph-name="three.numr" horiz-adv-x="421" 
d="M221 279q-66 0 -112.5 44.5t-43.5 104.5l98 1q-4 -24 13.5 -42t44.5 -18q24 0 40.5 15t16.5 37q0 33 -33.5 47.5t-80.5 1.5l-45 57l113 89h-158v92h289l1 -99l-88 -69q45 -10 71 -42.5t26 -78.5q0 -61 -43 -100.5t-109 -39.5z" />
    <glyph glyph-name="four.numr" horiz-adv-x="390" 
d="M190 287v72h-202v67l155 285h143v-267h48v-85h-48v-72h-96zM99 444h91v166z" />
    <glyph glyph-name="five.numr" horiz-adv-x="393" 
d="M215 281q-68 0 -113 41t-49 108h99q-1 -27 16 -43t46 -16q28 0 44.5 17t17.5 45q0 29 -18 47t-47 18q-44 0 -58 -27h-91l5 238h288l1 -93h-196l-2 -54q31 20 72 20q61 -1 101 -43t40 -104q1 -68 -43.5 -112t-112.5 -42z" />
    <glyph glyph-name="six.numr" horiz-adv-x="440" 
d="M229 279q-82 -1 -129 57.5t-45 157.5q2 98 50.5 158t124.5 60q59 0 99 -36.5t51 -97.5h-95q-13 45 -57 45q-30 0 -49 -23t-25 -56q37 30 90 30q61 -1 101 -42t40 -102q0 -66 -44 -109t-112 -42zM227 367q28 -1 45 16.5t17 44.5q0 26 -17 43t-44 17q-28 0 -46 -17.5
t-17 -43.5q0 -26 17.5 -43t44.5 -17z" />
    <glyph glyph-name="seven.numr" horiz-adv-x="374" 
d="M82 287l156 330h-184v90h284l1 -94l-151 -326h-106z" />
    <glyph glyph-name="eight.numr" horiz-adv-x="442" 
d="M220 279q-71 0 -118 38t-47 96q0 61 54 92q-47 31 -47 88q0 52 44.5 86t113.5 34q70 0 114.5 -33.5t44.5 -86.5q0 -58 -48 -88q56 -32 56 -92q0 -58 -47.5 -96t-119.5 -38zM220 537q26 0 43.5 14t17.5 34q0 19 -17 31t-44 12q-25 0 -42.5 -12.5t-17.5 -30.5
q0 -20 17.5 -34t42.5 -14zM220 364q31 0 50 14t19 36q0 25 -18.5 39.5t-50.5 14.5q-30 0 -48.5 -14.5t-18.5 -39.5q0 -22 18.5 -36t48.5 -14z" />
    <glyph glyph-name="nine.numr" horiz-adv-x="440" 
d="M212 279q-59 0 -99.5 37t-51.5 99h96q6 -22 22 -34.5t36 -12.5q38 0 60.5 29.5t22.5 58.5q-10 -15 -38.5 -26.5t-62.5 -10.5q-61 0 -101.5 41t-40.5 103q0 66 43.5 107.5t112.5 42.5q81 1 127.5 -56.5t46.5 -158.5q0 -97 -48.5 -158t-124.5 -61zM214 502q25 0 42.5 18
t17.5 44t-17.5 44t-42.5 18q-26 0 -44 -18t-18 -44t18 -44t44 -18z" />
    <glyph glyph-name="ampersand.ss01" horiz-adv-x="760" 
d="M726 0l-160 -1l-69 67q-80 -74 -201 -74q-107 0 -178.5 57.5t-71.5 151.5q0 82 58 161h85q-42 42 -63.5 79.5t-21.5 82.5q0 79 61 134.5t158 55.5q98 0 159 -55.5t61 -133.5q0 -75 -85 -171h-94l19 -19l102 -100q56 76 97 144h137q-97 -155 -149 -226zM323 606
q-37 0 -63 -21.5t-26 -53.5q0 -44 102 -148q80 86 80 134q0 38 -26.5 63.5t-66.5 25.5zM299 100q63 0 113 47l-188 181q-51 -58 -51 -113q0 -56 36 -85.5t90 -29.5z" />
    <glyph glyph-name="brevecombcy" horiz-adv-x="0" 
 />
    <glyph glyph-name="newGlyph" horiz-adv-x="600" 
 />
    </font>
</defs>
</svg>
